<?xml version="1.0" encoding="UTF-8"?>
<svg id="Layer_2" data-name="Layer 2" xmlns="http://www.w3.org/2000/svg" viewBox="0 0 1127 205">
  <defs>
    <style>
      .cls-1 {
        fill: none;
        stroke: #ff0043;
        stroke-width: 2px;
      }
    </style>
  </defs>
  <path class="cls-1" d="M23.34,41.88v121.5c0,16.65,3.64,19.25,9.89,19.25s9.63-2.6,9.63-19.25v-46.05h22.37v48.39c0,26.02-10.67,39.02-32,39.02S1.22,192,1.22,165.98V39.28C1.22,13.27,11.63,.52,32.96,.52s32.26,12.49,32.26,38.5v46.31h-22.37V41.88c0-16.65-3.38-19.51-9.89-19.51s-9.63,2.86-9.63,19.51Z"/>
  <path class="cls-1" d="M101.38,3.12V87.67h20.29V3.12h22.11V201.88h-22.11V110.31h-20.29v91.58h-22.63V3.12h22.63Z"/>
  <path class="cls-1" d="M164.08,3.12h47.35l11.71,198.76h-22.63l-3.12-62.44h-18.73l-3.12,62.44h-23.15L164.08,3.12Zm15.35,114.21h16.65l-4.42-93.4h-7.54l-4.68,93.4Z"/>
  <path class="cls-1" d="M309.51,201.88V79.09l-16.65,122.8h-22.89l-16.91-123.32v123.32h-21.33V3.12h30.96l18.99,138.93L299.89,3.12h30.7V201.88h-21.07Z"/>
  <path class="cls-1" d="M408.11,56.19c0,38.24-2.08,61.14-34.86,61.14h-7.28v84.55h-22.37V4.42c12.23-1.56,21.33-2.34,27.06-2.34,35.9,0,37.46,15.35,37.46,54.11Zm-42.15-31.74V95.74h4.68c12.23,0,14.57-14.57,14.57-37.72s-2.34-34.08-13.27-34.08c-1.82,0-4.16,.26-5.98,.52Z"/>
  <path class="cls-1" d="M442.71,3.12V201.88h-22.63V3.12h22.63Z"/>
  <path class="cls-1" d="M520.24,39.02v126.7c0,26.02-10.67,39.02-32,39.02s-32-12.75-32-38.76V39.28c0-26.02,10.41-38.76,31.74-38.76s32.26,12.49,32.26,38.5Zm-41.89,2.86v121.5c0,16.65,3.64,19.25,9.89,19.25s9.63-2.6,9.63-19.25V41.88c0-16.65-3.38-19.51-9.89-19.51s-9.63,2.86-9.63,19.51Z"/>
  <path class="cls-1" d="M533.77,3.12h22.11l24.46,119.67V3.12h20.81V201.88h-22.63l-23.94-123.32v123.32h-20.81V3.12Z"/>
  <path class="cls-1" d="M614.67,165.72v-37.2h21.85v34.86c0,16.65,3.9,19.25,10.15,19.25s10.67-2.6,10.67-19.25v-23.41c0-40.85-42.67-27.58-42.67-78.83v-21.85c0-26.02,9.63-38.76,30.96-38.76s31.48,12.49,31.48,38.5v32.26h-22.11v-29.4c0-16.65-2.86-19.51-9.37-19.51s-9.11,2.86-9.11,19.51v15.87c0,40.85,42.67,23.41,42.67,78.31v29.92c0,26.02-10.93,38.76-32.52,38.76s-32-13.01-32-39.02Z"/>
  <path class="cls-1" d="M752.04,3.12V180.03h23.67v21.85h-46.31V3.12h22.63Z"/>
  <path class="cls-1" d="M835.81,3.12V25.23h-30.96v57.24h24.2v22.63h-24.2v74.93h31.22v21.85h-53.59V3.12h53.33Z"/>
  <path class="cls-1" d="M853.24,3.12h47.35l11.71,198.76h-22.63l-3.12-62.44h-18.73l-3.12,62.44h-23.15L853.24,3.12Zm15.35,114.21h16.65l-4.42-93.4h-7.54l-4.68,93.4Z"/>
  <path class="cls-1" d="M942.21,41.88v118.63c0,16.65,3.64,19.51,9.89,19.51,4.16,0,7.28-1.56,9.89-5.2v-64h-6.24v-20.03h28.36v111.09h-17.95l-1.82-9.63c-4.16,6.5-10.15,9.63-18.47,9.63-17.17,0-25.76-12.75-25.76-38.5V39.28c0-26.02,10.41-38.76,31.74-38.76s32.26,12.49,32.26,38.5v20.03h-22.11v-17.17c0-16.65-3.64-19.51-10.15-19.51s-9.63,2.86-9.63,19.51Z"/>
  <path class="cls-1" d="M996.84,165.98V3.64h22.11V163.38c0,16.65,3.64,19.25,9.89,19.25s9.63-2.6,9.63-19.25V3.64h22.37V165.72c0,26.02-10.67,39.02-32,39.02s-32-12.75-32-38.76Z"/>
  <path class="cls-1" d="M1127.18,3.12V25.23h-30.96v57.24h24.2v22.63h-24.2v74.93h31.22v21.85h-53.59V3.12h53.33Z"/>
</svg>