<?xml version="1.0" encoding="UTF-8"?>
<svg id="b" data-name="Layer 2" xmlns="http://www.w3.org/2000/svg" viewBox="0 0 840.5 1070.5">
  <defs>
    <style>
      .c {
        fill: #000923;
      }
    </style>
  </defs>
  <path class="c" d="M12.75,6.62V1061.17H827.75V6.62H12.75ZM199.85,184.68V11.62h129.17V76.21h182.46V11.62h129.17V184.68H199.85ZM334.02,11.62h172.46v59.58h-172.46V11.62Zm-139.17,0V189.68h136.6c15.06,36.08,49.86,59.32,89.05,59.32s73.99-23.24,89.05-59.32h136.1V11.62h177.09V532.75h-298.78c-1.46-56.36-47.76-101.75-104.46-101.75s-103,45.39-104.46,101.75H17.75V11.62H194.85ZM503.98,190c-14.77,32.93-47.14,54-83.48,54s-68.72-21.07-83.48-54h166.97Zm-183.95,342.75c1.46-53.6,45.52-96.75,99.46-96.75s98,43.15,99.46,96.75h-198.92Zm198.93,5c-1.2,53.83-45.36,97.25-99.47,97.25s-98.27-43.42-99.47-97.25h198.94Zm121.68,345.19v172.81h-129.17v-64.33h-182.46v64.33H199.85v-172.81h440.8Zm-304.28-5c14.7-33.11,47.16-54.32,83.62-54.32s68.92,21.21,83.62,54.32h-167.25Zm170.11,177.81h-172.46v-59.33h172.46v59.33Zm139.17,.42v-178.23h-136.6c-15.06-36.08-49.86-59.32-89.05-59.32s-73.99,23.24-89.05,59.32H194.85v178.23H17.75V537.75H315.03c1.2,56.59,47.6,102.25,104.47,102.25s103.27-45.66,104.47-102.25h298.77v518.42h-177.09Z"/>
</svg>