<?xml version="1.0" encoding="UTF-8"?>
<svg id="a" data-name="Layer 1" xmlns="http://www.w3.org/2000/svg" viewBox="0 0 1086.5 928">
  <defs>
    <style>
      .c {
        fill: #fff;
      }
    </style>
  </defs>
  <path class="c" d="M681.97,1.22c52.1,13.68,104.2,27.35,156.31,41.03,7.38,1.94,14.09,5.83,19.44,11.27l225.69,229.65c4.07,4.14,4.04,10.79-.06,14.9l-150.04,150.04c-4.17,4.17-10.95,4.13-15.06-.1l-68.69-70.6V916.95c0,5.84-4.74,10.58-10.58,10.58H249.09c-5.84,0-10.58-4.74-10.58-10.58V377.4l-68.69,70.6c-4.11,4.23-10.89,4.27-15.06,.1L4.71,298.07c-4.11-4.11-4.14-10.75-.06-14.9L230.34,53.52c5.35-5.44,12.06-9.33,19.44-11.27,52.1-13.68,104.2-27.35,156.31-41.03,1.08-.28,2.23-.12,3.19,.45,20.99,12.53,69.6,37.51,136.04,37.19,64.97-.32,112.5-24.67,133.47-37.19,.96-.57,2.1-.74,3.19-.45Z"/>
</svg>