<?xml version="1.0" encoding="UTF-8"?>
<svg id="a" data-name="Layer 1" xmlns="http://www.w3.org/2000/svg" viewBox="0 0 1086.5 928">
  <defs>
    <style>
      .c {
        fill: #090926;
      }
    </style>
  </defs>
  <path class="c" d="M403.24,35.05c32.28,17.51,80.46,35.81,140.79,35.81,.48,0,.95,0,1.44,0,59.7-.29,107.38-18.46,139.35-35.81l145.33,38.15c1.8,.47,3.44,1.42,4.74,2.75l210.81,214.51-119.67,119.67-53.55-55.04-54.94-56.46V895.53H270.51V298.62l-54.94,56.46-53.55,55.04-119.67-119.67L253.16,75.95c1.3-1.33,2.94-2.28,4.74-2.75l4.81-1.26,140.52-36.89m3.9-33.97c-.35,0-.71,.05-1.06,.14-52.1,13.68-104.2,27.35-156.31,41.03-7.38,1.94-14.09,5.83-19.44,11.27L4.65,283.17c-4.07,4.14-4.04,10.79,.06,14.9l150.04,150.04c2.07,2.07,4.77,3.1,7.48,3.1s5.51-1.07,7.58-3.2l68.69-70.6V916.95c0,5.84,4.74,10.58,10.58,10.58H838.97c5.84,0,10.58-4.74,10.58-10.58V377.4l68.69,70.6c2.08,2.13,4.83,3.2,7.58,3.2s5.41-1.03,7.48-3.1l150.04-150.04c4.11-4.11,4.14-10.75,.06-14.9L857.72,53.52c-5.35-5.44-12.06-9.33-19.44-11.27-52.1-13.68-104.2-27.35-156.31-41.03-.35-.09-.7-.14-1.06-.14-.74,0-1.48,.2-2.13,.59-20.97,12.52-68.5,36.87-133.47,37.19-.43,0-.85,0-1.28,0-65.78,0-113.9-24.74-134.76-37.19-.65-.39-1.39-.59-2.13-.59h0Z"/>
</svg>