<?xml version="1.0" encoding="UTF-8"?>
<svg class="uclball" id="Layer_1" data-name="Layer 1" xmlns="http://www.w3.org/2000/svg" viewBox="0 0 101 95">
  <path class="cls-1" d="M85.86,57.32c-.12,.23-.35,.39-.62,.42-6.12,.67-12.63-.13-15.13-.51-4.19-3.97-8.72-8.39-12.06-12.25-.34-.4-.36-.96-.04-1.38,4.76-6.31,9.13-11.31,10.97-13.29,5.27-1.09,10.53-2.06,14.07-2.19,.27-.01,.52,.11,.68,.31,4.57,6.04,7.85,11.83,8.9,13.95-2.1,5.36-4.63,10.77-6.77,14.94Zm-5.84,10.22c-3.37,5.36-5.94,8.6-6.76,9.58-1.12,1.49-3.96,5.39-8.37,9.33-.28,.25-.65,.4-1.04,.41-5.53,.22-10.67-.15-12.67-.56-1.7-.67-5.64-2.35-10.3-4.8-.41-.21-.65-.63-.62-1.07,.24-3.43,1.39-8.32,2.41-13.49,2.51-4.18,5.11-8.95,7.81-12.87,.28-.41,.82-.6,1.32-.47,8.08,2.09,15.08,3.68,17.93,4.29,3.9,4.29,7.67,7.3,10.21,9.17,.16,.12,.2,.33,.1,.49Zm-48.86,7.45c-.41,.24-.93,.23-1.32-.04-3.52-2.36-7.71-5.38-11.21-8.48-2.06-3.34-3.65-7.62-4.76-11.27-.07-.23-.02-.49,.15-.68,3.92-4.58,8.63-8.2,10.59-9.58,4.44,1.82,9.53,3.42,13.99,4.83,.46,.14,.78,.53,.82,.98,.63,7.53,2.08,13.61,2.47,15.94-1.66,1.69-6.01,5.51-10.72,8.29ZM11.63,45.38c-.58-3.55-.96-7.28-1.01-8.99-.1-3.95,.56-7.44,1.33-10.68,.13-.53,.42-1.01,.84-1.38,2.23-1.94,6.26-5.35,8.8-6.9,2.4-1.46,9.06-3.5,11.8-4.26,.53-.15,1.1,.08,1.37,.53,.33,.55,.68,1.1,1.04,1.64,2.16,3.2,4.54,5.95,5.55,7.14-1.33,5.01-1.9,10.64-2.15,15.38-.02,.44-.32,.83-.76,1-6.95,2.57-12.2,4.59-13.96,5.36-4.77,.19-9.32,.96-12.39,1.47-.22,.04-.42-.1-.46-.31ZM46.66,10.94c.19-.28,.5-.47,.85-.51,7.15-.9,13.68-1.03,16.19-.96,4.57,2.89,9.04,6.7,12.61,10.31,.25,.25,.29,.63,.09,.93-2.54,3.78-6.25,7.41-7.87,8.99-6.03,1.35-12.42,3.33-17.61,4.94-.5,.16-1.06-.02-1.36-.44-3.94-5.43-6.44-10.08-7.42-11.81,1.06-4.53,2.55-8.56,4.52-11.45Zm47.73,44.56c-.13,.05-.27-.03-.28-.16-.3-5.57-.84-10.99-1.12-12.97,.02-4.81-.82-9.81-1.66-13.49-.03-.13,.09-.25,.24-.23,4.8,.93,6.34,2.63,6.34,2.63-2.54-5.4-6.2-9.48-10.17-12.55-3.4-6.76-7.31-9.88-7.31-9.88,.32,1.49,.1,3.18-.46,4.93-.04,.11-.17,.16-.28,.11-6.52-3.02-13.25-4.41-15.85-4.75-3.89-1.79-8.14-2.98-11.59-3.88-.09-.02-.12-.14-.04-.2C56.77,1.46,60.99,.54,60.99,.54c-7.47-.28-13.89,1-19.27,2.96-8.03-.61-13.14,.71-13.14,.71,0,0,2.22,2.52,3.08,3.92,.1,.17,.05,.39-.12,.5-5.05,3.32-8.67,6.97-10.1,8.49-1.59,.2-4.35,.57-6.76,1.13-.1,.02-.18-.07-.14-.16,2.41-5.45,5.04-8.46,5.04-8.46,0,0-15.5,10.44-18.43,29.2,0,0,1.28-3.33,5.59-8.37,.06-.07,.17-.05,.2,.02,1.22,2.57,2.62,4.85,3.32,5.9-2.37,3.62-4.01,7.58-5.02,10.81-.03,.11-.12,.2-.24,.24-3.59,1.29-4.5,2.53-4.5,2.53,.56,1.81,1.65,3.57,3.04,5.23,.12,.14,.18,.32,.17,.51-.38,8.01,2.34,13.28,2.34,13.28,.61-2.8,1.82-5.51,3.34-8.06,.06-.1,.2-.13,.3-.05,3.54,2.67,7.21,5,8.67,5.83,.75,1.82,2.9,6.54,5.77,11.38,.06,.1,.01,.23-.1,.27-3.44,1.19-6.97,1.73-10.2,.98,0,0,3.9,4.61,15.94,6.58,3.34,3.74,7.4,6.84,12.15,7.92,0,0-1.39-1.45-1.74-6.86,0-.11,.09-.2,.2-.2,2.97,.04,7,.1,10.69-.15,1.31,.98,4.16,3.13,6.95,4.49,.14,.07,.15,.25,.01,.33-4.89,2.81-8.15,3.05-8.15,3.05,22.17,.45,35.48-13.26,35.48-13.26-3.65,2.28-7.87,3.69-12.06,4.54-.14,.03-.27-.09-.24-.22,.78-3.58,.56-7.03,.51-8.25,5.26-1.24,9.85-3.47,13.24-5.74,.07-.05,.16-.05,.23,0,1.41,.93,2.62,1.98,3.83,3.72,0,0,2.3-3.09,3.09-10.24,5.69-7.05,6.54-14.27,6.54-14.27-1.43,2.12-3.59,3.65-6.11,4.74Z"/>
</svg>