<?xml version="1.0" encoding="UTF-8"?>
<svg id="a" data-name="Layer 1" xmlns="http://www.w3.org/2000/svg" viewBox="0 0 50 50">
  <defs>
    <style>
      .b, .c {
        fill: #000923;
      }

      .d {
        fill: #000923;
      }

      .e {
        fill: #fff;
        stroke: #fff;
        stroke-width: 6.59px;
      }

      .c {
        stroke: #000923;
        stroke-width: 8.23px;
      }
    </style>
  </defs>
  <path class="c" d="M5.57,25C5.57,14.27,14.27,5.57,25,5.57s19.43,8.7,19.43,19.43-8.7,19.43-19.43,19.43S5.57,35.73,5.57,25Z"/>
  <path class="e" d="M6.59,25C6.59,14.83,14.83,6.59,25,6.59s18.41,8.24,18.41,18.41-8.24,18.41-18.41,18.41S6.59,35.17,6.59,25Z"/>
  <path class="d" d="M24.99,5.32C14.12,5.32,5.32,14.14,5.32,25.01s8.8,19.67,19.67,19.67,19.69-8.8,19.69-19.67S35.86,5.32,24.99,5.32Zm1.35,1.27l1.5,.23,.45,1.35c.08,.24,.13,.49,.16,.72l.02,.02c.09-.19,.31-.54,.41-.68l.8-1.11,1.45,.23-2.23,2.73-.27,1.78-1.33-.21,.29-1.78-1.25-3.28Zm-2.58,.12l2.25,4.61-1.41,.16-.39-.96-1.8,.21-.21,1.02-1.31,.16,1.19-5,1.68-.2Zm-.78,1.07c-.02,.27-.07,.59-.12,.8l-.23,1.17,1.17-.14-.51-1.09c-.13-.28-.23-.56-.27-.74h-.04Zm9.34,.1l2.99,1.56-.47,.88-1.84-.96-.41,.8,1.72,.9-.47,.88-1.72-.9-.45,.84,1.89,1-.45,.88-3.05-1.6,2.25-4.28Zm-14.71,.31c.4-.05,.84,.06,1.13,.59,.44,.79-.05,1.23-.23,1.41l.02,.04c.38-.15,1.02-.26,1.46,.53,.64,1.13-.58,1.82-1.02,2.07l-1.74,.98-2.36-4.24,1.78-1c.18-.1,.56-.32,.96-.37Zm-.2,1.11s-.09,0-.14,.02c-.07,.02-.13,.05-.21,.1l-.63,.35,.47,.82,.61-.35c.29-.16,.39-.38,.23-.66-.1-.18-.2-.27-.33-.27Zm19.96,1.62l1.5,1.64c.25,.27,1.11,1.18,.1,2.11-.45,.41-.95,.57-1.52,.31l-.84,2.25-1-1.09,.82-1.84-.35-.37-1.37,1.25-.9-.98,3.55-3.28Zm-18.93,.02c-.13-.02-.28,.02-.45,.12l-.62,.35,.51,.92,.68-.37c.3-.17,.39-.46,.23-.74-.1-.18-.22-.26-.35-.27Zm19.12,1.58l-.78,.72,.47,.51c.11,.13,.39,.43,.8,.06,.2-.19,.28-.46-.02-.78l-.47-.51Zm-12.58,.16c6.8,0,12.32,5.53,12.32,12.32s-5.53,12.3-12.32,12.3-12.3-5.5-12.3-12.3,5.51-12.32,12.3-12.32Zm-13.59,.37c.3-.02,.58,.04,.82,.14l-.45,1.15c-.23-.1-.7-.25-1.02,.25-.19,.3-.29,.93,.78,1.6,.67,.43,1.43,.7,1.84,.06,.29-.46-.02-.86-.23-1.11l.88-.88c.7,.75,.82,1.54,.23,2.46-.66,1.04-1.84,1.66-3.42,.66-1.58-1-1.47-2.41-.86-3.38,.42-.66,.93-.92,1.43-.96Zm30.16,3.36l.51,1.58-1.88,1.86c-.23,.23-.53,.5-.86,.72l.02,.06c.2-.11,.53-.23,.96-.37l2.25-.74,.39,1.19-4.61,1.48-.53-1.58,1.97-1.95c.29-.29,.63-.55,.78-.62l-.02-.04c-.24,.09-.43,.19-.7,.27l-2.52,.8-.37-1.17,4.61-1.48Zm-33.36,1.09l.94,.35-.68,1.91,.96,.35,.66-1.88,.94,.33-.66,1.88,1.72,.62-.45,1.25-4.55-1.64,1.13-3.18Zm3.59,11.39l.94,1.78-1.84,1.78c-.1,.1-.38,.33-.61,.49l.02,.04c.22-.08,.64-.18,.84-.21l2.44-.43,.9,1.74-4.3,2.23-.59-1.13,2.46-1.29c.32-.17,.81-.39,1-.45l-.04-.08c-.18,.06-.77,.19-1.13,.25l-2.83,.53-.45-.86,2.25-2.23c.22-.21,.53-.47,.66-.59l-.04-.06c-.16,.1-.7,.42-1.05,.61l-2.34,1.23-.59-1.09,4.3-2.25Zm26.64,.04l4.26,2.32-.8,1.46-2.75-.08c-.4-.01-.83-.08-1-.14l-.02,.04c.23,.11,.43,.18,.68,.31l2.32,1.27-.59,1.09-4.26-2.3,.8-1.46,2.64,.08c.33,0,.72,.04,1.11,.12l.02-.06c-.22-.07-.52-.22-.92-.43l-2.09-1.13,.59-1.09Zm-2.71,4.75l.66,.72-1.5,1.41,.61,.64,1.43-1.31,.66,.72-1.41,1.33,.64,.7,1.56-1.45,.68,.72-2.52,2.34-3.3-3.55,2.48-2.29Zm-20.68,.96l1.05,.8-1.88,2.42c-.31,.4-.4,.83,.04,1.17,.47,.37,.87,.15,1.17-.23l1.88-2.4,1.02,.78-1.88,2.4c-.74,.96-1.75,1.05-2.79,.23-.88-.68-1.35-1.64-.47-2.77l1.86-2.4Zm1.35,1.02l.66,.53-1.19,.82,.53-1.35Zm16.02,.76l2.29,4.26-1.17,.64-.98-1.8-1.41,.74,.96,1.8-1.17,.62-2.29-4.26,1.17-.62,.86,1.58,1.41-.74-.84-1.6,1.17-.62Zm-13.12,1.17l1.58,.49,.43,2.62c.06,.32,.1,.71,.1,1.11l.06,.02c.03-.23,.12-.57,.25-1l.7-2.27,1.17,.37-1.45,4.61-1.58-.49-.47-2.73c-.07-.4-.06-.83-.04-1l-.06-.02c-.06,.24-.09,.47-.18,.74l-.8,2.52-1.17-.37,1.45-4.61Zm7.21,.98c.95-.06,1.52,.51,1.76,1.05l-1.13,.51c-.1-.23-.32-.66-.9-.53-.35,.08-.84,.45-.55,1.68,.18,.77,.51,1.5,1.25,1.33,.53-.12,.58-.62,.61-.96h1.25c-.02,1.02-.48,1.67-1.54,1.91-1.2,.28-2.5-.1-2.93-1.91-.43-1.82,.64-2.76,1.76-3.03,.15-.04,.29-.05,.43-.06Z"/>
  <path class="b" d="M25,13.65c-4.44,0-8.29,2.55-10.16,6.27l1.7,2.91,.45-5.29,2.52,4.32,.43-5.27,2.54,4.32,.45-5.27,2.52,4.32,.45-5.29,2.52,4.34,.39-4.69c-1.19-.42-2.47-.64-3.81-.64Zm3.42,5.33l-.45,5.29,2.52,4.3,.43-5.27-2.5-4.32Zm-.45,5.29l-2.52-4.32-.45,5.27-2.52-4.32-.45,5.27-2.52-4.3-.45,5.27,2.52,4.32,.43-5.29,2.54,4.34,.45-5.27,2.52,4.3,.45-5.27Zm-3.42,6.25l-.45,5.29-2.52-4.32-.35,4.2c1.18,.42,2.45,.64,3.77,.64,4.34,0,8.11-2.43,10.02-6.02l-1.56-2.71-.45,5.29-2.52-4.32-.45,5.29-2.52-4.32-.45,5.29-2.52-4.34Zm8.91-2.91l.43-5.29-2.5-4.3-.45,5.27,2.52,4.32Zm-14.39-.45l-2.52-4.32-.43,5.29,2.5,4.3,.45-5.27Zm10.27-12.66l2.05,3.5,.18-2.27c-.69-.49-1.43-.9-2.23-1.23Zm4.9,3.89l-.33,3.95,2.36,4.04c.06-.46,.08-.92,.08-1.39,0-2.46-.78-4.74-2.11-6.6Zm-20.55,5.61c-.03,.33-.04,.66-.04,1,0,2.48,.8,4.78,2.15,6.64l.29-3.52-2.4-4.12Zm4.92,8.46l-.16,1.82c.57,.4,1.18,.74,1.82,1.04l-1.66-2.85Z"/>
</svg>