<?xml version="1.0" encoding="UTF-8"?>
<svg id="a" data-name="Layer 1" xmlns="http://www.w3.org/2000/svg" xmlns:xlink="http://www.w3.org/1999/xlink" viewBox="0 0 49.97 49.97">
  <defs>
    <style>
      .c {
        fill: none;
      }

      .d {
        fill: #fff;
      }

      .d, .e {
        fill-rule: evenodd;
      }

      .e {
        fill: #000923;
      }

      .f {
        clip-path: url(#b);
      }
    </style>
    <clipPath id="b">
      <rect class="c" x="-.02" y=".48" width="50" height="49"/>
    </clipPath>
  </defs>
  <g class="f">
    <g>
      <path class="d" d="M25.33,15.92c9.17,0,16.64,7.46,16.64,16.6s-7.48,16.6-16.64,16.6-16.64-7.46-16.64-16.6S16.16,15.92,25.33,15.92Z"/>
      <path class="e" d="M8.92,32.52c0-9.03,7.36-16.37,16.41-16.37s16.41,7.34,16.41,16.37-7.36,16.37-16.41,16.37-16.41-7.34-16.41-16.37Z"/>
      <path class="d" d="M11.17,32.52c0,7.79,6.35,14.13,14.17,14.13s14.17-6.34,14.17-14.13-6.35-14.13-14.17-14.13c-7.81,0-14.17,6.34-14.17,14.13Z"/>
      <path class="d" d="M11.4,32.52c0-7.66,6.25-13.9,13.93-13.9s13.93,6.23,13.93,13.9-6.25,13.9-13.93,13.9-13.93-6.23-13.93-13.9Z"/>
      <path class="d" d="M12.18,32.52c0,7.24,5.9,13.12,13.16,13.12s13.15-5.89,13.15-13.12-5.9-13.12-13.16-13.12-13.15,5.89-13.15,13.12Z"/>
      <path class="d" d="M12.42,32.52c0-7.1,5.79-12.88,12.91-12.88s12.91,5.78,12.91,12.88-5.79,12.88-12.91,12.88-12.91-5.78-12.91-12.88Z"/>
      <path class="d" d="M38.25,32.63s0-.07,0-.11c0-.04,0-.08,0-.13h-11.83l11.6-2.3c-.01-.08-.03-.15-.05-.23l-11.51,2.28,10.84-4.48c-.03-.07-.06-.14-.09-.21l-10.84,4.48,9.75-6.5c-.04-.06-.09-.13-.13-.19l-9.75,6.5,8.28-8.26c-.05-.06-.11-.11-.17-.16l-8.28,8.26,6.51-9.71c-.06-.04-.13-.09-.19-.13l-6.51,9.71,4.23-10.2-.22-.09-4.23,10.2,1.93-9.69-.23-.05-1.89,9.5v-10.01h-.31v10.01l-1.96-9.81-.23,.05,2,10.01-4.34-10.45-.22,.09,4.34,10.45-6.5-9.71c-.07,.04-.13,.09-.19,.13l6.5,9.71-8.28-8.26c-.06,.05-.11,.11-.17,.16l8.28,8.26-9.74-6.49c-.04,.06-.09,.13-.13,.19l9.74,6.49-10.83-4.47c-.03,.07-.06,.14-.09,.21l10.83,4.47-11.5-2.28c-.02,.08-.03,.15-.05,.23l11.59,2.3H12.41s0,.08,0,.13c0,.04,0,.07,0,.11h11.64l-11.42,2.27c.01,.08,.03,.15,.04,.23l11.51-2.28-10.85,4.48c.03,.07,.06,.14,.09,.22l10.85-4.48-9.77,6.51c.04,.06,.09,.13,.13,.19l9.77-6.51-8.31,8.29c.05,.06,.11,.11,.16,.16l8.31-8.29-6.53,9.75c.06,.04,.13,.09,.19,.13l6.53-9.75-4.5,10.84c.07,.03,.14,.06,.22,.09l4.85-11.67,4.85,11.67c.07-.03,.14-.06,.22-.09l-4.5-10.84,6.53,9.75c.07-.04,.13-.09,.19-.13l-6.53-9.75,8.31,8.29c.06-.05,.11-.11,.16-.16l-8.31-8.29,9.77,6.51c.04-.06,.09-.13,.13-.19l-9.77-6.51,10.86,4.49c.03-.07,.06-.14,.09-.22l-10.86-4.49,11.52,2.29c.02-.08,.03-.15,.04-.23l-11.43-2.27h11.65Z"/>
      <path class="e" d="M18.98,18.21c-.87-.21-1.61-.31-2.11-.25-1.48,.19-3.25,.92-5.08,1.8-1.18,.57-2.63,1.31-5.55,3.02l2.72,.2-.28,2.26c1.61-1.05,3.76-2.53,5.75-3.38,.84-.36,1.65-.61,2.38-.66,.55-.04,1.02,.1,1.56,.23,2.37,.59,4.65,1.27,6.97,1.27v-3.33c-2.21,0-4.56-.73-6.35-1.17Z"/>
      <path class="d" d="M35.4,24.29c-3.44,1.29-6.93,1.97-10.07,1.97s-6.62-.68-10.07-1.97l-.13-.05-.03,.14c-1.76,9.56,1.66,17.86,10.15,24.66l.07,.06,.07-.06c8.49-6.8,11.91-15.09,10.15-24.66l-.03-.14-.13,.05Z"/>
      <path class="d" d="M25.33,26.49c3.13,0,6.59-.67,10.01-1.94,.28,1.56,.42,3.09,.42,4.59,0,7.48-3.5,14.07-10.44,19.65-6.94-5.58-10.44-12.17-10.44-19.65,0-1.49,.14-3.02,.42-4.59,3.43,1.27,6.89,1.94,10.01,1.94Z"/>
      <path class="e" d="M25.33,47.6V27.68c-3.26,0-6.18-.53-9.13-1.53-1.11,8.48,2.31,15.28,9.13,21.45Z"/>
      <path class="e" d="M25.32,30.18c3.14,0,5.69,2.55,5.69,5.68s-2.56,5.68-5.69,5.68-5.69-2.55-5.69-5.68,2.56-5.68,5.69-5.68Z"/>
      <path class="d" d="M19.51,35.86c0,3.2,2.61,5.8,5.81,5.8s5.81-2.6,5.81-5.8-2.61-5.8-5.81-5.8c-3.2,0-5.81,2.6-5.81,5.8Zm.23,0c0-3.07,2.5-5.56,5.58-5.56s5.58,2.49,5.58,5.56-2.5,5.56-5.58,5.56-5.58-2.49-5.58-5.56Z"/>
      <path class="d" d="M19.53,35.75c.35,.65,.94,1.28,1.72,1.84l.14-.19c-.75-.54-1.32-1.15-1.65-1.76l-.21,.11Z"/>
      <path class="d" d="M22.27,36.84l.18-.15c-1.31-1.54-1.02-4.14,.66-5.94l-.17-.16c-1.75,1.88-2.05,4.62-.66,6.25Z"/>
      <path class="d" d="M24.86,33.42l.22-.07c-.43-1.41,0-2.29,1.42-2.95l-.1-.21c-1.53,.71-2.01,1.71-1.54,3.23Z"/>
      <path class="d" d="M27.83,35.58c1.34,1.38,1.63,3.56,.66,4.86l.19,.14c1.05-1.41,.75-3.67-.68-5.16l-.17,.16Z"/>
      <path class="d" d="M29.13,34.15c.99,.82,1.56,2.07,1.52,3.34h.23c.04-1.34-.56-2.66-1.61-3.52l-.15,.18Z"/>
      <path class="d" d="M26,37.06c.94,1.75,.8,3.54-.36,4.35l.13,.19c1.26-.88,1.43-2.79,.43-4.65l-.21,.11Z"/>
      <path class="d" d="M23.82,39.8l-.03,.23c1.03,.15,2.42-.31,2.98-1.48l-.21-.1c-.51,1.07-1.79,1.49-2.74,1.35Z"/>
      <path class="d" d="M34.42,26.04c-1.24,.42-2.42,.74-3.62,.99h-.03s-12.34,12.28-12.34,12.28l.04,.08c.64,1.18,1.41,2.37,2.3,3.52l.08,.1,13.93-13.86v-.05c0-.97-.07-1.97-.2-2.96l-.02-.14-.14,.05Z"/>
      <path class="e" d="M34.35,26.31c.12,.92,.18,1.85,.19,2.75-.07,.07-13.48,13.41-13.67,13.6-.83-1.08-1.55-2.19-2.16-3.3,.12-.12,12.12-12.05,12.17-12.1,1.15-.24,2.29-.55,3.48-.94Z"/>
      <path class="e" d="M21.34,40.49l.33-.32c.13,.12,.26,.17,.41,.18,.14,0,.27-.05,.39-.17,.13-.12,.19-.26,.19-.41,0-.15-.06-.28-.18-.4-.11-.11-.22-.16-.33-.16-.11,0-.28,.06-.51,.18-.01,0-.03,.02-.06,.03-.26,.16-.5,.22-.71,.2-.1-.01-.18-.03-.26-.07-.08-.04-.15-.09-.22-.16-.2-.2-.3-.43-.3-.68,0-.25,.11-.48,.31-.68,.19-.19,.4-.29,.63-.3,.23,0,.45,.08,.65,.26l-.34,.34c-.1-.09-.21-.13-.33-.13-.12,0-.22,.05-.32,.15-.1,.1-.15,.21-.15,.34,0,.13,.05,.24,.15,.34,.04,.04,.07,.06,.12,.08,.04,.02,.09,.03,.14,.03,.1,0,.26-.05,.46-.17,.09-.06,.17-.1,.22-.13,.22-.11,.43-.15,.63-.12,.2,.02,.37,.11,.53,.27,.23,.23,.34,.48,.34,.75,0,.28-.11,.53-.34,.75-.21,.21-.45,.32-.72,.32-.27,0-.51-.11-.73-.32Zm3.84-2.49l-.34,.34-.4-.39,.34-.34,.4,.4Zm2.64-2.63l-1.18,1.18-2.35-2.34,.36-.36,2.02,2.02,.82-.82,.32,.32Zm1.66-1.65l-.34,.34-.4-.4,.34-.34,.4,.4Zm.45-3.17l.12-.11c.19-.19,.29-.35,.32-.48,.03-.13-.02-.26-.14-.38-.11-.11-.22-.15-.35-.13-.12,.02-.26,.1-.41,.25l-.19,.19,.66,.66Zm1.04,1.05l.29-.28c.17-.17,.26-.32,.28-.46,.02-.14-.03-.27-.15-.39-.13-.13-.27-.19-.43-.18-.15,.01-.31,.1-.47,.26l-.29,.28,.77,.76Zm-1.85-2.21c.27-.27,.52-.41,.77-.44,.25-.03,.48,.06,.69,.27,.1,.1,.16,.2,.19,.32,.03,.12,.02,.25-.01,.38,.16-.09,.32-.12,.49-.09,.17,.03,.32,.11,.46,.24,.11,.11,.19,.23,.24,.37,.05,.14,.07,.28,.06,.42-.02,.14-.06,.26-.13,.38-.07,.12-.19,.27-.37,.44l-.58,.58-2.35-2.34,.54-.54Zm4.98-.29l-.34,.34-.4-.39,.34-.34,.4,.4Z"/>
      <path class="d" d="M34.43,26.04c-3.07,1.04-5.96,1.53-9.09,1.53s-6.03-.48-9.1-1.53l-.13-.05-.02,.14c-1.05,8.09,1.86,14.94,9.17,21.55l.08,.07,.08-.07c7.31-6.62,10.22-13.47,9.17-21.55l-.02-.14-.14,.05Zm-18.32,3.23c0-.97,.07-1.96,.19-2.96,3.04,1.02,5.91,1.49,9.03,1.49s5.99-.48,9.03-1.49c.13,1,.19,1.99,.19,2.96,0,6.66-2.98,12.5-9.22,18.18-6.24-5.68-9.22-11.52-9.22-18.18Z"/>
      <path class="e" d="M44.43,22.79c-2.92-1.72-4.38-2.46-5.55-3.02-1.83-.88-3.61-1.61-5.08-1.8-.49-.06-1.23,.04-2.11,.25-1.8,.44-4.14,1.17-6.35,1.17v3.33c2.33,0,4.61-.67,6.97-1.27,.54-.14,1.01-.28,1.56-.23,.73,.06,1.54,.31,2.38,.66,1.99,.85,4.14,2.32,5.75,3.38l-.28-2.26,2.72-.2Z"/>
      <path class="d" d="M31.66,18.1l-1.01,.26c-1.65,.43-3.52,.91-5.32,.91s-3.67-.48-5.32-.91l-1.01-.26c-.94-.23-1.66-.32-2.15-.25-1.28,.17-2.86,.73-5.12,1.81-1.11,.53-2.54,1.25-5.56,3.03l-.32,.19s2.74,.21,2.96,.22c-.03,.22-.3,2.39-.3,2.39l.77-.51c1.52-1,3.42-2.25,5.17-3,.9-.38,1.68-.6,2.34-.65,.47-.04,.88,.07,1.35,.19l1.07,.27c2.09,.53,4.06,1.04,6.1,1.04s4.02-.51,6.1-1.04l1.07-.27c.47-.12,.88-.23,1.35-.19,.66,.05,1.45,.27,2.34,.65,1.76,.75,3.65,2,5.17,3l.77,.51s-.27-2.18-.3-2.39c.22-.02,2.97-.22,2.97-.22l-.32-.19c-3.02-1.78-4.45-2.49-5.56-3.03-2.26-1.09-3.84-1.65-5.12-1.81-.48-.06-1.21,.02-2.15,.25Zm-.95,.48l1-.26c.91-.22,1.61-.31,2.06-.25,1.26,.16,2.81,.72,5.05,1.79,1.06,.51,2.43,1.2,5.22,2.83-.55,.04-2.47,.19-2.47,.19,0,0,.22,1.74,.27,2.13-.16-.11-.35-.23-.35-.23-1.53-1.01-3.43-2.26-5.21-3.02-.93-.4-1.72-.62-2.42-.67-.51-.04-.96,.07-1.43,.19l-1.07,.27c-2.07,.53-4.03,1.03-6.04,1.03s-3.97-.5-6.04-1.03l-1.07-.27c-.47-.12-.92-.23-1.43-.19-.69,.05-1.48,.27-2.42,.67-1.78,.76-3.68,2.01-5.21,3.02,0,0-.19,.12-.35,.23,.05-.4,.27-2.13,.27-2.13,0,0-1.91-.14-2.47-.19,2.79-1.63,4.16-2.32,5.22-2.83,2.23-1.08,3.79-1.63,5.05-1.79,.46-.06,1.15,.02,2.06,.25l1,.26c1.66,.43,3.55,.92,5.38,.92s3.71-.49,5.38-.92Z"/>
      <path class="d" d="M36.66,21.12l-.31-.12,.14-.55s.02-.08,.04-.13c.01-.05,.03-.1,.05-.15-.03,.05-.07,.1-.12,.17-.01,.01-.02,.02-.03,.03l-.39,.5-.22-.09,.06-.63s0-.02,0-.04c0-.09,.02-.15,.03-.21-.02,.04-.04,.09-.07,.13-.02,.04-.05,.09-.07,.13l-.28,.49-.3-.12,.67-1.12,.32,.13-.07,.69s0,.01,0,.02c0,.06-.01,.11-.03,.15,.01-.02,.02-.04,.04-.07,.02-.02,.04-.05,.06-.08l.43-.54,.33,.13-.3,1.27Zm-2.98-2.18l.35,.05-.09,.62c-.01,.09-.02,.16-.02,.2,0,.04,0,.08,0,.1,0,.03,.03,.06,.06,.09,.03,.02,.07,.04,.12,.04,.05,0,.09,0,.13,0,.04-.01,.06-.03,.08-.07,.02-.03,.03-.06,.04-.1,.01-.04,.02-.1,.03-.2v-.09s.09-.54,.09-.54l.35,.05-.1,.68c-.02,.14-.04,.24-.07,.31-.03,.06-.06,.12-.11,.16-.05,.05-.12,.08-.2,.09-.08,.02-.18,.02-.28,0-.11-.02-.2-.04-.27-.08-.07-.04-.13-.08-.16-.14-.03-.05-.05-.11-.06-.18,0-.07,0-.17,.02-.31l.02-.13,.08-.54Zm-2.05,1.75l-.34-1.25,.33-.09,.65,.52s.03,.03,.07,.07c.03,.03,.07,.07,.11,.12-.02-.05-.04-.09-.05-.13-.01-.04-.03-.07-.03-.11l-.17-.62,.33-.09,.34,1.25-.33,.09-.65-.52s-.04-.03-.07-.07c-.03-.03-.07-.07-.11-.12,.02,.05,.04,.1,.05,.14,.01,.04,.03,.07,.03,.11l.17,.62-.33,.09Zm-2.09-.8l.34-.09,.16,.61c.02,.09,.04,.15,.06,.19,.01,.04,.03,.07,.05,.09,.02,.03,.05,.05,.09,.05,.04,0,.08,0,.13,0,.05-.01,.08-.03,.11-.06,.03-.03,.04-.06,.05-.09,0-.03,0-.06,0-.1,0-.04-.02-.1-.04-.19l-.02-.09-.14-.52,.34-.09,.18,.66c.04,.14,.06,.24,.06,.31,0,.07-.01,.13-.04,.19-.03,.06-.08,.12-.15,.16-.07,.05-.16,.08-.26,.11-.11,.03-.2,.04-.28,.03-.08,0-.15-.03-.21-.07-.05-.04-.09-.08-.13-.14-.03-.06-.07-.16-.11-.3l-.03-.13-.14-.53Zm-2.21,1.33c.06,.05,.12,.08,.18,.1,.06,.02,.11,.03,.16,.02,.05,0,.08-.03,.11-.06,.03-.03,.04-.06,.03-.1,0-.04-.03-.07-.06-.09-.03-.02-.09-.03-.19-.04-.13-.01-.23-.04-.29-.08-.06-.04-.1-.11-.12-.21-.02-.12,0-.23,.07-.32,.07-.09,.17-.15,.3-.17,.07-.01,.14-.01,.21,0,.07,0,.13,.03,.19,.05l-.06,.27s-.09-.05-.14-.05c-.04,0-.09-.01-.13,0-.04,0-.07,.02-.1,.05-.02,.02-.03,.05-.03,.08,0,.03,.02,.06,.05,.07,.03,.02,.07,.03,.14,.03,0,0,0,0,.02,0,.15,.01,.25,.04,.3,.08,.04,.03,.07,.06,.09,.1,.02,.04,.04,.09,.05,.14,.02,.14,0,.25-.08,.35-.07,.1-.19,.16-.33,.19-.09,.02-.17,.01-.25,0-.08-.02-.16-.05-.24-.1l.11-.29Zm-1.86-.73l.35-.02,.04,.63c0,.09,.01,.16,.02,.2,0,.04,.02,.07,.03,.1,.02,.03,.04,.06,.08,.07,.03,.02,.08,.02,.12,.02,.05,0,.09-.01,.12-.03,.03-.02,.05-.05,.07-.08,0-.03,.02-.06,.02-.1,0-.04,0-.11,0-.2v-.09s-.04-.54-.04-.54l.35-.02,.05,.68c0,.14,0,.25,0,.32-.01,.07-.04,.13-.07,.18-.04,.06-.1,.1-.17,.13-.07,.03-.17,.05-.28,.06-.11,0-.21,0-.28-.02-.08-.02-.14-.06-.19-.1-.04-.05-.08-.1-.1-.17-.02-.07-.04-.17-.05-.31v-.13s-.05-.55-.05-.55Z"/>
      <path class="d" d="M14.08,21.09l-.51-1.19,.73-.31,.11,.26-.41,.18,.09,.21,.39-.17,.11,.26-.39,.17,.09,.2,.41-.18,.11,.27-.73,.31Zm2.75-.81h-.33s-.05-1.28-.05-1.28h.37c.14-.02,.25-.01,.31,0,.06,.01,.11,.03,.15,.07,.05,.04,.09,.09,.11,.14,.03,.06,.04,.12,.04,.2,0,.08,0,.15-.03,.2-.02,.06-.06,.11-.1,.15-.04,.03-.08,.05-.13,.07-.05,.01-.13,.02-.24,.03h-.06s-.06,0-.06,0v.43Zm-.01-.71h.07c.09,0,.14-.02,.18-.04,.03-.02,.05-.06,.05-.12,0-.05-.02-.09-.05-.11-.03-.02-.09-.03-.18-.03h-.07s.01,.31,.01,.31Zm1.23,.85l.34-1.25,.34,.09-.26,.96,.42,.11-.08,.29-.77-.2Zm1.64-.91l.34,.09-.16,.61c-.02,.09-.04,.15-.05,.19,0,.04,0,.07,0,.1,0,.04,.02,.07,.05,.09,.03,.02,.07,.04,.11,.06,.05,.01,.09,.01,.13,0,.04,0,.07-.03,.09-.05,.02-.02,.03-.05,.05-.09,.02-.04,.03-.1,.06-.19l.02-.09,.14-.52,.34,.09-.18,.66c-.04,.14-.07,.24-.11,.3-.03,.06-.08,.11-.13,.14-.06,.04-.13,.06-.21,.07-.08,0-.18,0-.28-.03-.11-.03-.19-.07-.26-.11-.07-.05-.12-.1-.15-.16-.03-.06-.04-.12-.04-.19,0-.07,.02-.17,.06-.31l.04-.13,.14-.53Zm1.4,1.68l.29-1.26,.36,.08c.14,.03,.24,.06,.29,.09,.05,.03,.1,.06,.13,.1,.04,.04,.06,.1,.07,.16,.01,.06,.01,.12,0,.18-.02,.1-.06,.17-.13,.22-.06,.05-.14,.07-.24,.07l.23,.59-.39-.09-.18-.56-.11,.49-.32-.07Zm.48-.59h.06c.07,.03,.13,.03,.17,.01,.04-.02,.07-.05,.08-.11,.01-.06,0-.11-.02-.15-.03-.03-.08-.06-.15-.08l-.07-.02-.08,.33Zm1.06,.91l.23-1.27,.35,.06-.23,1.27-.35-.06Z"/>
      <path class="e" d="M16.86,19.25h-.08s.01,.33,.01,.33h.08c.09,0,.15-.02,.18-.05,.04-.03,.05-.07,.05-.13,0-.06-.02-.1-.06-.12-.04-.02-.1-.03-.18-.03Zm0,.03c.08,0,.14,0,.17,.03,.03,.02,.05,.05,.05,.1,0,0,0,0,0,0,0,.05-.01,.08-.04,.1-.03,.02-.09,.04-.17,.04,0,0-.04,0-.05,0,0-.02,0-.26,0-.28,.02,0,.06,0,.06,0Z"/>
      <path class="e" d="M21.61,20.27l-.08,.34,.08,.02c.08,.02,.14,.02,.18,0,.04-.02,.07-.06,.09-.12,.02-.07,0-.12-.02-.16-.03-.04-.08-.06-.16-.08l-.08-.02h0Zm.02,.03s.06,.01,.06,.01c.07,.02,.12,.04,.14,.07,.01,.02,.02,.05,.02,.08,0,.02,0,.04,0,.06-.01,.05-.04,.08-.07,.1-.04,.02-.09,.02-.16,0,0,0-.03,0-.05-.01,0-.02,.07-.28,.07-.31Z"/>
      <path class="d" d="M22.66,11.93h0s.01,.01,.01,.01c.09,0,.32-.12,.52-.23,.12-.06,.23-.12,.28-.14v-.03c-.06,.02-.17,.08-.29,.14-.18,.1-.39,.21-.49,.22,0-.38,.12-.61,.46-.9l-.02-.02c-.35,.3-.47,.54-.47,.94Z"/>
      <path class="e" d="M31.2,11.95c-.26,.09-.54,.03-.68-.26-.27,.24-.61,.27-1.06,.1l-1.84-2.5,.28-2.53c.47,.24,.99,.29,1.2,.26,1.39-.14,.22-1.2,2.23-2.12,.72-1.32,1.89-1.77,2.56-1.91,3.33-.66,7.72-.31,11.15-.34l4.38-.04c-.27,.67-1.21,1.08-2.16,1.29-.25,.61-.57,.95-1.34,1.26-.05,.24-.23,.95-1.93,1.55-.36,.98-2.11,1.69-3.7,1.98-.4,.78-1.79,1.03-2.47,.93-.06,.22-.55,.49-.74,.47,.03,.09,.07,.47-.41,.37,.09,.31,.03,.48-.11,.56-.14,.09-.37,.09-.59,.06-.04,.18-.2,.25-.38,.26-.2,0-.43-.07-.57-.14,0,.26-.17,.34-.4,.32-.26-.02-.57-.15-.68-.28-.04,.28-.3,.39-.56,.4-.18,0-.37-.03-.51-.1-.02,.22-.21,.3-.38,.31-.31,0-.69-.28-.75-.47-.09,.27-.3,.47-.54,.56Z"/>
      <path class="d" d="M33.87,2.87c-.53,.1-1.82,.5-2.62,1.93-1.08,.5-1.27,1.06-1.41,1.48-.12,.36-.18,.55-.75,.61-.2,.02-.69-.03-1.13-.25l-.17-.09-.31,2.77,1.9,2.57h.03c.43,.18,.77,.16,1.06-.03,.18,.23,.46,.32,.77,.21,.21-.07,.4-.23,.52-.42,.18,.18,.47,.35,.73,.34,.19,0,.37-.09,.46-.27,.14,.04,.29,.07,.43,.06,.29-.01,.51-.13,.62-.32,.17,.1,.4,.18,.61,.2,.18,.01,.32-.03,.42-.12,.04-.04,.07-.09,.09-.15,.14,.05,.32,.09,.48,.09,.22,0,.37-.1,.45-.25,.25,.02,.45,0,.58-.09,.11-.07,.21-.19,.21-.42,0-.03,0-.07,0-.11,.16,0,.25-.07,.3-.13,.07-.08,.09-.19,.09-.28h0c.23-.06,.54-.24,.67-.44,.71,.07,2.01-.17,2.46-.95,1.47-.28,3.28-.97,3.71-2,1.12-.41,1.77-.93,1.94-1.55,.7-.29,1.06-.63,1.33-1.24,.7-.16,1.86-.54,2.19-1.35l.07-.18-4.58,.04c-.91,0-1.88-.01-2.9-.03-2.72-.05-5.81-.11-8.27,.37Zm-4.75,4.28c.74-.08,.85-.42,.97-.79,.13-.39,.29-.88,1.3-1.34l.04-.02,.02-.04c.74-1.37,1.97-1.74,2.47-1.84,2.43-.48,5.37-.42,8.21-.37,1.03,.02,1.99,.04,2.91,.03,0,0,3.77-.03,4.16-.03-.3,.45-1,.82-1.97,1.03h-.07s-.03,.08-.03,.08c-.25,.6-.57,.9-1.27,1.19l-.06,.03v.07c-.13,.57-.75,1.06-1.86,1.45l-.06,.02-.02,.06c-.34,.91-2.05,1.61-3.6,1.9h-.06s-.03,.07-.03,.07c-.37,.74-1.72,.95-2.33,.86l-.11-.02-.03,.11c-.04,.15-.46,.39-.6,.37l-.21-.02,.07,.2s.02,.13-.02,.18c-.05,.06-.17,.04-.24,.03l-.21-.04,.06,.21c.1,.32-.02,.39-.05,.41-.07,.04-.21,.08-.51,.05l-.12-.02-.03,.11s-.04,.15-.26,.16c-.18,0-.39-.06-.51-.13l-.2-.11v.22c0,.07-.01,.11-.04,.14-.04,.04-.12,.05-.22,.05-.24-.02-.5-.14-.6-.24l-.18-.2-.04,.26c-.04,.24-.29,.29-.44,.29-.15,0-.33-.03-.45-.09l-.17-.08-.02,.19c-.01,.17-.19,.19-.25,.19-.27,0-.59-.25-.63-.38l-.13-.37-.12,.37c-.07,.21-.25,.4-.46,.47-.11,.04-.38,.1-.53-.2l-.07-.15-.13,.11c-.23,.2-.51,.23-.89,.08-.05-.06-1.73-2.35-1.79-2.43,.01-.09,.22-2.01,.26-2.31,.44,.18,.89,.23,1.11,.21Z"/>
      <path class="e" d="M21.49,11.24c-.24,.1-.44,.15-.63,.14-.19,0-.35-.07-.51-.18-.18,.32-.45,.45-.71,.45-.29,0-.53-.19-.66-.48-.17,.25-.54,.68-.92,.67-.15,0-.28-.1-.34-.36-.15,.07-.35,.14-.52,.15-.22,.02-.41-.05-.39-.32-.21,.13-.52,.25-.75,.25-.2,0-.34-.09-.28-.35-.05,.05-.38,.22-.63,.2-.13-.01-.24-.08-.28-.25-.22,.03-.46-.02-.64-.15-.18-.12-.3-.31-.28-.57-.64,.14-.65-.35-.62-.44-.21-.05-.55-.17-.64-.39-.82-.02-1.87-.07-2.44-.77,0,0,.02-.06-.01-.06-1.29-.06-3.12-.72-3.48-1.7-1.53-.57-2.01-1.19-2.14-1.5-.83-.28-1.52-.59-1.7-1.23-1-.16-2.18-.85-2.4-1.57l4.79-.03c3.42-.02,7.81-.38,11.15,.27,.67,.13,2.08,.87,2.8,2.2,1.24,.03,1.62,2.02,2.58,2.04,.35,0,.89-.32,1.33-1.14-.19,.05-.37,.08-.54,.08-.16,0-.31-.03-.46-.07,.78-.35,.73-.95,.74-1.2-.18,.08-.49,.1-.73,.03,.15-.19,.29-.57,.22-.83-.21,.18-.37,.26-.58,.31,.01-.22-.01-.41-.09-.6-.35-.8-1.5-.53-1.48-1.39,.14,.16,.34,.29,.57,.29,.12,0,.24-.04,.34-.15,.06-.07,.08-.15,.08-.23,0-.12-.05-.25-.12-.34-.18-.26-.45-.33-.72-.33-.41,.01-.82,.22-.95,.3,.05-.71,.7-1.03,1.28-1.04,.34,0,.72,.13,.9,.35,.4-.28,.82-.3,1.36-.02,.6,.32,1.98,.69,2.64,.52-.15,.33-.55,.45-.74,.5,.49,0,.98,.05,1.34,.17-.28,.13-.51,.29-.75,.42,.43,.04,.84,.06,1.19,.23-.29,.07-.47,.18-.51,.33,.21,.2,.59,.19,.97,.3,.36,.1,.71,.29,.93,.83-.22,0-.44,.03-.62,.11,.49,.39,.84,.77,.96,1.11-.22,.01-.43,.05-.61,.14,.42,.32,.8,.65,1.02,1.02-.26,.03-.51,.08-.77,.15,.42,.3,.73,.64,.89,.98-.17-.04-.38-.06-.54-.04,.46,.44,.83,.93,.96,1.38-.17-.06-.35-.1-.54-.12,.12,.34,.2,.69,.22,1.03,.72,.54,1.13,1.13,1.07,2.08-.18-.1-.35-.16-.53-.18,.26,.46,.24,.89,.07,1.42-.13-.16-.27-.28-.41-.34,0,.56-.08,1.02-.25,1.37l-.2-.33c-.25,.53-.76,1.19-1.23,1.03-.41,.41-.77,.53-1.41,.82-.09-.1-.23-.19-.35-.29-.18,.15-.32,.32-.46,.53-.12-.17-.26-.33-.42-.45l-.52,.19c-1.11-.76-2.13-.96-2.01-2.04-.13,.05-.25,.17-.4,.32-.12-.36-.13-.99-.06-1.53-.2,.03-.29,.05-.48,.15-.01-.21-.02-.67,.23-1.19-.28,.07-.34,.18-.49,.31,0-.36,.11-.71,.3-.98Z"/>
      <path class="d" d="M20.74,.85c-.64,0-1.35,.36-1.41,1.16l-.02,.25,.22-.13c.17-.1,.55-.28,.89-.29,.27,0,.47,.08,.61,.27,.06,.08,.09,.18,.09,.27,0,.06-.02,.11-.05,.15-.06,.06-.15,.1-.24,.1-.22,0-.39-.15-.47-.25l-.22-.24v.33c-.02,.55,.38,.72,.74,.87,.29,.12,.6,.25,.74,.58,.07,.15,.09,.32,.08,.54v.17s.16-.03,.16-.03c.16-.03,.3-.09,.43-.18-.03,.18-.11,.37-.2,.5l-.11,.15,.17,.06c.19,.06,.43,.07,.63,.03-.02,.27-.1,.66-.66,.91l-.31,.14,.33,.1c.16,.05,.32,.07,.49,.07,.09,0,.18,0,.28-.02-.37,.57-.79,.82-1.06,.82-.39,0-.69-.42-1.01-.87-.38-.52-.81-1.11-1.49-1.16-.72-1.27-2.09-2.05-2.85-2.2-2.54-.5-5.73-.41-8.54-.33-.93,.03-1.8,.05-2.63,.06l-4.96,.03,.05,.17c.24,.78,1.43,1.46,2.43,1.64,.23,.66,.96,.97,1.7,1.23,.17,.34,.66,.94,2.14,1.5,.43,1.02,2.24,1.64,3.47,1.72,0,0,.01,.02,.01,.02,.6,.75,1.7,.8,2.47,.82,.13,.2,.4,.31,.57,.36,0,.1,.04,.23,.12,.33,.08,.09,.24,.18,.51,.16,.02,.21,.13,.4,.33,.53,.18,.12,.4,.18,.63,.17,.07,.14,.19,.23,.36,.24,.17,.02,.36-.04,.51-.1,.01,.04,.03,.09,.06,.12,.07,.09,.19,.14,.35,.14,.21,0,.45-.08,.65-.18,.02,.05,.05,.09,.08,.13,.09,.09,.23,.13,.42,.12,.13,0,.28-.05,.43-.11,.11,.27,.3,.32,.42,.32,.39,0,.73-.34,.92-.57,.16,.23,.4,.37,.67,.37,.3,0,.56-.15,.75-.42,.15,.08,.3,.13,.47,.14,.12,0,.23-.01,.36-.04-.1,.23-.16,.49-.16,.75v.3l.29-.28s.06-.05,.08-.08c-.08,.25-.13,.51-.13,.78,0,.05,0,.11,0,.16v.2s.19-.09,.19-.09c.11-.06,.18-.08,.27-.1-.02,.16-.03,.34-.03,.52,0,.32,.03,.65,.11,.89l.07,.19,.21-.2s.08-.08,.12-.11c.04,.71,.59,1.03,1.28,1.43,.25,.14,.51,.29,.78,.48l.06,.04s.39-.15,.5-.19c.12,.1,.23,.22,.34,.38l.11,.15,.1-.16c.12-.18,.23-.31,.36-.43,0,0,0,0,0,0,.09,.07,.18,.13,.24,.2l.06,.07,.36-.16c.47-.21,.78-.35,1.13-.68,.44,.08,.9-.37,1.2-.91,.04,.07,.2,.34,.2,.34l.11-.21c.16-.31,.24-.7,.26-1.2,.06,.05,.13,.12,.19,.19l.15,.19,.07-.23c.09-.27,.13-.51,.13-.73,0-.19-.04-.36-.11-.54,.08,.03,.17,.06,.25,.11l.18,.1v-.2c.02-.07,.02-.13,.02-.2,0-.79-.33-1.38-1.08-1.96-.02-.26-.08-.52-.16-.8,.12,.02,.22,.05,.31,.08l.24,.1-.07-.25c-.13-.44-.46-.87-.78-1.21,.07,0,.14,.02,.21,.03l.26,.06-.11-.24c-.14-.29-.39-.58-.71-.85,.16-.04,.33-.08,.49-.1l.2-.02-.1-.17c-.21-.35-.55-.66-.87-.91,.11-.03,.22-.05,.35-.06h.18s-.06-.17-.06-.17c-.11-.3-.39-.64-.82-1.01,.11-.02,.23-.04,.36-.04h.19l-.07-.18c-.25-.62-.68-.81-1.02-.9l-.37-.08c-.19-.03-.35-.07-.47-.13,.07-.07,.2-.13,.37-.17l.35-.08-.32-.16c-.26-.13-.54-.18-.83-.21,.12-.07,.65-.36,.65-.36l-.28-.09c-.23-.07-.51-.12-.81-.15,.12-.08,.22-.19,.29-.34l.11-.25-.26,.07c-.61,.16-1.95-.19-2.55-.51-.53-.28-.98-.28-1.4-.02-.24-.22-.62-.32-.92-.32Zm0,.26c.33,0,.66,.12,.8,.3l.08,.09,.1-.07c.37-.26,.74-.26,1.22,0,.54,.28,1.65,.6,2.39,.57-.14,.1-.31,.17-.47,.21l-.99,.27h1.03c.36-.02,.69,.01,.99,.07-.09,.05-.2,.11-.2,.11l-.62,.36,.41,.04h.12c.25,.03,.5,.06,.72,.11-.16,.09-.24,.2-.26,.29l-.02,.08,.06,.06c.17,.16,.42,.21,.68,.25l.34,.07c.27,.07,.56,.2,.77,.59-.18,.02-.35,.05-.48,.11l-.19,.09,.17,.13c.41,.33,.7,.63,.85,.9-.17,.02-.33,.06-.47,.13l-.19,.09,.17,.13c.41,.31,.68,.57,.87,.82-.19,.03-.39,.07-.58,.12l-.26,.07,.22,.16c.31,.22,.56,.47,.72,.71-.11,0-.22-.01-.31,0l-.28,.03,.2,.19c.4,.38,.68,.75,.83,1.09-.09-.02-.19-.04-.3-.05l-.2-.03,.07,.2c.12,.36,.19,.68,.21,1v.06s.05,.04,.05,.04c.71,.53,1.02,1.06,1.02,1.78-.13-.05-.26-.1-.39-.12l-.27-.04,.13,.23c.12,.21,.18,.43,.18,.66,0,.13-.03,.28-.06,.44-.09-.09-.19-.16-.29-.21l-.19-.09s0,.21,0,.21c0,.43-.05,.79-.15,1.07-.03-.05-.2-.32-.2-.32l-.1,.22c-.26,.55-.72,1.08-1.08,.97l-.08-.02-.06,.06c-.33,.33-.62,.46-1.1,.67,0,0-.12,.05-.2,.09-.06-.06-.13-.11-.2-.16l-.18-.13-.08,.07c-.14,.12-.26,.26-.38,.42-.11-.13-.22-.25-.33-.34l-.06-.05s-.43,.16-.52,.19c-.26-.17-.52-.32-.74-.45-.69-.39-1.16-.66-1.16-1.28,0-.05,0-.1,0-.15l.02-.2-.19,.07c-.1,.04-.19,.11-.28,.19-.03-.17-.05-.38-.05-.61,0-.21,.01-.43,.04-.65l.02-.17-.17,.02c-.14,.02-.23,.04-.33,.08,0-.33,.08-.65,.22-.93l.13-.25-.27,.07c-.13,.03-.22,.07-.29,.12,.04-.21,.12-.42,.24-.59l.25-.36-.41,.17c-.23,.1-.41,.14-.57,.13-.16,0-.3-.05-.44-.15l-.12-.08-.07,.12c-.14,.25-.36,.39-.59,.39-.23,0-.43-.15-.54-.4l-.09-.22-.13,.2c-.19,.29-.52,.62-.82,.62-.04,0-.15,0-.22-.26l-.04-.16-.15,.07c-.15,.08-.33,.13-.47,.14-.1,0-.18,0-.22-.04-.03-.03-.04-.07-.03-.14l.02-.25-.21,.13c-.18,.11-.48,.23-.69,.23-.07,0-.13-.01-.15-.04-.02-.03-.02-.08,0-.15l.09-.4-.31,.28s-.32,.18-.52,.16c-.1-.01-.15-.06-.17-.15l-.03-.11-.12,.02c-.19,.02-.4-.02-.55-.13-.11-.08-.24-.22-.22-.45l.02-.18-.18,.04c-.13,.03-.31,.05-.4-.05-.06-.06-.07-.14-.07-.19,0-.01,0-.03,0-.03l.03-.13-.13-.04c-.22-.05-.48-.17-.54-.31l-.03-.08h-.08c-.71-.02-1.76-.05-2.31-.7,0-.02,0-.05-.02-.07-.03-.04-.07-.06-.12-.06-1.33-.06-3.04-.73-3.36-1.61l-.02-.06-.06-.02c-1.56-.58-1.97-1.2-2.07-1.43l-.02-.05-.05-.02c-.88-.3-1.46-.59-1.61-1.14l-.02-.08h-.08c-.94-.16-1.91-.75-2.22-1.33,.37,0,4.58-.03,4.58-.03,.83,0,1.71-.03,2.64-.06,2.8-.08,5.97-.17,8.48,.33,.7,.14,2.05,.91,2.71,2.13l.04,.07h.08c.59,.02,.98,.55,1.36,1.07,.36,.5,.7,.96,1.22,.97,.36,0,.96-.3,1.44-1.2l.15-.27-.3,.09c-.17,.05-.34,.07-.5,.07-.03,0-.06-.01-.09-.01,.47-.35,.49-.81,.5-1.06v-.27s-.18,.08-.18,.08c-.11,.05-.29,.06-.46,.05,.09-.17,.16-.38,.16-.58,0-.06,0-.12-.02-.18l-.05-.2-.16,.13c-.14,.12-.25,.19-.37,.23,0-.18-.04-.33-.1-.48-.19-.42-.55-.57-.88-.71-.22-.09-.38-.17-.48-.29,.1,.05,.21,.08,.32,.08,.16,0,.31-.06,.44-.19,.08-.1,.12-.21,.12-.32,0-.14-.05-.29-.14-.42-.19-.26-.47-.39-.83-.38-.29,0-.57,.11-.76,.2,.16-.45,.65-.67,1.1-.67Zm-10.6,7.71h0s0,0,0,0Z"/>
      <path class="e" d="M22.81,13.43c-.02,.74-.26,2.09-.92,2.56-.56,.4-1.36,.12-1.77,.68l.05,.34c.63,0,.76,.05,1.43-.41-.43,.3-.7,.5-.75,1,.17,.04,.25,.18,.36,.25,.2-.21,.46-.45,.74-.91-.04,.36-.21,.61-.21,.96,.15-.02,.3-.03,.44,0,.13-.28,.47-.92,.47-1.25,.39,0,.66-.07,1.02-.13,.17-.03,.34,.02,.56-.02,.02-.16,0-.31,0-.45-.41-.13-.46-.25-.95-.48-.18-.39,.05-1.01,.18-1.65-.22-.12-.4-.32-.49-.58-.05,.02-.11,.06-.16,.09Z"/>
      <path class="d" d="M22.92,13.21l-.25,.14v.07c-.01,.76-.26,2.03-.86,2.46-.22,.16-.49,.2-.77,.24-.38,.06-.77,.12-1.03,.47l-.03,.04,.08,.5h.26c.22,0,.38,0,.54-.02-.07,.13-.13,.28-.15,.47v.12s.1,.02,.1,.02c.07,.02,.12,.07,.18,.12l.23,.19,.07-.1,.08-.08c.08-.09,.17-.18,.27-.3-.03,.1-.05,.21-.05,.33v.15l.15-.02c.14-.02,.28-.02,.4,0l.1,.02,.12-.26c.18-.38,.34-.74,.38-1.01,.26,0,.48-.05,.72-.09l.21-.04h.22c.1,0,.21,0,.34-.02l.11-.02v-.09s0-.33,0-.33v-.23s-.09-.03-.09-.03c-.22-.07-.32-.13-.47-.22-.11-.07-.23-.14-.41-.23-.03-.07-.04-.16-.04-.25,0-.23,.07-.53,.14-.83l.12-.55-.09-.04c-.21-.12-.36-.29-.43-.51l-.05-.15-.12,.07Zm-1.84,3.16c.3-.05,.61-.09,.89-.29,.69-.49,.93-1.77,.97-2.54,.09,.17,.23,.31,.39,.42-.02,.11-.08,.37-.08,.37-.07,.32-.15,.62-.15,.89,0,.14,.02,.28,.07,.4l.02,.04,.04,.02c.2,.1,.33,.17,.44,.24,.13,.08,.25,.15,.44,.22,0,.02,0,.05,0,.05,0,0,0,.1,0,.19-.06,0-.13,0-.19,0h-.27s-.22,.05-.22,.05c-.26,.05-.49,.09-.78,.09h-.13v.13c0,.24-.24,.73-.38,1.03,0,0-.02,.04-.04,.09-.07,0-.14,0-.22,0,.02-.11,.04-.22,.08-.33,.05-.14,.09-.29,.11-.47l.06-.58-.3,.5c-.23,.39-.45,.61-.64,.8,0,0-.02-.01-.02-.01-.05-.05-.11-.1-.19-.14,.07-.38,.29-.55,.68-.83l-.15-.21c-.58,.4-.71,.4-1.2,.39,0,0-.02,0-.04,0-.01-.07-.02-.11-.03-.16,.2-.24,.49-.29,.83-.34Z"/>
      <path class="e" d="M20.77,18.42c-.1-.14-.16-.57,.02-.82,.11,.04,.34,.11,.43,.21-.13,.13-.36,.41-.45,.6Z"/>
      <path class="d" d="M20.69,17.53c-.21,.29-.15,.77-.02,.97l.13,.2,.1-.22c.08-.18,.3-.45,.42-.56l.09-.09-.08-.09c-.1-.11-.28-.17-.41-.22l-.16-.06-.06,.08Zm.12,.49c0-.09,.02-.17,.05-.25,.05,.02,.11,.04,.16,.07-.07,.08-.14,.17-.21,.26,0-.03,0-.05,0-.08Z"/>
      <path class="d" d="M24.68,12.55c.13,.14,.32,.58,.32,1.01,0,.08,0,.16-.02,.24-.04,.22-.15,.38-.32,.49-.09-.28-.31-.74-.64-.95l-.11-.07-.07,.1c-.09,.13-.14,.29-.17,.47-.27-.1-.49-.3-.58-.56l-.05-.13-.13,.06c-.21,.09-.41,.29-.55,.43,0,0-.01,.01-.02,.02-.19-.23-.27-.43-.28-.7v-.15s-.38,.07-.38,.07l.07,.25s.04,0,.07-.01c.04,.3,.16,.55,.42,.82l.09,.1,.09-.08,.13-.12c.1-.1,.23-.23,.37-.31,.16,.32,.45,.56,.82,.64l.15,.03v-.15c.02-.15,.06-.27,.11-.38,.27,.26,.44,.74,.45,.85l.02,.18,.16-.07c.32-.14,.53-.4,.6-.76,.11-.56-.14-1.25-.37-1.48l-.19,.18Z"/>
      <path class="d" d="M24.73,5.32c-.14,.6-.45,.77-.79,.85,.03-.11,.05-.23,.05-.35,0-.09,0-.17-.03-.24l-.07-.29-.16,.25c-.21,.33-.51,.51-.92,.53l.02,.26c.36-.02,.66-.15,.89-.37-.02,.12-.05,.24-.1,.32l-.17,.26,.3-.06c.37-.07,.85-.16,1.12-.77,.02,.08,.03,.16,.03,.23,0,.07,0,.14-.02,.22l-.04,.27,.24-.15c.43-.27,.52-.55,.53-.94h-.26c0,.24-.05,.4-.2,.56,0-.19-.05-.39-.19-.62l-.16-.27-.07,.31Z"/>
      <path class="d" d="M22.12,1.71c-.21,0-.35,.12-.36,.32,0,.11,.05,.21,.11,.29,.06,.09,.12,.18,.12,.31h.26c0-.2-.09-.34-.16-.45-.03-.05-.07-.11-.07-.14,0-.03,0-.07,.11-.08,.15,0,.34,.11,.54,.23,.33,.2,.74,.44,1.32,.45v-.26c-.51,0-.87-.22-1.18-.41-.24-.15-.45-.27-.68-.27Z"/>
      <path class="d" d="M22.05,1.93c.05,.27,.27,.61,.64,.7,.1,.03,.29,.05,.43-.05,.06-.04,.12-.13,.12-.28h-.26s0,.06-.02,.08c-.03,.02-.11,.03-.2,0-.24-.06-.41-.29-.44-.49l-.26,.05Z"/>
      <path class="d" d="M26.48,4.93c.14,.16,.21,.31,.22,.45-.22-.15-.48-.25-.71-.24v.26c.23,0,.53,.13,.72,.33l.15,.15,.07-.2c.1-.31,.02-.61-.25-.92l-.19,.17Z"/>
      <path class="d" d="M26.85,6.42c.04,.08,.09,.21,.11,.36-.14-.15-.31-.27-.55-.33l-.06,.25c.27,.07,.42,.19,.61,.49l.15,.23,.09-.26c.12-.36-.02-.7-.11-.87l-.23,.12Z"/>
      <path class="d" d="M23.54,7.91l.03,.26,.18-.18c.21-.21,.62-.39,.79-.42l-.04-.26c-.16,.02-.47,.15-.72,.31,.03-.2,.12-.38,.27-.49l-.15-.21c-.29,.21-.43,.58-.38,.99Z"/>
      <path class="d" d="M25.9,7.94c.07,.12,.11,.29,.11,.46,0,.07-.01,.13-.02,.2-.18-.31-.43-.56-.71-.69l-.11,.23c.3,.14,.57,.46,.73,.84l.1,.25,.13-.23c.19-.33,.19-.87,0-1.19l-.22,.13Z"/>
      <path class="d" d="M27.43,7.83c.09,.17,.14,.36,.14,.58,0,0,0,.02,0,.03-.18-.22-.4-.44-.73-.57l-.1,.24c.35,.14,.54,.39,.75,.65l.25,.32,.05-.28c.08-.42,.03-.77-.13-1.08l-.23,.12Z"/>
      <path class="d" d="M27.62,9.27c.09,.12,.12,.25,.12,.38,0,.04,0,.08-.02,.12-.16-.23-.42-.48-.73-.58l-.08,.25c.34,.11,.64,.48,.73,.7l.11,.26,.13-.25c.13-.27,.2-.7-.05-1.03l-.21,.15Z"/>
      <path class="d" d="M23.19,9.88l.02,.29,.2-.21c.21-.22,.62-.5,.9-.56l-.05-.25c-.25,.05-.55,.23-.79,.42,.05-.29,.22-.52,.49-.64l-.11-.24c-.45,.2-.7,.66-.66,1.19Z"/>
      <path class="d" d="M22.07,8.34v.25l.2-.14c.23-.16,.54-.33,.67-.37l-.07-.25c-.13,.04-.34,.15-.53,.26,.03-.27,.14-.64,.46-.82l-.13-.22c-.55,.32-.61,1.01-.61,1.29Z"/>
      <path class="d" d="M27.8,10.84c.19,.16,.43,.45,.52,.78l.06,.22,.16-.16c.32-.33,.22-.76,.17-.94v-.05s-.26,.05-.26,.05v.05c.03,.08,.06,.18,.06,.3,0,.07,0,.14-.03,.2-.13-.28-.34-.51-.51-.66l-.17,.2Z"/>
      <path class="d" d="M26.08,11.46v.28s.22-.19,.22-.19c.26-.24,.54-.42,.82-.51l-.08-.25c-.22,.07-.44,.19-.65,.35,.07-.22,.2-.43,.37-.51l-.11-.23c-.37,.17-.59,.69-.57,1.07Z"/>
      <path class="d" d="M24.69,10.68c.18,.07,.38,.34,.46,.6-.23-.17-.45-.23-.63-.28l-.15-.04-.08,.25,.16,.05c.24,.07,.5,.14,.78,.44l.19,.2,.03-.28c.04-.42-.31-1.04-.68-1.17l-.09,.24Z"/>
      <path class="d" d="M21.52,1.29v.33s.27,0,.27,0v-.33s-.27,0-.27,0Z"/>
      <path class="d" d="M21.78,9.68v.27s.35-.27,.35-.27c.09-.07,.17-.13,.25-.18-.12,.26-.18,.52-.18,.77,0,.08,0,.16,.02,.24l.26-.04c-.06-.37,.05-.77,.3-1.16l.17-.27-.31,.07c-.21,.05-.36,.13-.51,.24,.11-.25,.33-.48,.55-.54l-.07-.25c-.43,.12-.82,.64-.83,1.11Z"/>
      <path class="d" d="M22.29,10.39l.13,.22h.02s-.13-.24-.13-.24h-.02Z"/>
      <path class="d" d="M21.35,11.22l.22,.14c.3-.47,.76-.76,1.21-.77v-.26c-.55,.01-1.07,.34-1.43,.89Z"/>
      <path class="d" d="M5.18,2.85c.69,1.03,1.32,1.58,2.7,1.58,1.1,0,2.36-.36,3.19-.6l-.07-.25c-.82,.23-2.06,.59-3.12,.59-1.27,0-1.83-.49-2.48-1.46l-.22,.14Z"/>
      <path class="d" d="M6.61,4.19c.4,.82,1.14,1.21,2.26,1.2,1.34-.01,1.93-.17,2.6-.35l-.07-.25c-.66,.18-1.23,.33-2.54,.34-1.02,0-1.67-.33-2.03-1.06l-.23,.11Z"/>
      <path class="d" d="M11.32,6.39c.36,.7,1.23,1.08,2.45,1.08,.81,0,1.73-.19,2.59-.51l-.09-.24c-.83,.31-1.72,.49-2.51,.49-1.12,0-1.91-.32-2.22-.93l-.23,.12Z"/>
      <path class="d" d="M8.63,5.36c.53,.62,1.67,1.06,2.83,1.09,.44,0,1.96,0,3.1-.48l-.1-.24c-1.09,.46-2.56,.47-2.99,.46-1.25-.03-2.25-.54-2.64-1l-.2,.17Z"/>
      <path class="d" d="M12.64,7.33c.18,.44,.51,.75,1,.92,1.13,.4,2.8-.06,3.63-.52l-.13-.23c-.76,.42-2.37,.87-3.41,.5-.41-.15-.69-.41-.84-.77l-.24,.1Z"/>
      <path class="d" d="M15.69,8.99c.12,.23,.34,.39,.64,.47,.51,.14,1.22,.03,1.73-.27l-.13-.22c-.44,.26-1.08,.36-1.52,.24-.23-.06-.39-.18-.48-.34l-.23,.12Z"/>
      <path class="d" d="M14.35,8.35c.13,.19,.43,.64,1.23,.71,.58,.05,1.33-.11,2.24-.46l-.09-.24c-.87,.34-1.58,.49-2.12,.45-.68-.06-.91-.41-1.03-.59l-.22,.14Z"/>
      <path class="d" d="M16.77,9.43c.02,.23,.3,.49,.66,.62,.25,.09,.89,.24,1.44-.32l-.18-.18c-.45,.45-.97,.33-1.17,.26-.31-.11-.49-.31-.49-.4l-.26,.02Z"/>
      <path class="d" d="M19.58,10.06c-.09,.22-.4,.37-.77,.36-.31,0-.69-.13-.86-.45l-.23,.12c.18,.35,.6,.58,1.09,.59,.4,.01,.73-.13,.91-.37,.21,.2,.47,.32,.74,.32,.3,0,.59-.15,.84-.41,.21,.04,.42,.04,.63-.02l-.08-.25c-.19,.06-.37,.06-.56,.01l-.08-.02-.05,.06c-.22,.24-.46,.37-.7,.37-.24,0-.48-.12-.65-.34l-.14-.17-.09,.2Z"/>
      <path class="d" d="M2.99,4.24l-.05,.25c1.2,.23,2.72,.1,3.92-.04l-.03-.26c-1.18,.14-2.68,.27-3.84,.05Z"/>
      <path class="d" d="M4.64,5.46l-.06,.25c1.27,.31,3.15,.27,4.38-.1l-.07-.25c-1.2,.35-3.02,.39-4.25,.09Z"/>
      <path class="d" d="M6.76,7.21c2.17,.78,5.05,.3,5.88,.13l-.05-.25c-.81,.16-3.63,.64-5.74-.12l-.09,.24Z"/>
      <path class="d" d="M10.32,8.66v.26c1.13,0,2.79-.31,3.41-.63l-.12-.23c-.58,.3-2.21,.6-3.29,.6Z"/>
      <path class="d" d="M12.71,9.51v.26c.56,.02,1.98-.32,2.57-.77l-.16-.21c-.55,.41-1.89,.74-2.42,.72Z"/>
      <path class="d" d="M13.36,9.89l-.02,.26c.83,.07,2.08-.11,2.87-.83l-.17-.19c-.73,.66-1.9,.82-2.67,.76Z"/>
      <path class="d" d="M14.77,11.06l.17,.2c.18-.15,.37-.38,.53-.63l-.22-.14c-.15,.23-.33,.44-.48,.58Z"/>
      <path class="d" d="M15.67,11.14l.16,.2c.18-.14,.32-.32,.48-.56l-.22-.14c-.14,.22-.27,.37-.42,.5Z"/>
      <path class="d" d="M16.75,11.2l-.03,.03,.19,.17,.03-.03,.31-.36-.2-.16-.3,.35Z"/>
      <path class="d" d="M17.66,11.39l.2,.16,.4-.48-.2-.16-.4,.48Z"/>
      <path class="d" d="M10.01,4.05c.2,.48,.68,.97,1.23,.98,.69,.02,1.67-.28,2.44-.74l-.13-.22c-.73,.44-1.65,.72-2.3,.71-.44-.01-.83-.42-.99-.82l-.24,.1Z"/>
      <path class="d" d="M12.9,5.2c-.38,0-.69-.14-.95-.42l-.19,.17c.31,.34,.69,.51,1.14,.51,.75,0,1.58-.46,2.3-.92l-.14-.22c-.64,.41-1.47,.88-2.16,.88Z"/>
      <path class="d" d="M15.82,5.07c-.45,.31-.93,.64-1.38,.65-.33,.01-.63-.15-.92-.49l-.2,.17c.34,.41,.71,.6,1.13,.59,.53-.02,1.03-.36,1.51-.7l.23-.16-.14-.21-.23,.16Z"/>
      <path class="d" d="M15.52,6.08c-.42,.02-.56-.14-.63-.3l-.23,.11c.15,.33,.44,.47,.88,.45,.49-.03,1.09-.32,1.59-.77l-.17-.19c-.46,.42-.99,.68-1.43,.7Z"/>
      <path class="d" d="M16.18,6.46c-.16-.05-.29-.15-.37-.29l-.23,.12c.12,.21,.29,.35,.52,.42,.43,.12,1.03-.03,1.78-.45l-.13-.22c-.85,.48-1.33,.5-1.58,.43Z"/>
      <path class="d" d="M16.12,6.62c.08,.28,.25,.47,.5,.58,.72,.32,1.85-.19,2.06-.29l-.11-.23c-.45,.21-1.34,.52-1.85,.29-.18-.08-.3-.22-.36-.42l-.25,.07Z"/>
      <path class="d" d="M16.84,7.28c.46,.82,1.12,.92,2.51,.4l-.09-.24c-1.42,.53-1.86,.32-2.2-.29l-.23,.13Z"/>
      <path class="d" d="M17.86,7.97c.13,.31,.35,.52,.66,.63,.45,.15,1.05,.05,1.61-.27l-.13-.22c-.49,.29-1.01,.38-1.39,.25-.24-.08-.41-.24-.5-.48l-.24,.1Z"/>
      <path class="d" d="M19.03,8.64c.14,.31,.36,.52,.64,.6,.34,.09,.73-.01,1.18-.29,.16,.35,.4,.42,.75,.42v-.26c-.3,0-.44-.03-.56-.39l-.05-.17-.14,.1c-.44,.31-.81,.42-1.1,.34-.26-.07-.4-.29-.48-.45l-.24,.1Z"/>
      <path class="d" d="M42.12,3.83c-1.11,0-2.08-.12-2.89-.35l-.07,.25c.83,.24,1.83,.36,2.96,.36,1.2,0,1.97-.39,2.67-1.35l-.21-.15c-.65,.89-1.34,1.24-2.46,1.24Z"/>
      <path class="d" d="M40.79,5.04c-.53,0-1.23-.1-1.91-.28l-.07,.25c.71,.19,1.43,.29,1.98,.29,1.05,0,1.77-.4,2.38-1.32l-.22-.14c-.57,.85-1.2,1.2-2.17,1.21Z"/>
      <path class="d" d="M34.09,6.61c.62,.41,1.57,.96,2.56,.96,.7,0,1.35-.27,1.92-.8l-.18-.19c-.53,.49-1.11,.73-1.75,.73-.93,0-1.83-.52-2.42-.91l-.14,.22Z"/>
      <path class="d" d="M38.55,6.5c-.72,.02-2.16-.39-2.87-.92l-.16,.21c.76,.58,2.26,1,3.03,.98,1.25-.04,2.47-.94,2.95-1.51l-.2-.17c-.45,.53-1.59,1.38-2.76,1.41Z"/>
      <path class="d" d="M33.31,7.32c.36,.67,1.29,1.17,2.2,1.18,.81,0,1.47-.35,1.84-1l-.23-.13c-.44,.77-1.2,.88-1.61,.87-.82,0-1.65-.45-1.97-1.04l-.23,.12Z"/>
      <path class="d" d="M33.5,9.47c-.43,.01-.92-.14-1.22-.38l-.16,.2c.35,.28,.9,.45,1.39,.44,.48-.01,.85-.2,1.05-.52l-.22-.14c-.21,.33-.62,.39-.84,.4Z"/>
      <path class="d" d="M32.32,8.27c.87,.83,1.68,.93,2.21,.87,.69-.08,1.17-.44,1.31-.66l-.22-.14c-.09,.14-.51,.47-1.12,.54-.48,.05-1.21-.04-2.01-.8l-.18,.19Z"/>
      <path class="d" d="M32.62,9.91c-.23,.02-.57-.02-.87-.33l-.18,.18c.38,.38,.8,.43,1.08,.4,.46-.04,.85-.31,.97-.54l-.23-.12c-.09,.17-.41,.37-.77,.41Z"/>
      <path class="d" d="M30.7,10.15c-.09,.23-.23,.38-.36,.39-.13,.02-.25-.1-.33-.19l-.2,.16c.22,.28,.43,.31,.57,.29,.18-.03,.34-.15,.46-.36,.22,.24,.52,.36,.85,.33,.39-.04,.71-.28,.83-.62l-.24-.09c-.09,.24-.33,.42-.61,.45-.3,.03-.57-.11-.74-.38l-.13-.22-.1,.24Z"/>
      <path class="d" d="M43.52,3.86c.58,.19,1.28,.3,2.04,.32,.6,.01,1.21-.04,1.76-.15l-.05-.25c-.53,.1-1.12,.15-1.7,.14-.73-.01-1.41-.12-1.96-.3l-.08,.25Z"/>
      <path class="d" d="M43.43,5.41c-.78-.01-1.49-.14-1.91-.36l-.12,.23c.46,.23,1.19,.37,2.02,.38,.87,.01,1.77-.12,2.53-.37l-.08-.25c-.74,.24-1.6,.37-2.45,.36Z"/>
      <path class="d" d="M40.41,7.25c-.88,.01-1.73-.08-2.39-.25l-.07,.25c.68,.18,1.55,.27,2.46,.26,1.32-.02,2.59-.25,3.58-.66l-.1-.24c-.96,.39-2.19,.62-3.49,.64Z"/>
      <path class="d" d="M36.48,8.19c.51,.5,2.61,.78,3.87,.64l-.03-.26c-1.26,.14-3.25-.16-3.66-.57l-.18,.18Z"/>
      <path class="d" d="M35.5,8.72c.58,.44,1.75,1.04,2.34,1.01v-.26c-.49,.02-1.59-.51-2.19-.96l-.16,.21Z"/>
      <path class="d" d="M34.46,9.21c.61,.74,1.79,1.14,2.86,.97l-.04-.26c-.99,.15-2.06-.21-2.62-.88l-.2,.16Z"/>
      <path class="d" d="M35.36,10.38l.12,.2c.13,.21,.27,.44,.41,.61l.2-.16c-.12-.16-.27-.39-.39-.59l-.13-.2-.22,.14Z"/>
      <path class="d" d="M34.58,10.55l.12,.27c.08,.18,.15,.35,.24,.45l.19-.17c-.06-.07-.13-.23-.2-.38l-.13-.28-.23,.12Z"/>
      <path class="d" d="M33.6,10.71l.09,.24c.1,.28,.14,.39,.19,.43l.2-.17s-.1-.24-.14-.35l-.1-.26-.23,.11Z"/>
      <path class="d" d="M32.45,11.04l.28,.53,.23-.12-.28-.53-.23,.12Z"/>
      <path class="d" d="M39.04,4.73c-.65,.02-1.23-.33-1.91-.74l-.13,.22c.71,.42,1.32,.79,2.05,.77,.52-.01,1.22-.5,1.42-1.01l-.24-.1c-.17,.41-.77,.84-1.19,.85Z"/>
      <path class="d" d="M35.74,4.76l.06,.04c.84,.47,1.98,1.11,3.03,.2l-.17-.19c-.91,.79-1.92,.22-2.73-.23l-.06-.04-.13,.23Z"/>
      <path class="d" d="M34.25,5.14c.52,.35,.93,.62,1.55,.64,.38,.01,.79-.01,1.16-.45l-.2-.17c-.3,.35-.61,.37-.95,.36-.52-.02-.86-.23-1.41-.6l-.14,.21Z"/>
      <path class="d" d="M33.31,5.66c.25,.22,.96,.53,1.56,.51,.37-.01,.65-.15,.8-.4l-.22-.13c-.1,.17-.3,.26-.59,.27-.52,.02-1.17-.25-1.38-.44l-.17,.19Z"/>
      <path class="d" d="M33.77,6.5c-.3,0-.66-.12-1.09-.36l-.13,.22c.46,.26,.87,.4,1.22,.4,.42,0,.76-.2,.97-.59l-.23-.12c-.17,.31-.41,.45-.74,.45Z"/>
      <path class="d" d="M33.19,7.08c-.28,.02-.6-.04-.89-.18l-.11,.23c.33,.16,.7,.23,1.03,.2,.42-.04,.75-.25,.93-.6l-.23-.12c-.14,.28-.39,.43-.72,.46Z"/>
      <path class="d" d="M32.51,7.91c-.27,0-.63-.1-1.12-.33l-.11,.23c.52,.24,.91,.35,1.23,.35,.55,0,.83-.37,1.03-.73l-.23-.13c-.24,.43-.46,.6-.8,.6Z"/>
      <path class="d" d="M31.59,11.26v.15h.26v-.15h-.26Z"/>
      <path class="d" d="M31.76,8.54c-.25,.02-.56-.07-.78-.21l-.27-.17,.07,.31c.04,.18,.02,.33-.05,.44-.05,.07-.11,.11-.19,.13-.14,.02-.29-.04-.45-.19l-.18,.19c.28,.26,.52,.28,.67,.25,.15-.03,.28-.11,.36-.24,.07-.11,.11-.24,.11-.39,.23,.1,.49,.15,.72,.13,.36-.03,.64-.22,.78-.54l-.24-.1c-.1,.24-.29,.37-.56,.39Z"/>
      <path class="d" d="M26.08,13.51c0,.39,.14,.71,.39,.95l.17,.16,.05-.26c.03-.13,.05-.26,.14-.43,.07,.06,.13,.13,.19,.22l.12,.16,.19-.31c.1-.18,.24-.41,.48-.57,.16,.1,.38,.3,.52,.44l.27,.25,.07-.15c.14-.26,.29-.4,.48-.55,.05,.03,.1,.06,.1,.06l.15-.21-.28-.17-.06,.06c-.16,.12-.36,.28-.53,.55,0,0-.03-.02-.03-.02-.18-.17-.45-.43-.66-.52l-.06-.03-.06,.03c-.34,.19-.51,.48-.63,.69-.07-.08-.15-.16-.24-.23l-.12-.09-.07,.12c-.1,.17-.15,.3-.19,.42-.1-.16-.15-.35-.16-.57,0-.01,0-.02,0-.03,0-.44,.18-.83,.31-.96l-.19-.18c-.19,.2-.39,.68-.38,1.18Z"/>
      <path class="e" d="M19.61,17.39c-.02-.24,.16-.69,.5-.82-.02,.15-.01,.35,.06,.48-.2,.04-.42,.2-.56,.34Z"/>
      <path class="d" d="M20.07,16.45c-.4,.15-.61,.65-.58,.95l.02,.28,.2-.2c.12-.12,.32-.27,.5-.3l.17-.03-.08-.15c-.05-.1-.06-.27-.05-.4l.02-.21-.2,.07Zm-.08,.36c0,.05,.01,.11,.03,.16-.07,.03-.14,.06-.2,.1,.04-.09,.09-.19,.17-.26Z"/>
      <path class="e" d="M22.07,18.62c-.22-.1-.45-.37-.34-.7,.14-.03,.32-.04,.46,0-.06,.23-.15,.5-.13,.69Z"/>
      <path class="d" d="M21.71,17.78h-.08s-.02,.09-.02,.09c-.13,.39,.12,.73,.41,.86l.21,.09-.03-.23c-.02-.14,.04-.36,.09-.54l.06-.22-.11-.04c-.17-.06-.38-.04-.53-.02Zm.32,.24c-.03,.12-.06,.23-.08,.35-.07-.07-.12-.17-.12-.29,0-.02,0-.03,0-.05,.07,0,.13,0,.19,0Z"/>
      <path class="e" d="M24.9,16.63c-.03-.29-.4-.56-.66-.56,.03,.14,0,.27,0,.41,.22,.02,.49,.08,.65,.15Z"/>
      <path class="d" d="M24.24,15.94h-.15s.03,.15,.03,.15c.02,.1,.01,.19,0,.28v.22s.11,.01,.11,.01c.21,.02,.47,.08,.62,.14l.2,.08-.02-.22c-.04-.36-.47-.68-.79-.68Zm.15,.31s0,0,0-.01c.1,.04,.19,.1,.26,.19-.09-.02-.18-.04-.26-.05,0-.04,0-.08,0-.12Z"/>
      <path class="d" d="M22.46,15.08v.26s.47,0,.47,0h.29s0-.26,0-.26h-.28s-.47,0-.47,0Z"/>
      <path class="d" d="M22.61,14.64v.26s.67-.01,.67-.01v-.26s-.67,.01-.67,.01Z"/>
      <path class="d" d="M23.3,14.18h-.58s0,.27,0,.27h.66s.12-.19,.12-.19c-.03-.08-.09-.08-.2-.08Z"/>
      <path class="d" d="M21.38,16.19c-.19,.04-.39,.06-.58,.1,.02,.02,.05,.03,.08,.05l.02,.31c.14,.04,.11-.13,.25-.13l.25-.08s0-.12,0-.25Zm-.46,.77c.11-.03,.22-.08,.37-.17,0-.01,0-.02,0-.03-.12,0-.27,.04-.35,.1,0,.02,0,.06-.02,.1Zm.37-.14c-.18,.15-.31,.29-.38,.5,.17,0,.36,0,.47,.06,.05-.15-.06-.4-.09-.56Zm.6,.4c-.04,.15-.1,.29-.13,.43l.24-.1c.02-.08,.22-.34,.32-.34-.04-.04-.29-.01-.44,0Zm2.18-1.2c-.31-.07-.35-.24-.73-.43,.05,.4,.24,.68,.7,.68,.02-.07,.02-.15,.02-.25Z"/>
      <path class="e" d="M28.03,13.43c.02,.74,.16,1.92,.82,2.39,.56,.4,.99,.27,1.4,.62l-.03,.4c-.71-.23-.44-.02-1.01-.18,.43,.31,.57,.31,.62,.82-.17,.04-.25,.18-.36,.25-.2-.21-.58-.32-.86-.78,.04,.36,.09,.7,.09,1.04-.15-.02-.3-.03-.45,0-.13-.28-.43-.92-.43-1.25-.39,0-.4-.41-.77-.47-.17-.03-.41,.1-.63,.06-.02-.16,0-.31,0-.45,.41-.13,.53-.39,1.01-.62,.18-.39,.02-.89-.1-1.53,.11-.23,.27-.34,.47-.49,.06,.02,.18,.13,.24,.17Z"/>
      <path class="d" d="M27.72,13.17l-.08,.06c-.17,.13-.32,.25-.43,.48l-.02,.04,.07,.33c.06,.31,.12,.58,.12,.81,0,.12-.02,.23-.06,.33-.21,.11-.36,.22-.49,.32-.15,.12-.27,.21-.46,.27l-.09,.03v.23s0,.44,0,.44h.11c.14,.03,.28,0,.4-.03,.09-.02,.17-.04,.22-.03,.13,.02,.2,.1,.28,.2,.09,.1,.21,.22,.39,.26,.04,.31,.22,.74,.4,1.13l.07,.15,.1-.02c.13-.02,.26-.02,.4,0l.15,.02v-.15c0-.21-.02-.42-.04-.62,.12,.11,.24,.19,.34,.26,.1,.06,.18,.12,.24,.18l.08,.09,.08-.07,.14-.11c.06-.06,.11-.11,.18-.12l.11-.02v-.12c-.05-.33-.12-.48-.27-.61,.08,0,.19,.01,.48,.11l.16,.05,.05-.63-.05-.04c-.22-.2-.45-.26-.69-.33-.22-.06-.45-.12-.71-.31-.59-.42-.74-1.48-.76-2.29v-.06s-.11-.08-.11-.08l-.28-.19-.05,.07Zm.08,.26s0,0,0,0c.04,.03,.09,.06,.09,.06,0,0,.01,0,.02,.01,.03,.86,.21,1.96,.87,2.43,.3,.21,.56,.28,.8,.35,.2,.05,.37,.1,.54,.23,0,.05,0,.09-.01,.17-.28-.08-.38-.08-.47-.07-.07,0-.15,0-.39-.06l-.76-.22,.83,.57c.26,.17,.33,.24,.37,.52-.08,.04-.14,.09-.19,.14,0,0-.02,.01-.02,.02-.06-.05-.12-.1-.19-.14-.18-.12-.39-.26-.55-.53l-.31-.51,.1,.88c.02,.21,.04,.4,.05,.6-.08,0-.15,0-.23,0-.13-.29-.39-.84-.39-1.11v-.13h-.13c-.14,0-.21-.07-.31-.19-.1-.11-.22-.24-.43-.28-.1-.02-.21,0-.32,.03-.07,.01-.14,.02-.2,.03,0-.08,0-.18,0-.18,0,0,0-.03,0-.06,.19-.07,.32-.17,.45-.28,.13-.1,.27-.21,.49-.31l.04-.02,.02-.04c.07-.14,.09-.3,.09-.47,0-.26-.06-.55-.12-.86,0,0-.04-.17-.05-.24,.08-.15,.19-.23,.33-.35Z"/>
      <path class="e" d="M29.89,18.27c.1-.14,.16-.57-.02-.82-.11,.04-.32,.2-.41,.3,.13,.13,.32,.33,.43,.52Z"/>
      <path class="d" d="M29.82,17.33c-.14,.06-.36,.23-.45,.33l-.08,.09,.09,.09c.07,.07,.29,.29,.4,.49l.1,.19,.12-.18c.13-.2,.19-.68-.02-.97l-.06-.08-.09,.04Zm-.01,.3c.03,.07,.04,.15,.04,.23,0,.04,0,.07-.01,.11-.06-.08-.13-.15-.19-.22,.05-.04,.11-.09,.16-.12Z"/>
      <path class="e" d="M30.78,17.25c.02-.24-.16-.69-.5-.82,0,.14-.02,.27-.06,.41,.19,.08,.41,.29,.56,.41Z"/>
      <path class="d" d="M30.15,16.43c0,.14-.02,.25-.05,.38l-.04,.11,.11,.05c.12,.05,.27,.18,.4,.28l.33,.27,.02-.25c.03-.3-.18-.8-.58-.95l-.17-.06v.18Zm.23,.23c.08,.07,.14,.16,.18,.26-.07-.05-.14-.1-.21-.14,0-.04,.02-.08,.03-.12Z"/>
      <path class="e" d="M28.37,18.67c.22-.1,.45-.37,.34-.7-.14-.03-.32-.04-.46,0,.06,.23,.15,.5,.13,.69Z"/>
      <path class="d" d="M28.2,17.85l-.11,.04,.06,.21c.05,.19,.11,.4,.09,.54l-.03,.23,.21-.09c.29-.13,.53-.48,.41-.86l-.02-.07h-.08c-.15-.04-.36-.06-.53,0Zm.4,.23s0,.03,0,.05c0,.12-.05,.21-.12,.29-.02-.11-.04-.23-.08-.35,.06,0,.12,0,.19,0Z"/>
      <path class="e" d="M25.85,16.61c-.02-.29,.28-.68,.57-.68-.03,.14,0,.27,0,.41-.22,.06-.41,.17-.57,.26Z"/>
      <path class="d" d="M25.96,16.03c-.16,.17-.26,.4-.24,.59v.21s.25-.14,.25-.14c.14-.08,.3-.17,.48-.22l.1-.03v-.2c-.01-.1-.02-.19,0-.28l.03-.15h-.15c-.16,0-.32,.08-.46,.22Zm.19,.18s.08-.08,.13-.1c0,0,0,0,0,0,0,.05,0,.1,0,.14h0c-.08,.03-.16,.06-.23,.09,.03-.05,.05-.1,.09-.14Z"/>
      <path class="d" d="M27.83,14.95h-.33s0,.26,0,.26h.34s.44,0,.44,0v-.26s-.45,0-.45,0Z"/>
      <path class="d" d="M27.54,14.58v.26s.66-.02,.66-.02v-.26s-.66,.02-.66,.02Z"/>
      <path class="d" d="M27.38,14.23l.1,.22s.51-.04,.62-.04v-.26s-.64,0-.72,.07Z"/>
      <path class="d" d="M29.25,16.12c.19,.04,.42,.09,.61,.12-.13,.14-.13-.02-.14,.24-.14,.04-.12-.05-.25-.05l-.25-.08s.03-.11,.03-.23Zm-.03,.57c.18,.15,.48,.42,.55,.63-.17,0-.32-.05-.44,0,.03-.37-.23-.31-.11-.63Zm-.71,.54c.04,.15,.1,.29,.13,.43l-.24-.1c-.02-.08-.12-.34-.22-.34,.05-.04,.19-.01,.34,0Zm-1.87-1.4c.31-.07,.35-.24,.73-.43-.05,.4-.24,.68-.7,.68-.02-.07-.02-.15-.02-.25Z"/>
      <path class="d" d="M24.18,20.68h.09c.1,.01,.17,.03,.2,.05,.03,.02,.05,.06,.04,.11,0,.05-.02,.08-.06,.1-.04,.02-.11,.02-.21,.02h-.08s.02-.28,.02-.28Zm-.03,1.09c.17,.01,.29,.02,.37,.01,.08,0,.14-.02,.19-.04,.06-.03,.12-.06,.15-.12,.04-.05,.06-.11,.06-.19,0-.1-.02-.18-.07-.25-.06-.06-.14-.1-.24-.12,.1-.02,.17-.05,.21-.09,.05-.04,.07-.1,.08-.18,0-.06,0-.12-.03-.16-.03-.05-.06-.09-.12-.12-.05-.03-.1-.05-.17-.06-.07-.01-.18-.03-.35-.04l-.41-.03-.09,1.35,.42,.03Zm0-.57h.15c.1,.02,.17,.03,.2,.06,.04,.02,.05,.07,.05,.12,0,.05-.03,.09-.07,.11-.04,.02-.11,.03-.21,.02h-.14s.02-.31,.02-.31Z"/>
    </g>
  </g>
</svg>