<?xml version="1.0" encoding="UTF-8"?>
<svg id="a" data-name="Layer 1" xmlns="http://www.w3.org/2000/svg" xmlns:xlink="http://www.w3.org/1999/xlink" viewBox="0 0 60.04 60.04">
  <defs>
    <style>
      .c {
        fill: none;
      }

      .d {
        fill: #000923;
      }

      .e {
        fill: #fff;
      }

      .f {
        clip-path: url(#b);
      }
    </style>
    <clipPath id="b">
      <rect class="c" x="5.33" y=".39" width="49.38" height="59.25"/>
    </clipPath>
  </defs>
  <g class="f">
    <g>
      <path class="e" d="M36.39,12.38c.66-.74,1.84-2.16,2.19-3.26,.37-1.16,.26-2.24-.31-3.2-.74-1.24-2.15-1.68-3.23-1.68-.29,0-.56,.03-.82,.08-.09,.02-.18,.04-.29,.07-.37-.1-.75-.15-1.14-.15-.29,0-.56,.03-.82,.08-.01,0-.03,0-.05,.01,.06-.2,.1-.4,.1-.62,0-1.11-.89-2.01-1.99-2.01s-1.99,.9-1.99,2.01c0,.22,.03,.42,.1,.62,0,0-.02,0-.03,0-.64-.14-1.34-.11-1.98,.07-.1-.03-.2-.05-.27-.07-.27-.06-.55-.09-.84-.09-1.08,0-2.49,.44-3.23,1.68-.57,.96-.68,2.04-.31,3.2,.42,1.35,1.4,2.52,2.16,3.28C13.84,15.26,7.06,24.32,7.06,34.68c0,12.81,10.31,23.23,22.99,23.23s22.96-10.42,22.96-23.23c0-10.38-6.8-19.45-16.62-22.3Z"/>
      <path class="d" d="M28.6,6.02c-.31-.12-.6-.22-.78-.25-.18-.04-.36-.06-.55-.06-.86,0-1.63,.38-1.98,.96-.96,1.61,.5,3.52,1.56,4.6,.48-.07,.97-.13,1.46-.17-.98-1.11-2.01-2.76-1.16-4.17,.28-.46,.82-.79,1.45-.91Z"/>
      <path class="d" d="M31.13,7.66c0-.59-.5-1.11-1.08-1.11-.64,0-1.13,.51-1.13,1.11,0,.64,.49,1.11,1.13,1.11,.58,0,1.08-.46,1.08-1.11Z"/>
      <path class="d" d="M24.41,6.15c.09-.15,.19-.28,.31-.41-.68,.07-1.35,.38-1.69,.94-1.09,1.82,.92,4.02,1.94,4.97,.22-.05,.45-.11,.67-.15-.6-.69-1.21-1.57-1.51-2.52-.32-1.03-.23-1.98,.27-2.83Z"/>
      <path class="d" d="M35.89,8.98c-.3,.95-.9,1.82-1.51,2.51,.23,.05,.45,.1,.67,.15,1.03-.95,3.03-3.15,1.94-4.97-.33-.56-1.01-.87-1.69-.94,.12,.13,.22,.27,.31,.41,.5,.84,.59,1.8,.27,2.83Z"/>
      <path class="d" d="M47.48,17.05c-2.48-2.51-5.4-4.42-8.58-5.65,.5-.7,.94-1.49,1.2-2.31,.48-1.53,.33-3.01-.43-4.29-.85-1.42-2.51-2.31-4.35-2.31-.37,0-.73,.04-1.07,.11-.07,.01-.57,.13-1.2,.28-.25-1.41-1.46-2.48-2.93-2.48s-2.75,1.14-2.94,2.61c-.84-.21-1.56-.39-1.65-.4-.35-.07-.71-.11-1.08-.11-1.84,0-3.5,.88-4.35,2.3-.76,1.28-.91,2.76-.43,4.29,.27,.86,.74,1.68,1.26,2.4-3.09,1.24-5.93,3.11-8.35,5.56-4.66,4.71-7.23,10.97-7.23,17.63s2.57,12.94,7.23,17.66c4.66,4.71,10.87,7.31,17.47,7.31s12.79-2.6,17.45-7.31c4.66-4.71,7.23-10.98,7.23-17.66s-2.57-12.92-7.23-17.63ZM29.27,3.1l.63,.03-.1-.59h.62l-.09,.59,.61-.03v.6l-.6-.02,.11,.55h-.7l.12-.55-.6,.02v-.6h0Zm.76,54.37c-12.43,0-22.54-10.22-22.54-22.78,0-10.59,7.21-19.52,16.93-22.04v-.12c-.78-.69-2.05-2.02-2.53-3.54-.32-1.03-.23-1.98,.27-2.83,.75-1.25,2.38-1.64,3.6-1.38,.1,.02,.23,.05,.36,.09,.36-.11,.74-.17,1.14-.17,.26,0,.51,.03,.75,.08,.35,.07,.91,.28,1.39,.47,.05-.3,.31-.55,.64-.55,.31,0,.57,.24,.61,.54,.47-.19,1.04-.4,1.38-.47,.23-.05,.48-.07,.74-.07,.4,0,.78,.06,1.14,.17,.14-.04,.27-.08,.37-.1,1.21-.26,2.84,.13,3.59,1.39,.5,.84,.59,1.8,.27,2.83-.45,1.44-2.53,3.57-2.53,3.57v.09c9.72,2.51,16.94,11.44,16.94,22.05,0,12.56-10.1,22.78-22.51,22.78Z"/>
      <path class="d" d="M30.66,9.83c0-.34-.29-.64-.62-.64-.37,0-.65,.29-.65,.64,0,.37,.28,.64,.65,.64,.34,0,.62-.27,.62-.64Z"/>
      <path class="d" d="M32.97,6.93c.85,1.42-.18,3.07-1.17,4.18,.47,.04,.94,.09,1.4,.16,1.06-1.08,2.52-2.98,1.56-4.6-.35-.58-1.13-.96-1.98-.96-.19,0-.37,.02-.54,.05-.18,.03-.47,.13-.77,.24,.66,.11,1.22,.45,1.5,.92Z"/>
      <path class="d" d="M34.02,16.48c-.09,.08-.15,.15-.4,.15l-.05,.18,.27,.06-.3,1.29,.3,.06,.37-1.71-.2-.03Z"/>
      <path class="d" d="M29.1,16.89c.14-.08,.19-.25,.18-.39-.02-.32-.26-.45-.56-.43-.3,.02-.51,.18-.5,.5,0,.15,.1,.3,.23,.37-.17,.07-.23,.23-.22,.43,.03,.34,.29,.49,.61,.47,.32-.03,.56-.22,.54-.55-.01-.19-.09-.34-.28-.4Zm-.36-.55c.14,0,.23,.08,.24,.2,0,.13-.09,.23-.21,.23-.11,.02-.21-.07-.22-.2,0-.11,.06-.22,.2-.23Zm.08,1.22c-.19,.02-.26-.08-.27-.23-.02-.17,.08-.27,.23-.28,.16-.02,.26,.08,.29,.25,0,.15-.06,.25-.25,.27Z"/>
      <path class="d" d="M26.16,16.43c-.06,.13-.08,.21-.32,.32l.04,.18,.25-.06,.28,1.29,.3-.06-.37-1.72-.19,.04Z"/>
      <path class="d" d="M31.46,16.08c-.4-.03-.58,.21-.61,.56-.02,.27,.11,.52,.41,.54,.13,0,.27-.03,.38-.11l-.02,.16c-.02,.28-.12,.35-.29,.35-.12-.02-.21-.1-.19-.22l-.32-.02c0,.32,.2,.49,.5,.52,.37,.03,.58-.18,.61-.55l.05-.58c.03-.37-.16-.61-.52-.64Zm.21,.65v.1c-.1,.06-.19,.12-.28,.11-.14,0-.24-.11-.22-.3,.02-.18,.1-.3,.26-.29,.18,0,.26,.11,.24,.38Z"/>
      <path class="d" d="M35.34,53.3l.17,.54,.53-.16,.08,.29c.11,.38-.02,.66-.34,.76-.09,.02-.16,.03-.23,.03-.23,0-.39-.15-.49-.49l-.47-1.65c-.12-.42,0-.66,.37-.77,.34-.1,.56,.08,.7,.53l.67-.19c-.22-.67-.59-1-1.11-1-.12,0-.27,.01-.43,.06-.79,.24-1.08,.8-.83,1.67l.41,1.43c.24,.86,.78,1.2,1.58,.97,.24-.09,.41-.25,.56-.58l.03-.07,.24,.33,.32-.09-.57-1.98-1.2,.36Z"/>
      <path class="d" d="M12.16,43.35l-.25-.65-.22,.09c-.14,.06-.26,.08-.35,.08-.28,0-.39-.21-.45-.36-.07-.18-.08-.31-.02-.44,.06-.13,.18-.24,.4-.33l1.58-.64c.12-.06,.23-.08,.33-.08,.28,0,.39,.2,.47,.36,.07,.17,.07,.31,.02,.43-.05,.13-.19,.25-.41,.33l-.07,.03,.26,.66c.42-.18,.69-.42,.81-.72,.1-.27,.08-.6-.07-.95-.22-.56-.57-.83-1.03-.83-.21,0-.44,.05-.7,.16l-1.38,.56c-.43,.19-.72,.43-.83,.73-.11,.27-.08,.58,.07,.96,.32,.79,.89,1.01,1.72,.67l.11-.05Z"/>
      <path class="d" d="M15.48,43.83l-.37-.6-3.43,2.23,1.06,1.66,.52-.33-.7-1.08,2.91-1.88Z"/>
      <path class="d" d="M24.28,50.99l-1-.35-1.35,3.88,1.04,.37c.25,.08,.45,.13,.65,.13,.49,0,.83-.26,1-.78,.16-.5,.06-.76-.22-1.13l-.05-.06,.07-.02c.36-.08,.61-.29,.72-.62,.29-.81-.31-1.21-.87-1.41Zm-.28,2.95c-.1,.29-.3,.44-.57,.44-.09,0-.18-.02-.28-.05l-.36-.13,.42-1.22,.31,.1c.21,.07,.36,.18,.44,.33,.1,.15,.13,.33,.05,.53Zm.48-1.69c-.07,.22-.26,.36-.53,.36-.08,0-.16-.02-.25-.05l-.31-.12,.36-1.03,.34,.12c.19,.07,.31,.17,.37,.28,.06,.13,.06,.27,.01,.43Z"/>
      <path class="d" d="M27.64,51.83l-1.1-.15-.54,4.07,.68,.09,.23-1.7,.45,.06,.46,1.79,.75,.11-.53-1.95,.05-.02c.41-.09,.66-.4,.72-.93,.05-.4,0-.7-.2-.94-.2-.24-.53-.39-.98-.44Zm.49,1.27c-.06,.46-.33,.56-.55,.56-.04,0-.09-.01-.13-.02l-.45-.07,.16-1.23,.47,.04c.18,.03,.32,.1,.41,.22,.09,.12,.13,.28,.1,.49Z"/>
      <path class="d" d="M32.61,51.85l-.7,.05,.21,2.88c0,.22-.02,.4-.11,.52-.1,.11-.25,.18-.44,.2-.41,.02-.62-.18-.66-.62l-.21-2.88-.69,.05,.22,2.89c.05,.78,.47,1.17,1.21,1.17h.16c.6-.04,1.29-.31,1.21-1.36l-.19-2.89Z"/>
      <path class="d" d="M38.91,51.86l.27,.5,.48-.26,.14,.28c.1,.17,.12,.33,.1,.46-.04,.15-.13,.26-.27,.34-.36,.19-.59,.09-.8-.31l-.78-1.51c-.19-.4-.14-.66,.2-.83,.32-.16,.58-.03,.8,.38l.61-.33c-.3-.51-.65-.77-1.08-.77-.19,0-.4,.06-.62,.17-.35,.19-.57,.42-.67,.7-.09,.3-.03,.68,.19,1.11l.69,1.32c.41,.8,.99,1.01,1.72,.62,.24-.11,.37-.32,.45-.68v-.07s.32,.28,.32,.28l.29-.15-.94-1.83-1.11,.59Z"/>
      <path class="d" d="M46.45,39.98l-.14,.34,2.74,2.28-.02,.06h-.04s-3.5-.36-3.5-.36l-.15,.34,4.23,.42,.14-.33-3.26-2.76Z"/>
      <path class="d" d="M42.64,51.16l-.74-.94,.82-.66-.38-.48-.82,.66-.65-.83,1.08-.87-.39-.48-1.62,1.31,2.54,3.21,1.66-1.34-.38-.48-1.11,.9Z"/>
      <path class="d" d="M17.9,46.9l-2.1,1.97c-.16,.15-.32,.22-.47,.22s-.29-.07-.43-.22c-.13-.15-.19-.31-.18-.46,0-.14,.11-.29,.26-.43l2.09-1.97-.47-.52-2.1,1.98c-.32,.29-.46,.6-.46,.91,0,.3,.14,.61,.44,.91,.57,.63,1.19,.66,1.8,.1l2.1-1.97-.47-.52Z"/>
      <path class="d" d="M44.9,43.46l-.24,.35,.78,2.67-.04,.06-.03-.02-1.74-1.23-.21,.3,3.32,2.36,.22-.29-1.12-.8-.3-1.11,2.55,.27,.25-.34-2.91-.31-.52-1.9Z"/>
      <path class="d" d="M20.06,48.76l-.87-.62-2.35,3.36,.92,.64c.7,.5,1.32,.44,1.75-.17,.3-.42,.27-.72,.1-1.15l-.03-.07h.08c.37,.02,.67-.11,.88-.4,.48-.69,.01-1.25-.47-1.6Zm-1.08,2.76c-.14,.2-.31,.3-.5,.3-.14,0-.28-.06-.42-.15l-.32-.23,.75-1.07,.26,.19c.18,.13,.29,.28,.34,.43,.04,.18,0,.36-.12,.52Zm.93-1.5c-.1,.15-.25,.22-.42,.22-.13,0-.28-.05-.41-.14l-.25-.2,.62-.89,.3,.21c.32,.22,.38,.52,.17,.79Z"/>
      <path class="d" d="M49.2,36.89c.73-.16,1.66-1.15,1.69-2.17-.97,.28-1.69,1.44-1.69,2.17Z"/>
      <path class="d" d="M48.82,25.94c-.74,.73-.82,2.09-.48,2.72,.57-.48,.93-1.81,.48-2.72Z"/>
      <path class="d" d="M49.33,32.66c.66-.35,1.26-1.58,1.01-2.56-.86,.55-1.22,1.88-1.01,2.56Z"/>
      <path class="d" d="M47.71,24.17c-.61,.81-.47,2.19-.02,2.76,.48-.58,.61-1.93,.02-2.76Z"/>
      <path class="d" d="M49.55,34.75c.68-.3,1.39-1.47,1.22-2.48-.9,.48-1.36,1.78-1.22,2.48Z"/>
      <path class="d" d="M48.01,28.69c-.26-.71-1.38-1.48-2.39-1.36,.43,.94,1.69,1.48,2.39,1.36Z"/>
      <path class="d" d="M45.6,23.67c-.42-.63-1.67-1.16-2.64-.82,.62,.83,1.96,1.08,2.64,.82Z"/>
      <path class="d" d="M47.39,27.09c-.34-.67-1.52-1.33-2.51-1.11,.51,.89,1.82,1.29,2.51,1.11Z"/>
      <path class="d" d="M46.5,25.31c-.39-.65-1.63-1.19-2.6-.87,.59,.84,1.93,1.12,2.6,.87Z"/>
      <path class="d" d="M45.52,20.65c-.56,.86-.31,2.22,.16,2.75,.45-.61,.48-1.97-.16-2.75Z"/>
      <path class="d" d="M42.79,17.72c-.47,.94-.09,2.25,.43,2.74,.39-.65,.29-2.01-.43-2.74Z"/>
      <path class="d" d="M44.17,19.1c-.5,.91-.19,2.25,.31,2.75,.41-.62,.38-2-.31-2.75Z"/>
      <path class="d" d="M46.69,22.37c-.6,.83-.43,2.21,.02,2.76,.48-.58,.58-1.93-.02-2.76Z"/>
      <path class="d" d="M48.9,30.66c.61-.43,1.1-1.71,.74-2.65-.79,.63-1.01,1.99-.74,2.65Z"/>
      <path class="d" d="M46.47,28.93c.28,.99,1.42,1.72,2.14,1.73-.14-.75-1.14-1.68-2.14-1.73Z"/>
      <path class="d" d="M42.04,19.2c.23-.72-.13-2.02-.99-2.59-.27,1,.37,2.22,.99,2.59Z"/>
      <path class="d" d="M42.97,20.7c-.49-.57-1.8-.93-2.71-.47,.7,.73,2.08,.81,2.71,.47Z"/>
      <path class="d" d="M11.36,28.66c.34-.63,.26-2-.48-2.72-.45,.92-.09,2.24,.48,2.72Z"/>
      <path class="d" d="M10.37,32.66c.21-.69-.15-2.01-1.01-2.56-.25,.99,.35,2.21,1.01,2.56Z"/>
      <path class="d" d="M11.99,24.17c-.59,.83-.46,2.18,.02,2.76,.45-.57,.59-1.95-.02-2.76Z"/>
      <path class="d" d="M10.15,34.75c.15-.71-.31-2-1.22-2.48-.18,1.02,.53,2.18,1.22,2.48Z"/>
      <path class="d" d="M11.69,28.69c.7,.12,1.96-.41,2.39-1.36-1.01-.12-2.13,.65-2.39,1.36Z"/>
      <path class="d" d="M14.1,23.67c.68,.26,2.02,.01,2.64-.82-.97-.34-2.22,.19-2.64,.82Z"/>
      <path class="d" d="M12.3,27.09c.7,.19,2-.22,2.51-1.11-1-.22-2.18,.43-2.51,1.11Z"/>
      <path class="d" d="M13.2,25.31c.67,.25,2.01-.04,2.6-.87-.97-.31-2.21,.23-2.6,.87Z"/>
      <path class="d" d="M14.18,20.65c-.63,.78-.61,2.14-.16,2.75,.47-.53,.72-1.89,.16-2.75Z"/>
      <path class="d" d="M16.91,17.72c-.72,.73-.82,2.08-.43,2.74,.53-.49,.9-1.8,.43-2.74Z"/>
      <path class="d" d="M15.53,19.1c-.69,.74-.72,2.13-.31,2.75,.51-.5,.82-1.84,.31-2.75Z"/>
      <path class="d" d="M13.01,22.37c-.6,.83-.5,2.18-.02,2.76,.45-.55,.61-1.93,.02-2.76Z"/>
      <path class="d" d="M10.8,30.66c.27-.67,.05-2.02-.74-2.65-.36,.95,.12,2.23,.74,2.65Z"/>
      <path class="d" d="M11.09,30.66c.72-.01,1.87-.75,2.14-1.73-1.01,.05-2,.98-2.14,1.73Z"/>
      <path class="d" d="M18.64,16.61c-.85,.56-1.22,1.86-.98,2.59,.62-.37,1.26-1.59,.98-2.59Z"/>
      <path class="d" d="M18.72,18.47c.7,.07,1.94-.54,2.31-1.5-1.02-.06-2.1,.77-2.31,1.5Z"/>
      <path class="d" d="M16.73,20.7c.64,.35,2.01,.26,2.71-.47-.91-.46-2.23-.11-2.71,.47Z"/>
      <path class="d" d="M17.78,19.45c.64,.35,2.01,.26,2.71-.47-.91-.46-2.23-.11-2.71,.47Z"/>
      <path class="d" d="M15.39,22.15c.64,.32,2,.18,2.69-.6-.93-.4-2.23,0-2.69,.6Z"/>
      <path class="d" d="M10.5,34.69c.69-.18,1.64-1.16,1.66-2.19-.97,.29-1.7,1.43-1.66,2.19Z"/>
      <path class="d" d="M10.63,32.63c.72-.09,1.78-.96,1.93-1.97-1,.17-1.85,1.2-1.93,1.97Z"/>
      <path class="d" d="M8.96,36.93c.14,1.01,1.16,1.91,1.91,1.97-.07-.71-.9-1.8-1.91-1.97Z"/>
      <path class="d" d="M10.5,36.89c0-.72-.72-1.89-1.69-2.17,.02,1.01,.96,2.01,1.69,2.17Z"/>
      <path class="d" d="M10.78,36.78c.69-.23,1.56-1.28,1.53-2.31-.95,.36-1.61,1.54-1.53,2.31Z"/>
      <path class="d" d="M11.11,38.78c.66-.31,1.41-1.45,1.25-2.47-.9,.46-1.4,1.71-1.25,2.47Z"/>
      <path class="d" d="M40.97,18.47c-.22-.73-1.29-1.55-2.31-1.5,.38,.96,1.61,1.57,2.31,1.5Z"/>
      <path class="d" d="M41.92,19.45c-.49-.57-1.8-.93-2.71-.47,.7,.73,2.08,.81,2.71,.47Z"/>
      <path class="d" d="M44.3,22.15c-.45-.6-1.76-1-2.69-.6,.69,.78,2.05,.92,2.69,.6Z"/>
      <path class="d" d="M47.54,32.5c.02,1.03,.96,2.01,1.66,2.19,.04-.75-.69-1.9-1.66-2.19Z"/>
      <path class="d" d="M49.07,32.63c-.08-.76-.93-1.8-1.93-1.97,.15,1.01,1.21,1.87,1.93,1.97Z"/>
      <path class="d" d="M48.83,38.9c.75-.07,1.76-.97,1.91-1.97-1,.17-1.84,1.26-1.91,1.97Z"/>
      <path class="d" d="M47.4,34.47c-.03,1.03,.84,2.07,1.53,2.31,.09-.76-.58-1.95-1.53-2.31Z"/>
      <path class="d" d="M47.34,36.32c-.16,1.01,.59,2.16,1.25,2.47,.15-.75-.35-2-1.25-2.47Z"/>
      <path class="d" d="M30.03,14.22c-2.42,0-5.18,.35-4.81,.54,.37,.2,1.88,.43,4.81,.43s4.41-.24,4.79-.43c.36-.19-2.38-.54-4.79-.54Z"/>
      <path class="d" d="M30.03,12.91c-.23,0-.43,.18-.43,.43s.2,.43,.43,.43,.42-.18,.42-.43c0-.25-.18-.43-.42-.43Z"/>
      <path class="d" d="M34.44,13.34c-.23,0-.43,.18-.43,.43s.2,.43,.43,.43,.42-.18,.42-.43-.18-.43-.42-.43Z"/>
      <path class="d" d="M25.62,13.34c-.23,0-.43,.18-.43,.43s.2,.43,.43,.43,.42-.18,.42-.43-.18-.43-.42-.43Z"/>
      <path class="d" d="M32.16,13.18c-.16,0-.3,.12-.3,.29s.14,.29,.3,.29,.28-.13,.28-.29-.12-.29-.28-.29Z"/>
      <path class="d" d="M27.89,13.18c-.16,0-.29,.12-.29,.29s.13,.29,.29,.29c.17,0,.31-.13,.31-.29,0-.17-.13-.29-.31-.29Z"/>
      <path class="d" d="M24.43,12.68l.05,.63c1.76-.52,3.62-.8,5.55-.8s3.76,.28,5.51,.79l.05-.63c-1.77-.51-3.64-.78-5.57-.78-1.92,0-3.8,.27-5.6,.78Z"/>
      <path class="d" d="M45.63,34.68c0-8.79-7.05-15.92-15.75-15.92s-15.77,7.13-15.77,15.92,7.05,15.94,15.77,15.94,15.75-7.13,15.75-15.94Zm-15.75,13.97c-7.63,0-13.82-6.26-13.82-13.97s6.2-13.96,13.82-13.96,13.81,6.27,13.81,13.96-6.2,13.97-13.81,13.97Z"/>
      <path class="e" d="M39.27,44.19c-5.19,5.25-13.62,5.25-18.81,0-5.19-5.25-5.19-13.76,0-19.01,5.2-5.25,13.62-5.25,18.81,0,5.19,5.25,5.19,13.76,0,19.01Z"/>
      <path class="d" d="M17,31.28c-.56,2.17-.58,4.45-.05,6.62l16.1-16.27c-2.15-.53-4.4-.51-6.55,.05l-9.5,9.6Z"/>
      <path class="d" d="M18.99,42.41c.43,.62,.92,1.22,1.47,1.78,.56,.56,1.15,1.06,1.78,1.51l18.52-18.72c-.44-.63-.93-1.23-1.49-1.8-.55-.56-1.14-1.05-1.76-1.49l-18.53,18.73Z"/>
      <path class="d" d="M42.78,31.47l-16.1,16.27c2.15,.53,4.4,.52,6.55-.05l9.5-9.6c.56-2.17,.58-4.45,.05-6.62Z"/>
    </g>
  </g>
</svg>