<?xml version="1.0" encoding="UTF-8"?>
<svg id="a" data-name="Layer 1" xmlns="http://www.w3.org/2000/svg" xmlns:xlink="http://www.w3.org/1999/xlink" viewBox="0 0 40.34 40.75">
  <defs>
    <style>
      .c {
        fill: none;
      }

      .d {
        fill: #6a7ab5;
      }

      .e {
        fill: #034694;
      }

      .f {
        fill: #fff;
      }

      .g {
        fill: #ed1c24;
      }

      .h {
        fill: #d1d3d4;
      }

      .i {
        fill: #dba111;
      }

      .j {
        clip-path: url(#b);
      }
    </style>
    <clipPath id="b">
      <rect class="c" x=".17" y=".38" width="40" height="40"/>
    </clipPath>
  </defs>
  <g class="j">
    <g>
      <path class="i" d="M40.17,20.38c0,11.05-8.95,20-20,20S.17,31.42,.17,20.38,9.12,.38,20.17,.38s20,8.95,20,20Z"/>
      <path class="e" d="M39.5,20.38c0,10.68-8.66,19.33-19.33,19.33S.83,31.05,.83,20.38,9.49,1.04,20.17,1.04s19.33,8.66,19.33,19.33"/>
      <path class="i" d="M33.95,20.38c0,7.61-6.17,13.78-13.78,13.78s-13.78-6.17-13.78-13.78S12.56,6.6,20.17,6.6c7.61,0,13.78,6.17,13.78,13.78"/>
      <path class="f" d="M33.53,20.38c0,7.38-5.98,13.36-13.36,13.36s-13.36-5.98-13.36-13.36S12.79,7.02,20.17,7.02s13.36,5.98,13.36,13.36"/>
      <path class="i" d="M8.72,31.9c.15,.14,.51,.49,.51,.49l.35-.37-1.04-.99-.13,.14-1.4,1.46,.53,.5s.45-.47,.61-.64c.14,.13,.47,.44,.47,.44l.35-.37s-.33-.31-.46-.44c.09-.09,.13-.14,.22-.23"/>
      <path class="i" d="M11.23,33.57c-.05-.28-.2-.53-.44-.7-.24-.17-.52-.24-.8-.19-.3,.05-.57,.23-.77,.5-.19,.27-.27,.58-.22,.89,.05,.28,.2,.53,.44,.7,.24,.17,.52,.24,.81,.19,.3-.05,.57-.23,.76-.5,.15-.21,.23-.46,.23-.7,0-.06,0-.12-.02-.18m-1.49,.78c-.24-.17-.04-.53,.1-.73,.14-.2,.41-.51,.66-.34,.25,.18,.02,.57-.1,.73-.11,.16-.41,.51-.66,.33h0Z"/>
      <path class="i" d="M12.86,34.13c-.56-.28-1.21-.05-1.5,.54-.15,.29-.18,.62-.08,.91,.09,.27,.28,.49,.54,.62,.26,.13,.55,.16,.82,.07,.29-.09,.53-.31,.68-.6,.3-.59,.1-1.25-.46-1.53m-.62,1.64c-.07,.02-.13,.01-.2-.02-.11-.06-.15-.16-.15-.27,0-.16,.08-.34,.14-.47,.11-.22,.33-.56,.6-.43,.07,.04,.11,.08,.13,.15,.04,.13,0,.35-.12,.59-.12,.24-.27,.4-.4,.45h0Z"/>
      <path class="i" d="M14.02,34.94l-.1,.3s.26,.09,.34,.12c-.1,.29-.57,1.61-.57,1.61l.69,.24s.47-1.33,.57-1.61c.08,.03,.34,.12,.34,.12l.17-.48-1.38-.48-.06,.18"/>
      <path class="i" d="M16.88,35.58l-.93-.2-.04,.19-.42,1.98,.95,.2c.3,.06,.5-.01,.62-.09,.14-.09,.25-.25,.28-.43,.01-.05,.02-.1,.02-.15,0-.13-.04-.25-.12-.36,.11-.08,.18-.2,.21-.35,0-.04,.01-.08,.01-.13,0-.25-.14-.57-.59-.67m-.26,1.51s-.03,.1-.06,.13c-.03,.02-.09,.02-.17,0,0,0-.04,0-.08-.02,.03-.14,.05-.24,.08-.38,.04,0,.09,.02,.09,.02,.12,.03,.15,.12,.15,.18,0,.03,0,.05,0,.06h0Zm-.06-1.06c.08,.02,.14,.05,.17,.08,.01,.02,.02,.04,.02,.07,0,.02,0,.03,0,.06-.01,.06-.03,.14-.19,.11,0,0-.02,0-.05-.01,.03-.12,.04-.18,.06-.3h0Z"/>
      <path class="i" d="M18.6,35.9l-1.01,2.07,.58,.04s.16-.33,.22-.46c.12,.01,.24,.02,.36,.03,.04,.14,.16,.49,.16,.49l.77,.06-.86-2.67-.22,.43"/>
      <path class="i" d="M20.89,37.56c-.01-.3-.07-1.68-.07-1.68l-.73,.03,.09,2.21,1.46-.06-.02-.53s-.52,.02-.73,.03"/>
      <path class="i" d="M22.89,37.35c-.05-.3-.26-1.66-.26-1.66l-.19,.03-.53,.08,.34,2.19,1.45-.23-.08-.53s-.52,.08-.72,.11Z"/>
      <path class="i" d="M27.09,35.87c0,.19-.12,.35-.29,.42-.1,.04-.19,.04-.28,0-.14-.06-.27-.21-.35-.41-.09-.23-.11-.43-.05-.57,.04-.1,.12-.17,.25-.22,.14-.05,.27,0,.44,.1l.16,.1,.27-.43-.16-.11c-.29-.19-.66-.23-.97-.11-.29,.12-.52,.33-.64,.61-.12,.28-.12,.61,0,.91,.23,.58,.89,.87,1.47,.64,.42-.17,.65-.48,.68-.91v-.19s-.52-.04-.52-.04v.2"/>
      <path class="i" d="M28.79,35.27c-.15-.27-.82-1.47-.82-1.47l-.17,.1-.47,.26,1.08,1.93,1.28-.71-.26-.46s-.46,.26-.64,.36"/>
      <path class="i" d="M30.21,32.28l-.16,.11-.27,.2,.9,1.22c.04,.06,.04,.09,.04,.11,0,.06-.07,.13-.13,.17-.03,.02-.09,.05-.16,.04-.05,0-.08-.03-.12-.08l-.89-1.21-.59,.43,.88,1.2c.13,.18,.29,.28,.48,.31,.21,.03,.46-.04,.68-.21,.46-.34,.46-.79,.25-1.06l-.92-1.26"/>
      <path class="i" d="M32.91,31.84c-.14-.14-.3-.2-.48-.19-.01-.14-.06-.27-.17-.38-.18-.19-.6-.34-.98,.03l-.68,.66,1.54,1.59,.7-.68c.22-.22,.27-.42,.27-.56,0-.17-.07-.34-.2-.48Zm-1.17-.05s.05,.05,.05,.09c0,.03-.02,.07-.07,.12,0,0-.01,.01-.03,.03-.09-.09-.13-.13-.22-.22,.15-.14,.22-.08,.27-.03h0Zm.37,.55c.12-.12,.25-.01,.28,.02,.03,.03,.07,.08,.07,.12h0s-.03,.09-.09,.15c0,0-.03,.03-.06,.06-.1-.1-.17-.17-.27-.28,.03-.03,.07-.07,.07-.07h0Z"/>
      <path class="f" d="M8.72,31.7c.06,.06,.51,.49,.51,.49l.15-.16-.83-.79-.03,.03-1.3,1.36,.32,.3s.55-.58,.61-.64c.06,.06,.47,.44,.47,.44l.15-.16s-.41-.39-.47-.44c.05-.06,.37-.38,.42-.44"/>
      <path class="f" d="M10.7,32.99c-.21-.15-.45-.2-.69-.16-.27,.05-.5,.2-.67,.44-.17,.24-.24,.51-.19,.78,.04,.24,.18,.46,.38,.6,.21,.15,.45,.2,.7,.16,.26-.04,.5-.2,.67-.44,.13-.19,.21-.4,.21-.62,0-.05,0-.11-.01-.16-.04-.24-.18-.46-.39-.6m-.19,1.11c-.14,.19-.5,.62-.86,.37-.36-.26-.07-.74,.06-.93,.14-.2,.5-.62,.86-.37,.36,.26,.08,.74-.06,.94h0Z"/>
      <path class="f" d="M12.8,34.26c-.49-.25-1.05-.04-1.31,.47-.13,.26-.16,.54-.07,.8,.08,.23,.24,.42,.47,.54,.23,.12,.48,.14,.71,.06,.25-.08,.47-.27,.6-.53,.26-.52,.09-1.09-.4-1.34m-.82,1.62c-.39-.2-.18-.72-.08-.93,.11-.21,.4-.69,.8-.49,.1,.05,.17,.13,.21,.23,.08,.24-.05,.54-.13,.7-.08,.16-.25,.44-.49,.52-.1,.03-.21,.02-.31-.03Z"/>
      <path class="f" d="M14.16,34.99l-.06,.16s.27,.1,.34,.12c-.03,.09-.57,1.61-.57,1.61l.42,.15s.54-1.53,.57-1.61c.07,.02,.34,.12,.34,.12l.07-.2-1.1-.39-.02,.05"/>
      <path class="f" d="M16.85,35.72l-.79-.17v.05s-.4,1.84-.4,1.84l.81,.17c.2,.04,.38,.02,.51-.06,.11-.07,.19-.19,.22-.34,0-.04,.01-.08,.01-.12,0-.16-.08-.3-.22-.39,.16-.05,.28-.17,.32-.35,0-.03,.01-.06,.01-.1,0-.18-.1-.44-.47-.52m-.28,.16c.13,.03,.22,.08,.27,.15,.03,.04,.04,.09,.04,.15,0,.03,0,.06-.01,.09-.05,.24-.25,.24-.36,.22,0,0-.12-.02-.19-.04,.02-.08,.11-.51,.12-.59,.05,.01,.13,.03,.13,.03h0Zm-.06,.82c.22,.05,.26,.22,.26,.33,0,.05,0,.08,0,.08-.02,.11-.06,.18-.13,.22-.07,.04-.16,.05-.28,.03,0,0-.14-.03-.22-.05,.02-.08,.12-.59,.14-.67,.07,.01,.23,.05,.23,.05h0Z"/>
      <path class="f" d="M18.74,35.97l-.92,1.88,.26,.02s.19-.41,.22-.46c.06,0,.51,.04,.56,.04,.02,.05,.16,.49,.16,.49l.46,.04-.68-2.12-.06,.11m-.1,.76c.04,.14,.13,.42,.16,.51-.09,0-.3-.02-.39-.03,.04-.08,.17-.34,.23-.48Z"/>
      <path class="f" d="M20.75,37.71c0-.09-.07-1.68-.07-1.68h-.05s-.39,.02-.39,.02l.08,1.92,1.17-.05v-.24s-.66,.03-.74,.03"/>
      <path class="f" d="M22.77,37.51c-.01-.09-.26-1.67-.26-1.67h-.05s-.39,.07-.39,.07l.3,1.9,1.16-.18-.04-.24s-.64,.1-.72,.11"/>
      <path class="f" d="M27.23,35.88c0,.25-.15,.46-.38,.56-.13,.05-.27,.05-.39,0-.18-.08-.34-.26-.43-.49-.11-.27-.12-.51-.05-.68,.06-.13,.17-.23,.33-.3,.21-.08,.41,.01,.57,.11l.04,.02,.12-.19-.04-.03c-.25-.17-.57-.2-.84-.09-.26,.1-.46,.29-.56,.54-.11,.25-.11,.53,0,.8,.2,.51,.77,.76,1.28,.56,.36-.15,.56-.41,.59-.79v-.05s-.23-.02-.23-.02v.05"/>
      <path class="f" d="M28.74,35.47c-.05-.08-.82-1.47-.82-1.47l-.04,.02-.34,.19,.94,1.68,1.03-.57-.12-.21s-.57,.32-.64,.36"/>
      <path class="f" d="M30.18,32.49l-.04,.03-.16,.12,.81,1.11c.05,.07,.08,.15,.06,.22-.02,.13-.14,.23-.19,.27-.06,.04-.16,.08-.26,.06-.09-.01-.16-.06-.21-.13l-.8-1.09-.35,.26,.8,1.09c.11,.15,.24,.23,.39,.25,.24,.04,.46-.1,.57-.18,.38-.28,.39-.64,.22-.86l-.84-1.14"/>
      <path class="f" d="M32.8,31.94c-.15-.15-.34-.19-.54-.11,.02-.05,.03-.09,.03-.14,0-.11-.05-.23-.14-.32-.12-.13-.44-.29-.77,.03l-.58,.56,1.34,1.38,.59-.58c.15-.14,.23-.3,.23-.46,0-.14-.05-.27-.16-.38m-.87-.06c0,.1-.06,.18-.11,.23,0,0-.09,.09-.14,.14-.05-.06-.36-.38-.42-.43,.04-.03,.09-.09,.09-.09,.18-.18,.34-.19,.49-.04,.07,.07,.09,.14,.09,.2h0Zm.37,1c-.05-.06-.42-.43-.47-.49,.05-.05,.17-.17,.17-.17,.24-.23,.48,.01,.49,.02,.07,.08,.11,.15,.11,.22h0c0,.08-.05,.17-.13,.25,0,0-.12,.11-.16,.16h0Z"/>
      <path class="i" d="M11.28,7.2l-.81,.22,.09,.29c.11,.35,.01,.72-.26,.96-.15,.13-.33,.19-.52,.18-.29-.02-.63-.21-.89-.51-.31-.35-.46-.69-.44-.98,.01-.21,.12-.4,.31-.57,.22-.19,.49-.18,.86-.11l.28,.05,.18-.77-.28-.07c-.6-.15-1.22,0-1.67,.39-.87,.76-.94,2.01-.17,2.9,.72,.83,1.98,.92,2.8,.2,.59-.51,.79-1.17,.59-1.9l-.08-.28"/>
      <path class="i" d="M13.48,3.15l-.83,.39s.46,.98,.62,1.31c-.24,.11-.46,.22-.7,.33-.16-.34-.62-1.31-.62-1.31l-1.09,.51,1.66,3.51,1.09-.51s-.51-1.09-.68-1.44c.24-.11,.46-.22,.7-.33,.17,.35,.68,1.44,.68,1.44l1.09-.51-1.66-3.51-.26,.12"/>
      <path class="i" d="M17.16,5.32c-.05-.26-.11-.53-.16-.79,.34-.07,1.23-.25,1.23-.25l-.16-.78s-.89,.18-1.23,.25c-.05-.24-.09-.44-.14-.68,.35-.07,1.3-.26,1.3-.26l-.16-.78-.29,.06-2.2,.44,.77,3.81,2.5-.51-.16-.78s-.97,.2-1.32,.27"/>
      <path class="i" d="M20.71,1.94l-1.2-.02v.29s-.08,3.59-.08,3.59l2.53,.05,.02-.84s-.97-.02-1.32-.03c.01-.48,.06-3.04,.06-3.04"/>
      <path class="i" d="M24.61,3.9c-.31-.23-.4-.32-.37-.45,.02-.06,.09-.27,.31-.22,.13,.03,.27,.11,.33,.4l.07,.32,.79-.27-.05-.25c-.1-.49-.51-.91-1.04-1.04-.37-.09-.75-.04-1.06,.14-.28,.17-.48,.44-.56,.75-.2,.8,.34,1.18,.69,1.43,.36,.26,.46,.36,.4,.58-.02,.07-.06,.12-.12,.16-.07,.04-.16,.06-.24,.04-.19-.05-.27-.14-.35-.38l-.1-.3-.8,.33,.08,.25c.15,.49,.51,.8,1.09,.95,.66,.16,1.45-.14,1.65-.93,.21-.83-.36-1.25-.73-1.52"/>
      <path class="i" d="M27.48,5.97c.31,.15,1.12,.57,1.12,.57l.36-.71s-.81-.41-1.12-.56c.11-.22,.2-.4,.31-.62,.32,.16,1.19,.6,1.19,.6l.36-.71-2.26-1.14-.13,.26-1.62,3.21,2.28,1.15,.36-.71s-.89-.45-1.21-.61c.12-.24,.24-.48,.36-.72"/>
      <path class="i" d="M31.98,6.33l-3.62,1.87,.69,.6s.6-.32,.82-.43c.16,.14,.4,.35,.56,.49-.08,.23-.3,.88-.3,.88l.95,.83,1.55-4.57-.65,.32"/>
      <path class="f" d="M11.15,7.44l-.43,.12,.03,.1c.14,.43,.01,.87-.32,1.16-.19,.17-.42,.25-.66,.23-.35-.02-.72-.23-1.02-.58-.34-.39-.51-.78-.49-1.12,.02-.26,.15-.5,.38-.7,.31-.27,.69-.22,1.03-.15l.09,.02,.09-.4-.09-.02c-.54-.13-1.1,0-1.5,.35-.79,.69-.85,1.82-.15,2.63,.65,.75,1.78,.83,2.52,.18,.54-.47,.72-1.04,.53-1.7l-.03-.09"/>
      <path class="f" d="M13.56,3.32l-.65,.31s.55,1.16,.62,1.31c-.14,.07-.91,.43-1.05,.5-.07-.15-.62-1.31-.62-1.31l-.74,.35,1.49,3.16,.74-.35s-.61-1.28-.68-1.44c.14-.07,.91-.43,1.05-.5,.07,.15,.68,1.44,.68,1.44l.74-.35-1.49-3.16-.09,.04"/>
      <path class="f" d="M17.01,5.55c-.03-.15-.2-1.02-.24-1.17,.16-.03,1.23-.25,1.23-.25l-.08-.4s-1.07,.21-1.23,.25c-.03-.15-.18-.91-.21-1.06,.16-.03,1.3-.26,1.3-.26l-.08-.4-2.1,.42,.69,3.43,2.12-.43-.08-.4s-1.16,.23-1.32,.27"/>
      <path class="f" d="M20.51,2.13l-.82-.02v.1s-.07,3.4-.07,3.4l2.14,.05v-.45s-1.15-.02-1.32-.03c0-.18,.06-3.04,.06-3.04"/>
      <path class="f" d="M24.6,3.05c.26,.06,.41,.24,.47,.54l.02,.11,.43-.14-.02-.08c-.08-.42-.44-.78-.89-.89-.32-.08-.65-.04-.91,.12-.24,.14-.41,.37-.47,.63-.17,.67,.27,.98,.62,1.23,.35,.25,.57,.43,.48,.78-.04,.15-.13,.23-.21,.28-.12,.07-.26,.09-.38,.06-.26-.06-.39-.2-.49-.51l-.03-.1-.44,.18,.03,.08c.13,.42,.44,.69,.95,.82,.56,.14,1.25-.11,1.42-.79,.18-.7-.29-1.04-.66-1.32-.32-.23-.51-.39-.44-.65,.06-.23,.25-.43,.55-.36"/>
      <path class="f" d="M28.07,4.38c.15,.07,1.19,.6,1.19,.6l.18-.36-1.91-.97-.04,.09-1.53,3.03,1.93,.98,.18-.36s-1.06-.53-1.2-.61c.07-.14,.47-.93,.54-1.06,.15,.07,1.12,.56,1.12,.56l.18-.36s-.97-.49-1.12-.56c.07-.14,.42-.83,.49-.96"/>
      <path class="f" d="M32.07,6.51l-3.37,1.74,.38,.33s.71-.38,.82-.43c.08,.07,.68,.59,.76,.66-.04,.11-.3,.88-.3,.88l.64,.56,1.3-3.84-.22,.1Zm-1.79,1.44c.16-.08,.57-.29,.81-.42-.09,.26-.24,.7-.3,.87-.13-.11-.38-.33-.51-.44Z"/>
      <path class="h" d="M29.72,19.85c-.28-.73-1.23-1.05-2.13-.71-.37,.14-.68,.38-.89,.66,.59-1.69,3.01-2.05,3.01-3.63,0-2.64-3.75-1.9-3.21,0,0-.86,1.37-1.02,1.37,0s-2.4,1.69-2.4,3.42c0,1.9,1.9,2.08,1.71,3.82-.03,.3-.36,.69-.82,.69-2.91,0-1.87-3.59-2.89-4.68l.05-.74c.59,.36,2.15-.48,1.12-1.77,0,.63-1.32,.6-1.32-.6,0-1.62,1.52-.77,1.59-.42-.07-.59-.1-.96,0-1.3-.82,.26-.89-.21-.79-.39,.12-.21,.28-.46,.59-.46,.17,0,.28,.02,.34,.07,.1,.07,.18-.09,.16,.06,.09-.13,.05,.03,.14-.1,.09-.13,.2-.28,.4-.48v-.3s.23,.09,.23,.09l.23-.37c-.25-.51-.58-.27-.83-.9-.21-.05-3.42,.3-3.32-.98-.26,0-.88,.14-.5,.66-.3,.04-.51-.3-.96,.61,.56-.11,.27,.52,.27,.7,0,1.16-1.55,1.14-1.55,.6-.37,.36-.16,1.15,.4,1.35,0,0-.21,.85-.74,1.38-.78-.03-2.04-.17-2.77-.85-.31-.3-.56-.46-.77-.54v-.38c.31-.15,.65-.42,1-.87,.28-.34,.42-.77,.38-1.22,0-.05-.01-.11-.02-.16,0-.02,0-.03-.01-.05,0-.04-.02-.07-.03-.11,0-.02-.01-.04-.02-.05-.01-.04-.03-.07-.04-.11,0-.01-.01-.03-.02-.04-.02-.05-.04-.09-.07-.13-.01-.02-.02-.03-.03-.05-.02-.03-.03-.05-.05-.08-.01-.02-.03-.04-.04-.06-.01-.02-.03-.04-.05-.06-.02-.02-.03-.04-.05-.06-.01-.01-.03-.03-.04-.04-.05-.05-.1-.1-.15-.14,0,0,0,0-.01-.01-.03-.02-.06-.05-.09-.07,0,0-.02-.01-.02-.02-.03-.02-.07-.05-.1-.07,0,0,0,0,0,0-.33-.2-.73-.31-1.15-.27-1.01,.08-1.77,.93-1.68,1.89,.07,.75,.62,1.35,1.34,1.54-.25,.14-.47,.22-.51,.22,0,0,.02,.01,.03,.02,0,0,0,0,0,0,0,0,.02,.01,.03,.02,0,0,0,0,0,0,.02,0,.03,.02,.05,.03,0,0,0,0,0,0,.02,0,.03,.02,.05,.02,0,0,.01,0,.02,0,.04,.02,.09,.03,.15,.05,0,0,.02,0,.02,0,.02,0,.04,.01,.07,.02,0,0,.02,0,.02,0,.03,0,.06,.01,.09,.01,0,0,0,0,0,0v.22s-.02,0-.03,0c-.33,.05-.54,.16-.64,.45-.1,.29,0,.4,.16,.61-.13,.23-.47,.32-.03,.84-.03,.19,0,.5,.29,.6,.09,.03,.17,.05,.25,.06v3.86c-.28,.15-.42,.34-.5,.51,0,0-.23-.5-.21,.49,.26-.2,.16,.23,.16,.23-.35,.45,.09,.43,.09,.43,.3-.3,.24,.14,.24,.14,0,.53,.22,.74,.22,.74v2.94h-.26s0,.81,0,.81h.45c-.25,.1-.42,.35-.39,.63,.03,.35,.35,.6,.71,.58,.36-.03,.63-.33,.6-.68-.02-.24-.18-.44-.4-.53h.41s0-.81,0-.81h-.25s0-2.61,0-2.61c.05,.03,.11,.05,.17,.06,.02,0,.05,0,.07,0,.01,0,.02,0,.03,0-.07-.34,.14-.57,.14-.57,.11-.16,.26-.28,.43-.37,.52-.26,1.23-.19,1.44,.23,1.34-.35,2.49-1.7,2.49-1.7l.66,1.12c-1.4,.47-4.44,3.11-2.33,4.03,0,.27-.04,2.25-1.31,2.09-1.83-.23-2.28,.53-1.93,1.38-.16,.72,.39,.97,.39,.97-.08-.41,.12-.76,.87-.75,0,.76,.48,.89,.48,.89,0-.65,.45-.89,.85-.88,0,.53,.62,.74,.62,.74,0,0-.16-.61,.54-.74,1.77-.31,.11-2.13,2.8-2.63,0,0-1.34-.2-1.34-.94,0-.67,1.22-1.12,1.63-1.12,.86,1.64,1.79,1.65,2.03,1.66,.38,.42,.25,1.85-.3,1.83-2.01-.11-1.93,1.11-1.71,1.36-.03,.47,.34,.75,.34,.75,0-.51,.48-.65,1.1-.62-.03,.62,.36,.71,.36,.71,.01-.62,.47-.73,.8-.71-.02,.44,.41,.57,.41,.57,0,0-.04-.56,.54-.56,1.11,0-.5-2.38,1.66-4.73-1.9,.88-2.91-1.32-2.91-1.74,.98,1.14,4.15,1.37,4.15-.58s-2.05-2.56-1.09-3.28c.56-.42,1.66,.42,1.03,1.29,.9-.33,1.4-1.21,1.13-1.94m-12.16,.06c-.72,.42-1.2,.96-1.85,1.19-.1,.03-.18,.04-.25,.04v-3.65c.17,.02,.62,.08,1.15,.3,.52,.28,.52,.87-.14,1.01,.42,.8,1.85,.41,2.17-.24,.15-.01,.29,.26,.42,.52-.2,.1-.61,.31-1.5,.83h0Zm8.03-6.04c-.08,.11-.16,.21-.22,.3,.18,.3,.52,.49,.9,.46,.52-.05,.9-.51,.85-1.03,0-.02,0-.04,0-.05-.06,.27-.37,.5-.77,.53-.3,.03-.58-.06-.74-.21h0Z"/>
      <path class="e" d="M14,11.68s0,0,0,0h0s.02-.04,.03-.06c0,.02-.02,.04-.02,.05m.03,15.29s0,0,0,0h0s0,0,0,0h0Zm-.02-16.84h0Zm-.27,16.75h.45c-.05,.02-.1,.05-.15,.09,.04-.02,.09-.03,.14-.03,.23,0,.41,.18,.41,.41s-.18,.41-.41,.41c-.18,0-.33-.12-.39-.28v.04c.03,.35,.35,.6,.71,.57,.36-.03,.63-.33,.6-.68-.02-.24-.18-.43-.4-.52h.41s0-.81,0-.81h-.25s0-2.61,0-2.61c-.24-.13-.38-.4-.33-.68,.15,0,.29,.04,.39,.1-.14,.31,.21,.65,.21,.65-.07-.34,.14-.57,.14-.57,.11-.16,.26-.28,.43-.37,.52-.26,1.23-.19,1.44,.23,1.34-.35,2.49-1.7,2.49-1.7l.66,1.12c1.55,0,1.01-1.16,.91-1.26,.36,0,.86,.26,.86,.84,0,1.42-4.14,1.63-4.14,3.35,0,.73,.72,1,.72,1,0,1.58-1.08,2.51-1.82,2.51-1.18,0-2.09-.24-2.09,1.05h.41c-.39,.39-.03,.97-.03,.97-.08-.41,.12-.76,.87-.75h.47c-.3,.3-.12,.75,.01,.89,0-.65,.45-.89,.85-.89h.34c-.09,.09,.06,.52,.27,.74,0,0-.16-.61,.54-.74,1.77-.31,.11-2.13,2.8-2.63,0,0-1.34-.2-1.34-.94,0-.67,1.21-1.12,1.63-1.12,.33-.05,.64-.04,.91,.02,.11,1.06,1.32,1.01,1.59,1.01,1.03,1.03-.26,2.69-.26,2.69-1.58,0-2.21,.22-2.21,1.14h.3c-.17,.17-.07,.63,.04,.75,0-.51,.48-.65,1.1-.62h.33c-.16,.16-.13,.55,.04,.71,0-.62,.47-.73,.8-.71h.27c-.1,.1,0,.43,.14,.57,0,0-.04-.56,.54-.56,1.11,0-.5-2.38,1.66-4.73-1.9,.88-2.92-1.32-2.92-1.74,.98,1.14,4.15,1.37,4.15-.58,0-1.58-1.46-2.32-1.34-2.94,.04-.48,.44-.85,.93-.85,.52,0,.93,.42,.93,.93,0,.39-.24,.73-.58,.87,0,0,0,0,0,0,0,0,0,0,0,0,.9-.33,1.4-1.21,1.13-1.94-.28-.73-1.23-1.05-2.13-.71-.38,.14-.68,.38-.89,.66,.59-1.69,3.01-2.05,3.01-3.63,0-2.64-3.75-1.9-3.21,0,0-.03,0-.06,0-.08,.1-1.08,2.02-1.3,2.02,.11,0,1.2-2.46,1.86-2.46,3.47s1.82,2.07,1.82,3.81c0,.21-.11,1.1-1.32,1.1s-1.73-.65-2.04-1.5c-.59-1.15-.38-2.94-1.04-3.65l.05-.74c.59,.36,2.15-.49,1.13-1.77,0,.63-1.32,.6-1.32-.6,0-1.62,1.51-.78,1.59-.42-.07-.59-.1-.97,0-1.3-.82,.26-.89-.21-.79-.39,.12-.21,.28-.46,.6-.46,.46,0,.43,.17,.41,.41,.18-.27,.23-.46,.63-.86v-.3s.23,.09,.23,.09l.23-.37c-.25-.51-.58-.26-.83-.9-.21-.05-2.9-.3-2.81-1.58-.24,0-.89,.82-.45,1.26h-.56c-.3,.04-1-.17-1.45,.74,1.11-1.1,1.82,1.53-.21,1.53h0c-.3,0-.56-.12-.58-.34-.2,.89,1.08,1.17,1.08,1.17,0,.26-.64,1.7-.95,2.01,.21,.21,.28,1.48-.7,1.48,.35-.95-.68-1.75-1.68-2.28h0c-.18-.07-.35-.15-.51-.25-.62-.28-1.12-.44-1.12-.44v-.74c.31-.15,.65-.42,1-.87,.28-.34,.42-.77,.38-1.22,0-.05-.01-.11-.02-.16,0-.02,0-.03,0-.05,0-.04-.02-.07-.03-.11,0-.02,0-.04-.02-.05-.01-.04-.02-.07-.04-.11,0-.01-.01-.03-.02-.04-.02-.05-.04-.09-.07-.13,0-.02-.02-.04-.03-.05-.02-.03-.03-.05-.05-.08-.01-.02-.03-.04-.04-.06-.01-.02-.03-.04-.05-.06-.02-.02-.03-.04-.05-.06-.01-.01-.02-.03-.04-.04-.05-.05-.1-.1-.15-.14,0,0,0,0-.01-.01-.03-.02-.06-.05-.09-.07,0,0-.02-.01-.02-.02-.03-.02-.07-.05-.1-.07,0,0,0,0,0,0-.33-.2-.73-.31-1.15-.27-.09,0-.18,.02-.27,.04-.58,.22-1.01,.91-1.01,1.72,0,.76,.38,1.41,.91,1.67,0,0,.01,0,.02,0-.25,.14-.47,.22-.52,.22,0,0,.02,.01,.03,.02,0,0,0,0,0,0,.01,0,.02,.01,.03,.02,0,0,0,0,0,0,.02,0,.03,.02,.05,.03,0,0,0,0,0,0,.02,0,.03,.01,.05,.02,0,0,.01,0,.02,0,.05,.02,.09,.04,.15,.05,0,0,.01,0,.02,0,.02,0,.04,.01,.07,.02,0,0,.02,0,.02,0,.03,0,.06,.01,.09,.01,0,0,0,0,0,0,.19,.02,.42-.03,.42-.03v.43s-.34-.1-.42-.18c-.01,0-.02,0-.03,0-.33,.05-.54,.16-.64,.45-.1,.29,0,.4,.16,.61-.13,.23-.47,.32-.03,.84-.03,.19,0,.5,.29,.6,.09,.03,.17,.05,.25,.06,.17,0,.42,.14,.42,.49v3.32c.15,0,.32,.03,.47,.04v-3.65c.17,.02,.62,.08,1.15,.29,0,0,.01,0,.02,0,0,0,0,0,0,0,.05,0,.1,.02,.14,.03,.35,.11,.57,.41,.49,.68-.08,.27-.43,.4-.78,.29,.41,.8,1.85,.41,2.17-.24,.15-.01,.29,.26,.42,.52,0,0,.36,.14,1.25,.14,0,0-3.61,2.31-4.66,2.31-.45,0-1.44,0-1.44,.34-.27,0-.66,.46-.66,.73,.26-.2,.47-.2,.47-.2,.22,0,.34,.07,.34,.07-.08,.08-.44,.49-.44,.8,.3-.3,.43-.3,.43-.3,0,0,.32-.04,.43,.07-.08,.08-.21,.35-.21,.67,0,0,.19-.36,.42-.36v3.47c0,.11-.48,.21-.68,.21m.15-10.06c-.09,0-.13-.11-.13-.15,0-.04,.03-.16,.12-.16,.21,0,.64,.09,.64,.14,0,.04-.41,.17-.62,.18h0Zm-.14-.57c-.12,0-.16-.17-.16-.23,0-.06,.07-.22,.19-.21,.29,.02,.86,.23,.86,.28,0,.06-.6,.18-.89,.16Zm-.05-.73c-.13-.03-.14-.22-.12-.28,.02-.06,.12-.22,.25-.18,.31,.08,.88,.41,.86,.48-.02,.06-.68,.07-.99,0h0Zm.96-2.07c.05-.13,.04-.3,0-.47,0,0-.01,0-.02,0-.37,0-.67-.3-.67-.67,0-.06,0-.13,.02-.18h0s0,0,0,0c.08-.28,.34-.49,.65-.49,.37,0,.67,.3,.67,.68,0,.43-.3,.83-.67,1.14h0Z"/>
      <path class="g" d="M24.79,13.59c.18,.3,.52,.49,.9,.46,.52-.05,.9-.51,.85-1.03,0-.02,0-.04,0-.05-.06,.27-.37,.5-.77,.53-.31,.03-.58-.06-.74-.21-.08,.11-.16,.21-.22,.3"/>
      <path class="f" d="M23.53,11.84l.33,.02-.16,.22s-.22,.07-.16-.24Zm-.78,0h.47s-.02,.38,.33,.41l-.07,.12s-.92-.24-.72-.53Z"/>
      <path class="d" d="M14.68,15.08c.02-.06-.55-.39-.86-.48-.13-.03-.23,.12-.25,.18-.02,.06,0,.25,.12,.28,.31,.08,.97,.07,.99,0m-.05,.57c0-.06-.56-.26-.86-.28-.12,0-.19,.15-.19,.21,0,.06,.04,.22,.16,.23,.29,.02,.88-.1,.89-.16Zm-.64-1.71v.22c.08,.08,.39,.18,.42,.18v-.43s-.23,.05-.42,.03h0Zm-.12,2.12c-.09,0-.12,.12-.12,.16,0,.04,.04,.16,.13,.15,.21,0,.63-.14,.62-.18,0-.04-.43-.14-.64-.14h0Zm-.44,5.75c-.35,.45-.1,.87-.1,.87,0-.32,.36-.72,.44-.8,0,0-.12-.07-.34-.07h0Zm1.12,.96c-.05,.28,.09,.55,.33,.68,.05,.03,.11,.05,.17,.06,.03,0,.05,0,.07,.01,.01,0,.02,0,.03,0,0,0-.35-.33-.21-.65-.09-.06-.23-.1-.39-.1h0Zm-.64-9.27c-.53-.26-.91-.91-.91-1.67,0-.81,.42-1.49,1.01-1.72-.88,.19-1.49,.97-1.42,1.85,.07,.74,.61,1.34,1.32,1.54Zm5.64-1.86c.56-.11,.76,.4,.76,.57,0,.68-.53,.95-.97,.96h0c2.04,0,1.32-2.64,.21-1.53h0Zm-1.36,5.85c.97,0,.91-1.27,.7-1.48,.31-.31,.95-1.74,.95-2.01,0,0-1.28-.28-1.08-1.17,0,0,0,0,0,0h-.02c-.35,.37-.14,1.14,.42,1.33,0,0-.21,.85-.74,1.38-.53-.02-1.26-.09-1.91-.34,1,.53,2.03,1.34,1.68,2.28h0Zm-3.8-6.1c.25-.02,.47,.16,.49,.4,.02,.24-.17,.45-.42,.47-.25,.02-.47-.16-.49-.4,0,.37,.3,.67,.67,.67,0,0,.01,0,.02,0,.03,.16,.04,.34,0,.47,.36-.32,.67-.71,.67-1.14,0-.37-.3-.68-.67-.68-.31,0-.57,.21-.65,.49,.06-.16,.21-.27,.39-.29h0Zm7.17-.49c-.44-.44,.21-1.26,.45-1.26-.26,0-1.39,.74-1.01,1.26h.56Zm-5.67,7.32c.35,.11,.7-.02,.78-.29,.08-.27-.14-.57-.49-.68-.05-.01-.1-.02-.14-.03,.5,.29,.5,.87-.15,1Zm-1.01-3.71s.5,.16,1.12,.44c-.12-.08-.24-.16-.34-.26-.31-.3-.56-.46-.77-.54v.36h0Zm.19,6.43c1.05,0,4.66-2.31,4.66-2.31-.89,0-1.25-.14-1.25-.14-.2,.11-.62,.31-1.5,.83-.72,.42-1.2,.96-1.85,1.19-.1,.04-.18,.04-.25,.04-.15-.01-.32-.03-.47-.04v-3.32c0-.35-.25-.49-.42-.49v3.86c-.28,.15-.42,.34-.5,.51,0,0-.54-.07-.52,.93,0-.26,.39-.73,.66-.73,0-.34,.99-.34,1.44-.34h0Zm9.02,5.34c-.26,0-1.48,.05-1.59-1.01-.27-.06-.58-.07-.91-.02,.86,1.64,1.79,1.65,2.04,1.66,.38,.42,.25,1.85-.3,1.82-2.01-.11-1.93,1.11-1.71,1.36,0-.92,.63-1.14,2.21-1.14,0,0,1.29-1.65,.26-2.69h0Zm.41,3.96h-.27c-.02,.44,.41,.57,.41,.57-.14-.14-.24-.47-.14-.57h0Zm-2.54,.62c-.12-.12-.21-.58-.04-.75h-.3c-.02,.47,.34,.75,.34,.75h0Zm5.99-15.25c0-1.4-1.92-1.18-2.02-.11,.08-.79,1.37-.91,1.37,.08s-2.4,1.69-2.4,3.42c0,1.9,1.9,2.08,1.71,3.82-.03,.3-.36,.69-.82,.69-1,0-1.54-.43-1.85-1.03,.32,.85,.88,1.5,2.04,1.5s1.32-.89,1.32-1.1c0-1.74-1.82-2.16-1.82-3.81,0-1.61,2.46-2.28,2.46-3.47h0Zm-14.18,6.77c0,.54,.22,.75,.22,.75,0-.32,.13-.6,.21-.67-.11-.11-.43-.07-.43-.07h0Zm13.9-2.97c-.49,0-.89,.37-.93,.85,.02-.11,.1-.23,.25-.34,.56-.42,1.66,.42,1.03,1.29,.34-.14,.59-.47,.59-.87,0-.52-.42-.93-.93-.93h0Zm-4.28,10.84h-.33c-.03,.62,.36,.71,.36,.71-.17-.17-.2-.55-.04-.71Zm-9.21-3.31c-.05,0-.1,.01-.14,.03-.16,.12-.25,.3-.24,.5,.05,.17,.2,.28,.39,.28,.23,0,.41-.18,.41-.41s-.18-.41-.41-.41h0Zm2.29,3.01h-.47c0,.76,.48,.89,.48,.89-.14-.14-.31-.59-.01-.89h0Zm1.46-4.78c0-1.73,4.14-1.93,4.14-3.35,0-.58-.5-.84-.86-.84,.1,.1,.64,1.26-.91,1.26-1.4,.47-4.44,3.11-2.33,4.03,0,.27-.04,2.25-1.31,2.09-1.83-.23-2.28,.53-1.93,1.38,0-1.29,.91-1.05,2.09-1.05,.74,0,1.82-.94,1.82-2.51,0,0-.72-.28-.72-1h0Zm-3.52,1.06v-3.47c-.23,0-.42,.36-.42,.36v2.94h-.26s0,.37,0,.37c.2,0,.68-.1,.68-.21h0Zm.71,4.47s-.37-.57,.03-.97h-.41c-.17,.72,.39,.97,.39,.97Zm2.55-.74h-.34c0,.53,.62,.73,.62,.73-.22-.22-.37-.64-.27-.73Z"/>
      <path class="f" d="M6.17,24.19l-.02-.07v-.07c-.04-.25-.1-.71-.46-.8-.1-.02-.2-.01-.3,.03,.03-.11,.03-.21,0-.3-.13-.34-.6-.34-.85-.34h-.15c-.25-.06-.71-.15-.9,.17-.05,.08-.07,.18-.06,.3-.1-.06-.19-.09-.29-.08-.37,.02-.51,.47-.58,.71l-.02,.07-.03,.06c-.12,.22-.34,.63-.1,.91,.06,.07,.15,.12,.26,.15-.09,.07-.14,.16-.17,.25-.1,.36,.29,.63,.49,.77l.06,.04,.05,.05c.17,.18,.5,.52,.83,.38,.09-.04,.16-.11,.22-.2,.04,.11,.1,.18,.19,.24,.31,.2,.68-.08,.89-.23l.06-.04,.07-.03c.23-.11,.65-.31,.62-.68,0-.1-.05-.19-.12-.28,.11,0,.21-.04,.28-.1,.29-.23,.14-.68,.06-.91"/>
      <path class="g" d="M4.56,24.49c2.06,1.22,1.43-.12,1.38-.32-.05-.2-.06-1.68-1.38,.32Z"/>
      <path class="g" d="M4.43,24.8c-.52,2.33,.56,1.32,.73,1.21,.17-.1,1.58-.58-.73-1.21"/>
      <path class="g" d="M4.1,24.77c-2.38,.22-1.08,.94-.93,1.07,.15,.13,1.04,1.32,.93-1.07Z"/>
      <path class="g" d="M4.02,24.44c-.95-2.2-1.23-.74-1.3-.55-.08,.19-.94,1.39,1.3,.55Z"/>
      <path class="f" d="M38.05,23.87l-.03-.06-.02-.07c-.08-.24-.22-.69-.58-.71-.1,0-.19,.02-.29,.08,0-.11-.01-.21-.06-.29-.19-.32-.65-.23-.9-.18h-.07s-.07,.01-.07,.01c-.25,0-.72,0-.85,.34-.04,.09-.04,.19-.01,.3-.1-.04-.2-.05-.3-.03-.36,.08-.42,.55-.45,.8v.07s-.03,.07-.03,.07c-.08,.24-.23,.68,.06,.91,.08,.06,.17,.1,.28,.1-.07,.09-.11,.18-.12,.28-.03,.37,.39,.57,.62,.68l.07,.03,.06,.04c.2,.15,.58,.43,.89,.23,.08-.05,.14-.13,.19-.24,.06,.1,.13,.16,.22,.2,.34,.14,.66-.2,.83-.38l.05-.05,.06-.04c.21-.15,.59-.42,.49-.77-.03-.1-.08-.18-.17-.25,.11-.03,.2-.08,.26-.15,.24-.28,.02-.69-.1-.91"/>
      <path class="g" d="M36.23,24.27c-1.79-1.58-.33-1.39-.12-1.41,.2-.02,1.62-.46,.12,1.41Z"/>
      <path class="g" d="M35.98,24.49c-2.06,1.22-1.43-.12-1.38-.32,.05-.2,.06-1.68,1.38,.32Z"/>
      <path class="g" d="M36.11,24.8c.52,2.33-.56,1.32-.73,1.21-.17-.1-1.58-.58,.73-1.21"/>
      <path class="g" d="M36.44,24.77c2.38,.22,1.08,.94,.93,1.07-.15,.13-1.04,1.32-.93-1.07Z"/>
      <path class="g" d="M36.51,24.44c.95-2.2,1.23-.74,1.3-.55,.08,.19,.94,1.39-1.3,.55Z"/>
      <path class="f" d="M36.98,24.51s0-.04-.01-.05c.19-.14,.4-.29,.4-.29l-.02-.04s-.24,.04-.47,.08c-.12-.19-.31-.32-.54-.34-.07-.22-.14-.44-.14-.44h-.05s-.03,.23-.07,.46c-.14,.04-.26,.12-.36,.23-.05,.06-.09,.13-.12,.2-.23,0-.48,0-.48,0v.05s.22,.11,.43,.22c0,.02,0,.04,0,.06,.02,.19,.1,.35,.24,.48-.07,.23-.16,.49-.16,.49l.04,.02s.19-.2,.37-.38c.09,.03,.19,.04,.28,.03,.1,0,.19-.04,.27-.08,.2,.14,.42,.31,.42,.31l.04-.03s-.13-.24-.24-.46c.12-.15,.17-.33,.16-.51"/>
      <path class="g" d="M36.23,24.15c-.11,0-.21,.06-.29,.15-.07,.09-.11,.2-.1,.31,.02,.23,.23,.41,.46,.38,.11-.01,.21-.06,.29-.15,.07-.09,.11-.2,.1-.31-.02-.23-.23-.4-.46-.38Z"/>
      <path class="g" d="M4.31,24.27c1.79-1.58,.32-1.39,.12-1.41-.2-.02-1.62-.46-.12,1.41Z"/>
      <path class="f" d="M4.99,24.58c.21-.1,.44-.22,.44-.22v-.05s-.26,0-.49,0c-.03-.07-.07-.14-.12-.2-.09-.11-.22-.19-.36-.23-.03-.22-.06-.45-.06-.45h-.05s-.07,.22-.14,.43c-.23,.02-.43,.15-.54,.34-.23-.04-.47-.08-.47-.08l-.02,.04s.21,.15,.4,.29c0,.02,0,.04-.01,.05-.02,.19,.04,.37,.16,.51-.11,.22-.24,.46-.24,.46l.04,.03s.22-.16,.42-.31c.08,.04,.18,.07,.27,.08,.1,0,.19,0,.28-.03,.17,.18,.36,.38,.36,.38l.04-.02s-.08-.26-.16-.49c.14-.12,.23-.29,.24-.48,0-.02,0-.04,0-.06"/>
      <path class="g" d="M4.6,24.3c-.07-.09-.17-.14-.29-.15-.23-.02-.44,.15-.46,.38,0,.11,.03,.22,.1,.31,.07,.09,.17,.14,.29,.15,.23,.02,.44-.15,.46-.38,0-.11-.03-.22-.1-.31"/>
      <path class="f" d="M4.57,14.32c-1-.18-1.96,.5-2.14,1.5-.18,1,.5,1.96,1.5,2.14,1,.18,1.96-.5,2.14-1.5,.18-1-.5-1.96-1.5-2.14"/>
      <path class="g" d="M4.99,15.71s-.04-.03-.08-.05c-.15-.1-.45-.3-.46-.3-.04-.03-.08-.06-.12-.08-.13-.09-.25-.17-.36-.23-.04-.02-.08-.05-.13-.07-.18-.09-.35-.14-.55-.16-.15,.11-.29,.25-.4,.41,.46,.17,.91,.43,1.84,1.01,.05-.12,.23-.5,.24-.53"/>
      <path class="g" d="M4.56,16.71s.1-.25,.13-.33c-.96-.59-1.4-.86-1.86-1.02-.07,.13-.12,.27-.16,.42,.26,.36,.97,.72,1.89,.94Z"/>
      <path class="g" d="M4.45,15.19c.36-.21,.77-.15,1.08-.05-.12-.15-.26-.28-.42-.39-.3-.06-.71-.07-1.03,.19,.12,.07,.24,.15,.38,.24Z"/>
      <path class="g" d="M3.02,16.91s.1,.06,.15,.09c.11,.06,.22,.11,.34,.15,.05,.02,.1,.04,.15,.05,.18,.06,.59,.17,.62,.17,0-.02,.16-.4,.22-.54-.71-.18-1.5-.49-1.87-.89-.02,.19-.01,.37,.03,.54,.08,.17,.2,.31,.36,.42"/>
      <path class="g" d="M4.31,17.53l-.15-.04c-.14-.04-.29-.07-.44-.12,.07,.16,.19,.28,.32,.38,.17,.02,.33,.02,.49,0-.11-.09-.22-.21-.22-.21"/>
      <path class="g" d="M5.8,15.67c-.03-.11-.08-.22-.13-.32-.28-.13-.71-.25-1.08-.06l.52,.34c.11,0,.21-.01,.3-.01,.05,0,.1,0,.14,0,.1,0,.19,.03,.27,.04"/>
      <path class="g" d="M5.54,15.76c-.02,.85-.42,1.5-.76,1.91,.54-.19,.96-.65,1.07-1.25,.04-.21,.03-.41,0-.6-.08-.03-.18-.05-.3-.06"/>
      <path class="g" d="M3.95,14.88c.24-.21,.53-.28,.79-.29-.07-.02-.13-.04-.21-.05-.38-.07-.74,0-1.05,.17,.17,.03,.32,.09,.47,.17Z"/>
      <path class="g" d="M5.12,15.76c-.12,.26-.19,.41-.25,.55-.02,.04-.04,.09-.05,.13-.03,.07-.12,.29-.12,.29l-.05,.13-.23,.56c.06,.08,.14,.15,.21,.2,.34-.39,.76-1.04,.77-1.89-.09,0-.18,0-.28,0"/>
      <path class="g" d="M3.55,17.31c-.11-.04-.23-.08-.33-.14,.04,.12,.1,.23,.16,.33,.12,.08,.26,.14,.4,.18-.09-.1-.17-.23-.22-.38Z"/>
      <path class="g" d="M3.05,17.09c-.08-.05-.15-.1-.22-.15,.08,.13,.17,.26,.28,.37-.03-.07-.05-.14-.06-.21"/>
      <path class="f" d="M34.27,16.46c.18,1,1.14,1.68,2.14,1.5,1-.18,1.68-1.14,1.5-2.14-.18-1-1.14-1.68-2.14-1.5-1,.18-1.68,1.14-1.5,2.14"/>
      <path class="g" d="M35.35,15.71s.04-.03,.08-.05c.15-.1,.45-.3,.46-.3,.04-.03,.08-.06,.12-.08,.13-.09,.25-.17,.36-.23,.04-.02,.08-.05,.13-.07,.18-.09,.35-.14,.55-.16,.15,.11,.29,.25,.4,.41-.46,.17-.91,.43-1.84,1.01-.05-.12-.23-.5-.24-.53"/>
      <path class="g" d="M35.78,16.71s-.1-.25-.13-.33c.96-.59,1.4-.86,1.86-1.02,.07,.13,.12,.27,.16,.42-.26,.36-.97,.72-1.89,.94"/>
      <path class="g" d="M35.88,15.19c-.36-.21-.77-.15-1.08-.05,.12-.15,.26-.28,.43-.39,.3-.06,.71-.07,1.03,.19-.12,.07-.24,.15-.38,.24Z"/>
      <path class="g" d="M37.31,16.91s-.1,.06-.15,.09c-.1,.06-.22,.11-.34,.15-.05,.02-.1,.04-.15,.05-.18,.06-.59,.17-.62,.17,0-.02-.16-.4-.22-.54,.71-.18,1.49-.49,1.87-.89,.02,.19,.01,.37-.03,.54-.08,.17-.2,.31-.36,.42"/>
      <path class="g" d="M36.03,17.53l.15-.04c.14-.04,.29-.07,.44-.12-.08,.16-.19,.28-.32,.38-.17,.02-.33,.02-.49,0,.11-.09,.22-.21,.22-.21"/>
      <path class="g" d="M34.53,15.67c.03-.11,.08-.22,.14-.32,.28-.13,.71-.25,1.08-.06l-.52,.34c-.11,0-.21-.01-.3-.01-.05,0-.1,0-.14,0-.1,0-.19,.03-.27,.04"/>
      <path class="g" d="M34.8,15.76c.01,.85,.42,1.5,.76,1.91-.54-.19-.97-.65-1.07-1.25-.04-.21-.03-.41,0-.6,.08-.03,.18-.05,.3-.06"/>
      <path class="g" d="M36.39,14.88c-.24-.21-.53-.28-.79-.29,.07-.02,.13-.04,.21-.05,.37-.07,.74,0,1.05,.17-.17,.03-.32,.09-.47,.17Z"/>
      <path class="g" d="M35.22,15.76c.12,.26,.19,.41,.26,.55,.02,.04,.03,.09,.05,.13,.03,.07,.12,.29,.12,.29l.05,.13,.23,.56c-.06,.08-.14,.15-.21,.2-.34-.39-.76-1.04-.77-1.89,.08,0,.18,0,.28,0"/>
      <path class="g" d="M36.79,17.31c.11-.04,.23-.08,.33-.14-.04,.12-.1,.23-.16,.33-.12,.08-.25,.14-.4,.18,.09-.1,.17-.23,.22-.38Z"/>
      <path class="g" d="M37.29,17.09c.08-.05,.15-.1,.21-.15-.08,.13-.17,.26-.28,.37,.03-.07,.05-.14,.06-.21"/>
    </g>
  </g>
</svg>