<?xml version="1.0" encoding="UTF-8"?>
<svg id="a" data-name="Layer 1" xmlns="http://www.w3.org/2000/svg" viewBox="0 0 42.34 56.75">
  <defs>
    <style>
      .b {
        fill: #090926;
      }
    </style>
  </defs>
  <path class="b" d="M39.4,6.73v2.46c-.05,.34-.12,.68-.16,1.02-.11,.85-.21,1.71-.31,2.56-.29,2.32-.91,4.57-1.63,6.8-.94,2.92-1.82,5.86-2.82,8.76-.75,2.18-1.57,4.34-2.48,6.46-.75,1.77-1.61,3.49-2.52,5.17-.4,.75-1.05,1.37-1.59,2.06-.19,.24-.32,.61-.56,.71-.55,.22-.51,.74-.77,1.11-.47,.69-.73,1.58-1.63,1.94-.13,.05-.25,.32-.25,.48,.05,1.06,.73,1.7,1.81,1.95,.92,.21,1.85,.46,2.69,.87,.53,.26,.88,.87,1.31,1.32,1.21,1.25,1.01,2.97-.53,3.75-1.06,.53-2.2,.99-3.35,1.25-3.07,.69-6.18,.7-9.3,.3-1.72-.22-3.38-.66-4.9-1.5-1.14-.63-1.68-1.66-1.18-2.77,.4-.89,1.11-1.75,1.91-2.31,.75-.53,1.79-.69,2.73-.91,1.06-.24,1.75-.92,1.79-1.96,0-.13-.04-.36-.1-.38-.62-.15-.89-.65-1.16-1.14-.25-.44-.49-.87-.73-1.31-.08-.14-.1-.4-.19-.43-.78-.19-.9-.94-1.33-1.44-.2-.23-.26-.6-.49-.76-.86-.6-1.29-1.5-1.7-2.38-.79-1.7-1.55-3.42-2.23-5.17-.88-2.26-1.71-4.55-2.52-6.83-.55-1.56-1.05-3.14-1.52-4.73-.66-2.21-1.36-4.42-1.87-6.67-.39-1.73-.49-3.52-.74-5.29-.33-2.38-.03-4.64,1.11-6.79C5.46,.55,8.72,0,10.44,2.02c1.01,1.19,1.17,2.68,.85,4.19-.22,1.01-.47,2.03-.72,3.04-.12,.48-.03,.87,.49,1.25-.21-.72-.04-1.16,.64-1.28,1.43-.24,2.86-.52,4.3-.67,4.73-.49,9.43-.1,14.11,.6,1.17,.17,1.16,.19,1.27,1.27,.42-.26,.51-.64,.42-1.06-.1-.48-.24-.95-.37-1.43-.41-1.51-.73-3.01-.26-4.58,.53-1.78,2.32-2.88,4.15-2.48,1.8,.39,2.78,1.62,3.35,3.22,.31,.86,.49,1.77,.73,2.65h0Zm-6.16,20.75l.14,.03c.21-.63,.4-1.26,.62-1.89,1.09-3.24,2.31-6.43,3.05-9.78,.64-2.92,1.05-5.85,.75-8.84-.16-1.55-.6-3-1.89-4.07-1.24-1.02-2.99-.78-3.61,.65-.28,.65-.3,1.5-.16,2.21,.31,1.53,.7,3.04,.59,4.61-.03,.44-.13,.91-.36,1.27-.42,.66-1.01,1.23-1.45,1.87-.3,.44-.53,.67-1.05-.02,.19,.87,.53,1.43,1.11,1.78,.93,.57,1.9,1.07,2.87,1.56,.29,.15,.48,.25,.45,.62-.22,2.36-.41,4.73-.64,7.1-.1,.97-.27,1.93-.41,2.9h0ZM12.37,13.7c-.38,.44-.59,.38-.9-.1-.44-.67-1-1.26-1.5-1.91-.1-.12-.17-.28-.21-.44-.42-1.54-.05-3.04,.22-4.56,.12-.66,.27-1.32,.31-1.99,.07-1.04-.42-1.82-1.4-2.25-.92-.4-1.75-.1-2.48,.49-1.29,1.03-1.7,2.49-1.87,4.01-.25,2.23-.12,4.46,.35,6.66,.4,1.9,.8,3.8,1.33,5.67,.58,2.02,1.3,4,1.97,6,.25,.73,.51,1.45,.77,2.18-.1-1.59-.33-3.15-.48-4.71-.18-1.73-.3-3.47-.41-5.21-.01-.21,.13-.52,.3-.62,.86-.48,1.77-.88,2.63-1.37,.71-.41,1.24-.99,1.37-1.87h0Z"/>
</svg>