<?xml version="1.0" encoding="UTF-8"?>
<svg id="a" data-name="Layer 1" xmlns="http://www.w3.org/2000/svg" xmlns:xlink="http://www.w3.org/1999/xlink" viewBox="0 0 40.34 40.75">
  <defs>
    <style>
      .c, .d {
        fill: none;
      }

      .e {
        fill: #000923;
      }

      .f {
        fill: #fff;
      }

      .g {
        clip-path: url(#b);
      }

      .d {
        stroke: #000923;
      }
    </style>
    <clipPath id="b">
      <rect class="c" x=".17" y=".38" width="40" height="40"/>
    </clipPath>
  </defs>
  <g class="g">
    <g>
      <path class="f" d="M20.17,40.02c10.85,0,19.64-8.79,19.64-19.64S31.02,.73,20.17,.73,.53,9.53,.53,20.38s8.79,19.64,19.64,19.64Z"/>
      <path class="d" d="M20.17,38.59c10.06,0,18.21-8.15,18.21-18.21S30.23,2.16,20.17,2.16,1.95,10.32,1.95,20.38s8.15,18.21,18.21,18.21Z"/>
      <path class="e" d="M14.28,5.54l4.82,14.91h2.08l4.76-14.91h-2.91l-2.9,9.96-2.88-9.96h-2.97Zm-7.45,7.34v14.71h4.62c3.74,0,5.64-4.53,3.04-7.32v-.03s.02-.02,.02-.02c2.16-2.44,1.25-6.74-2.76-7.34H6.83Zm19.11,0v14.71h4.64c3.74,0,5.63-4.53,3.04-7.32v-.03s.02-.02,.02-.02c2.16-2.44,1.25-6.74-2.77-7.34h-4.93Zm-16.41,2.75h2.27c1.48,0,1.78,2.83,.09,3.28h-2.36v-3.28Zm19.15,0h2.26c1.47,0,1.78,2.83,.09,3.28h-2.34v-3.28Zm-19.15,5.91h2.01c1.66,0,2.28,3.03,.11,3.46h-2.12v-3.46Zm19.15,0h1.99c1.66,0,2.28,3.03,.11,3.46h-2.1v-3.46Zm-11.43,6.36c-1.19,0-2.16,.98-2.16,2.17v3.26c0,1.19,.97,2.16,2.16,2.16h.04c1.19,0,2.16-.97,2.16-2.16v-3.26c0-1.19-.97-2.17-2.16-2.17h-.04Zm5.74,0c-1.19,0-2.21,.93-2.21,2.12v.54c0,1.19,1.09,2.16,2.21,2.19,0,0,.46,0,.69-.14l.02,.74c0,.37-.3,.7-.67,.69-.3-.01-.71-.16-.71-.54,0,0,.07-.49-.29-.49h-1.25c-.01,.12,0,.19,0,.36,0,1.13,.96,2.12,2.27,2.12,1.24-.01,2.1-.96,2.1-2.19v-3.26c0-1.19-.93-2.14-2.12-2.14h-.04Zm.02,1.54c.39,0,.69,.3,.69,.67v.42c0,.37-.3,.67-.67,.67-.39,0-.71-.3-.71-.67v-.42c0-.37,.32-.67,.69-.67Zm-5.76,.02c.39,0,.71,.3,.71,.67v3.24c0,.37-.32,.67-.69,.67-.39,0-.69-.3-.69-.67v-3.24c0-.37,.3-.67,.67-.67Z"/>
    </g>
  </g>
</svg>