<?xml version="1.0" encoding="UTF-8"?>
<svg id="a" data-name="Layer 1" xmlns="http://www.w3.org/2000/svg" xmlns:xlink="http://www.w3.org/1999/xlink" viewBox="0 0 40.34 40.75">
  <defs>
    <style>
      .c {
        fill: none;
      }

      .d {
        fill: #000923;
      }

      .e {
        fill: #fff;
      }

      .f {
        clip-path: url(#b);
      }
    </style>
    <clipPath id="b">
      <rect class="c" x=".17" y=".38" width="40" height="40"/>
    </clipPath>
  </defs>
  <g class="f">
    <g>
      <path class="d" d="M20.11,40.17c3.91,0,7.74-1.16,11-3.34,3.25-2.17,5.79-5.27,7.29-8.88,1.5-3.62,1.89-7.6,1.13-11.43-.76-3.84-2.65-7.37-5.42-10.13-2.77-2.77-6.29-4.65-10.13-5.42-3.84-.76-7.82-.37-11.43,1.13-3.62,1.5-6.71,4.04-8.88,7.29C1.48,12.65,.32,16.47,.32,20.39c0,2.6,.51,5.17,1.51,7.57,.99,2.4,2.45,4.58,4.29,6.42,1.84,1.84,4.02,3.29,6.42,4.29,2.4,.99,4.97,1.51,7.57,1.5"/>
      <path class="e" d="M20.17,1.03c-3.83,0-7.57,1.13-10.75,3.26-3.18,2.13-5.66,5.15-7.12,8.68-1.46,3.53-1.85,7.42-1.1,11.18,.75,3.75,2.59,7.2,5.3,9.9,2.71,2.71,6.15,4.55,9.91,5.29,3.75,.75,7.64,.36,11.18-1.1,3.53-1.46,6.56-3.94,8.68-7.13,2.13-3.18,3.26-6.92,3.26-10.75,0-5.13-2.05-10.04-5.67-13.67-3.63-3.63-8.54-5.66-13.67-5.67m0,39.34c-3.96,0-7.82-1.17-11.11-3.37-3.29-2.2-5.85-5.32-7.37-8.98C.17,24.37-.22,20.35,.55,16.47c.77-3.88,2.68-7.44,5.47-10.24C8.82,3.43,12.38,1.53,16.26,.76,20.14-.02,24.17,.38,27.82,1.9c3.66,1.51,6.78,4.08,8.98,7.37,2.2,3.29,3.37,7.16,3.37,11.11,0,5.3-2.11,10.39-5.86,14.14-3.75,3.75-8.83,5.86-14.14,5.86"/>
      <path class="e" d="M20.17,5.02c-3.04,0-6.01,.9-8.53,2.59-2.53,1.69-4.49,4.09-5.66,6.89-1.16,2.81-1.47,5.89-.87,8.87,.59,2.98,2.06,5.71,4.2,7.86,2.15,2.15,4.88,3.61,7.86,4.2,2.98,.59,6.07,.29,8.87-.88,2.81-1.16,5.2-3.13,6.89-5.66,1.69-2.53,2.59-5.5,2.59-8.53,0-4.07-1.62-7.97-4.5-10.85-2.88-2.88-6.78-4.5-10.85-4.5m0,33.82c-3.65,0-7.22-1.08-10.26-3.11-3.04-2.03-5.4-4.91-6.8-8.29-1.4-3.37-1.76-7.09-1.05-10.67,.71-3.58,2.47-6.87,5.05-9.45,2.58-2.58,5.87-4.34,9.45-5.05,3.58-.71,7.29-.35,10.67,1.05,3.37,1.4,6.26,3.76,8.29,6.8,2.03,3.04,3.11,6.61,3.11,10.26,0,4.9-1.95,9.59-5.41,13.05-3.46,3.46-8.16,5.41-13.05,5.41Z"/>
      <path class="e" d="M27.76,21.2c1.55,.68,3.22,1.05,4.91,1.1,1.79,.06,2.5-1.05,1.91-1.24-.23-.08-5.35-1.52-5.35-1.52,0,0-.63-.25-.16-.3,.47-.05,2.6-.03,3.51-.4,1.11-.43,1.3-1.45,1.04-1.44-2.23,.12-4.33,.08-4.44,.06h-.04s-.25-.08-.03-.28c.22-.19,1.84-1.55,2.17-1.89,.87-.87,.29-2.17,.13-2.05-1.05,.99-2.22,1.83-3.49,2.52-.11,0-.08-.25,0-.43,.32-.42,.59-.89,.78-1.39,.43-1.61,.32-2.63-.59-3.03-.16-.07-.23,.02-.43,.52-.21,.5-.29,1.38-1.11,1.73-.43,.17-1.19,.87-1.2,1.17-.01,.3,.16,.73-.06,.87-.22,.14-.47-.09-.74,.13-.27,.22-1.01,.97-1.27,1.17-.26,.19-.78,.51-1.11,.33-.71-.71-.37-2.78-.37-2.78,.17,.03,.34,.03,.51,0,.12-.02,.23-.07,.33-.14,.1-.07,.18-.15,.24-.26,.06-.1,.1-.21,.12-.33,.02-.12,.01-.24-.02-.35-.08,.08-.17,.15-.27,.2-.1,.05-.22,.07-.33,.07-.29,.03-.37-.09-.43-.35-.09-.27-.09-.56,0-.84,.13-.43,.57-.65,.82-.84,.25-.2,.12-.96,.12-.96-.07,.15-.16,.28-.27,.39-.24,.23-.57,.16-1.27,.12-.2,.01-.41-.02-.6-.1-.19-.07-.36-.19-.5-.34-.11-.13-1.03-.03-1.3-.02-.61,.07-1.22,.2-1.81,.39-.39,.14-.77,.31-1.13,.52-.16,.13-.1,.24-.1,.24l.14,.38c.32-.22,.67-.39,1.04-.5,.51-.14,.57,.1,.64,.32,.05,.16,.09,.32,.12,.48-.54,.12-1.09,.15-1.64,.11-.8-.04-.84-.39-.83-.6,0-.07-.23,0-.32,.21-.16,.36-.21,.95,1.42,.93,.49-.02,.98-.13,1.43-.32,.13,.43,0,.5-.2,.53-.39,.1-.8,.08-1.18-.06,0,0-.11,.36-.03,.43,.49,.26,1.05,.38,1.6,.34,.17,0,.3-.12,.39-.04,.11,.17,.19,.36,.23,.57,0,.13-.03,.23-.43,.22-.41,0-.55,0-.53,.08,.16,.17,.33,.34,.52,.48,.08,.08,.49-.35,.49-.35-.02,.08-.02,.15,0,.23,.03,.17,.15,1.52-.69,1.91-.32,.18-.87-.14-1.11-.33-.24-.19-1.01-.95-1.27-1.17-.26-.22-.55,0-.73-.12-.17-.12-.05-.6-.06-.87-.01-.27-.78-1-1.2-1.17-.81-.34-.9-1.21-1.11-1.73-.22-.52-.27-.59-.43-.52-.91,.39-1.02,1.4-.59,3.03,.19,.49,.44,.96,.76,1.38,.09,.19,.12,.46,0,.43-1.27-.69-2.44-1.53-3.49-2.52-.15-.14-.75,1.16,.13,2.05,.34,.34,1.94,1.68,2.19,1.89,.24,.21-.03,.28-.03,.28h-.04c-.13,0-2.22,.06-4.44-.06-.26,0-.06,.99,1.04,1.44,.91,.37,3.03,.35,3.51,.4,.48,.05-.16,.3-.16,.3,0,0-5.11,1.45-5.35,1.52-.59,.19,.12,1.3,1.91,1.24,1.69-.05,3.36-.42,4.91-1.1,.65-.25,.26,.21,.12,.3-.96,.68-3.79,2.6-5.13,3.46-.19,.13-.22,.26,0,.49,1.05,1.11,3.03-.16,3.82-.6,.92-.51,3.1-2.17,3.27-1.98,.06,.07-.06,.68-1.41,2.13,.14,.14,.28,.26,.43,.39,0,0-.64,.78-1.08,1.26-.18,.19-.59,.61-.71,.58-.11-.02-.69-.65-.89-.66-.13,0-.39,.19-.59,.07-.27-.06-.55-.02-.8,.11-.31,.14-.25,.87-.16,.54s.69-.31,1,.05c.16,.17,.36,.3,.58,.37,.19,.04,.28,.1,.2,.16-.35,.12-.68,.28-1,.48-.09,.15-.04,.2-.08,.28-.42,.17-.55,.33-.42,.76,.04,.12,.09,.23,.15,.34,.07-.13,.03-.54,.47-.63,.05,0,.13,.06,.21,.06,.35-.1,.68-.29,.96-.53,.12-.15,.09,.09,0,.23-.37,.68-.23,1.1-.2,1.11,.03,.01,.13-.03,.19,.1,.14,.42,.43,.76,.82,.97-.14-.32-.21-.68-.2-1.03,.07-.03,.13,0,.21-.03,.11-.16,.17-.35,.18-.55,0-.28-.17-.37-.16-.54,.01-.13,.06-.25,.13-.36,.1,.2,.22,.39,.36,.56,.34,.36,.28,.43,.64,.3,.07-.03,.55,.75,.55,.75,.09-.23,.12-.48,.09-.73-.03-.13-.16-.19-.26-.31-.09-.12,.16-.26,.04-.43-.69-.66-.75-.43-.93-.87-.12-.29,.11-.49,.35-.78,.6-.73,.62-.72,.98-1.15,.15,.1,.23,.19,.43,.35,.68-.99,1.25-1.88,1.88-2.11,.63-.23,.92,.14,.92,.53-.03,.67-1.38,2.12-1.38,2.12-.47,.46-.91,.96-1.3,1.49-.11,.19-.18,.4-.22,.62-.03,.3,0,.61,.06,.9,.05,.28,.11,.5,.11,.5,0,0,.2-.72,.25-.81,.13-.25,.16,0,.35,.49,.17,.38,.37,.75,.6,1.1v-1.24c0-.32,.04-.75,.19-.43,.18,.35,.39,.69,.61,1.01,0,0,0-.26,.03-.56,.06-.52,.18-1.02,.35-1.52,.1-.18,.54-.94,1.07-1.03,.53-.08,.58,.87,.54,1.07-.06,.34-.16,.68-.29,1-.05,.1-.47,.87-.52,1.03-.19,.42-.24,.89-.14,1.34,.1,.45,.35,.85,.71,1.14,.04-.49,.15-.97,.32-1.43,.11-.16,.26-.26,.36-.1,.27,.52,.6,1.01,.97,1.46h0c.37-.45,.7-.94,.97-1.46,.11-.15,.26-.05,.36,.1,.17,.46,.29,.94,.33,1.43,.36-.29,.62-.68,.73-1.13,.11-.45,.07-.92-.11-1.34-.06-.15-.47-.94-.52-1.03-.13-.32-.23-.66-.29-1-.04-.2,0-1.15,.54-1.07,.54,.08,.97,.87,1.07,1.03,.16,.49,.27,1,.32,1.52h0c.02,.3,.03,.56,.03,.56,.22-.33,.43-.66,.61-1.01,.14-.32,.17,.11,.19,.43v1.24c.23-.35,.43-.71,.59-1.1,.19-.49,.22-.73,.35-.49,.04,.09,.25,.81,.25,.81,0,0,.06-.22,.11-.5,.07-.3,.09-.6,.06-.9-.03-.22-.1-.43-.22-.62-.39-.53-.83-1.03-1.3-1.49,0,0-1.35-1.45-1.38-2.12,0-.38,.27-.75,.9-.52,.63,.23,1.2,1.12,1.88,2.11,.21-.15,.29-.25,.43-.35,.36,.43,.38,.43,.98,1.15,.24,.29,.47,.49,.36,.78-.18,.43-.24,.2-.93,.87-.12,.19,.13,.33,.04,.43-.09,.1-.22,.17-.26,.31-.03,.24,0,.49,.1,.71,0,0,.48-.78,.55-.75,.36,.14,.29,.06,.64-.3,.15-.17,.27-.36,.38-.55,.07,.11,.11,.23,.12,.36,0,.17-.15,.26-.16,.54,0,.2,.07,.39,.18,.55,.08,.05,.14,0,.21,.03,0,.35-.06,.71-.2,1.03,.37-.21,.65-.54,.78-.95,.06-.13,.1-.07,.19-.1,.09-.03,.16-.43-.2-1.11-.07-.14-.1-.38,0-.23,.27,.25,.6,.43,.96,.53,.08,0,.16-.07,.2-.06,.43,.1,.41,.51,.48,.63,.06-.11,.11-.22,.15-.34,.14-.47,.03-.61-.43-.78-.03-.08,0-.13-.08-.28-.31-.2-.65-.36-1-.48-.08-.05,0-.11,.2-.16,.22-.08,.42-.2,.58-.37,.31-.36,.92-.36,1-.05,.08,.32,.14-.4-.16-.54-.24-.13-.53-.17-.8-.11-.2,.11-.47-.08-.59-.07-.2,0-.78,.64-.87,.66-.09,.02-.53-.39-.71-.58-.43-.48-1.09-1.26-1.09-1.26,.15-.12,.3-.25,.43-.39-1.34-1.44-1.47-2.06-1.4-2.13,.17-.18,2.35,1.47,3.27,1.98,.79,.43,2.77,1.71,3.82,.6,.22-.23,.19-.37,0-.49-1.34-.87-4.17-2.78-5.13-3.46-.14-.1-.53-.55,.12-.3"/>
      <path class="e" d="M22.63,7.36s-1.46,.61-1.59,.71c-.25-.22-.98-.87-1.06-.94-.08,.07-.81,.72-1.06,.94-.13-.1-1.57-.71-1.59-.71s.4,.61,.65,1.02c.16,.31,.23,.66,.2,1h3.6c-.03-.35,.04-.69,.2-1,.25-.43,.65-1.02,.65-1.02"/>
      <path class="d" d="M18.79,11.2c.34-.17,.73-.2,1.1-.1l-.93,.75c-.07-.21-.13-.43-.17-.65"/>
      <path class="d" d="M22.87,19.66c.82-.15,1.9-.41,3.03-2.39-1.07-.2-1.26-.74-1.26-.74,0,0,.58-.16,1.4,.49,.04-1.38,.87-1.6,.87-1.6,0,0,.34,.76-.7,1.68,1.02,.22,1.27,.77,1.27,.77,0,0-.54,.2-1.37-.49-1.23,2.25-2.6,2.74-3.23,2.74,.02-.14,.02-.29,0-.43"/>
      <path class="d" d="M18.32,18.28c.02,.81,.11,1.61,.26,2.41,.18,1.09,.56,2.13,1.12,3.07,.13,.22,.27,.44,.43,.64h0c.18-.2,.34-.41,.48-.64,.56-.95,.94-1.99,1.12-3.07,.15-.79,.23-1.6,.26-2.41h-3.67"/>
      <path class="d" d="M17.43,19.66c-.82-.15-1.89-.41-3.03-2.39,1.07-.2,1.26-.74,1.26-.74,0,0-.58-.16-1.4,.49-.05-1.38-.87-1.6-.87-1.6,0,0-.34,.76,.7,1.68-1.02,.22-1.27,.77-1.27,.77,0,0,.54,.2,1.37-.49,1.23,2.25,2.58,2.74,3.23,2.74,0-.14,0-.29,0-.43"/>
      <path class="e" d="M21.17,22.22v-.48h-1.18v-.91h1.06v-.48h-1.06v-.78h1.05v-.48h-1.76v3.13h1.9Z"/>
    </g>
  </g>
</svg>