<?xml version="1.0" encoding="UTF-8"?>
<svg id="a" data-name="Layer 1" xmlns="http://www.w3.org/2000/svg" xmlns:xlink="http://www.w3.org/1999/xlink" viewBox="0 0 51.34 51.34">
  <defs>
    <style>
      .c {
        fill: none;
      }

      .d {
        fill: #000923;
      }

      .e {
        fill: #fff;
      }

      .f {
        clip-path: url(#b);
      }
    </style>
    <clipPath id="b">
      <rect class="c" x=".67" y=".67" width="50" height="50"/>
    </clipPath>
  </defs>
  <g class="f">
    <g>
      <path class="e" d="M25.67,.67c13.81,0,25,11.19,25,25s-11.19,25-25,25S.67,39.48,.67,25.67,11.86,.67,25.67,.67Z"/>
      <path class="d" d="M25.67,4.24c11.83,0,21.43,9.59,21.43,21.43s-9.59,21.43-21.43,21.43S4.24,37.5,4.24,25.67,13.83,4.24,25.67,4.24Z"/>
      <path class="e" d="M39.07,13.87l-1.69,3.62c1.62,2.32,2.57,5.14,2.57,8.18,0,2.55-.67,4.93-1.83,7.01l.46,5.33c3.06-3.2,4.94-7.55,4.94-12.33,0-4.53-1.68-8.65-4.45-11.8h0Z"/>
      <path class="e" d="M27.48,39.84V11.5c1.5,.19,2.93,.61,4.24,1.23l1.51-3.24c-2.3-1.08-4.86-1.68-7.57-1.68s-5.27,.6-7.57,1.68l1.51,3.24c1.33-.62,2.78-1.05,4.3-1.24v28.36c-1.42-.17-2.77-.56-4.03-1.11l-.33,3.72c1.9,.69,3.96,1.07,6.11,1.07s4.23-.38,6.14-1.08l-.33-3.72c-1.24,.56-2.59,.94-4,1.12h0Z"/>
      <path class="e" d="M12.26,13.87c-2.77,3.15-4.45,7.27-4.45,11.8,0,4.79,1.89,9.14,4.96,12.35l.46-5.32c-1.18-2.07-1.85-4.47-1.85-7.03,0-3.04,.95-5.86,2.57-8.17l-1.69-3.63Z"/>
      <path class="e" d="M35.05,18.2l2.66-5.71c-.9-.82-1.88-1.55-2.93-2.17l-5.51,11.83v8.45l2.76-5.92,1.49,17.03c1.21-.6,2.35-1.33,3.39-2.17l-1.86-21.34Z"/>
      <path class="e" d="M22.13,22.35l-5.6-12.02c-1.05,.62-2.03,1.36-2.92,2.18l2.67,5.73v.1s-1.86,21.2-1.86,21.2c1.04,.85,2.18,1.58,3.39,2.17l1.49-17,2.84,6.09v-8.45h-.01Z"/>
    </g>
  </g>
</svg>