<?xml version="1.0" encoding="UTF-8"?>
<svg id="a" data-name="Layer 1" xmlns="http://www.w3.org/2000/svg" xmlns:xlink="http://www.w3.org/1999/xlink" viewBox="0 0 51.34 51.75">
  <defs>
    <style>
      .c {
        fill: none;
      }

      .d, .e {
        fill: #000923;
      }

      .f, .g {
        fill: #fff;
      }

      .g, .e {
        fill-rule: evenodd;
      }

      .h {
        clip-path: url(#b);
      }
    </style>
    <clipPath id="b">
      <rect class="c" x=".66" y=".87" width="50" height="50"/>
    </clipPath>
  </defs>
  <g class="h">
    <g>
      <path class="f" d="M25.67,.87C11.88,.87,.66,12.09,.66,25.88s11.22,25.01,25.01,25.01,25.01-11.22,25.01-25.01c-.01-13.79-11.22-25.01-25.01-25.01Z"/>
      <path class="d" d="M48.06,25.88c0-12.37-10.02-22.39-22.41-22.39S3.25,13.51,3.25,25.88s10.04,22.41,22.41,22.41c12.38-.01,22.41-10.04,22.41-22.41Z"/>
      <path class="d" d="M39.93,25.88c0-7.88-6.39-14.26-14.26-14.26s-14.26,6.39-14.26,14.26,6.39,14.26,14.26,14.26,14.26-6.39,14.26-14.26Z"/>
      <path class="f" d="M25.67,41.26c-8.49,0-15.38-6.91-15.38-15.4s6.9-15.38,15.38-15.38,15.4,6.9,15.4,15.38c-.01,8.5-6.91,15.4-15.4,15.4Zm0-29.91c-8.01,0-14.53,6.52-14.53,14.53s6.52,14.53,14.53,14.53,14.53-6.52,14.53-14.53-6.52-14.53-14.53-14.53Z"/>
      <path class="d" d="M25.67,49.86C12.44,49.86,1.69,39.1,1.69,25.88S12.44,1.9,25.67,1.9s23.98,10.76,23.98,23.98c-.01,13.22-10.76,23.98-23.98,23.98Zm0-47.45C12.73,2.41,2.21,12.93,2.21,25.88s10.53,23.46,23.46,23.46,23.46-10.53,23.46-23.46S38.6,2.41,25.67,2.41Z"/>
      <path class="f" d="M5.66,25.33l-.4,.1-.11-.42,.67-.2h.34v2.34h-.5v-1.83Z"/>
      <path class="f" d="M6.74,26.51c0-.29,.13-.45,.38-.56-.18-.11-.29-.26-.29-.51h0c0-.37,.33-.65,.82-.65s.82,.28,.82,.64h0c0,.26-.11,.42-.29,.52,.23,.12,.38,.27,.38,.55h0c0,.44-.38,.7-.89,.7s-.92-.28-.92-.68Zm1.29-.04c0-.18-.17-.29-.4-.29s-.4,.11-.4,.28c0,.16,.15,.29,.4,.29s.4-.12,.4-.28Zm-.06-.98c0-.15-.12-.28-.33-.28s-.33,.12-.33,.27h0c0,.17,.13,.29,.33,.29s.33-.12,.33-.28Z"/>
      <path class="f" d="M43.6,26.19c-.12,.1-.27,.16-.48,.16-.5,0-.83-.28-.83-.74h0c0-.48,.37-.83,.89-.83,.32,0,.49,.07,.67,.26,.17,.17,.27,.42,.27,.88h0c0,.77-.35,1.28-1.01,1.28-.34,0-.56-.11-.77-.28l.27-.39c.17,.13,.32,.2,.51,.2,.35,0,.45-.33,.48-.52Zm.01-.61c0-.21-.15-.37-.4-.37s-.39,.15-.39,.35h0c0,.22,.16,.37,.4,.37,.24-.01,.39-.16,.39-.35Z"/>
      <path class="f" d="M45.77,26.65h-1.14l-.09-.37,1.27-1.48h.43v1.43h.32v.42h-.32v.5h-.49v-.5h.01Zm0-.42v-.72l-.62,.72h.62Z"/>
      <path class="d" d="M25.67,40.41c-8.01,0-14.53-6.52-14.53-14.53s6.52-14.53,14.53-14.53,14.53,6.52,14.53,14.53-6.52,14.53-14.53,14.53Zm0-28.52c-7.72,0-13.99,6.28-13.99,13.99s6.28,13.99,13.99,13.99,13.99-6.28,13.99-13.99-6.28-13.99-13.99-13.99Z"/>
      <path class="g" d="M25.4,13.36c-7.17,0-11.31,.94-11.31,.94,0,0-1.65,6.29-.71,14.33,.39,3.38,3.14,10.65,12.25,13.14,9.11-2.48,11.86-9.76,12.25-13.14,.94-8.06-.71-14.33-.71-14.33,0,0-4.14-.94-11.31-.94h-.46Z"/>
      <path class="g" d="M36.62,26.77c-.09,2.44-.46,9.74-11,13.76-10.45-3.91-11-11.47-11-13.76h22Z"/>
      <path class="e" d="M36.3,26.37c.28-6.06-.74-10.96-.74-10.96,0,0-3.93-.76-9.93-.76s-10,.83-10,.83c0,0-1.09,4.93-.79,10.88h21.47Z"/>
      <path class="d" d="M25.95,40.31l-11.12-13.44c-.4,2.77,1.84,10.94,11.12,13.44Z"/>
      <path class="d" d="M18.15,26.78l10.29,12.42c1.04-.5,1.81-.99,2.54-1.58l-8.99-10.84h-3.85Z"/>
      <path class="d" d="M25.29,26.79l7.61,9.17c.74-.84,1.38-1.61,1.83-2.42l-5.59-6.75h-3.85Z"/>
      <path class="d" d="M36.44,26.79h-3.8s3.19,3.83,3.19,3.83c.55-1.18,.61-3.17,.61-3.83Z"/>
      <path class="f" d="M30.11,31.82c-.02-.09-.1-.16-.18-.2l-.63-.22c-.06-.02-.11-.01-.17,0-.05-.22-.17-.42-.35-.55-.02-.01-.05-.04-.07-.05-.04-.02-.09-.05-.13-.07-.09-.04-.17-.06-.24-.09-.18-.06-.37-.12-.6-.28-.22-.16-.32-.31-.42-.44-.02-.04-.05-.06-.07-.1-.06-.1-.15-.18-.23-.26-.16-.11-.35-.17-.55-.17-.05,0-.09,.01-.13,.01h0c.01-.09-.01-.17-.05-.23l-.39-.52c-.06-.07-.15-.12-.24-.12s-.18,.04-.23,.11l-.42,.52c-.05,.06-.07,.15-.06,.23-.04,0-.06-.01-.1-.01-.2,0-.39,.06-.55,.17-.02,.01-.05,.04-.06,.05-.04,.04-.07,.06-.11,.11-.06,.07-.11,.13-.16,.21-.12,.16-.22,.31-.46,.48-.22,.16-.39,.21-.55,.26-.04,.01-.07,.02-.11,.04-.11,.02-.22,.07-.32,.15-.2,.13-.32,.34-.37,.57-.06-.02-.13-.02-.21-.01l-.62,.21c-.09,.02-.16,.1-.2,.18-.02,.09-.01,.18,.04,.26l.38,.55c.05,.06,.11,.1,.18,.12-.1,.21-.12,.46-.05,.68,.01,.02,.02,.05,.02,.07,.01,.05,.04,.1,.07,.15,.05,.07,.1,.15,.15,.21,.12,.16,.23,.31,.32,.59,.09,.26,.07,.43,.07,.6v.12c-.01,.12,0,.23,.05,.34,.07,.22,.23,.4,.42,.51-.02,.05-.05,.1-.04,.15v.66c0,.1,.05,.18,.12,.23,.07,.05,.17,.07,.26,.05l.65-.18c.06-.01,.1-.06,.13-.1,.2,.18,.46,.27,.72,.26,.05,0,.1-.01,.16-.02,.09-.02,.17-.05,.24-.07,.18-.06,.37-.12,.66-.12,.27,0,.43,.06,.6,.11,.04,.01,.07,.02,.11,.04,.11,.05,.23,.06,.34,.06,.23,0,.46-.1,.63-.26,.04,.05,.07,.07,.13,.1l.63,.2c.09,.02,.18,.01,.27-.04,.07-.05,.12-.13,.12-.23v-.66s0-.1-.02-.15c.2-.11,.35-.29,.42-.51,.01-.02,.01-.05,.02-.09,.01-.05,.02-.1,.02-.16,.01-.09,.01-.17,.01-.26,0-.2,0-.38,.09-.66,.09-.26,.18-.39,.29-.53,.02-.04,.05-.06,.07-.1,.07-.09,.13-.2,.17-.31,.07-.23,.05-.49-.06-.71,.06-.02,.11-.05,.15-.1l.39-.54c.06-.06,.09-.15,.05-.24Z"/>
      <path class="f" d="M25.28,33.25c0-.21,.17-.37,.38-.37s.38,.17,.38,.37c0,.21-.17,.37-.38,.37s-.38-.17-.38-.37Z"/>
      <path class="d" d="M25.64,30.1c-.06-.23-.21-.43-.39-.54l.39-.5,.37,.5c-.18,.12-.31,.31-.37,.54Zm-2.99,2.17c-.2-.13-.33-.31-.4-.51l-.59,.2,.35,.51c.17-.12,.4-.2,.63-.2Zm1.16,3.46c-.18,.15-.39,.22-.62,.22v.62l.61-.18c-.07-.2-.07-.43,.01-.66Zm3.66,.01c.09,.22,.09,.44,.01,.65l.6,.18v-.62c-.2,.01-.42-.06-.61-.21Zm1.14-3.46c.24-.01,.45,.05,.62,.18l.37-.5-.6-.21c-.05,.2-.2,.39-.39,.52Zm-3.72,3.47c-.28,0-.5-.22-.5-.5,0-.04-.04-.05-.06-.02-.18,.22-.32,.42-.33,.65-.01,.34,.28,.62,.64,.62h.06s.06,0,.11-.01c.24-.06,.46-.18,.88-.18,.35,0,.54,.1,.72,.15,.07,.02,.16,.05,.24,.05,.35,0,.63-.28,.63-.62,0-.24-.15-.43-.33-.65-.01-.02-.05,0-.05,.02,0,.27-.23,.5-.5,.5-.21,0-.48-.18-.74-.18-.23,0-.56,.18-.77,.18Zm-.33-.68c0,.23,.18,.42,.42,.42,.02,0,.05,0,.09-.01,.01,0,.02,0,.04-.01h.01c.15-.05,.28-.11,.54-.11s.38,.07,.52,.11c.05,.01,.1,.02,.15,.02,.23,0,.42-.18,.42-.42,0-.06-.01-.12-.04-.17-.01-.02-.02-.05-.04-.06,0,0-.71-.96-.73-.99-.04-.05-.09-.02-.11-.01-.04,.01-.12,.04-.18,.04s-.13-.01-.17-.04c-.05-.02-.09-.04-.11,.01-.02,.04-.54,.73-.7,.95-.06,.07-.1,.16-.1,.27Zm3.26-.32c-.09,.27-.37,.4-.64,.32-.04-.01-.06,.01-.04,.05,.16,.23,.29,.43,.52,.51,.33,.11,.7-.07,.79-.4,.01-.02,.01-.04,.01-.06,.01-.02,.01-.06,.02-.1,.02-.26-.04-.49,.1-.89,.11-.33,.26-.48,.37-.63,.05-.06,.1-.13,.12-.21,.11-.33-.07-.7-.4-.79-.23-.07-.46,.01-.73,.11-.02,.01-.02,.04,.01,.05,.27,.09,.42,.37,.33,.63-.06,.2-.32,.39-.4,.65-.07,.21,0,.56-.07,.77Zm-.76,.1c.22,.07,.46-.05,.54-.27,.01-.02,.01-.05,.01-.09v-.04h0c0-.16-.02-.32,.05-.55,.09-.24,.18-.34,.27-.46,.02-.04,.05-.09,.07-.13,.07-.22-.05-.45-.27-.53-.06-.01-.12-.02-.17-.01-.02,0-.05,0-.07,.01,0,0-1.15,.37-1.18,.38-.05,.02-.05,.07-.05,.1,0,.04-.01,.12-.02,.18-.01,.05-.05,.12-.09,.16-.04,.04-.06,.07-.02,.11,.04,.04,.53,.73,.7,.95,.06,.09,.15,.15,.24,.18Zm.68-3.2c.23,.16,.28,.48,.11,.7-.02,.02,0,.06,.04,.05,.28-.07,.5-.15,.65-.34,.21-.28,.15-.67-.13-.88-.01-.01-.04-.02-.06-.04-.02-.02-.05-.04-.1-.05-.23-.1-.48-.12-.82-.37-.28-.21-.38-.39-.5-.55-.04-.06-.1-.12-.17-.18-.28-.21-.68-.15-.88,.13-.13,.2-.13,.44-.12,.72,0,.02,.04,.04,.05,0,.16-.22,.48-.27,.71-.11,.17,.12,.28,.43,.5,.57,.2,.18,.56,.22,.73,.34Zm-.13,.76c.13-.18,.1-.45-.1-.59-.01-.01-.04-.04-.07-.05-.01,0-.02-.01-.04-.01h-.01c-.15-.05-.29-.07-.5-.22-.21-.15-.27-.28-.35-.39-.02-.04-.06-.07-.1-.11-.18-.13-.45-.1-.59,.1-.04,.05-.06,.1-.07,.16,0,.02-.01,.05-.01,.07v1.23c0,.06,.05,.06,.09,.07,.04,.01,.12,.05,.16,.07,.05,.04,.1,.09,.12,.12,.02,.04,.05,.07,.1,.05,.05-.02,.87-.28,1.12-.37,.11-.01,.2-.07,.26-.15Zm-2.84-1.64c.22-.16,.54-.11,.71,.11,.02,.02,.06,.02,.06-.01,.01-.28,.01-.53-.12-.72-.2-.28-.6-.34-.88-.13-.02,.01-.04,.02-.05,.04-.02,.01-.05,.04-.07,.07-.17,.2-.27,.42-.61,.66-.28,.21-.49,.24-.67,.29-.07,.02-.16,.05-.22,.1-.28,.21-.35,.6-.13,.88,.15,.2,.38,.27,.65,.34,.02,.01,.04-.02,.02-.05-.16-.22-.11-.54,.11-.7,.17-.12,.49-.13,.71-.29,.17-.12,.33-.46,.5-.59Zm.68,.37c-.13-.18-.4-.23-.59-.1-.02,.01-.04,.02-.06,.05t-.02,.02h-.01c-.09,.13-.16,.27-.37,.42-.21,.15-.35,.16-.49,.22-.05,.01-.1,.04-.13,.06-.18,.13-.23,.39-.1,.59,.04,.05,.09,.09,.13,.11,.02,.01,.04,.02,.06,.02,0,0,1.15,.37,1.18,.38,.06,.01,.09-.02,.1-.05,.02-.02,.07-.1,.12-.13,.05-.04,.11-.06,.16-.07,.05-.01,.09-.02,.09-.07v-1.17c.01-.09-.01-.18-.07-.27Zm-2.44,2.19c-.09-.27,.06-.55,.32-.64,.04-.01,.04-.05,.01-.06-.27-.1-.5-.18-.72-.11-.33,.1-.51,.46-.4,.79,0,.02,.01,.04,.02,.06,.01,.02,.02,.06,.05,.1,.13,.22,.32,.38,.45,.78,.11,.33,.07,.54,.07,.73-.01,.07,0,.16,.02,.24,.11,.33,.46,.51,.79,.4,.23-.07,.37-.27,.53-.51,.01-.02-.01-.05-.04-.04-.27,.09-.55-.06-.63-.32-.06-.2,.02-.5-.06-.76-.07-.23-.35-.49-.42-.68Zm.55-.53c-.22,.07-.34,.31-.27,.53,0,.02,.01,.05,.04,.07,.01,.01,.01,.02,.02,.02,0,0,0,.01,.01,.01,.09,.12,.2,.23,.28,.46,.09,.24,.05,.38,.06,.53,0,.05,0,.1,.02,.15,.07,.22,.31,.34,.53,.27,.06-.01,.11-.05,.15-.09,.01-.01,.04-.04,.05-.05,0,0,.71-.96,.72-1,.04-.05,0-.09-.02-.11-.02-.02-.07-.1-.09-.16-.01-.05-.02-.12-.02-.17s0-.09-.05-.1c-.05-.01-.87-.28-1.12-.37-.1-.02-.2-.04-.31,0Z"/>
      <path class="f" d="M29.16,20.33l2.58-.89s-.22,1.07-.16,1.9c.07,1.07,.7,1.89,.7,1.89l-3.17,1.1,.06-4Z"/>
      <path class="f" d="M32.27,23.24s-.56-.81-.66-1.75c-.07-.71,0-1.32,.12-2.05-.11,.49-.53,1.87-1.68,3.15-.46,.51-.67,.96-.76,1.28l-.05-6.07s-.61,.22-.67,.23c-.07,.02-.11,.07-.11,.09,0,.04-.02,.06-.07,.07-.05,.01-.4,.15-.65,.22-.05,.01-.02,.06,0,.06,.29-.01,.71-.05,.74-.05,.06-.01,.09-.04,.09-.07h0c.01-.06,.05-.1,.1-.1,.04,0,.26-.02,.39-.05l-.06,6.53h.29v-.46l2.98-1.04Z"/>
      <path class="f" d="M20.86,24.51s-.48-.35-.61-1.03c-.13-.68,.21-1.07,.21-1.07l3.13-1.07s-.2,.62-.01,1.33c.23,.89,.71,1.49,.71,1.49,0,0-1.15-.22-2.26-.07-1.05,.13-1.16,.43-1.16,.43Z"/>
      <path class="f" d="M17.27,23.73s.39-1.06,1.53-2.22c.87-.88,1.43-1.14,1.43-1.14,0,0-.5,.72-.71,1.9-.13,.73,.01,1.66,.01,1.66,0,0-.59-.12-1.26-.2-.56-.06-1-.01-1-.01Z"/>
      <path class="f" d="M20.22,20.37s-.49,.72-.7,1.9c-.13,.73,.01,1.66,.01,1.66,0,0-.15-.04-.49-.11-1.39-.32,1.17-3.46,1.17-3.46Z"/>
      <path class="f" d="M22.05,21.22l-.02-2.81c-.06,.02-.61,.21-.67,.23-.07,.02-.11,.07-.11,.1,0,.04-.02,.06-.07,.07-.05,.01-.4,.13-.65,.22-.05,.01-.02,.06,0,.06,.28-.01,.71-.05,.74-.05,.06-.01,.09-.04,.1-.07h0c.01-.06,.05-.1,.1-.1,.04,0,.24-.02,.39-.04l-.02,2.39h.22Z"/>
      <path class="f" d="M25.69,18.69h.22v-2.7s-.61,.22-.67,.23c-.07,.02-.11,.07-.11,.09,0,.04-.02,.06-.07,.07-.05,.01-.4,.13-.65,.22-.05,.01-.02,.06,0,.06,.29-.01,.71-.05,.74-.05,.06-.01,.09-.04,.1-.07,.01-.05,.05-.09,.1-.09,.04,0,.23-.02,.38-.04l-.04,2.27Z"/>
      <path class="f" d="M25.14,16.62h.01c.06-.01,.09-.04,.09-.07s.02-.06,.06-.07l-.07-.23c-.07,.02-.1,.07-.1,.09,0,.04-.02,.05-.06,.06l.07,.23Z"/>
      <path class="f" d="M21.26,19.04h.01c.06-.01,.09-.04,.09-.07,.01-.04,.02-.06,.06-.07l-.07-.23c-.07,.02-.1,.07-.1,.09,0,.04-.02,.05-.06,.06l.07,.23Z"/>
      <path class="f" d="M28.46,18.43h.01c.06-.01,.09-.04,.09-.07,.01-.04,.02-.06,.06-.07l-.07-.23c-.07,.02-.1,.07-.1,.09,0,.04-.02,.05-.06,.06l.07,.23Z"/>
      <path class="f" d="M24.28,24.16s-.5-.73-.7-1.51c-.17-.67,0-1.31,0-1.31,0,0-.33,1.15-1.12,1.77-.55,.44-1.9,.84-1.59,1.4,.05-.07,.18-.22,.73-.35,.06-.01,.13-.02,.21-.04v.93h.29v-.96c1.01-.11,2.17,.07,2.17,.07Z"/>
      <path class="f" d="M20.53,22.21s-.37-.22-.32-.93c.05-.73,.42-1.05,.42-1.07l2.43-.83s-.18,.37-.05,.92c.15,.66,.57,1.04,.57,1.04,0,0-1.22,.01-2.32,.39-.54,.18-.73,.49-.73,.49Z"/>
      <path class="f" d="M21.97,20.69c.7-.57,1.07-1.31,1.07-1.31,0,0-.1,.46-.02,.88,.13,.71,.55,1.07,.55,1.07,0,0-.99,.01-2.05,.32-.71,.2-.93,.48-.99,.57-.23-.54,.73-.95,1.44-1.54Z"/>
      <path class="f" d="M24.74,24.69s-.67-.5-.83-1.44c-.13-.74,.37-1.28,.37-1.28l3.8-1.31s-.21,.84-.01,1.65c.22,.9,1.05,2.03,1.05,2.03,0,0-1.58-.45-2.94-.28-1.31,.17-1.43,.63-1.43,.63Z"/>
      <path class="f" d="M23.97,18.67c-.02-.57,.38-1.04,.39-1.06l2.72-.95s-.18,.43-.13,.79c.09,.7,.48,1.06,.48,1.06,0,0-1.07-.06-2.33,.38-.7,.24-.77,.57-.77,.57,0,0-.33-.09-.35-.79Z"/>
      <path class="f" d="M26.12,17.94c.49-.43,.96-1.27,.96-1.27,0,0-.18,.43-.13,.79,.09,.7,.48,1.06,.48,1.06,0,0-1.16-.01-2.27,.38-.48,.17-.78,.43-.82,.57-.16-.54,1.11-.95,1.78-1.54Z"/>
      <path class="f" d="M24.36,21.81s-.39-.45-.46-1.16c-.07-.73,.35-1.03,.39-1.05l3.15-1.09s-.09,.23-.01,.87c.07,.54,.6,1.27,.6,1.27,0,0-1.68,.05-2.72,.45-.66,.26-.94,.71-.94,.71Z"/>
      <path class="f" d="M26.45,19.99c.68-.59,.99-1.47,.99-1.47,0,0-.09,.5,0,.89,.16,.68,.65,1.26,.65,1.26,0,0-1.47,.02-2.53,.38-.7,.23-1.12,.65-1.18,.77-.16-.6,1.39-1.25,2.08-1.83Z"/>
      <path class="f" d="M29.17,24.4s-.85-1.11-1.11-2.09c-.16-.65-.04-1.38,.01-1.64-.1,.34-.44,1.45-1.28,2.23-.81,.74-2.39,1.1-2.05,1.79,.06-.11,.24-.38,.89-.54v.89s.29,0,.29,0v-.95c1.4-.22,3.25,.29,3.25,.29Z"/>
      <path class="g" d="M30.64,26.49c.2-.04,.39-.09,.68-.16-.01-.01-.04-.02-.05-.04-.32-.35-.27-.73-.07-.92,.71-.66,.7-1.15,.7-1.15,0,0-1.72,.35-3.99,.48-.15,.01-.67,.24-.83,.24-.32,.01-.64,.02-.96,.02-4.29,.04-5.48-.27-6.89-.52-1.43-.27-2.05-.55-2.05-.55l-.05,.15s1.12,.44,1.93,.83c.17,.09,.84,1.09,1.06,1.43h-5.09c-.28-5.84,.84-10.61,.84-10.61,0,0,3.9-.83,9.76-.83v-.62c-6.21,0-10.35,.88-10.35,.88,0,0-1.81,6.37-.85,13.97,.4,3.16,3.02,9.08,11.18,11.83l.35-.5-.35-.5c-7.69-2.58-9.94-7.79-10.33-10.76-.09-.66-.15-1.32-.2-1.95h10.56v-.89h-5.42c.12-.39,.5-.49,.98-.38,.49,.12,.98,.24,1.44,.22,1.16-.06,.99-.37,1.1-.37,1.2,.07,1.65,.37,2.69,.34,.95-.01,1.28-.27,1.37-.27,1.16-.01,1.6,.53,2.76,.62h.1Z"/>
      <path class="g" d="M35.96,15.12s-4.13-.88-10.34-.88v.62c5.86,0,9.74,.83,9.74,.83,0,0,1.14,4.77,.84,10.61h-5.1c-.4-.39-.17-.9-.04-1.03,.6-.54,.6-.9,.6-.9,0,0-1.38,.34-3.65,.44-.15,0-.78,.29-.94,.29-.32,.01-.76,.02-1.09,.02-2.95,0-4.41-.06-6.97-.61,.05,.06,.07,.09,.12,.16,.01,.02,1.12,.31,1.14,.33,.17,.23,.39,.39,.66,.54,.42,.22,1.03,.4,1.53,.44,1.16,.07,.94-.37,1.05-.37,1.18-.02,1.95,.4,2.99,.39,.95-.01,.98-.32,1.07-.32,.94-.05,1.89,.35,2.71,.62h-4.66v.89h10.53c-.05,.65-.11,1.29-.2,1.95-.39,2.98-2.64,8.18-10.33,10.76v1c8.17-2.75,10.79-8.66,11.18-11.83,.96-7.59-.84-13.97-.84-13.97Z"/>
      <path class="f" d="M6.55,17.87l.43-.82,1.93-.13-.98-1.67,.43-.81,3.43,1.81-.39,.74-2.25-1.17,.96,1.73h-.01s-1.95,.21-1.95,.21l2.22,1.17-.39,.74-3.43-1.81Z"/>
      <path class="f" d="M10.47,11.76l.54-.57,3.98,1.47-.61,.65-.88-.34-1.12,1.2,.39,.85-.6,.63-1.7-3.88Zm2.28,.92l-1.27-.49,.56,1.23,.71-.74Z"/>
      <path class="f" d="M13.54,8.94l.67-.4,2.8,1.1-1.23-2.04,.72-.44,2,3.31-.62,.38-2.88-1.14,1.28,2.11-.72,.44-2.01-3.32Z"/>
      <path class="f" d="M18.76,8.27c-.31-1.07,.23-2.17,1.38-2.5,.7-.21,1.2-.09,1.64,.15l-.35,.76c-.37-.18-.7-.26-1.07-.15-.62,.18-.93,.83-.74,1.48h0c.18,.65,.78,1.05,1.42,.87,.43-.12,.63-.37,.85-.72l.67,.38c-.27,.53-.62,.9-1.33,1.11-1.09,.32-2.15-.29-2.45-1.37Z"/>
      <path class="f" d="M23.41,5.16l.84-.02,.05,1.54,1.56-.04-.04-1.54,.85-.02,.1,3.88-.85,.02-.04-1.56-1.58,.05,.05,1.55-.85,.02-.1-3.88Z"/>
      <path class="f" d="M31.7,9.48l.71-.34c.2,.4,.45,.73,.85,.92,.32,.15,.56,.11,.66-.1h0c.1-.21,.01-.37-.5-.78-.62-.51-.99-.92-.67-1.61h0c.29-.65,1-.83,1.72-.5,.51,.23,.88,.6,1.1,1.05l-.67,.4c-.21-.37-.46-.63-.76-.77-.29-.13-.51-.07-.6,.1h0c-.11,.24,.01,.39,.55,.83,.62,.51,.92,.96,.62,1.58h0c-.32,.71-1.04,.85-1.79,.51-.51-.27-.96-.71-1.22-1.28Z"/>
      <path class="f" d="M37.37,9.71l-.94-.72,.48-.62,2.55,1.94-.48,.63-.94-.72-1.87,2.45-.68-.51,1.88-2.45Z"/>
      <path class="f" d="M43.49,15.22l.79,1.59c.22,.44,.27,.84,.16,1.18-.1,.29-.32,.52-.65,.7h-.01c-.56,.28-1.06,.16-1.45-.21l-.82,1.47-.45-.89,.73-1.31-.31-.6-1.11,.56-.38-.76,3.49-1.73Zm-.92,2.38c.18,.37,.49,.49,.78,.34h.01c.33-.16,.38-.48,.2-.84l-.38-.76-.99,.5,.38,.76Z"/>
      <path class="f" d="M29.11,7.76l1.43,.31,.4-.68-1.66-.37,.16-.77,2.03,.44,.17-.73-2.87-.62-.82,3.79,2.89,.63,.16-.74-2.06-.45,.17-.79Z"/>
      <path class="f" d="M40.63,11.47l-2.98,2.49,1.9,2.26,.57-.49-1.34-1.61,.62-.52,.95,1.14,.77-.26-1.14-1.37,.6-.5,1.33,1.59,.59-.49-1.88-2.23Z"/>
      <path class="f" d="M19.09,44.53c0-1.14,.84-2.05,2.06-2.05,.74,0,1.18,.24,1.56,.61l-.55,.63c-.31-.28-.61-.44-1.01-.44-.67,0-1.15,.55-1.15,1.23h0c0,.68,.46,1.26,1.15,1.26,.45,0,.73-.18,1.04-.46l.55,.56c-.4,.44-.85,.71-1.62,.71-1.16-.02-2.03-.93-2.03-2.05Z"/>
      <path class="f" d="M23.58,42.54h.87v3.94h-.87v-3.94Z"/>
      <path class="f" d="M26.46,43.35h-1.2v-.81h3.27v.81h-1.2v3.15h-.87v-3.15h-.01Z"/>
      <path class="f" d="M30.42,44.94l-1.51-2.39h1.01l.94,1.59,.95-1.59h.99l-1.51,2.37v1.58h-.87v-1.55Z"/>
    </g>
  </g>
</svg>