<?xml version="1.0" encoding="UTF-8"?>
<svg id="a" data-name="Layer 1" xmlns="http://www.w3.org/2000/svg" viewBox="0 0 31.34 51.75">
  <defs>
    <style>
      .b {
        fill: #fff;
      }

      .b, .c {
        fill-rule: evenodd;
      }

      .c {
        fill: #000923;
      }
    </style>
  </defs>
  <path class="b" d="M25.61,8.96c-2.52-4.35-6.02-7.05-9.94-7.08C7.83,1.92,1.66,12.7,1.66,25.88c0,6.59,1.55,12.58,4.07,16.93,2.52,4.35,6.02,7.05,9.94,7.06,3.92-.02,7.42-2.72,9.94-7.06,2.52-4.35,4.07-10.34,4.07-16.93s-1.55-12.58-4.07-16.93Z"/>
  <path class="c" d="M28.15,16.7c-.69-2.83-1.7-5.37-2.93-7.5-1.25-2.12-2.71-3.84-4.33-5.03-1.61-1.17-3.37-1.82-5.23-1.82s-3.61,.65-5.23,1.82c-1.61,1.19-3.08,2.9-4.33,5.03-1.23,2.12-2.24,4.66-2.93,7.5-.69,2.82-1.07,5.92-1.07,9.19,0,6.5,1.53,12.41,4,16.65,1.25,2.12,2.71,3.84,4.33,5.03,1.61,1.17,3.37,1.82,5.23,1.82s3.61-.65,5.23-1.82c1.61-1.19,3.08-2.9,4.33-5.03,2.47-4.25,4-10.15,4-16.65,0-3.26-.38-6.37-1.07-9.19Z"/>
  <path class="b" d="M15.67,48.05c-6.93-.04-12.35-10.01-12.35-22.16S8.74,3.76,15.67,3.72c6.93,.04,12.35,10.01,12.35,22.17s-5.42,22.11-12.35,22.16Z"/>
  <path class="c" d="M15.67,12.85c4.65,0,8.69,2.76,10.76,6.82-.56-3.31-1.52-6.27-2.81-8.67-2.05-3.8-4.86-6.11-7.95-6.12-3.09,.02-5.91,2.32-7.95,6.12-1.29,2.4-2.25,5.36-2.81,8.67,2.08-4.06,6.11-6.82,10.76-6.82Z"/>
  <path class="c" d="M15.67,38.92c-4.65,0-8.67-2.76-10.75-6.82,.54,3.31,1.51,6.27,2.79,8.65,1.03,1.89,2.24,3.44,3.59,4.49,1.34,1.07,2.81,1.65,4.36,1.65s3.02-.58,4.36-1.65c1.36-1.05,2.56-2.6,3.59-4.49,1.29-2.39,2.25-5.35,2.79-8.65-2.08,4.06-6.1,6.82-10.75,6.82Z"/>
  <path class="b" d="M19.73,39.03c-.76,.28-1.18,.91-.88,1.83,.2,.63,.8,1.01,1.55,.74,.26-.1,.54-.27,.63-.59h.02c.25,.8,0,1.12-.3,1.29-.3,.15-.57,.07-.75-.15h0s-.5,.36-.5,.36c.29,.46,.83,.6,1.43,.38,.7-.26,1.25-.98,.79-2.43-.17-.53-.64-1.92-1.98-1.43Zm.64,1.92c-.29,.1-.68,.11-.86-.46-.17-.54,.22-.79,.41-.85,.39-.14,.67,.05,.81,.47,.14,.45-.09,.74-.36,.84Z"/>
  <path class="b" d="M15.88,11.88c.79,0,1.51-.36,2-.94l-.59-.57c-.35,.41-.85,.66-1.42,.66-1.06,0-1.92-.92-1.92-2.05s.86-2.06,1.92-2.06c.56,0,1.06,.26,1.42,.66l.58-.57c-.5-.58-1.21-.94-2-.94-1.5,0-2.72,1.3-2.72,2.9s1.22,2.89,2.72,2.89Z"/>
  <path class="b" d="M19.62,9.53l.58,3.23c.14,.06,.27,.12,.41,.19l.82-2.15,.86,3.12c.34,.23,.67,.49,.98,.76l-1.49-5.38-.47-.39-.67,1.78-.56-2.84-.65-.46-1.35,4.73c.25,.05,.5,.11,.75,.18l.79-2.75Z"/>
  <path class="b" d="M9.85,12.22l2.36-1,.3,1.06c.24-.07,.5-.13,.75-.18l-1.34-4.73-.98,.67-3.08,6.8c.39-.34,.8-.66,1.22-.95l.76-1.66Zm1.63-3.58l.51,1.79-1.64,.69,1.13-2.48Z"/>
  <path class="b" d="M16.68,39.67c-.8,.07-1.35,.57-1.28,1.54,.05,.65,.55,1.19,1.33,1.12,.28-.02,.58-.12,.75-.4h.01c.06,.84-.26,1.09-.59,1.16-.32,.08-.57-.07-.69-.33h0s-.57,.22-.57,.22c.17,.51,.67,.79,1.3,.74,.73-.07,1.44-.63,1.32-2.15-.04-.56-.18-2.03-1.59-1.9Zm.18,2.02c-.31,.03-.68-.07-.73-.66-.04-.57,.39-.71,.6-.72,.41-.04,.64,.22,.67,.67,.04,.47-.26,.69-.54,.72Z"/>
  <path class="b" d="M13.63,39.53c-.7-.14-1.32,.17-1.43,.84-.06,.36,.07,.64,.36,.86-.66,.16-.74,.68-.78,.88-.09,.54,.16,1.27,1.2,1.47,1.07,.2,1.52-.52,1.6-1.01,.08-.51-.09-.8-.45-1.06,.35-.1,.54-.37,.6-.7,.09-.54-.28-1.11-1.11-1.27Zm.17,2.92c-.04,.27-.3,.59-.71,.5-.36-.07-.6-.37-.54-.75,.07-.42,.44-.54,.73-.48,.44,.08,.57,.45,.52,.73Zm.19-1.71c-.05,.28-.29,.45-.6,.39-.34-.07-.51-.36-.47-.59,.05-.29,.3-.45,.66-.39,.25,.05,.46,.28,.41,.58Z"/>
  <path class="b" d="M9.8,39.14l-.11-.04-.15,.47h0s-.08,.23-.08,.23l.15,.06c.39,.15,.66,.15,.84,.07l-.81,2.52,.77,.28,1.19-3.7-.7-.26c-.05,.17-.52,.58-1.1,.38Z"/>
  <path class="c" d="M23.31,27.74v7.24c1.93-1.83,3.27-4.38,3.68-7.24h-3.68Z"/>
  <path class="c" d="M16.3,38.05c.95-.06,1.87-.25,2.74-.52v-9.79h-2.74v10.31Z"/>
  <path class="c" d="M26.93,23.62c-.47-2.7-1.77-5.07-3.62-6.82v6.82h3.62Z"/>
  <path class="c" d="M16.3,23.62h2.74V14.23c-.88-.27-1.79-.46-2.74-.52v9.91Z"/>
  <path class="c" d="M23.31,16.79h-.01s0,0,.01,.01h0Z"/>
  <path class="c" d="M5.61,31.74v-11.71c-.88,1.75-1.4,3.74-1.4,5.87s.52,4.1,1.4,5.85Z"/>
  <path class="c" d="M19.64,14.45v9.82h-3.34v2.82l3.34,.02v10.21c1.11-.43,2.14-1.06,3.07-1.82v-8.39h4.38c.04-.41,.05-.81,.05-1.21,0-.55-.04-1.1-.11-1.62h-4.33v-8c-.92-.77-1.96-1.39-3.07-1.82Z"/>
  <path class="c" d="M12.03,37.45c.69,.25,1.4,.42,2.14,.53V13.79c-.75,.1-1.45,.29-2.14,.54v23.12Z"/>
  <path class="c" d="M7.75,34.69c.65,.66,1.36,1.23,2.13,1.72V15.36c-.77,.48-1.48,1.05-2.13,1.72v17.61Z"/>
</svg>