<?xml version="1.0" encoding="UTF-8"?>
<svg id="a" data-name="Layer 1" xmlns="http://www.w3.org/2000/svg" xmlns:xlink="http://www.w3.org/1999/xlink" viewBox="0 0 40.34 40.75">
  <defs>
    <style>
      .c {
        fill: none;
      }

      .d {
        fill: #003e81;
      }

      .e {
        fill: #fff;
      }

      .f {
        fill: #199fd6;
      }

      .g {
        clip-path: url(#b);
      }
    </style>
    <clipPath id="b">
      <rect class="c" x=".17" y=".38" width="40" height="40"/>
    </clipPath>
  </defs>
  <g class="g">
    <g>
      <path class="d" d="M20.17,40.38c11.05,0,20-8.95,20-20S31.21,.38,20.17,.38,.17,9.33,.17,20.38s8.95,20,20,20Z"/>
      <path class="e" d="M5.45,20.38c0-8.13,6.59-14.72,14.72-14.72,8.13,0,14.72,6.59,14.72,14.72,0,8.13-6.59,14.72-14.72,14.72-8.13,0-14.72-6.59-14.72-14.72Z"/>
      <path class="f" d="M10.18,10.39c-2.56,2.56-4.14,6.09-4.14,9.99,0,3.9,1.58,7.43,4.14,9.99,2.56,2.56,6.09,4.14,9.99,4.14,3.9,0,7.43-1.58,9.99-4.14,2.56-2.56,4.14-6.09,4.14-9.99,0-3.9-1.58-7.43-4.14-9.99-2.56-2.56-6.09-4.14-9.99-4.14-3.9,0-7.43,1.58-9.99,4.14h0Z"/>
      <path class="e" d="M11.89,27.72c1.45-.17,2.13-.34,2.13-1.93V14.34c-1.35-1.67-1.74-1.74-2.05-1.74v-.6h5.1l8.38,10.32h.05v-7.32c0-1.45-.29-2.25-2.25-2.39v-.6h5.2v.6c-1.74,.22-1.88,.77-1.88,1.93v14.23h-.68L15.13,15.66h-.05v9.67c0,1.74,.51,2.2,2.3,2.39v.6h-5.49v-.6h0Z"/>
    </g>
  </g>
</svg>