<?xml version="1.0" encoding="UTF-8"?>
<svg id="a" data-name="Layer 1" xmlns="http://www.w3.org/2000/svg" xmlns:xlink="http://www.w3.org/1999/xlink" viewBox="0 0 47.34 63.75">
  <defs>
    <style>
      .c, .d, .e, .f, .g, .h {
        fill: none;
      }

      .i, .j {
        fill: #000923;
      }

      .k, .l {
        fill: #fff;
      }

      .d {
        stroke-width: .07px;
      }

      .d, .e, .f, .g, .h {
        stroke: #fff;
        stroke-linecap: round;
        stroke-linejoin: round;
      }

      .e {
        stroke-width: .07px;
      }

      .f {
        stroke-width: .49px;
      }

      .g {
        stroke-width: .09px;
      }

      .l, .j {
        fill-rule: evenodd;
      }

      .m {
        clip-path: url(#b);
      }

      .h {
        stroke-width: .55px;
      }
    </style>
    <clipPath id="b">
      <rect class="c" x="1.04" y="1.38" width="45.26" height="61"/>
    </clipPath>
  </defs>
  <g class="m">
    <g>
      <path class="i" d="M17.55,8.45c.19,.61-.23,.87-.84,.73-.02,0-.04,0-.05,0,.13,.18,.18,.23,.22,.27,.82,1.01-.1,2.02-.65,2.84-.4,.55-.77,.65-1.26,.3-.03-.02-.07-.05-.09-.06-.32,.16-.51,.15-.66-.17-.01-.03-.04-.08-.06-.1-.06,.05-.16,.09-.22,.15,.13,.22-.06,.5-.32,.47-.38-.11-.27-.46-.15-.56,.06-.05,.13-.1,.18-.15v-.05s-.01-.08-.01-.12c0-.31,.19-.47,.51-.51-.21-.16-.17-.39-.2-.42-.19-.03-.26-.17-.35-.31-.39,.02-.44-.4-.26-.57,.18-.18,.55-.05,.53,.27,.07,.05,.19,.07,.45-.04h.04c.62-.07,.4,.99,1.18,.42,.17-.13,1.52-.68,.52-1.2-.33-.17-.57-.33-.84-.62-.65-.51-1.23-1.99,.11-1.76-.32-.53-.36-.99,.33-1,.13,0,.28,.02,.43,.03,.31,.02,.55,.09,.85,.19,.3,.1,.8,.25,2.05,.47,.65,.06,.83-.13,1.38-.24,.18-.04,.38-.06,.66-.06,.38,0,.71,.03,1.07,.14,.22,.07,.45,.13,1.04,.13,.23,0,.52-.32,.76-.15,.43,.3,1.86,.07,2.7-.34l-.02-.06c-.04-.15,.21-.28,.31-.05,.03,.08,.11,.37,.18,.4,0,0,.01,0,.03-.01,.04-.12-.3-.5-.08-.77,.27-.34,.45,.12,.91-.07,.67-.22,.89,.33,1.39,.58,.32,.15,.49,0,.91,.36,.12,.07,.26,.19,.46,.43,.02,.03,.07,.04,.11,.05,.28,.14,.01,.61-.07,.75-.17,.29-.42,.6-.64,.78l-.02,.02c-.45,.21-.03,.62,.17,.82,.11,.11,.21,.2,.28,.28,.59,.48,1.2,.13,1.9,.9,.32,.51,.17,1.13,.09,1.66-.02,.16-.03,.28-.02,.37,.03,.17,.19,.02,.23-.05,.08-.26-.01-.65-.08-.82-.17-.44-.12-.67,.28-.86,.07-.04,.16-.07,.16-.17,0-.61,.31-.53,.46-.75-.05-.07-.06-.15-.05-.23,.09-.37,.56-.31,.63,.01,.02,.14-.07,.28-.19,.34h-.02c-.04,.11-.07,.16-.04,.28v.03c.01,.26,.14,.5,0,.75-.02,.02-.03,.05-.03,.06,.02,.02,.09,.03,.11,.03,.28,.06,.4,.24,.59,.39,.04,0,.11,.02,.16,.03,.1-.24,.47-.26,.59,0,.11,.24-.2,.61-.47,.39-.24,.04-.45,.16-.69,.2-.22,.07-.29,.28-.29,.5,.15,1.81-2.86,1.85-2.74-.03l.03-.48c0-.09-.04-.17-.25-.27-.2-.1-.49-.18-.79-.31-.62-.27-1.34-.72-1.58-1.83-.17-.83-.02-1.27,.18-1.55,.04-.06,.3-.33,.28-.41-.31-.24-.39,.1-.9-.69,0-.02-.02-.02-.02-.02,.02-.01,.03-.02,.04-.02,0-.01,0-.02,.01-.03,0,0,0,.01,.01,.03,.25,.39,.11,1.19-.66,.89-.07-.03-.24-.13-.32-.13-.1,.02-1.25,.39-1.51,.08-.02-.02-.03-.05-.05-.06,0,0-.01,0-.05,0-.12,0-.17,.06-.24,.14l-.04,.05c-.26,.29-.59,.23-.93,.11-.14-.02-.32,0-.46,.04-.34,.09-.62,.1-1.03,.08-.4-.02-.94-.07-1.81-.11-.45-.02-.85,.12-1.29,.22-.46,.1-1,.14-1.88-.11-.06-.01-.17-.05-.27-.09Z"/>
      <path class="l" d="M22.36,4.98c-3.79,.76-3.24-1.84-5-1.82,.97,.68,.51,1.11,1.12,1.63-1.2-.1-1.22-1.93-3.83-1.34,1.9,.05,1.66,.96,2.51,1.44-1.53-.34-1.76-1.64-3.72-.76,1.94-.32,1.63,1.01,3.62,1.27-.75,.23-1.03,0-1.84-.21,1.22,.99,2.54,.49,2.96,.62,.21,.06,.2,.43-.69,.38,1.23,.8,1.71-.68,4.97-.87,.32-.02-.36,.61,.11,.25,.38-.29,1.05-.52,1.05-.52l-1.26-.35v.3Z"/>
      <path class="h" d="M27.5,8.7c.69-.42,2.18-.86,2.75-.94,.28-.04,.34,.03,.43,.42,.08,.39,.12,2.74-.05,4.06-.17,1.32-.56,3-1.01,3.52,.37-1.02-.36-1.9-1.14-2.27,.29-.8-.19-1.4-.43-1.5,0-.21-.08-.32-.16-.38v.39c.21,.4,.28,.8,.27,1.23,.15,.23,.16,.29,.22,.64,.25,.44,.31,.84,.37,1.37,.15,.38,.14,.84,.14,.84h-7.78l-.16,.16-2.78-.23-.09-.2h-.09c-2.17-3.86-1.24-4.8-.76-4.97,.32-.11,.63-.05,.79,0,.22-.89,.67-1.71,1.36-2.53,.3-.36,1.48-.09,3.37,.82,.34-.24,.78-.43,1.25-.58,.14-.13,.24-.21,.24-.21,.02-.04,.76-1.35,.75-1.91,0-.57-.66-1.27-.66-1.27,0,0-.11,.13-.19,.2-.23,.27-.5,.31-.83,.31-.35,0-.49-.02-.82,.14-.26,.13-.29,.17-.59,.23,.06,.04,.1,.08,.16,.18-.22-.03-.42-.05-.54-.22-.17-.04-.21-.09-.34-.23,.16-.02,.4-.13,.5-.22,.1-.1,.16-.16,.36-.32,.17-.14,.27-.2,.57-.22-.19-.03-.58-.08-.86-.12-.16,.04-.45,.04-.45,.04l-.04,.13s-.14,.02-.23-.12c-.07,0-.2-.03-.29-.05,.07-.46,.45-.76,.69-.77,.13-.09,.44-.3,.64-.36,.22-.33,.24-.41,.76-.69,.22-.44,.69-.95,1.25-1.28,.1,.2,.04,.48-.11,.72,1-.44,1.42-.54,2.4-.58-.15,.3-.61,.76-.98,1.03,.62,.07,1.19,.49,1.35,.69,.16,.2,.06,.16-.42,.19,.77,.44,1.13,1.05,1.38,1.67,.06,.16,0,.2-.46,.07,.57,.77,.66,1.48,.64,1.98-.01,.33-.1,.24-.36-.01,.03,.28,.06,.74,0,1.15Z"/>
      <path class="k" d="M27.5,8.7c.69-.42,2.18-.86,2.75-.94,.28-.04,.34,.03,.43,.42,.08,.39,.12,2.74-.05,4.06-.17,1.32-.56,3-1.01,3.52,.37-1.02-.36-1.9-1.14-2.27,.29-.8-.19-1.4-.43-1.5,0-.21-.08-.32-.16-.38v.39c.21,.4,.28,.8,.27,1.23,.15,.23,.16,.29,.22,.64,.25,.44,.31,.84,.37,1.37,.15,.38,.14,.84,.14,.84h-7.78l-.16,.16-2.78-.23-.09-.2h-.09c-2.17-3.86-1.24-4.8-.76-4.97,.32-.11,.63-.05,.79,0,.22-.89,.67-1.71,1.36-2.53,.3-.36,1.48-.09,3.37,.82,.34-.24,.78-.43,1.25-.58,.14-.13,.24-.21,.24-.21,.02-.04,.76-1.35,.75-1.91,0-.57-.66-1.27-.66-1.27,0,0-.11,.13-.19,.2-.23,.27-.5,.31-.83,.31-.35,0-.49-.02-.82,.14-.26,.13-.29,.17-.59,.23,.06,.04,.1,.08,.16,.18-.22-.03-.42-.05-.54-.22-.17-.04-.21-.09-.34-.23,.16-.02,.4-.13,.5-.22,.1-.1,.16-.16,.36-.32,.17-.14,.27-.2,.57-.22-.19-.03-.58-.08-.86-.12-.16,.04-.45,.04-.45,.04l-.04,.13s-.14,.02-.23-.12c-.07,0-.2-.03-.29-.05,.07-.46,.45-.76,.69-.77,.13-.09,.44-.3,.64-.36,.22-.33,.24-.41,.76-.69,.22-.44,.69-.95,1.25-1.28,.1,.2,.04,.48-.11,.72,1-.44,1.42-.54,2.4-.58-.15,.3-.61,.76-.98,1.03,.62,.07,1.19,.49,1.35,.69,.16,.2,.06,.16-.42,.19,.77,.44,1.13,1.05,1.38,1.67,.06,.16,0,.2-.46,.07,.57,.77,.66,1.48,.64,1.98-.01,.33-.1,.24-.36-.01,.03,.28,.06,.74,0,1.15Z"/>
      <path class="k" d="M27.5,8.7c.69-.42,2.18-.86,2.75-.94,.28-.04,.34,.03,.43,.42,.08,.39,.12,2.74-.05,4.06-.17,1.32-.56,3-1.01,3.52,.37-1.02-.36-1.9-1.14-2.27,.29-.8-.19-1.4-.43-1.5,0-.21-.08-.32-.16-.38v.39c.21,.4,.28,.8,.27,1.23,.15,.23,.16,.29,.22,.64,.25,.44,.31,.84,.37,1.37,.15,.38,.14,.84,.14,.84h-7.78l-.16,.16-2.78-.23-.09-.2h-.09c-2.17-3.86-1.24-4.8-.76-4.97,.32-.11,.63-.05,.79,0,.22-.89,.67-1.71,1.36-2.53,.3-.36,1.48-.09,3.37,.82,.34-.24,.78-.43,1.25-.58,.14-.13,.24-.21,.24-.21,.02-.04,.76-1.35,.75-1.91,0-.57-.66-1.27-.66-1.27,0,0-.11,.13-.19,.2-.23,.27-.5,.31-.83,.31-.35,0-.49-.02-.82,.14-.26,.13-.29,.17-.59,.23,.06,.04,.1,.08,.16,.18-.22-.03-.42-.05-.54-.22-.17-.04-.21-.09-.34-.23,.16-.02,.4-.13,.5-.22,.1-.1,.16-.16,.36-.32,.17-.14,.27-.2,.57-.22-.19-.03-.58-.08-.86-.12-.16,.04-.45,.04-.45,.04l-.04,.13s-.14,.02-.23-.12c-.07,0-.2-.03-.29-.05,.07-.46,.45-.76,.69-.77,.13-.09,.44-.3,.64-.36,.22-.33,.24-.41,.76-.69,.22-.44,.69-.95,1.25-1.28,.1,.2,.04,.48-.11,.72,1-.44,1.42-.54,2.4-.58-.15,.3-.61,.76-.98,1.03,.62,.07,1.19,.49,1.35,.69,.16,.2,.06,.16-.42,.19,.77,.44,1.13,1.05,1.38,1.67,.06,.16,0,.2-.46,.07,.57,.77,.66,1.48,.64,1.98-.01,.33-.1,.24-.36-.01,.03,.28,.06,.74,0,1.15Z"/>
      <path class="i" d="M23.68,17.64C11.48,17.64,1.53,27.59,1.53,39.78s9.95,22.15,22.15,22.15,22.15-9.95,22.15-22.15c0-12.19-9.96-22.14-22.15-22.14Z"/>
      <path class="k" d="M25.51,59.36c0-.33-.74-.72-1.85-.72s-1.84,.39-1.84,.72,.73,.71,1.84,.71,1.85-.38,1.85-.71Zm8.25,.25c-3.12,.67-5.14,1.31-8.33,.26-.36,.26-1,.42-1.65,.43v1.62h-.23v-1.62c-.65-.02-1.28-.17-1.65-.43-3.25,1.09-5.15,.41-8.32-.26l-.54-.35c3.09,.65,5.54,1.45,8.67,.43-.08-.1-.12-.21-.12-.33,0-.02,0-.05,0-.07-14.8-1.86-17.47-15.27-17.46-22.73,0-5.64,2.27-10.6,5.49-14.1l.24,.09c-3.19,3.45-5.5,8.43-5.5,14.01,0,7.44,2.66,20.7,17.31,22.5,.07-.11,.18-.2,.32-.29-3.58-1.91-6.57-8.31-6.56-19.84,0-11,3.82-21.43,8.22-21.42,4.56,0,8.21,10.42,8.21,21.42s-2.88,17.89-6.57,19.83c.15,.09,.27,.19,.35,.3,14.63-1.84,17.3-15.02,17.3-22.49,0-.12,0-.24,0-.36l-1.05-.71s-.07,.04-.13,.04c-.14,0-.26-.1-.26-.24,0-.11,.09-.23,.26-.23,.14,0,.25,.11,.26,.24l.93,.62c-.01-.46-.04-.91-.07-1.36l-1.11-.75s-.07,.04-.13,.04c-.14,0-.26-.09-.26-.24,0-.11,.1-.23,.26-.23,.14,0,.25,.11,.26,.24l.96,.64c-.05-.5-.11-.99-.19-1.47l-1.19-.8s-.07,.04-.13,.04c-.14,0-.26-.1-.26-.24,0-.11,.1-.23,.26-.23,.14,0,.25,.11,.26,.24l1.01,.67c-.09-.48-.19-.94-.3-1.4l-1.27-.86s-.07,.04-.13,.04c-.14,0-.26-.1-.26-.24,0-.11,.1-.23,.26-.23,.14,0,.25,.11,.26,.24l1.05,.71c-.84-3.1-2.57-6.01-4.73-8.2l.15-.22c2.25,2.27,4.03,5.37,4.86,8.61l.89,.59s.08-.03,.13-.03c.15,0,.26,.11,.25,.24,0,.16-.13,.24-.26,.24s-.24-.11-.25-.24l-.68-.46c.11,.45,.2,.92,.28,1.39l.96,.64s.08-.03,.13-.03c.15,0,.26,.11,.25,.24,0,.16-.12,.24-.26,.24s-.24-.11-.25-.24l-.78-.53c.07,.48,.13,.96,.17,1.46l1.03,.69s.08-.03,.13-.03c.15,0,.26,.11,.25,.24,0,.16-.13,.24-.26,.24s-.24-.11-.25-.24l-.88-.59c.03,.44,.05,.89,.06,1.35l1.07,.72s.08-.03,.13-.03c.15,0,.26,.11,.25,.24,0,.16-.13,.24-.26,.24-.14,0-.24-.11-.25-.24l-.95-.64v.2c0,7.48-2.67,20.83-17.44,22.72,0,.02,0,.05,0,.07,0,.12-.04,.23-.12,.33,3.08,.98,5.51,.24,8.55-.41l-.42,.33ZM23.67,17.75c-4.13,0-7.98,10.1-7.99,21.19-.01,11.69,3.07,17.97,6.58,19.71,.39-.16,.89-.24,1.4-.24s.99,.08,1.37,.23c3.63-1.77,6.6-8.12,6.6-19.7,0-11.09-3.69-21.19-7.97-21.19Z"/>
      <path class="i" d="M24.08,44.64v.32l.23-.21c-.08-.04-.15-.08-.23-.11Zm.75,.5l-.31,.7c.24,.31,.39,.71,.39,1.14v.09s.65,.38,.65,.38c.03-.16,.05-.32,.05-.48,0-.72-.3-1.37-.78-1.83Zm.52,2.95l-.74-.09c-.24,.36-.6,.63-1.03,.76l-.15,.71c.85-.11,1.56-.64,1.93-1.38Zm-2.59,1.38l-.15-.69c-.45-.11-.84-.39-1.09-.77l-.69,.07c.36,.74,1.08,1.28,1.93,1.39Zm-2.14-2.02l.59-.35v-.13c0-.45,.16-.87,.43-1.19l-.29-.65c-.48,.46-.78,1.11-.78,1.82,0,.17,.02,.33,.05,.48Zm1.25-2.69l.23,.21v-.32c-.08,.03-.16,.07-.23,.11Zm10.01-3.94c.07-.03,.46-.16,.69-.03,.02,0-.28-.29,.02-.69,.03-.04,.3-.38,.36-.51,0-.02,.03,.06,.04,.11,0,0,0-.33,.19-.62,0-.01,.17,.18,.24,.31,0,0,.01-.55,.18-.8,.02-.03-.08-.11-.08-.46,0-.02,0-.08-.03-.38,0-.04,.13,0,.19,.07,.01,.01-.16-.41-.09-.62,0-.03-.07,.1-.25,.14-.02,0,.15,.04,.19,.11,.01,.02-.11,.01-.31,.26,0,0,.09,0,.15-.01,0,0-.49,.48-.7,.48-.01,0,.21,.02,.32,.05,0,0-.05,.02-.28,.3,0,0-.19,.52-.94,.45-.02,.08-.04,.16-.06,.23,.11-.06,.36-.15,.77-.15,.01,0-.16,.09-.28,.33,0,.01-.18,.3-.39,.3,0,0,.38,0,.6-.21,.01-.01,.06,1.01-.67,1.22,.04,.03,.08,.07,.13,.1Zm-17.58,0s.09-.07,.13-.1c-.73-.2-.68-1.23-.67-1.22,.21,.21,.6,.21,.6,.21-.21,0-.38-.29-.39-.3-.12-.24-.29-.33-.28-.33,.4,0,.65,.09,.77,.15-.01-.08-.03-.16-.06-.23-.75,.06-.93-.45-.94-.45-.23-.29-.28-.3-.28-.3,.11-.04,.33-.05,.32-.05-.21,0-.71-.49-.7-.48,.06,.02,.15,.02,.15,.01-.2-.25-.32-.24-.31-.26,.04-.07,.21-.11,.19-.11-.18-.04-.26-.17-.25-.14,.07,.21-.11,.63-.09,.62,.07-.07,.2-.11,.19-.07-.03,.3-.03,.36-.03,.38,0,.35-.1,.44-.08,.46,.17,.26,.18,.81,.18,.8,.07-.14,.23-.33,.24-.31,.19,.28,.19,.62,.19,.62,.02-.05,.04-.13,.04-.11,.06,.14,.33,.48,.36,.51,.3,.4,0,.7,.02,.69,.23-.13,.62,0,.69,.03Zm3.86-.73c.27,.07,.14,.84,.06,1.2h.25c.19-.02,.31,0,.39,.05,.12,0,.23-.03,.31-.13l-.31-.17c-.24-.18-.41-.14-.4-.15,.42-.63,1.02-.04,1.13,.05,.1-.03,.21-.06,.32-.08-.14-.11-.31-.34-.33-.38,.05,.06,.41,0,.43,0,.49-.1,.74,.09,.74,.09l-.06-.13c-.09-.22-.26-.23-.23-.24,.39-.19,.68-.06,.67-.09-.05-.12-.09-.5-.06-.49,.38,.08,.49,.24,.5,.26,.2,.2,.28,.92,.3,1.09,.24,.06,.39,.11,.39,.11-.03-.08-.04-.17-.04-.27,0-.49,.4-.89,.89-.89,0-.38-.87-1.31-2.06-1.31h-4.19c-.97,0-1.92-.96-1.92-1.92V20.03h5.65c-2.03-.17-3.38-.53-3.59-.93l-2.62-4.28s.67,.66,1.13,.52c.46-.14,.55-.49,.52-1.08-.03-.55,.75,.85,1.68,.64,.84-.19,.41-1.35,.92-.83,.51,.52,1.09,.43,1.3,.19,.2-.24,.5-.62,.61-.98,.11-.36,.08-.5,.53,.1,.45,.61,.98,1.1,1.5,.61,.52-.49,.5-.92,.69-.47,.19,.45,.71,.79,1.05,.61,.34-.19,.73-.44,1.09-1,.37-.57,.19,.41,.92,1.1,.73,.69,1.35-.14,1.47-.24,.13-.11,.13-.25,.16,.11,.03,.36,.27,.89,.94,.82,.67-.07,1.17-.64,1.29-.79,.11-.14,.03,.46,.03,.46,0,0-.03,.98,.86,.68l.21-.07c.13-.07,.52-.39,.52-.39l-2.62,4.28c-.21,.38-1.59,.76-3.64,.93h5.72v16.62c0,.97-.96,1.93-1.92,1.93h-4.18c-1.2,0-2.03,.93-2.03,1.32,.48,0,.88,.4,.88,.89,0,.09-.01,.18-.04,.26,.06-.02,.18-.06,.36-.1,.02-.17,.11-.89,.3-1.09,.01-.01,.13-.18,.5-.26,.03,0,0,.37-.06,.49-.01,.02,.28-.11,.67,.09,.02,.01-.14,.03-.23,.24l-.06,.13s.25-.18,.74-.09c.02,0,.38,.06,.43,0-.03,.04-.2,.27-.33,.38,.11,.02,.22,.04,.32,.08,.11-.09,.71-.68,1.13-.05,0,.01-.16-.02-.4,.15l-.31,.17c.08,.1,.18,.13,.31,.13,.08-.04,.2-.07,.39-.06h.21c-.08-.36-.21-1.13,.06-1.19l1.13-.28c.11-.03,.21,.07,.3,.21l.68-.17,.11-.32,.62-.15c.24-.06,.42,.48,.49,.62l-.36,.09,.04,.11,.36-.09c.04,.13,.08,.25,.11,.38,.03-.02,.08,0,.11,.04-.06-.37-.07-.75-.02-1.11-.08-.03-.34-.12-.46-.43,0-.02-.03-.41-.11-.53-.01-.02,.45,.14,.53,.34,0,.01-.13-.54,.27-1.01,.02-.02,.13,.28,.21,.43-.05-.1-.11-.31,.05-.73,.01-.04,.19-.4,.22-.48,0-.01,.01,.15,.12,.38,0,.01,.09,.2,.13,.31,.01-.13,.1-.64,.72-.73,.01,0,.02-.12,.12-.26-.4-.02-.96-.1-.96-.34v-1.16c0-.1,.1-.18,.25-.23v-.69l-.26-.2v-.64c0-.24,.58-.3,.73-.32v.37h.1v-.38c.33-.02,.66-.02,.99,0v.37h.12s0-.36,0-.36c.16,.02,.72,.08,.72,.32v.64l-.28,.18v.7c.16,.05,.28,.13,.28,.24v1.16c0,.3-.92,.35-1.24,.35,.01,.14,0,.28-.09,.37-.01,.01,.04,.1,.14,.15,0,0,.41,.17,.41,.62,0,.02,.25-.18,.4-.15,.01,0-.07,.13-.05,.37,0,.03,.26,.66-.63,.87-.02,0-.01,.33-.11,.52,.02-.04,.29-.52,1-.4,.01,0-.08,.02-.21,.24,0,.02-.17,.72-.89,.4-.03-.01-.16,.34-.16,.34,0,0,.65-.3,1.06,.15,.02,.02-.1-.04-.29,.13-.01,.01-.28,.26-.7,.14-.02,0,.35,.12,.45,.21,.02,.01-.19,0-.46,.21-.01,.01-.34,.39-.86,.06-.02-.01,.11,.11,.18,.21,.01,.02,.15,.1,.21,.1,0,0-.71,.31-1.21-.22-.07-.03-.14-.07-.2-.11l.03,.09c.03,.09-.11,.14-.14,.04,0,0-.03-.1-.07-.28-.04-.04-.08-.08-.11-.11,.03,.13,.06,.26,.08,.39l-.36,.09v.1s.37-.09,.37-.09c.02,.15,.1,.72-.13,.78l-.62,.16-.25-.2-.67,.17c-.02,.15-.06,.27-.16,.3l-1.13,.28c-.27,.07-.5-.63-.61-.99-.08,.05-.16,.08-.25,.09-.03,0-.15,.09-.2,.34,0,.02-.05,.33-.32,.42-.03,.01,.34,.15,.49,.3,.01,.01-.39,.05-.68,.22-.03,.02-.46,.04-.66-.16-.02-.02,.1,.23,.31,.32,.01,0-.75,.33-1.27-.31h-.17c.06,.11,.25,.46,.26,.51,0,.01-1.09-.01-1.09-.64,0,0-.03-.05-.07-.09l-.11-.07c.03,.1,.06,.24,.06,.33,0,.02,.03,.31,.09,.39,0,0-.97-.46-.54-1.1-.2-.28-.28-.53-.28-.54-.03-.1,.12-.13,.14-.04,0,0,.03,.11,.11,.26l.05,.1c.17-.13,.61-.36,1.1,.03,.02,.01-.08-.03-.44,.18-.02,.01-.25,.15-.46,.07,.08,.09,.17,.17,.27,.23,.05-.03,.14-.08,.23-.11,.02,0,.22-.41,.99-.41,.02,0-.12,.19-.14,.28,0,.02-.06,.19-.15,.24-.02,.01,.12,.11,.12,.13s0-.57,.89-.77c.03,0-.06,.03-.11,.34,0,.02,.13-.32,.57-.32,.03,0,.22-.08,.24-.13,0-.01-.06,.24-.09,.29,0,0,.39-.27,.63-.27,.03,0-.24-.08-.32-.15-.02-.02-.83,.33-1.08-.59h-.09c-.05,0-.13,.04-.19,.01-.02,0,.17,.16,.27,.39,.01,.02,.19,.3,.25,.33,.01,0-.59-.05-.8-.26-.02-.02,.04,.11,.06,.24,0,.02-.32-.22-.58-.23-.03,0-.46-.01-.61-.39-.3,.06-.5,.13-.5,.13-.18,.21-.38,.37-.61,.44-.02,.04-.05,.07-.09,.09l.27,1.57v-.28c.12,.02,.54,.06,.54,.24v.48l-.21,.13c.34,.12,.65,.26,.93,.44l.43-.39s-.07-.11-.07-.18c0-.15,.12-.27,.27-.27s.27,.12,.27,.27-.13,.27-.27,.27c-.04,0-.08,0-.11-.02l-.23,.53c.7,.58,1.15,1.45,1.15,2.43,0,.28-.04,.55-.11,.81l.54,.32c.05-.08,.13-.13,.23-.13,.14,0,.27,.12,.27,.27s-.13,.27-.27,.27-.27-.13-.27-.27l-.63-.07c-.45,1.09-1.49,1.87-2.72,1.95l-.14,.65c.12,.02,.21,.13,.21,.27,0,.14-.13,.27-.27,.27-.15,0-.28-.13-.28-.27,0-.13,.09-.24,.22-.26l-.14-.65c-1.24-.08-2.29-.87-2.73-1.97l-.62,.06c0,.18-.12,.3-.27,.3s-.28-.13-.28-.27,.13-.27,.28-.27c.1,0,.18,.05,.23,.13l.54-.32c-.07-.26-.11-.53-.11-.81,0-.98,.45-1.85,1.14-2.43l-.27-.61s-.09,.04-.14,.04c-.15,0-.28-.13-.28-.27s.13-.27,.28-.27,.27,.12,.27,.27c0,.07-.03,.13-.07,.18l.5,.44c.28-.18,.58-.32,.91-.4l-.19-.17v-.48c0-.18,.43-.22,.54-.24v.28l.29-1.58c-.33-.16-.53-.33-.63-.56-.02,.03-.05,.05-.09,.03,0,0-.2-.07-.5-.13-.15,.38-.58,.39-.61,.39-.25,.01-.58,.25-.58,.23,.02-.12,.08-.26,.06-.24-.21,.21-.82,.27-.8,.26,.06-.03,.24-.3,.25-.33,.1-.23,.29-.39,.27-.39-.07,.02-.14,0-.19-.03h-.09c-.26,.94-1.06,.59-1.08,.61-.08,.08-.35,.15-.32,.15,.24,0,.63,.27,.63,.27-.02-.05-.09-.3-.09-.29,.02,.05,.22,.13,.24,.13,.43,0,.57,.34,.57,.32-.05-.31-.14-.35-.11-.34,.89,.2,.89,.79,.89,.77s.15-.12,.12-.13c-.09-.05-.15-.22-.15-.24-.02-.09-.16-.28-.14-.28,.77,0,.97,.41,.99,.41,.09,.03,.17,.08,.23,.11,.09-.06,.18-.14,.27-.23-.21,.08-.43-.05-.46-.07-.36-.2-.46-.16-.44-.18,.49-.39,.93-.16,1.1-.03l.06-.1c.08-.15,.11-.26,.11-.26,.03-.1,.17-.06,.14,.04,0,0-.07,.26-.28,.54,.44,.64-.54,1.11-.54,1.1,.06-.07,.09-.37,.09-.39,0-.09,.03-.23,.06-.33l-.11,.07s-.07,.08-.07,.09c0,.63-1.09,.66-1.09,.64,.01-.05,.2-.4,.26-.51h-.17c-.51,.64-1.28,.31-1.27,.31,.21-.09,.33-.34,.31-.32-.2,.2-.63,.18-.66,.16-.29-.17-.69-.21-.68-.22,.15-.15,.52-.29,.49-.3-.27-.09-.32-.4-.32-.42-.05-.25-.17-.34-.2-.34-.1-.01-.19-.05-.28-.11-.1,.36-.34,1.08-.61,1.01l-1.13-.28c-.1-.03-.15-.14-.16-.3l-.67-.17-.25,.2-.62-.16c-.24-.06-.15-.63-.13-.78l.36,.09v-.1s-.34-.09-.34-.09l.07-.35c-.1,.23-.13,.34-.13,.34-.03,.09-.17,.05-.14-.04l.02-.09c-.06,.04-.13,.08-.2,.11-.5,.54-1.21,.22-1.2,.22,.07,0,.2-.08,.21-.1,.07-.1,.2-.22,.18-.21-.52,.32-.84-.05-.86-.06-.26-.22-.47-.2-.45-.21,.1-.09,.47-.22,.45-.21-.41,.11-.68-.13-.7-.14-.19-.18-.31-.11-.29-.13,.41-.45,1.06-.16,1.06-.15,0,0-.14-.35-.16-.34-.72,.33-.88-.38-.89-.4-.13-.22-.22-.24-.21-.24,.71-.12,.97,.36,1,.4-.1-.2-.09-.52-.11-.52-.88-.21-.63-.84-.63-.87,.02-.23-.07-.37-.05-.37,.14-.02,.4,.17,.4,.15,0-.44,.4-.61,.41-.62,.1-.05,.15-.13,.13-.15-.09-.09-.11-.23-.09-.37-.28,0-1.26-.04-1.26-.35v-1.16c0-.1,.1-.18,.25-.23v-.69l-.25-.2v-.64c0-.24,.58-.3,.73-.32v.37h.1s0-.38,0-.38c.33-.02,.66-.02,.99,0v.37h.12s0-.36,0-.36c.16,.02,.72,.08,.72,.32v.64l-.28,.18v.7c.16,.05,.28,.13,.28,.24v1.16c0,.23-.55,.31-.94,.34,.11,.14,.11,.26,.12,.27,.62,.09,.71,.6,.72,.73,.04-.1,.12-.3,.13-.31,.11-.23,.12-.39,.12-.38,.04,.08,.21,.44,.22,.48,.16,.43,.11,.63,.05,.73,.08-.14,.19-.45,.21-.43,.4,.47,.26,1.03,.27,1.01,.08-.2,.55-.36,.53-.34-.08,.12-.1,.51-.11,.53-.12,.31-.38,.4-.46,.43,.04,.36,.03,.74-.02,1.11,.11-.17,.15-.29,.19-.42l.36,.09,.04-.11-.36-.09c.06-.14,.25-.68,.49-.62l.62,.15,.11,.32,.68,.17c.09-.15,.19-.24,.3-.21l1.13,.28Zm15.74-7.51c.15-.09,.29-.19,.4-.3-.07-.11-.33-.42-.33-.44,0-.03-.19-.19,.11-.72,.01-.02-.04,.18,.28,.39,0,0,.3,.18,.13,.55,.07-.1,.13-.21,.18-.33-.11-.1-.41-.33-.5-.8,0-.03-.04-.28,.1-.43,.02-.02,.42,.19,.54,.67,.02-.17,.02-.34,0-.51-.12,.02-.42,.01-.62-.64-.02-.06-.06-.43-.06-.43,0,0-.05-.09-.06-.14,0-.03-.06-.15-.08-.15-.02,0-.27-.07-.45-.3-.19,.49-.54,.53-.6,.53-.03,.15-.04,.3-.05,.45,.12-.34,.55-.58,.53-.56-.16,.25-.05,.61-.05,.64,.05,.54-.46,.69-.46,.71l.02,.11c.02,.07,.05,.13,.05,.12,.14-.48,.53-.58,.52-.57-.11,.11-.06,.5-.05,.53,.1,.42-.19,.56-.33,.61,.06,.14,.13,.28,.22,.41-.09-.42,.27-.85,.27-.85l.19,.5c.18,.5-.1,.66-.19,.7,.08,.09,.17,.18,.28,.26Zm1.14-4.71c0,.22-.49,.3-.87,.33,.06,.09,.11,.21,.07,.36,0,.01,.4,.12,.4,.28,0,.01,.19-.49,.41-.56,.01,0-.05,.13-.01,.31,0,.01,.38,.57-.26,1.05-.02,.02,.02,.02-.02,.1l.07,.23c.03-.1,.1-.36,.19-.42,.01,0,.16-.22,.34-.3,.02,0,.14,.56,0,.73,0,.01,.18-.11,.35-.19,.02-.01-.17,.24-.17,.58,0,.03,.01,.54-.58,.43,0,.1,0,.19,0,.28,.12-.08,.44-.3,.81-.3,.02,0-.26,.15-.31,.51,0,.03-.06,.33-.19,.39-.03,.01,.2-.08,.5,.27,.02,.02-.2,.01-.51,.26-.03,.02-.39,.33-.65-.1-.18,.27-.41,.45-.6,.56,.09,.07,.15,.1,.15,.1l-.05,.1s-.08-.04-.2-.14c-.15,.08-.26,.11-.26,.11l-.03-.11s.08-.02,.19-.08c-.12-.1-.22-.2-.32-.32-.48,.27-.65-.05-.66-.06-.07-.11-.41-.58-.39-.59,.27-.09,.56,.08,.75,.24-.06-.11-.12-.22-.16-.33-.72-.14-.75-1.03-.72-1.04,.05-.01,.35,.11,.34,.1-.27-.19-.29-.44-.29-.46,0-.32-.13-.41-.11-.42,.29-.07,.47,.12,.55,.24,.01-.22,.04-.45,.09-.67-.35-.17-.21-1.11-.19-1.1,.41,.27,.39,.75,.4,.67,.01-.08,.26-.26,.29-.27,.15-.07,.22-.28,.23-.26,.04,.07,.03,.2,.06,.32l.16-.02s-.23-.19-.24-.46c-.35,0-1.18-.06-1.18-.35v-1.16c0-.1,.1-.18,.25-.23v-.69l-.26-.2v-.64c0-.25,.58-.3,.73-.32v.37h.1v-.38c.33-.02,.66-.02,.99,0v.37h.12s0-.36,0-.36c.16,.03,.72,.08,.72,.32v.64l-.28,.18v.7c.16,.05,.28,.13,.28,.24v1.16Zm-1.16-3.67c.15-.09,.29-.19,.4-.3-.07-.11-.33-.42-.33-.44,0-.03-.19-.19,.11-.72,.01-.02-.04,.18,.28,.39,0,0,.3,.18,.13,.55,.07-.1,.13-.21,.18-.33-.11-.1-.41-.33-.5-.8,0-.03-.04-.28,.1-.43,.02-.02,.42,.19,.54,.67,.02-.17,.02-.34,0-.51-.12,.02-.42,.01-.62-.64-.02-.06-.05-.43-.05-.43,0,0-.05-.09-.06-.14,0-.03-.05-.15-.08-.15-.02,0-.27-.07-.45-.3-.19,.49-.54,.53-.6,.53-.03,.15-.04,.3-.05,.45,.12-.34,.55-.58,.53-.56-.16,.25-.05,.61-.05,.64,.05,.54-.46,.69-.46,.71l.02,.11c.02,.07,.05,.13,.05,.12,.14-.48,.53-.58,.52-.57-.11,.11-.05,.5-.05,.53,.1,.42-.2,.56-.33,.61,.06,.14,.13,.28,.22,.41-.09-.42,.27-.85,.27-.85l.19,.5c.18,.5-.1,.65-.19,.7,.08,.09,.17,.17,.28,.26Zm.96-6.19c.24,.24-.6,1.09-.69,1.19-.03,.03-.13,.13-.27,.25,.01,.07,.05,.16,.15,.23,.01,.01,.27,.21,.2,.5,0,.01,.4,.12,.4,.28,0,.01,.19-.49,.41-.56,.01,0-.05,.13-.01,.31,0,.01,.38,.57-.26,1.05-.02,.02,.02,.02-.02,.1l.07,.23c.03-.1,.1-.36,.19-.42,.01,0,.17-.22,.34-.3,.02,0,.14,.56,0,.73,0,.01,.18-.11,.35-.19,.02-.01-.17,.24-.17,.58,0,.03,.01,.54-.58,.43,0,.1,0,.19,0,.28,.12-.08,.44-.3,.81-.3,.02,0-.25,.15-.31,.51,0,.03-.06,.33-.19,.39-.03,.01,.2-.08,.5,.27,.02,.02-.2,.01-.51,.26-.03,.02-.39,.33-.65-.1-.18,.27-.41,.45-.6,.56,.09,.07,.15,.1,.15,.1,.07,.04,.01,.14-.05,.1,0,0-.08-.04-.21-.14-.15,.08-.26,.11-.26,.11-.07,.02-.11-.09-.03-.11,0,0,.08-.02,.19-.08-.12-.1-.22-.2-.32-.32-.48,.27-.65-.05-.66-.06-.07-.11-.41-.58-.39-.59,.27-.09,.56,.08,.75,.24-.06-.11-.12-.22-.16-.33-.72-.14-.75-1.03-.72-1.04,.05-.01,.35,.11,.34,.1-.27-.19-.29-.44-.29-.46,0-.32-.13-.41-.11-.42,.29-.07,.47,.12,.55,.24,.01-.22,.04-.45,.09-.67-.35-.17-.21-1.11-.19-1.1,.41,.27,.39,.75,.4,.67,.01-.08,.26-.26,.29-.27,.15-.07,.22-.28,.23-.26,.04,.07,.03,.2,.06,.32l.16-.02s-.3-.25-.23-.59c-.24,.17-.48,.29-.6,.18l-.82-.82c-.07-.08-.05-.2,.01-.34l-.49-.49-.32,.04-.45-.45c-.17-.17,.2-.62,.29-.74l.26,.26-.2-.34c.22-.25,.45-.48,.7-.7l.26,.26,.09-.07-.27-.27c.13-.09,.56-.46,.74-.28l.45,.45-.07,.32,.49,.49c.15-.08,.29-.11,.37-.03l.82,.82Zm-22.55,14.57c.11-.09,.2-.17,.28-.26-.09-.05-.37-.2-.19-.7l.19-.5s.36,.43,.27,.85c.09-.13,.16-.27,.22-.41-.13-.04-.42-.19-.33-.61,0-.03,.07-.42-.05-.53,0,0,.38,.09,.52,.57,0,.01,.03-.06,.05-.12l.02-.11s-.51-.17-.46-.71c0-.02,.11-.39-.05-.64-.01-.02,.41,.21,.53,.56-.01-.15-.03-.3-.05-.45-.06,0-.41-.04-.6-.53-.19,.23-.43,.3-.45,.3-.03,0-.08,.12-.08,.15-.01,.06-.06,.14-.06,.14,0,0-.04,.37-.06,.43-.21,.65-.5,.65-.62,.64-.01,.17-.01,.34,0,.51,.12-.49,.52-.69,.54-.67,.13,.16,.1,.4,.1,.43-.08,.47-.39,.7-.5,.8,.05,.12,.11,.23,.18,.33-.17-.37,.13-.55,.13-.55,.31-.21,.27-.41,.28-.39,.3,.53,.11,.69,.11,.72,0,.03-.26,.33-.33,.44,.11,.11,.25,.21,.4,.3Zm1.49-4.71c0,.28-.79,.34-1.16,.35-.01,.27-.24,.46-.24,.46l.16,.02c.03-.12,.02-.25,.06-.32,0-.02,.08,.19,.23,.26,.02,.01,.28,.19,.29,.27,.01,.08-.01-.39,.4-.67,.02-.01,.16,.92-.19,1.1,.05,.22,.08,.44,.09,.67,.08-.12,.26-.31,.55-.24,.02,0-.11,.1-.11,.42,0,.02-.02,.27-.29,.46-.02,.01,.29-.11,.34-.1,.03,0,0,.9-.72,1.04-.05,.11-.1,.22-.16,.33,.2-.16,.49-.33,.76-.24,.02,0-.32,.48-.39,.59,0,.01-.18,.33-.66,.06-.1,.11-.2,.22-.32,.32,.12,.06,.19,.08,.19,.08l-.03,.11s-.11-.03-.26-.11c-.12,.09-.21,.14-.21,.14l-.05-.1s.06-.03,.15-.1c-.19-.11-.41-.29-.6-.56-.27,.43-.63,.12-.65,.1-.31-.24-.52-.23-.51-.26,.3-.35,.53-.26,.5-.27-.13-.06-.18-.35-.19-.39-.05-.36-.32-.51-.31-.51,.38,0,.7,.22,.81,.3,0-.09,0-.18,0-.28-.6,.11-.58-.4-.58-.43,0-.34-.19-.59-.17-.58,.17,.08,.36,.2,.35,.19-.13-.17-.01-.74,0-.73,.18,.09,.33,.3,.34,.3,.08,.06,.16,.32,.19,.42l.07-.23c-.04-.09,0-.08-.02-.1-.64-.48-.27-1.04-.26-1.05,.04-.18-.03-.32-.01-.31,.21,.07,.41,.58,.41,.56,0-.16,.41-.27,.4-.28-.04-.15,.01-.27,.07-.36-.39-.03-.89-.11-.89-.34v-1.16c0-.1,.1-.18,.25-.23v-.69l-.25-.2v-.64c0-.24,.58-.3,.73-.32v.37h.1s0-.38,0-.38c.33-.02,.66-.02,.99,0v.37h.12s0-.36,0-.36c.16,.03,.72,.08,.72,.32v.64l-.28,.18v.7c.16,.05,.28,.13,.28,.24v1.16h0Zm-1.47-3.67c.11-.09,.2-.17,.28-.26-.09-.05-.37-.2-.19-.7l.19-.5s.36,.43,.27,.85c.09-.13,.16-.27,.22-.41-.13-.04-.42-.19-.33-.61,0-.03,.07-.42-.05-.53,0,0,.38,.09,.52,.57,0,.01,.03-.06,.05-.12l.02-.11s-.51-.17-.46-.71c0-.02,.11-.39-.05-.64-.01-.02,.41,.21,.53,.56-.01-.15-.03-.3-.05-.45-.06,0-.41-.04-.6-.53-.19,.23-.43,.3-.45,.3-.03,0-.08,.12-.08,.15-.01,.06-.06,.14-.06,.14,0,0-.04,.37-.06,.43-.21,.65-.5,.65-.62,.64-.01,.17-.01,.34,0,.51,.12-.49,.52-.69,.54-.67,.14,.16,.1,.4,.1,.43-.08,.47-.39,.7-.5,.8,.05,.12,.11,.23,.18,.33-.17-.37,.13-.55,.13-.55,.32-.21,.27-.41,.28-.39,.3,.53,.11,.69,.11,.72,0,.03-.26,.33-.33,.44,.11,.11,.25,.21,.4,.3Zm.96-4.3c-.12,.12-.39-.03-.65-.22,.09,.35-.23,.61-.23,.61l.16,.02c.03-.12,.02-.25,.06-.32,0-.02,.08,.19,.23,.26,.02,.01,.27,.19,.29,.27,.01,.08-.01-.4,.4-.67,.02-.01,.16,.92-.19,1.1,.05,.22,.08,.44,.09,.67,.08-.12,.26-.31,.55-.24,.02,0-.11,.1-.11,.42,0,.02-.02,.27-.29,.46-.02,.01,.29-.11,.34-.1,.03,0,0,.9-.72,1.04-.05,.11-.1,.22-.16,.33,.2-.16,.49-.33,.75-.24,.02,0-.32,.48-.39,.59,0,.01-.18,.33-.66,.06-.1,.11-.2,.22-.32,.32,.12,.06,.19,.08,.19,.08,.07,.02,.04,.13-.03,.11,0,0-.11-.03-.26-.11-.12,.09-.21,.14-.21,.14-.07,.04-.12-.07-.05-.1,0,0,.06-.03,.15-.1-.19-.11-.41-.29-.6-.56-.27,.43-.63,.12-.65,.1-.31-.24-.52-.23-.51-.26,.3-.35,.53-.26,.5-.27-.13-.06-.18-.35-.19-.39-.05-.36-.32-.51-.31-.51,.38,0,.7,.22,.81,.3,0-.09,0-.18,0-.28-.6,.11-.58-.4-.58-.43,0-.34-.19-.59-.17-.58,.17,.08,.36,.2,.35,.19-.13-.17-.01-.74,0-.73,.18,.09,.33,.3,.34,.3,.08,.06,.16,.32,.19,.42l.07-.23c-.04-.09,0-.09-.02-.1-.64-.48-.27-1.04-.26-1.05,.04-.18-.03-.32-.01-.31,.21,.07,.41,.58,.41,.56,0-.16,.41-.27,.4-.28-.07-.29,.18-.49,.2-.5,.11-.09,.14-.18,.15-.26-.12-.1-.2-.19-.23-.22-.1-.1-.93-.94-.69-1.18l.82-.82c.08-.07,.2-.05,.34,.01l.49-.49-.04-.32,.45-.45c.17-.17,.62,.2,.74,.29l-.26,.26,.34-.2c.25,.22,.48,.45,.7,.7l-.26,.26,.07,.09,.27-.27c.09,.13,.46,.56,.28,.74l-.45,.45-.33-.07-.49,.49c.08,.15,.11,.29,.03,.37l-.82,.82Z"/>
      <path class="k" d="M27.5,8.7c.69-.42,2.18-.86,2.75-.94,.28-.04,.34,.03,.43,.42,.08,.39,.12,2.74-.05,4.06-.17,1.32-.56,3-1.01,3.52,.37-1.02-.36-1.9-1.14-2.27,.29-.8-.19-1.4-.43-1.5,0-.21-.08-.32-.16-.38v.39c.21,.4,.28,.8,.27,1.23,.15,.23,.16,.29,.22,.64,.25,.44,.31,.84,.37,1.37,.15,.38,.14,.84,.14,.84h-7.78l-.16,.16-2.78-.23-.09-.2h-.09c-2.17-3.86-1.24-4.8-.76-4.97,.32-.11,.63-.05,.79,0,.22-.89,.67-1.71,1.36-2.53,.3-.36,1.48-.09,3.37,.82,.34-.24,.78-.43,1.25-.58,.14-.13,.24-.21,.24-.21,.02-.04,.76-1.35,.75-1.91,0-.57-.66-1.27-.66-1.27,0,0-.11,.13-.19,.2-.23,.27-.5,.31-.83,.31-.35,0-.49-.02-.82,.14-.26,.13-.29,.17-.59,.23,.06,.04,.1,.08,.16,.18-.22-.03-.42-.05-.54-.22-.17-.04-.21-.09-.34-.23,.16-.02,.4-.13,.5-.22,.1-.1,.16-.16,.36-.32,.17-.14,.27-.2,.57-.22-.19-.03-.58-.08-.86-.12-.16,.04-.45,.04-.45,.04l-.04,.13s-.14,.02-.23-.12c-.07,0-.2-.03-.29-.05,.07-.46,.45-.76,.69-.77,.13-.09,.44-.3,.64-.36,.22-.33,.24-.41,.76-.69,.22-.44,.69-.95,1.25-1.28,.1,.2,.04,.48-.11,.72,1-.44,1.42-.54,2.4-.58-.15,.3-.61,.76-.98,1.03,.62,.07,1.19,.49,1.35,.69,.16,.2,.06,.16-.42,.19,.77,.44,1.13,1.05,1.38,1.67,.06,.16,0,.2-.46,.07,.57,.77,.66,1.48,.64,1.98-.01,.33-.1,.24-.36-.01,.03,.28,.06,.74,0,1.15Z"/>
      <path class="l" d="M23.42,2.87c1.06-.47,1.73-.67,2.65-.76-.35,.32-.82,.71-1.13,.91,.68,.06,1,.24,1.55,.61-.32,.02-.47,.04-.7,.11,.47,.24,1.4,.97,1.64,1.63-.19,0-.37-.06-.61-.06,.4,.55,.84,1.07,.82,2.01-.09-.03-.29-.12-.38-.14,.13,.61,.14,1.08-.1,1.97,.43,1.19,.52,1.63,.49,2.88,.13,.37,.34,.69,.29,1.28,.15,.15,.23,.31,.24,.6,.11,.26,.4,1.11,.38,1.38,.14,.36,.11,.71,.1,.76-.12,.02-5.23,0-5.23,0,.67-.23,1.23-.46,1.72-1.15,.97-.8,1.52-1.84,1.72-3.27-.51,1.62-1.03,2.35-1.88,3.13-.57,.75-1.4,1.12-2.03,1.26h-.42s.42-.99,.47-1.62c.25-.37,.32-.6,.3-.99,.79-.67,1-1.11,1.06-1.72-.36,.86-.51,.96-1.2,1.6-.03,.46-.1,.68-.37,1.06-.06,.38-.24,1.07-.53,1.7h-1.22c.06-.88,.13-1.29,.39-1.85,0-.55,.17-1.12,.46-1.6,.02-.59,.37-2.25,1.38-3.15,.55-.77,1-1.01,1.3-1.19,.28-.57,.65-1.48,.66-1.69,.03-.44-.35-1.26-.77-1.6,.21-.35,.16-.44,.11-.77-.04,.29-.07,.34-.11,.45-.05,.11-.54,.53-.68,.63-.14,.1-.32,.14-.53,.14-.21,0-.41,0-.77,.16-.26,.11-.63,.37-.99,.21,.17-.03,.3-.15,.47-.3,.17-.15,.12-.23,.99-.52-.29-.17-.92-.22-1.11-.26-.19-.04-.49,.05-.88,.03,.03-.14,.23-.46,.5-.47,.19-.17,.44-.29,.64-.32,.45-.56,.3-.57,1.03-1-.17,.05-.19,.05-.19,.05,.15-.31,.6-.79,1.02-1.1-.02,.34-.14,.56-.29,.76-.14,.07-.3,.19-.3,.19Zm-5.25,13.15l-.09-.2c.09,0,.13-.01,.13-.01-.76-1.42-2.15-4.5-.92-4.83,.31-.08,.56-.03,.7,.02-.3,1.36-.12,2.91,.45,4.98-.01-.25,.52-1.91,1.56-2.37-.2-.42-.35-.79-.47-1.16,.19-.54,.47-.78,1.13-.71,.25-.75,.55-1.2,1.02-1.48-.49,.2-.85,.56-1.09,1.11-.15-.29-.5-.98-.71-1.67,.12,.75,.42,1.48,.53,1.75-.45,.04-.76,.2-.99,.65-.32-1.18-.25-2.2,.04-3.55-.61,1.9-.42,3.37,.29,4.99-.6,.36-1,.8-1.31,1.77-.66-3.2-.56-4.77,1.02-6.83,.39-.51,2.59,.49,3.27,.95,.35-.2,.62-.32,.88-.42-.1,.13-.2,.27-.28,.42-.85,.56-1.64,2.09-1.64,3.17-.33,.48-.43,.94-.43,1.62-.24,.5-.36,1.15-.34,1.86h.2l-.16,.16-2.78-.23Zm9.29-7.08c.86-.48,1.92-.83,2.69-1,.3-.06,.34,.03,.38,.26,.04,.23,.11,1.9,0,3.26-.12,1.36-.24,2.19-.62,3.54,.15-1.09,.05-1.74-.62-2.19,.71-1.99,.91-2.55,1.12-4.53-.31,1.93-.72,3.18-1.3,4.58,.7,.53,.85,1.05,.71,1.86-.15-.54-.46-.99-1.07-1.33,.01-.5,.04-1.05-.48-1.51-.09-.29-.2-.44-.37-.51,0-.2-.01-.39-.03-.59,.38-.56,.62-.9,1.12-1.58-.52,.6-.77,.9-1.15,1.36-.07-.44-.19-.9-.42-1.46,.02-.05,.04-.1,.05-.15Z"/>
      <path class="l" d="M10.97,4.02c1.29,.69,1.74-.5,2.37-.52-1.29-.13-.88,.58-2.37,.52Z"/>
      <path class="l" d="M14.72,1.96c1.38-.48,1.64,.77,2.26,.89-1.29-.07-.78-.71-2.26-.89Z"/>
      <path class="l" d="M12.56,4.88c1.19-.41,1.72,.67,2.25,.77-1.11-.06-.98-.62-2.25-.77Z"/>
      <path class="l" d="M22.65,3.91c.89-.47,1.09-.42,2.11-.36-1.07,.12-1.44,.12-2.11,.36Z"/>
      <path class="l" d="M23.41,3.64c.06,.03,.12,.21,.24,.21s.49-.25,.51-.27c.01-.02-.74,.07-.74,.07Z"/>
      <path class="l" d="M25.53,14.36c-.21,.2-1.01,.44-1.96,.24,.61,.39,1.5,.28,1.74,.07,.05-.21,.22-.31,.22-.31Z"/>
      <path class="l" d="M26.44,13.06c.08,.3,.11,.35,.29,.51-.02,.37,.02,.65,.24,.93,.05,.62,.33,1.26,.65,1.66-.24,.02-.35,0-.35,0,0,0-.48-.84-.5-1.45-.19-.27-.32-.52-.28-1.02-.18-.24-.19-.33-.19-.37,0-.04,.14-.27,.14-.27Z"/>
      <path class="k" d="M23.69,49.59c-1.74,0-3.15-1.41-3.15-3.15s1.41-3.15,3.15-3.15,3.15,1.41,3.15,3.15-1.41,3.15-3.15,3.15Zm0-.63c1.39,0,2.52-1.13,2.52-2.52s-1.13-2.52-2.52-2.52-2.52,1.13-2.52,2.52,1.13,2.52,2.52,2.52Z"/>
      <path class="f" d="M13.06,24.62h0"/>
      <path class="f" d="M13.06,24.62h0"/>
      <path class="f" d="M13.05,24.62h0"/>
      <path class="l" d="M12.11,54.08c.51-.28,1.02-.55,1.53-.83-.57-.94-1.14-1.89-1.7-2.84,.83-.47,1.65-.93,2.48-1.4-.26-.44-.52-.89-.78-1.33-.82,.47-1.65,.95-2.48,1.42-.32-.55-.63-1.09-.95-1.64,.88-.51,1.76-1.03,2.64-1.54-.26-.45-.51-.9-.77-1.35-1.38,.81-2.76,1.62-4.13,2.44,1.34,2.38,2.73,4.74,4.15,7.08Z"/>
      <path class="l" d="M25.11,56.66c-.4,.15-.85,.21-1.28,.21-1.23-.02-2.15-.82-2.16-2.08,0-1.27,.89-2.14,2.15-2.16,.44,0,.89,.08,1.3,.24,.11-.39,.22-.78,.33-1.18-.51-.24-1.13-.3-1.69-.29-2,.03-3.71,1.33-3.69,3.44,.02,2.01,1.65,3.16,3.54,3.2,.56,0,1.19-.05,1.71-.27-.07-.37-.14-.74-.21-1.11Z"/>
      <path class="l" d="M31.07,52.93c.56,.21,1.11,.42,1.67,.62,.39-.89,.78-1.79,1.16-2.69,.17,.11,.36,.19,.55,.26,.87,.32,1.82,.45,2.7,.11,.67-.29,1.11-.88,1.4-1.53,.26-.66,.31-1.39-.03-2.03-.4-.76-1.19-1.19-1.96-1.51-.76-.3-1.53-.58-2.33-.75-1.02,2.52-2.08,5.03-3.16,7.53Zm4.32-5.64c.25,.03,.48,.13,.71,.22,.69,.29,1.11,.87,.82,1.62-.36,.79-1.16,.96-1.93,.68-.19-.07-.37-.15-.54-.26,.32-.75,.63-1.5,.94-2.26Z"/>
      <path class="l" d="M23.14,40.24c0,.23,.14,.43,.34,.52,.06-.06,.13-.1,.22-.1s.17,.04,.22,.1c.2-.08,.35-.29,.35-.52,0-.31-.25-.56-.56-.56-.31,0-.56,.25-.56,.56Zm.72,.97l.27,1.57v-.28c.12,.02,.54,.06,.54,.24v.48l-.21,.13v.52c.12,.04,.21,.1,.21,.18v.87c0,.26-.89,.26-.99,.26s-.99,0-.99-.26v-.87c0-.08,.08-.13,.19-.17v-.52l-.19-.15v-.48c0-.18,.43-.22,.54-.24v.28l.29-1.58s-.06-.05-.08-.09c-.37-.11-.64-.45-.64-.85,0-.49,.4-.89,.89-.89s.89,.4,.89,.89c0,.4-.27,.74-.64,.85-.02,.04-.05,.07-.09,.09Z"/>
      <path class="k" d="M35.29,17.69c.24,.24-.6,1.09-.69,1.19-.1,.1-.94,.93-1.18,.69l-.82-.82c-.07-.08-.05-.2,.01-.34l-.49-.49-.32,.04-.45-.45c-.17-.17,.2-.62,.29-.74l.26,.26,.06-.08-.26-.26c.22-.25,.45-.48,.7-.7l.26,.26,.09-.07-.27-.27c.13-.09,.56-.46,.74-.28l.45,.45-.07,.32,.49,.49c.15-.08,.29-.11,.37-.03l.82,.82Z"/>
      <path class="k" d="M32.99,18.2c.16-.21,.36-.42,.44-.5,.13-.13,.68-.64,.9-.67l.66,.65c-.08,.04-.16,.09-.21,.12-.1,.07-.22,.16-.34,.26l-.3-.3c-.2-.2-.46-.1-.6,.04-.14,.14-.24,.4-.04,.6l.3,.3c-.04,.05-.09,.11-.13,.16l-.67-.67Z"/>
      <path class="k" d="M31.98,17.26l.26-.33-.25-.25c.13-.14,.25-.26,.4-.4l.26,.26,.42-.34-.25-.25c.08-.05,.18-.12,.27-.14l.28,.28c-.28,.13-.67,.48-.88,.69-.13,.13-.31,.33-.46,.53l-.04-.03Z"/>
      <path class="k" d="M32.29,17.29c.14-.17,.28-.32,.34-.38,.14-.14,.36-.34,.57-.49,.02-.01,.04-.03,.07-.05l.64,.64c-.29,.2-.57,.48-.63,.55-.04,.04-.19,.19-.35,.37l-.64-.64Z"/>
      <path class="l" d="M32.75,16.99c.09-.09,.22-.09,.31,0,.09,.09,.09,.22,0,.31-.09,.09-.22,.09-.31,0-.09-.09-.09-.22,0-.31Z"/>
      <path class="k" d="M13.65,19.51c-.24,.24-1.09-.6-1.19-.69-.1-.1-.93-.94-.69-1.18l.82-.82c.08-.07,.2-.05,.34,.01l.49-.49-.04-.32,.45-.45c.17-.17,.62,.2,.74,.29l-.26,.26,.08,.06,.26-.26c.25,.22,.48,.45,.7,.7l-.26,.26,.07,.09,.27-.27c.09,.13,.46,.56,.28,.74l-.45,.45-.33-.07-.49,.49c.08,.15,.11,.29,.03,.37l-.82,.82Z"/>
      <path class="k" d="M13.13,17.21c.21,.16,.42,.36,.5,.44,.13,.13,.64,.68,.67,.9l-.65,.65c-.04-.08-.09-.16-.12-.21-.07-.1-.16-.22-.26-.34l.3-.3c.2-.2,.1-.46-.04-.6-.14-.14-.4-.24-.6-.04l-.3,.3c-.05-.04-.11-.09-.16-.13l.67-.67Z"/>
      <path class="k" d="M14.08,16.21l.33,.26,.25-.25c.14,.13,.26,.25,.4,.4l-.26,.26,.35,.42,.25-.25c.05,.08,.12,.18,.14,.27l-.28,.28c-.13-.28-.48-.67-.69-.88-.13-.13-.33-.31-.53-.47l.03-.03Z"/>
      <path class="k" d="M14.04,16.52c.17,.14,.32,.28,.38,.34,.14,.14,.34,.36,.49,.57,.01,.02,.03,.04,.05,.07l-.64,.64c-.2-.29-.48-.57-.55-.63-.04-.04-.19-.19-.37-.35l.64-.64Z"/>
      <path class="k" d="M14.19,17.34c.12,0,.22-.1,.22-.22s-.1-.22-.22-.22-.22,.1-.22,.22,.1,.22,.22,.22Z"/>
      <path class="k" d="M15.53,19.52H31.83v16.62c0,.97-.96,1.93-1.92,1.93h-4.18c-1.2,0-2.03,.93-2.03,1.32,0-.38-.89-1.32-2.07-1.32h-4.19c-.97,0-1.92-.96-1.92-1.92V19.52Z"/>
      <path class="k" d="M21.27,42.91c.14,0,.27,.12,.27,.27,0,.07-.03,.13-.07,.18l1.53,1.36c.2-.08,.42-.12,.65-.12,.25,0,.48,.05,.69,.13l1.48-1.32s-.07-.11-.07-.18c0-.15,.12-.27,.27-.27s.27,.12,.27,.27-.13,.27-.27,.27c-.04,0-.08,0-.11-.02l-.81,1.83c.24,.31,.39,.71,.39,1.14,0,.03,0,.06,0,.09l1.77,1.03c.05-.08,.13-.13,.23-.13,.15,0,.27,.12,.27,.27s-.13,.27-.27,.27-.27-.13-.27-.27c0-.01,0-.02,0-.03l-2.04-.2c-.24,.36-.6,.63-1.03,.76l-.43,2c.12,.02,.22,.13,.22,.27,0,.14-.13,.27-.27,.27-.15,0-.28-.13-.28-.27,0-.13,.09-.24,.22-.26l-.42-1.98c-.45-.11-.84-.39-1.09-.77l-1.98,.2s0,.02,0,.03c0,.15-.13,.27-.27,.27s-.28-.13-.28-.27,.13-.27,.28-.27c.1,0,.18,.05,.23,.13l1.7-.99s0-.09,0-.13c0-.45,.16-.87,.43-1.19l-.82-1.86s-.09,.04-.14,.04c-.15,0-.28-.13-.28-.27,0-.15,.13-.27,.28-.27Z"/>
      <path class="k" d="M14.89,40.29s.09-.07,.13-.1v-.05c-.73-.15-.68-1.17-.67-1.16,.21,.21,.6,.21,.6,.21-.21,0-.38-.29-.39-.3-.12-.24-.29-.33-.28-.33,.4,0,.65,.09,.77,.15-.02-.08-.03-.16-.06-.23-.75,.06-.93-.45-.94-.45-.23-.29-.28-.3-.28-.3,.11-.04,.33-.05,.32-.05-.21,0-.71-.49-.7-.48,.06,.02,.15,.02,.15,.02-.2-.25-.32-.24-.31-.26,.04-.07,.21-.11,.19-.11-.18-.05-.26-.17-.25-.14,.07,.21-.11,.63-.09,.62,.07-.07,.2-.11,.19-.07-.03,.3-.03,.36-.03,.38,0,.35-.1,.43-.08,.46,.17,.26,.18,.81,.18,.8,.07-.14,.23-.33,.24-.31,.19,.28,.19,.62,.19,.62,.02-.05,.04-.13,.04-.11,.06,.14,.33,.48,.36,.51,.3,.4,0,.7,.02,.69,.23-.13,.62,0,.69,.03Zm.45-.22s-.07,.09-.18,.19c-.04,.17-.07,.28-.07,.28-.03,.09-.17,.05-.14-.04,0,0,.01-.03,.02-.09-.06,.04-.13,.08-.2,.11-.5,.54-1.21,.22-1.21,.22,.07,0,.2-.08,.22-.1,.07-.1,.2-.22,.18-.21-.52,.32-.84-.05-.86-.07-.26-.22-.47-.2-.45-.21,.1-.09,.47-.22,.45-.21-.41,.12-.69-.13-.7-.14-.19-.18-.31-.11-.29-.13,.41-.45,1.06-.16,1.06-.15,0,0-.14-.35-.16-.34-.72,.33-.88-.38-.89-.4-.13-.22-.22-.24-.21-.24,.71-.12,.97,.36,1,.4-.1-.2-.09-.52-.11-.52-.88-.21-.63-.83-.63-.87,.02-.23-.07-.37-.05-.37,.14-.02,.4,.17,.4,.15,0-.44,.4-.61,.41-.62,.1-.05,.15-.13,.13-.15-.22-.22,0-.79,.02-.77,.08,.15,.22,.26,.23,.27,.22,.18,.22,.38,.23,.38,.62,.09,.71,.6,.72,.73l.04,.03c0-.14,.08-.33,.08-.34,.11-.23,.12-.39,.12-.38,.04,.08,.21,.44,.22,.48,.16,.43,.11,.63,.05,.73l.04,.06c.03-.21,.15-.51,.16-.49,.4,.47,.26,1.03,.27,1.01,.08-.2,.55-.36,.53-.34-.08,.12-.1,.51-.11,.53-.12,.31-.38,.4-.46,.43,.04,.36,.03,.74-.02,1.11l.02-.02c.06-.08,.18,0,.12,.09Z"/>
      <path class="i" d="M30.94,20.41h-7.04v8.22h7.04v-8.22Z"/>
      <path class="k" d="M23.67,20.29h7.36v6.57h-7.36v-6.57Z"/>
      <path class="k" d="M12.9,23.66c.11-.09,.2-.17,.28-.26-.09-.05-.37-.2-.19-.7,.01-.03,.19-.5,.19-.5,0,0,.36,.43,.27,.85,.09-.13,.16-.27,.22-.41-.13-.04-.42-.19-.33-.61,0-.03,.07-.42-.05-.53,0,0,.38,.09,.52,.57,0,.01,.03-.06,.05-.12l.02-.11s-.51-.17-.46-.71c0-.02,.11-.39-.05-.64-.01-.02,.41,.21,.53,.56-.01-.15-.03-.3-.05-.45-.06,0-.41-.04-.6-.53v-.02c-.19,.25-.43,.32-.45,.32-.03,0-.07,.12-.08,.15-.01,.06-.06,.14-.06,.14,0,0-.04,.37-.06,.43-.21,.65-.5,.65-.62,.64-.01,.17-.01,.34,0,.51,.12-.49,.52-.69,.54-.67,.14,.16,.1,.4,.1,.43-.08,.47-.39,.7-.5,.8,.05,.12,.11,.23,.18,.33-.17-.37,.13-.55,.13-.55,.32-.21,.27-.41,.28-.39,.3,.53,.11,.69,.11,.72,0,.03-.26,.33-.33,.44,.11,.11,.25,.21,.4,.3Zm-.25,.17s.06-.03,.15-.1c-.19-.11-.41-.29-.6-.56-.27,.43-.63,.12-.65,.1-.31-.24-.52-.23-.51-.25,.3-.35,.53-.26,.5-.27-.13-.06-.18-.35-.19-.39-.05-.36-.32-.51-.31-.51,.38,0,.7,.22,.81,.3,0-.09,0-.18,0-.28-.6,.11-.58-.4-.58-.43,0-.34-.19-.59-.17-.58,.16,.08,.36,.2,.35,.19-.13-.17-.01-.74,0-.73,.18,.09,.33,.3,.34,.3,.08,.06,.16,.32,.19,.42,.02-.07,.04-.15,.07-.23-.04-.09,0-.09-.02-.1-.64-.48-.27-1.04-.26-1.05,.04-.18-.03-.32-.01-.31,.21,.07,.41,.58,.41,.56,0-.16,.41-.27,.4-.28-.07-.29,.18-.49,.2-.5,.26-.21,.1-.46,.11-.45,.74,.55,.12,1.06,.12,1.06,0,0,.14,.01,.16,.02,.01,0,.03,0,.04,0-.02-.12-.02-.25,.02-.33,0-.02,.08,.19,.23,.26,.02,.01,.27,.19,.29,.27,.01,.08-.01-.4,.4-.67,.02-.01,.16,.92-.19,1.1,.05,.22,.08,.44,.09,.67,.08-.12,.26-.31,.55-.24,.02,0-.11,.1-.11,.42,0,.02-.02,.27-.29,.46-.02,.01,.29-.11,.34-.1,.03,0,0,.9-.72,1.04-.05,.11-.1,.22-.16,.33,.2-.16,.49-.33,.76-.24,.02,0-.32,.48-.39,.59,0,.01-.18,.33-.66,.06-.1,.11-.2,.22-.32,.32,.12,.06,.19,.08,.19,.08,.07,.02,.04,.13-.03,.11,0,0-.11-.03-.26-.11-.12,.09-.2,.14-.2,.14-.07,.04-.12-.07-.05-.1Z"/>
      <path class="l" d="M29.75,18.59l2.62-4.28s-.45,.36-.55,.4c0,0,.66-.23-.18,.06-.89,.3-.86-.68-.86-.68,0,0,.08-.61-.03-.46-.12,.15-.62,.72-1.29,.79-.67,.07-.9-.46-.94-.82-.03-.36-.03-.22-.16-.11-.11,.09-.74,.92-1.47,.24-.73-.69-.54-1.67-.92-1.1-.37,.56-.76,.81-1.09,1-.34,.19-.86-.16-1.05-.61-.19-.45-.16-.01-.69,.47-.52,.49-1.05,0-1.5-.61-.45-.6-.42-.47-.53-.1-.11,.36-.41,.74-.61,.98-.2,.24-.78,.34-1.3-.19-.51-.52-.08,.64-.92,.83-.94,.21-1.71-1.19-1.68-.64,.03,.59-.05,.94-.52,1.08-.46,.14-1.13-.52-1.13-.52l2.62,4.28c.29,.54,2.72,1.02,6.08,1.02s5.79-.51,6.08-1.02Z"/>
      <path class="l" d="M19.45,13.04c.11,.08,.53,.22,.58,.22,.94,0,.6-1.21,.53-1.34-.56-.92-1.04-.12-1.08-.06-.2,.34-.21,.11-.16,0,.29-.55,.06-.79-.08-.85-.58-.23-1.32,.19-1.38,.26-.5,.54,.35,.98,.35,1.01,.02,.27-.65-.61-1.04,.07-.45,.77,.09,1.31,.61,1.52,.52,.21,.94-.83,.94-.83,0,0,.33,.22,.48-.13,.01-.03,.22,.1,.26,.13Z"/>
      <path class="l" d="M16.42,13.84c.03,.83-.94,.73-.94,.23,0-.5-.26-.57-.43-.69-.17-.12-.34,.13-.34,.13,0,0-.01,0-.07,.01-.06,.01-.04-.23-.04-.23,.07-.23,0-.8-.13-.57-.32,.52-1.14,.33-.86-.16,.32-.56,.44-.31,.51-.41,.11-.17,.65-.12,.93,.08,.28,.2,.34,.87,.34,.87l.06,.02s.14-.31,.28-.31c.26-.02,.65,.2,.68,1.03Z"/>
      <path class="l" d="M30.95,13.88c-.03,.83,.94,.73,.94,.23,0-.5,.26-.57,.43-.69,.17-.12,.34,.13,.34,.13,0,0,.01,0,.07,.01,.06,.01,.04-.23,.04-.23-.07-.23,0-.8,.14-.57,.32,.52,1.14,.33,.86-.16-.32-.56-.44-.31-.51-.41-.11-.17-.65-.12-.93,.08-.28,.2-.34,.87-.34,.87l-.06,.02s-.14-.31-.28-.31c-.26-.02-.65,.2-.68,1.03Z"/>
      <path class="l" d="M24.2,12.56c.09,.11,.46,.35,.5,.36,.91,.24,.9-1.02,.86-1.16-.3-1.03-.97-.39-1.03-.33-.28,.28-.24,.05-.15-.04,.42-.46,.26-.75,.14-.84-.5-.37-1.32-.16-1.4-.11-.62,.39,.09,1.03,.08,1.07-.06,.27-.47-.75-1.03-.2-.64,.63-.25,1.29,.19,1.62,.45,.33,1.13-.56,1.13-.56,0,0,.26,.3,.5,0,.02-.03,.19,.16,.21,.19Z"/>
      <path class="l" d="M28.93,13.25c.06,.13,.35,.46,.39,.48,.81,.47,1.13-.75,1.13-.9-.03-1.07-.84-.63-.91-.59-.34,.2-.24-.01-.14-.08,.53-.33,.45-.65,.35-.77-.39-.49-1.23-.5-1.33-.47-.71,.22-.19,1.02-.2,1.05-.12,.25-.26-.85-.94-.46-.78,.44-.58,1.18-.23,1.62,.34,.44,1.23-.25,1.23-.25,0,0,.18,.35,.48,.13,.03-.02,.14,.2,.16,.24Z"/>
      <path class="i" d="M23.68,19.3c3.06,0,5.53-.36,5.53-.81s-2.48-.81-5.53-.81-5.53,.36-5.53,.81,2.48,.81,5.53,.81Z"/>
      <path class="i" d="M23.47,37.74c-.53-.34-1.18-.57-1.83-.57h-4.19c-.48,0-1.03-.56-1.03-1.02v-7.09h7.04v8.68Z"/>
      <path class="k" d="M16.22,28.99h7.36v6.57h-7.36v-6.57Z"/>
      <path class="i" d="M23.47,20.41h-7.04v8.22h7.04v-8.22Z"/>
      <path class="i" d="M30.94,29.07v7.07c0,.48-.56,1.04-1.03,1.04h-4.18c-.66,0-1.32,.23-1.84,.58v-8.69h7.04Z"/>
      <path class="k" d="M29.97,32.99h.14v-.1c0-.1-.14-.1-.14,0v.1Zm-.39,.68v-.49s.11,0,.11,0l.04-.57h-.15v-.34h.17v.19h.17v-.19h.23v.19h.17v-.19h.17v.34h-.15l.04,.57h.11v.49h-.32v-.2c0-.2-.28-.2-.28,0v.2h-.33Z"/>
      <path class="k" d="M27.24,30.03h.14v-.1c0-.1-.14-.1-.14,0v.1Zm-.39,.68v-.49s.11,0,.11,0l.04-.57h-.15v-.34h.17v.19h.17v-.19h.23v.19h.17v-.19h.17v.34h-.15l.04,.57h.11v.49h-.32v-.2c0-.2-.28-.2-.28,0v.2h-.33Z"/>
      <path class="k" d="M29.97,30.03h.14v-.1c0-.1-.14-.1-.14,0v.1Zm-.39,.68v-.49s.11,0,.11,0l.04-.57h-.15v-.34h.17v.19h.17v-.19h.23v.19h.17v-.19h.17v.34h-.15l.04,.57h.11v.49h-.32v-.2c0-.2-.28-.2-.28,0v.2h-.33Z"/>
      <path class="k" d="M24.74,30.03h.14v-.1c0-.1-.14-.1-.14,0v.1Zm-.39,.68v-.49s.11,0,.11,0l.04-.57h-.15v-.34h.17v.19h.17v-.19h.23v.19h.17v-.19h.17v.34h-.15l.04,.57h.11v.49h-.32v-.2c0-.2-.28-.2-.28,0v.2h-.33Z"/>
      <path class="k" d="M24.74,32.99h.14v-.1c0-.1-.14-.1-.14,0v.1Zm-.39,.68v-.49s.11,0,.11,0l.04-.57h-.15v-.34h.17v.19h.17v-.19h.23v.19h.17v-.19h.17v.34h-.15l.04,.57h.11v.49h-.32v-.19c0-.2-.28-.2-.28,0v.19h-.33Z"/>
      <path class="k" d="M24.74,36.25h.14v-.1c0-.1-.14-.1-.14,0v.1Zm-.39,.68v-.49s.11,0,.11,0l.04-.57h-.15v-.34h.17v.19h.17v-.19h.23v.19h.17v-.19h.17v.34h-.15l.04,.57h.11v.49h-.32v-.19c0-.2-.28-.2-.28,0v.19h-.33Z"/>
      <path class="k" d="M29.97,36.25h.14v-.1c0-.1-.14-.1-.14,0v.1Zm-.39,.68v-.49s.11,0,.11,0l.04-.57h-.15v-.34h.17v.19h.17v-.19h.23v.19h.17v-.19h.17v.34h-.15l.04,.57h.11v.49h-.32v-.19c0-.2-.28-.2-.28,0v.19h-.33Z"/>
      <path class="k" d="M29.13,30.85h-3.41v4.51h3.41v-4.51Z"/>
      <path class="j" d="M28.34,33.07c0-.06,.05-.11,.11-.11s.11,.05,.11,.11-.05,.11-.11,.11-.11-.05-.11-.11Zm.19-.26c0-.06,.05-.11,.11-.11s.11,.05,.11,.11-.05,.11-.11,.11-.11-.05-.11-.11Zm0,.52c0-.06,.05-.11,.11-.11s.11,.05,.11,.11-.05,.11-.11,.11-.11-.05-.11-.11Zm-.39-.52c0-.06,.05-.11,.11-.11s.11,.05,.11,.11-.05,.11-.11,.11-.11-.05-.11-.11Zm0,.52c0-.06,.05-.11,.11-.11s.11,.05,.11,.11-.05,.11-.11,.11c-.06,0-.11-.05-.11-.11Zm-.09-.78h.79v.88c0,.09-.07,.17-.16,.17-.07,0-.13,0-.17,.01-.05,0-.07,.03-.07,.07,0-.04-.02-.06-.07-.07-.04,0-.1-.01-.17-.01-.09,0-.16-.07-.16-.17v-.88Zm-1.78,.52c0-.06,.05-.11,.11-.11s.11,.05,.11,.11-.05,.11-.11,.11-.11-.05-.11-.11Zm.19-.26c0-.06,.05-.11,.11-.11s.11,.05,.11,.11-.05,.11-.11,.11-.11-.05-.11-.11Zm0,.52c0-.06,.05-.11,.11-.11s.11,.05,.11,.11-.05,.11-.11,.11-.11-.05-.11-.11Zm-.39-.52c0-.06,.05-.11,.11-.11s.11,.05,.11,.11-.05,.11-.11,.11-.11-.05-.11-.11Zm0,.52c0-.06,.05-.11,.11-.11s.11,.05,.11,.11-.05,.11-.11,.11c-.06,0-.11-.05-.11-.11Zm-.09-.78h.79v.88c0,.09-.07,.17-.16,.17-.07,0-.13,0-.17,.01-.05,0-.07,.03-.07,.07,0-.04-.02-.06-.07-.07-.04,0-.1-.01-.17-.01-.09,0-.16-.07-.16-.17v-.88Zm1.31,.52c0-.06,.05-.11,.11-.11s.11,.05,.11,.11-.05,.11-.11,.11-.11-.05-.11-.11Zm.19-.26c0-.06,.05-.11,.11-.11s.11,.05,.11,.11-.05,.11-.11,.11-.11-.05-.11-.11Zm0,.52c0-.06,.05-.11,.11-.11s.11,.05,.11,.11-.05,.11-.11,.11c-.06,0-.11-.05-.11-.11Zm-.39-.52c0-.06,.05-.11,.11-.11s.11,.05,.11,.11-.05,.11-.11,.11-.11-.05-.11-.11Zm0,.52c0-.06,.05-.11,.11-.11s.11,.05,.11,.11-.05,.11-.11,.11c-.06,0-.11-.05-.11-.11Zm-.09-.78h.79v.88c0,.09-.07,.17-.16,.17-.07,0-.13,0-.17,.01-.05,0-.07,.03-.07,.07,0-.04-.02-.06-.07-.07-.04,0-.1-.01-.17-.01-.09,0-.16-.07-.16-.17v-.88Zm.28,1.92c0-.06,.05-.11,.11-.11s.11,.05,.11,.11-.05,.11-.11,.11-.11-.05-.11-.11Zm.19-.26c0-.06,.05-.11,.11-.11s.11,.05,.11,.11-.05,.11-.11,.11c-.06,0-.11-.05-.11-.11Zm0,.52c0-.06,.05-.11,.11-.11s.11,.05,.11,.11-.05,.11-.11,.11c-.06,0-.11-.05-.11-.11Zm-.39-.52c0-.06,.05-.11,.11-.11s.11,.05,.11,.11-.05,.11-.11,.11c-.06,0-.11-.05-.11-.11Zm0,.52c0-.06,.05-.11,.11-.11s.11,.05,.11,.11-.05,.11-.11,.11c-.06,0-.11-.05-.11-.11Zm-.09-.78h.79v.88c0,.09-.07,.17-.16,.17-.07,0-.13,0-.17,0-.05,0-.07,.03-.07,.07,0-.04-.02-.06-.07-.07-.04,0-.1,0-.17,0-.09,0-.16-.07-.16-.17v-.88Zm.28-2.28c0-.06,.05-.11,.11-.11s.11,.05,.11,.11-.05,.11-.11,.11-.11-.05-.11-.11Zm.19-.26c0-.06,.05-.11,.11-.11s.11,.05,.11,.11-.05,.11-.11,.11c-.06,0-.11-.05-.11-.11Zm0,.52c0-.06,.05-.11,.11-.11s.11,.05,.11,.11-.05,.11-.11,.11-.11-.05-.11-.11Zm-.39-.52c0-.06,.05-.11,.11-.11s.11,.05,.11,.11-.05,.11-.11,.11c-.06,0-.11-.05-.11-.11Zm0,.52c0-.06,.05-.11,.11-.11s.11,.05,.11,.11-.05,.11-.11,.11-.11-.05-.11-.11Zm-.09-.78h.79v.88c0,.09-.07,.16-.16,.16-.07,0-.13,0-.17,.01-.05,0-.07,.03-.07,.07,0-.04-.02-.06-.07-.07-.04,0-.1-.01-.17-.01-.09,0-.16-.07-.16-.16v-.88Z"/>
      <path class="k" d="M22.49,24.39h.14v-.1c0-.1-.14-.1-.14,0v.1Zm-.39,.68v-.49s.11,0,.11,0l.04-.57h-.15v-.34h.17v.19h.17v-.19h.23v.19h.17v-.19h.17v.34h-.15l.04,.57h.11v.49h-.32v-.19c0-.2-.28-.2-.28,0v.19h-.33Z"/>
      <path class="k" d="M19.77,21.43h.14v-.1c0-.1-.14-.1-.14,0v.1Zm-.39,.68v-.49s.11,0,.11,0l.04-.57h-.15v-.34h.17v.19h.17v-.19h.23v.19h.17v-.19h.17v.34h-.15l.04,.57h.11v.49h-.32v-.19c0-.2-.28-.2-.28,0v.19h-.33Z"/>
      <path class="k" d="M22.49,21.43h.14v-.1c0-.1-.14-.1-.14,0v.1Zm-.39,.68v-.49s.11,0,.11,0l.04-.57h-.15v-.34h.17v.19h.17v-.19h.23v.19h.17v-.19h.17v.34h-.15l.04,.57h.11v.49h-.32v-.19c0-.2-.28-.2-.28,0v.19h-.33Z"/>
      <path class="k" d="M17.27,21.43h.14v-.1c0-.1-.14-.1-.14,0v.1Zm-.39,.68v-.49s.11,0,.11,0l.04-.57h-.15v-.34h.17v.19h.17v-.19h.23v.19h.17v-.19h.17v.34h-.15l.04,.57h.11v.49h-.32v-.19c0-.2-.28-.2-.28,0v.19h-.33Z"/>
      <path class="k" d="M17.27,24.39h.14v-.1c0-.1-.14-.1-.14,0v.1Zm-.39,.68v-.49s.11,0,.11,0l.04-.57h-.15v-.34h.17v.19h.17v-.19h.23v.19h.17v-.19h.17v.34h-.15l.04,.57h.11v.49h-.32v-.19c0-.2-.28-.2-.28,0v.19h-.33Z"/>
      <path class="k" d="M17.27,27.65h.14v-.1c0-.1-.14-.1-.14,0v.1Zm-.39,.68v-.49s.11,0,.11,0l.04-.57h-.15v-.34h.17v.19h.17v-.19h.23v.19h.17v-.19h.17v.34h-.15l.04,.57h.11v.49h-.32v-.2c0-.2-.28-.2-.28,0v.2h-.33Z"/>
      <path class="k" d="M22.49,27.65h.14v-.1c0-.1-.14-.1-.14,0v.1Zm-.39,.68v-.49s.11,0,.11,0l.04-.57h-.15v-.34h.17v.19h.17v-.19h.23v.19h.17v-.19h.17v.34h-.15l.04,.57h.11v.49h-.32v-.2c0-.2-.28-.2-.28,0v.2h-.33Z"/>
      <path class="k" d="M21.65,22.25h-3.41v4.51h3.41v-4.51Z"/>
      <path class="j" d="M20.87,24.47c0-.06,.05-.11,.11-.11s.11,.05,.11,.11-.05,.11-.11,.11-.11-.05-.11-.11Zm.19-.26c0-.06,.05-.11,.11-.11s.11,.05,.11,.11-.05,.11-.11,.11-.11-.05-.11-.11Zm0,.52c0-.06,.05-.11,.11-.11s.11,.05,.11,.11-.05,.11-.11,.11-.11-.05-.11-.11Zm-.39-.52c0-.06,.05-.11,.11-.11s.11,.05,.11,.11-.05,.11-.11,.11-.11-.05-.11-.11Zm0,.52c0-.06,.05-.11,.11-.11s.11,.05,.11,.11-.05,.11-.11,.11-.11-.05-.11-.11Zm-.09-.78h.79v.88c0,.09-.07,.17-.16,.17-.07,0-.13,0-.17,0-.05,0-.07,.03-.07,.07,0-.04-.02-.06-.07-.07-.04,0-.1,0-.17,0-.09,0-.16-.07-.16-.17v-.88Zm-1.78,.52c0-.06,.05-.11,.11-.11s.11,.05,.11,.11-.05,.11-.11,.11-.11-.05-.11-.11Zm.19-.26c0-.06,.05-.11,.11-.11s.11,.05,.11,.11-.05,.11-.11,.11-.11-.05-.11-.11Zm0,.52c0-.06,.05-.11,.11-.11s.11,.05,.11,.11-.05,.11-.11,.11-.11-.05-.11-.11Zm-.39-.52c0-.06,.05-.11,.11-.11s.11,.05,.11,.11-.05,.11-.11,.11-.11-.05-.11-.11Zm0,.52c0-.06,.05-.11,.11-.11s.11,.05,.11,.11-.05,.11-.11,.11-.11-.05-.11-.11Zm-.09-.78h.79v.88c0,.09-.07,.17-.16,.17-.07,0-.13,0-.17,0-.05,0-.07,.03-.07,.07,0-.04-.02-.06-.07-.07-.04,0-.1,0-.17,0-.09,0-.16-.07-.16-.17v-.88h0Zm1.31,.52c0-.06,.05-.11,.11-.11s.11,.05,.11,.11-.05,.11-.11,.11-.11-.05-.11-.11Zm.19-.26c0-.06,.05-.11,.11-.11s.11,.05,.11,.11-.05,.11-.11,.11-.11-.05-.11-.11Zm0,.52c0-.06,.05-.11,.11-.11s.11,.05,.11,.11-.05,.11-.11,.11-.11-.05-.11-.11Zm-.39-.52c0-.06,.05-.11,.11-.11s.11,.05,.11,.11-.05,.11-.11,.11-.11-.05-.11-.11Zm0,.52c0-.06,.05-.11,.11-.11s.11,.05,.11,.11-.05,.11-.11,.11-.11-.05-.11-.11Zm-.09-.78h.79v.88c0,.09-.07,.17-.16,.17-.07,0-.13,0-.17,0-.05,0-.07,.03-.07,.07,0-.04-.02-.06-.07-.07-.04,0-.1,0-.17,0-.09,0-.16-.07-.16-.17v-.88Zm.28,1.92c0-.06,.05-.11,.11-.11s.11,.05,.11,.11-.05,.11-.11,.11-.11-.05-.11-.11Zm.19-.26c0-.06,.05-.11,.11-.11s.11,.05,.11,.11-.05,.11-.11,.11c-.06,0-.11-.05-.11-.11Zm0,.52c0-.06,.05-.11,.11-.11s.11,.05,.11,.11-.05,.11-.11,.11-.11-.05-.11-.11Zm-.39-.52c0-.06,.05-.11,.11-.11s.11,.05,.11,.11-.05,.11-.11,.11c-.06,0-.11-.05-.11-.11Zm0,.52c0-.06,.05-.11,.11-.11s.11,.05,.11,.11-.05,.11-.11,.11-.11-.05-.11-.11Zm-.09-.78h.79v.88c0,.09-.07,.17-.16,.17-.07,0-.13,0-.17,.01-.05,0-.07,.03-.07,.07,0-.04-.02-.06-.07-.07-.04,0-.1-.01-.17-.01-.09,0-.16-.07-.16-.17v-.88Zm.28-2.28c0-.06,.05-.11,.11-.11s.11,.05,.11,.11-.05,.11-.11,.11-.11-.05-.11-.11Zm.19-.26c0-.06,.05-.11,.11-.11s.11,.05,.11,.11-.05,.11-.11,.11-.11-.05-.11-.11Zm0,.52c0-.06,.05-.11,.11-.11s.11,.05,.11,.11-.05,.11-.11,.11-.11-.05-.11-.11Zm-.39-.52c0-.06,.05-.11,.11-.11s.11,.05,.11,.11-.05,.11-.11,.11-.11-.05-.11-.11Zm0,.52c0-.06,.05-.11,.11-.11s.11,.05,.11,.11-.05,.11-.11,.11-.11-.05-.11-.11Zm-.09-.78h.79v.88c0,.09-.07,.16-.16,.16-.07,0-.13,0-.17,.01-.05,0-.07,.03-.07,.07,0-.04-.02-.06-.07-.07-.04,0-.1-.01-.17-.01-.09,0-.16-.07-.16-.16v-.88Z"/>
      <path class="j" d="M28.25,23.74s-.05-.15-.05-.15c0,0-.05,.12,0,.23,.04,.09-.05-.02,.06-.08Z"/>
      <path class="j" d="M27.51,21.78h.04s0,.03,0,.03h.04s0,.04,0,.04h-.04s0,.07,0,.07h-.04s0-.07,0-.07h-.04s0-.04,0-.04h.04s0-.03,0-.03Z"/>
      <path class="j" d="M28.11,23.89s.01-.01-.03-.01c-.03,0-.06,.01-.09,.03-.08,.05-.08,.05-.09,.08-.02-.02-.04-.03-.04-.05,0-.04-.04-.13-.05-.16,0-.04,0-.18,0-.18,0,0-.04,.04-.06,.13-.02,.09,.04,.17,.04,.17,0,0-.06-.01-.06,.02,0,.03,.06,.01,.09,.04,.03,.02,.08,.07,.09,.07,.02,0,.04-.05,.09-.08,.03-.02,.08-.05,.1-.05Z"/>
      <path class="i" d="M26.72,25.05c-.21-.21-.2-.59-.21-.65-.02-.07,.13-.6,.18-.61,.05-.01,.05-.18,.05-.18,0,0,0-.35,.13-.53,.13-.18,.11-.09,.12-.13,.02-.04,.11-.07,.12-.08,.01-.01,.09-.08,.06-.24-.03-.16,.13-.29,.14-.3h0s0,0,0,0c0,0,0,0,0,0-.02-.02-.15-.11-.16-.12-.02,0-.05-.11,.02-.15,.07-.05,.12-.02,.13-.03,0,0-.01-.07,.07-.1,.11-.04,.14,.04,.17,.04,.01,0,.04-.09,.14-.05,.09,.03,.08,.11,.08,.11,0,0,.07-.03,.13,.03,.08,.08,.04,.18,0,.19-.05,.02-.11,.09-.11,.09h0c.21,.16,.05,.5,.07,.71,.02-.04,.03-.08,.16-.08,.15,0,.18,.15,.18,.22,0,.13-.06,.23-.06,.23,.15,.08,.24,.18,.22,.33-.01,.11-.04,.12-.04,.13,0,.01,.01,.04,.02,.1,0,.05,0,.15,0,.16,0,.02-.03,.19-.06,.2-.02,.01-.08,.15-.11,.17-.02,.01-.06,.11-.06,.11,0,0-.03,.15-.02,.17,.01,.03,.01,.28,0,.3-.01,.02-.02,.14-.01,.16,0,0,.03,.13,.03,.14,0,0,.01,.15,0,.18,0,.09-.07,.16-.11,.19-.03,.02-.03,.03-.03,.04,0,.02-.07,.09-.09,.1-.02,0,0,.26,0,.26,0,0,.02,.18,0,.23-.02,.05,0,.19-.03,.22-.03,.03-.04,.12-.04,.14,0,.01,.03,.16,.04,.16,0,0,.04,.16,.04,.16,0,0,.05,.13,.06,.17,0,.04,.06,.25,.03,.27-.03,.02-.12,.03-.12,.03h-.39s-.23,.02-.24,0c-.01,0-.26,.02-.28,0-.02-.01-.35,0-.36-.03,0-.03,0-.24,.02-.27,.01-.04,.04-.28,.07-.33,.05-.12,.05-.17,.09-.29,.06-.15,.08-.24,.1-.26,.02-.03,.07-.26,.04-.28-.03-.02-.16-.05-.23-.24-.08-.18,0-.48,0-.5s.11-.25,.07-.29Z"/>
      <path class="k" d="M30.6,21.48c-.24-.09-.39-.21-.67-.21,0,0,.43,.21,.44,.56-.33-.42-.86-.52-1.4-.52-.57,0-1.19,.14-1.63,.16-.52,0-1.03-.15-1.53-.16-.55,0-1.17,.09-1.5,.51,0-.36,.45-.56,.45-.56-.28,0-.44,.12-.67,.21,.49-.48,1.09-.57,1.72-.57,.5,0,1,.16,1.53,.16s1.13-.16,1.63-.16c.55,0,1.13,.1,1.63,.57Z"/>
      <path class="i" d="M25.03,22.58c-.04-.06-.1-.16-.14-.32-.07-.33,.12-.38,.34-.34,.09,.02,.12,.06,.14,.09,0,.02,.01,.03,.02,.04,0,.01,0,.02,.02,.02,.14,.04,.19,.1,.22,.15l.02,.03s.01,.01,.02,.02c.01,0,.03,.01,.07,.01,.02-.02,.04-.04,.06-.06,.02-.02,.05-.03,.07-.05,.04-.03,.07-.05,.07-.09-.02-.04-.03-.12-.01-.15l-.95-1.01-.02-.05s0-.02,.02-.02l.05,.02,.95,.97h.01s.02,0,.04,0c0,0,.01,0,.02,0h.02s.02,.03,.03,.03c0,0,.01,0,.01,.01,0,0,0,.01,0,.02,.01,0,.03,.01,.03,.04,.01,.02,.01,.02,0,.03,0,0,.01,.01,0,.03h0c.07,.09,.04,.13-.04,.08-.01,.02-.03,.03-.05,.03-.06,.16-.19,.39-.35,.41,0,0-.02,0-.02,0,0,0-.02,0-.03-.01-.02,0-.04-.02-.06-.03-.02-.01-.04-.02-.05-.03,0,0,0,.01,0,.02,0,.01,0,.02-.01,.04,0,.02-.02,.05-.01,.09,.05,.06,.06,.12,.07,.18,0,.03,0,.06,.01,.1,0,.04,.02,.08,.03,.12,0,0,0,.02-.01,.02h-.69v-.18s.01-.05,.02-.07c0-.02,.02-.05,.03-.08,.02-.05,.03-.1,.04-.13Z"/>
      <path class="i" d="M28.63,21.98s0-.03,.02-.04c0-.01,0-.02,0-.03,0,0,0-.01,.01-.01,0,0,.02-.01,.03-.02,.01,0,.03-.01,.04-.02l-.04-.04s-.07-.03-.07-.06,.02-.06,.05-.06c.04,0,.06,.03,.06,.06l.06,.07,.93-.96,.05-.02s.02,0,.02,.02l-.02,.05-.92,.97,.05,.05s.07,.03,.07,.06-.02,.06-.06,.06c-.03,0-.05-.03-.05-.06l-.03-.03s0,.09-.02,.12c0,.03,.03,.06,.07,.09,.02,.01,.05,.03,.07,.05,.02,.02,.04,.04,.06,.06,.03,0,.05,0,.07-.01,0,0,.01-.01,.02-.02l.02-.03s.09-.1,.22-.15c.01,0,.02-.01,.02-.02,0-.01,0-.03,.02-.04,.02-.04,.05-.07,.14-.09,.22-.04,.41,.02,.34,.34-.04,.15-.1,.26-.13,.31,0,.05,0,.09,.03,.14,.01,.03,.02,.05,.03,.08,0,.03,.02,.05,.02,.07l.03,.25-.72-.07s-.02,0-.01-.02c.02-.05,.03-.09,.03-.12,0-.04,0-.07,.01-.1,0-.06,.02-.11,.07-.18,0-.04,0-.07-.01-.09,0-.01,0-.02-.01-.04,0,0,0-.01,0-.02-.02,0-.04,.02-.06,.03-.02,.01-.04,.03-.06,.04-.01,0-.02,0-.03,.01,0,0-.02,0-.03,0-.16-.02-.28-.24-.35-.41-.02,0-.04-.02-.05-.03-.08,.05-.1,.01-.04-.07h0s0-.04,.01-.04c0,0,0-.02,0-.02h.01Z"/>
      <path class="k" d="M27.77,24.17s.02,.08,0,.12c0,.01-.01,.02-.03,.03l.09,.18s-.03,.05-.05,.02c0,0-.03-.07-.09-.2-.01,0-.03,0-.04,0-.06-.02-.04-.05-.14-.02-.1,.02-.27,.06-.59-.02,.02-.14,.21-.23,.21-.23,0,0,.22,.12,.26,.11,.04,0,.15,.01,.16-.02,0-.02,0-.04,.02-.06l-.02,.02c-.05,0-.04-.07-.02-.13-.09-.18-.2-.41-.33-.67h0s-.08-.04-.08-.08,.04-.08,.08-.08,.09,.04,.09,.08c0,.02-.01,.05-.03,.06l.3,.64s.12-.06,.15-.04c0-.04-.04-.03-.06-.09-.02-.06-.02-.09,0-.2,.01-.11,.13-.13,.18-.13s.11,.05,.15-.03c-.11,0-.16-.08-.16-.17,0-.1,.05-.18,.16-.18s.14,.1,.13,.15c0,.06,0,.16-.06,.2,.03,.01,.09,.04,.09,.04l.1,.07s.07,.11,.07,.14c0,.02,.01,.08-.01,.1,0,0-.06,.11-.06,.12,0,.02-.08,.02-.08,.02,0,0-.12,.05-.14,.12-.02,.07-.16,.08-.16,.08,0,0-.12,.03-.1,.06Z"/>
      <path class="l" d="M27.29,22.85c.05,.15,.08,.18,.22,.23-.11,.06-.17,.05-.23,.05,.02,.08,.08,.13,.16,.13,.08,0,.17-.06,.15-.15,.07-.06,.21-.25,.23-.38,.05-.25-.23-.34-.41-.13-.1,.12-.1,.15-.13,.25Z"/>
      <path class="l" d="M27.34,22.24c.19-.11,.42,0,.42,0,0,0,.03-.03,.06-.04,.03-.01,.08-.06,.01-.12-.04-.04-.08-.02-.13,0,0-.07,0-.1-.05-.11-.03-.01-.06,0-.11,.06-.06-.05-.09-.06-.14-.04-.04,.02-.05,.1-.05,.1,0,0-.1-.04-.14,.02-.05,.06,.04,.07,.04,.07,0,0,.07-.06,.22-.08-.06,.04-.1,.07-.14,.15Z"/>
      <path class="i" d="M29.91,23.31l.09,.99s.09,.04,.13,.08v.15s0,.14,0,.14c0,0,0,.02,0,.02l-.09,.08,.21,2.33s-.02,.05-.05,.05h-1.43s-.05-.02-.05-.05l.2-2.31-.11-.1v-.16s0-.14,0-.14c.05-.06,.11-.09,.16-.1l.09-.97-.07-.07v-.12s0-.1,0-.1c.06-.07,.12-.08,.17-.09,.01,0,.02,0,.02,.02v.08s.05-.01,.08-.01v-.08s0-.01,.01-.02c.06-.01,.11-.01,.16-.02,0,0,.02,0,.02,.02,0,.02,0,.04,0,.05v.03h.07v-.09s0-.02,.02-.02c.06,0,.11,0,.16,.02,0,0,.01,0,.01,.02v.08h.08s0-.02,0-.02v-.05s0-.02,.02-.02c.06,.02,.11,.03,.17,.08v.12s0,.1,0,.1c0,0,0,.02,0,.02l-.05,.05Z"/>
      <path class="k" d="M29.79,23.36l.09,1.05s-.07-.01-.1-.02v-.12s0-.02-.01-.02l-.21-.02s-.02,0-.02,.02v.12h-.11v-.05s0-.05,0-.07c0,0,0-.02-.02-.02h-.11s0-.91,0-.91c.05,0,.11-.01,.18-.01,.1,0,.19,.01,.25,.03,.03,0,.04,.01,.05,.02Z"/>
      <path class="k" d="M29.23,26.29l.06-1.61c.06,0,.13-.01,.19-.01,.17,0,.35,.03,.43,.07l.2,2.28h-.32v-.58c0-.16-.13-.29-.29-.29h-.03c-.11,0-.2,.06-.25,.14Z"/>
      <path class="j" d="M29.49,25.17c.07,0,.12,.06,.12,.12s-.05,.12-.12,.12-.12-.05-.12-.12,.05-.12,.12-.12Z"/>
      <path class="j" d="M29.49,23.6c.07,0,.12,.05,.12,.12s-.05,.12-.12,.12-.12-.05-.12-.12,.05-.12,.12-.12Z"/>
      <path class="i" d="M25.69,23.31l.09,.99s.09,.04,.13,.08v.15s0,.14,0,.14c0,0,0,.02,0,.02l-.09,.08,.2,2.33s-.02,.05-.04,.05h-1.43s-.05-.02-.04-.05l.2-2.31-.11-.1v-.16s0-.14,0-.14c.05-.06,.11-.09,.16-.1l.09-.97-.07-.07v-.12s0-.1,0-.1c.06-.07,.12-.08,.17-.09,.01,0,.02,0,.02,.02v.08s.05-.01,.08-.01v-.08s0-.01,.01-.02c.06-.01,.11-.01,.17-.02,0,0,.02,0,.02,.02,0,.02,0,.04,0,.05v.03h.08v-.09s0-.02,.02-.02c.06,0,.11,0,.16,.02,0,0,.01,0,.01,.02v.08h.08s0-.02,0-.02v-.05s0-.02,.02-.02c.06,.02,.11,.03,.17,.08v.12s0,.1,0,.1c0,0,0,.02,0,.02l-.05,.05Z"/>
      <path class="k" d="M25.56,23.36l.09,1.05s-.07-.01-.1-.02v-.12s0-.02-.01-.02l-.22-.02s-.02,0-.02,.02v.12h-.11v-.05s0-.05,0-.07c0,0,0-.02-.02-.02h-.11s0-.91,0-.91c.05,0,.11-.01,.18-.01,.1,0,.19,.01,.25,.03,.03,0,.04,.01,.05,.02Z"/>
      <path class="k" d="M25,26.29l.06-1.61c.06,0,.13-.01,.19-.01,.17,0,.35,.03,.43,.07l.2,2.28h-.32v-.58c0-.16-.13-.29-.29-.29h-.03c-.11,0-.2,.06-.25,.14Z"/>
      <path class="i" d="M25.26,25.42c.07,0,.12-.05,.12-.12s-.05-.12-.12-.12-.12,.05-.12,.12,.05,.12,.12,.12Z"/>
      <path class="i" d="M25.26,23.85c.07,0,.12-.05,.12-.12s-.05-.12-.12-.12-.12,.05-.12,.12,.05,.12,.12,.12Z"/>
      <path class="j" d="M20.74,32.47s-.05-.15-.05-.15c0,0-.05,.12,0,.23,.04,.1-.05-.02,.06-.08Z"/>
      <path class="j" d="M20.01,30.51h.04s0,.03,0,.03h.04s0,.04,0,.04h-.04s0,.07,0,.07h-.04s0-.07,0-.07h-.04s0-.04,0-.04h.04s0-.03,0-.03Z"/>
      <path class="j" d="M20.61,32.61s.01-.01-.03-.01c-.03,0-.06,.01-.09,.03-.08,.05-.08,.05-.09,.08-.02-.02-.04-.03-.04-.05,0-.04-.04-.13-.05-.16,0-.04,0-.18,0-.18,0,0-.04,.04-.06,.13-.02,.09,.04,.17,.04,.17,0,0-.06-.01-.06,.02,0,.03,.06,.01,.09,.04,.03,.02,.08,.07,.09,.07,.02,0,.04-.05,.09-.08,.03-.02,.08-.05,.1-.05Z"/>
      <path class="i" d="M19.21,33.78c-.21-.21-.2-.59-.21-.65-.02-.07,.13-.6,.18-.61,.05-.01,.05-.18,.05-.18,0,0,0-.35,.13-.53,.13-.18,.11-.09,.12-.13,.02-.04,.11-.07,.12-.08,.01-.01,.09-.08,.06-.24-.03-.16,.13-.29,.14-.3h0s0,0,0,0c0,0,0,0,0,0-.02-.02-.15-.11-.16-.12-.02,0-.05-.11,.02-.15,.07-.05,.12-.02,.13-.03,0,0-.01-.07,.07-.1,.11-.04,.14,.04,.17,.04,.01,0,.04-.09,.14-.05,.09,.04,.08,.11,.08,.11,0,0,.07-.03,.13,.03,.08,.08,.04,.17,0,.19-.05,.02-.11,.09-.11,.09h0c.21,.16,.05,.5,.07,.71,.02-.04,.03-.08,.16-.08,.15,0,.18,.15,.18,.22,0,.13-.05,.23-.05,.23,.15,.08,.24,.18,.22,.33-.01,.11-.04,.12-.04,.13,0,.01,.01,.04,.02,.1,0,.05,0,.15,0,.16,0,.02-.03,.19-.06,.2-.02,.01-.08,.15-.11,.17-.02,.01-.06,.11-.06,.11,0,0-.03,.15-.02,.17,.01,.03,.01,.28,0,.3-.02,.02-.02,.14-.01,.17,0,0,.03,.13,.03,.14,0,0,.01,.15,0,.18,0,.09-.07,.16-.11,.19-.03,.02-.03,.03-.03,.04,0,.02-.07,.09-.09,.09-.02,0,0,.26,0,.26,0,0,.02,.18,0,.23-.02,.05,0,.19-.03,.22-.03,.03-.04,.13-.04,.14,0,.01,.03,.16,.04,.16,0,0,.04,.16,.04,.16,0,0,.05,.13,.06,.17,0,.04,.05,.25,.03,.27-.03,.02-.12,.03-.12,.03h-.39s-.23,.02-.24,0c-.01,0-.26,.02-.28,0-.02-.01-.35,0-.36-.03,0-.03,0-.24,.02-.27,.01-.04,.04-.28,.07-.33,.05-.12,.05-.17,.09-.29,.06-.15,.08-.24,.1-.26,.02-.03,.07-.26,.04-.28-.03-.02-.16-.05-.23-.24-.08-.18,0-.48,0-.5,0-.02,.11-.25,.07-.29Z"/>
      <path class="k" d="M23.09,30.21c-.23-.09-.39-.21-.67-.21,0,0,.43,.21,.44,.56-.33-.42-.86-.52-1.4-.52-.58,0-1.19,.13-1.63,.16-.52,0-1.03-.15-1.53-.16-.55,0-1.17,.09-1.5,.51,0-.36,.45-.56,.45-.56-.28,0-.44,.12-.67,.21,.49-.48,1.09-.57,1.72-.57,.5,0,1,.16,1.53,.16s1.13-.16,1.63-.16c.55,0,1.13,.1,1.63,.57Z"/>
      <path class="i" d="M17.53,31.31c-.04-.06-.1-.16-.14-.32-.07-.33,.12-.38,.34-.34,.09,.02,.12,.06,.14,.09,0,.02,.01,.03,.02,.04,0,.01,0,.02,.02,.02,.14,.04,.19,.1,.22,.15l.02,.03s.01,.01,.02,.02c.01,0,.03,.01,.07,.01,.02-.02,.04-.04,.06-.06,.02-.02,.05-.03,.07-.05,.04-.03,.07-.05,.07-.09-.02-.04-.03-.12-.01-.15l-.95-1.01-.02-.05s0-.02,.02-.02l.05,.02,.95,.97h.01s.02,0,.04,0c0,0,.01,0,.02,0h.02s.02,.03,.03,.03c0,0,.01,0,.01,.01,0,0,0,.01,0,.02,.01,0,.03,.01,.03,.04,.01,.02,.01,.02,0,.03,0,0,.01,.01,0,.03h0c.07,.09,.04,.13-.04,.08-.01,.02-.03,.03-.05,.03-.06,.16-.19,.39-.35,.41,0,0-.02,0-.02,0,0,0-.02,0-.03-.01-.02,0-.04-.02-.06-.04-.02-.01-.04-.02-.05-.03,0,0,0,.01,0,.02,0,.01,0,.02-.01,.04,0,.02-.02,.05-.01,.09,.05,.06,.06,.12,.07,.18,0,.03,0,.06,.01,.1,0,.04,.01,.08,.03,.12,0,0,0,.02-.01,.02h-.69v-.18s.01-.05,.02-.07c0-.03,.02-.05,.03-.08,.02-.05,.03-.1,.04-.13Z"/>
      <path class="i" d="M21.13,30.71s.01-.03,.02-.04c0-.01,0-.02,0-.03,0,0,0-.01,.01-.01,.01,0,.02-.01,.03-.02,.01,0,.03-.01,.04-.02l-.04-.04s-.07-.03-.07-.06,.02-.06,.05-.06c.04,0,.06,.03,.06,.06l.06,.07,.93-.95,.05-.02s.02,0,.02,.02l-.02,.05-.92,.97,.05,.05s.07,.03,.07,.06-.02,.06-.06,.06c-.03,0-.05-.03-.05-.06l-.03-.03s0,.09-.02,.12c0,.03,.03,.06,.07,.09,.02,.02,.05,.03,.07,.05,.02,.02,.04,.04,.06,.06,.03,0,.05,0,.07-.01,0,0,.02-.01,.02-.02l.02-.03s.08-.1,.22-.15c.01,0,.02-.01,.02-.02,0-.01,0-.03,.02-.04,.02-.04,.05-.07,.14-.09,.22-.04,.41,.02,.34,.34-.04,.15-.1,.26-.13,.31,0,.05,0,.09,.03,.14,.01,.03,.02,.05,.03,.08,0,.03,.02,.05,.02,.07l.03,.25-.72-.07s-.02,0-.01-.02c.02-.05,.02-.09,.03-.12,0-.04,0-.07,.01-.1,0-.06,.02-.11,.07-.18,0-.04,0-.07-.01-.09,0-.01,0-.02-.01-.04,0,0,0-.01,0-.02-.02,0-.04,.02-.06,.03-.02,.01-.04,.03-.06,.04,0,0-.02,0-.03,.01,0,0-.02,0-.03,0-.16-.02-.28-.24-.35-.41-.02,0-.04-.01-.05-.03-.08,.05-.1,.01-.04-.07h0s0-.04,.01-.04c0,0,0-.02,0-.02h.01Z"/>
      <path class="k" d="M20.26,32.9s.02,.08,0,.12c0,.01-.01,.02-.03,.03l.09,.18s-.03,.05-.05,.02c0,0-.03-.07-.09-.2-.01,0-.03,0-.04,0-.06-.02-.04-.05-.14-.02-.1,.02-.27,.06-.59-.02,.02-.14,.21-.23,.21-.23,0,0,.22,.12,.26,.11,.04,0,.15,.01,.16-.02,0-.03,0-.04,.02-.06l-.02,.02c-.05,0-.04-.07-.02-.13-.09-.18-.2-.41-.33-.67h0s-.08-.04-.08-.08,.04-.08,.08-.08,.08,.04,.08,.08c0,.02-.01,.05-.03,.06l.3,.64s.12-.06,.15-.04c0-.04-.04-.03-.06-.09-.02-.06-.02-.09,0-.2,.01-.1,.13-.13,.18-.13s.11,.05,.15-.03c-.11,0-.16-.08-.16-.17,0-.1,.05-.18,.16-.18s.14,.1,.13,.15c0,.06,0,.16-.06,.2,.04,.01,.09,.04,.09,.04l.1,.07s.07,.11,.07,.14c0,.02,.01,.08-.01,.1,0,0-.06,.11-.06,.12,0,.02-.08,.02-.08,.02,0,0-.12,.05-.14,.12-.02,.07-.16,.08-.16,.08,0,0-.12,.03-.1,.06Z"/>
      <path class="l" d="M19.78,31.57c.05,.15,.08,.18,.22,.23-.11,.06-.17,.05-.23,.05,.02,.08,.08,.13,.16,.13,.08,0,.17-.06,.15-.16,.07-.06,.21-.25,.23-.38,.05-.25-.23-.34-.41-.13-.1,.12-.1,.15-.13,.25Z"/>
      <path class="l" d="M19.84,30.97c.19-.11,.42,0,.42,0,0,0,.03-.03,.06-.04,.03-.01,.08-.06,.01-.12-.04-.04-.08-.02-.13,0,0-.07,0-.1-.05-.11-.03-.01-.06,0-.11,.06-.06-.05-.09-.06-.14-.04-.04,.01-.05,.1-.05,.1,0,0-.1-.04-.14,.02-.05,.06,.04,.07,.04,.07,0,0,.07-.06,.22-.08-.06,.04-.1,.07-.14,.15Z"/>
      <path class="i" d="M22.41,32.04l.09,.99s.09,.04,.13,.08v.15s0,.14,0,.14c0,0,0,.02,0,.02l-.09,.08,.21,2.33s-.02,.05-.05,.05h-1.43s-.05-.02-.05-.05l.2-2.31-.11-.1v-.16s0-.14,0-.14c.05-.06,.11-.09,.16-.1l.09-.97-.07-.07v-.12s0-.1,0-.1c.06-.07,.12-.08,.17-.09,.01,0,.02,0,.02,.02v.08s.05-.01,.08-.01v-.08s0-.01,.01-.02c.06-.01,.11-.01,.17-.02,0,0,.02,0,.02,.02,0,.02,0,.04,0,.05v.04s.08,0,.08,0v-.09s0-.02,.02-.02c.06,0,.11,0,.16,.02,0,0,.01,0,.01,.02v.08h.08s0-.02,0-.02v-.05s0-.02,.02-.02c.06,.02,.11,.03,.17,.08v.12s0,.1,0,.1c0,0,0,.02,0,.02l-.05,.05Z"/>
      <path class="k" d="M22.29,32.09l.09,1.05s-.07-.01-.1-.02v-.12s0-.02-.01-.02l-.22-.02s-.02,0-.02,.02v.12h-.11v-.05s0-.05,0-.07c0,0,0-.02-.02-.02h-.11s0-.91,0-.91c.05,0,.11-.01,.18-.01,.1,0,.18,.01,.25,.03,.03,0,.04,.01,.05,.02Z"/>
      <path class="k" d="M21.72,35.02l.06-1.61c.06,0,.13-.01,.19-.01,.17,0,.35,.03,.43,.07l.2,2.28h-.32v-.58c0-.16-.13-.29-.29-.29h-.03c-.11,0-.2,.06-.25,.14Z"/>
      <path class="i" d="M21.99,34.15c.07,0,.12-.05,.12-.12s-.05-.12-.12-.12-.12,.05-.12,.12,.05,.12,.12,.12Z"/>
      <path class="i" d="M21.99,32.57c.07,0,.12-.05,.12-.12s-.05-.12-.12-.12-.12,.05-.12,.12,.05,.12,.12,.12Z"/>
      <path class="i" d="M18.18,32.04l.09,.99s.09,.04,.13,.08v.15s0,.14,0,.14c0,0,0,.02,0,.02l-.09,.08,.21,2.33s-.02,.05-.05,.05h-1.43s-.05-.02-.05-.05l.2-2.31-.11-.1v-.16s0-.14,0-.14c.05-.06,.11-.09,.16-.1l.09-.97-.07-.07v-.12s0-.1,0-.1c.06-.07,.12-.08,.17-.09,.01,0,.02,0,.02,.02v.08s.05-.01,.07-.01v-.08s0-.01,.01-.02c.06-.01,.11-.01,.16-.02,0,0,.02,0,.02,.02,0,.02,0,.04,0,.05v.04h.07v-.09s0-.02,.02-.02c.06,0,.11,0,.16,.02,0,0,.01,0,.01,.02v.08h.08s0-.02,0-.02v-.05s0-.02,.02-.02c.06,.02,.11,.03,.16,.08v.12s0,.1,0,.1c0,0,0,.02,0,.02l-.05,.05Z"/>
      <path class="k" d="M18.06,32.09l.09,1.05s-.07-.01-.1-.02v-.12s0-.02-.02-.02l-.21-.02s-.02,0-.02,.02v.12h-.11v-.05s0-.05,0-.07c0,0,0-.02-.02-.02h-.11s0-.91,0-.91c.05,0,.11-.01,.18-.01,.1,0,.19,.01,.25,.03,.03,0,.04,.01,.05,.02Z"/>
      <path class="k" d="M17.5,35.02l.06-1.61c.06,0,.13-.01,.19-.01,.17,0,.35,.03,.43,.07l.2,2.28h-.32v-.58c0-.16-.13-.29-.29-.29h-.03c-.11,0-.2,.06-.25,.14Z"/>
      <path class="i" d="M17.76,34.15c.07,0,.12-.05,.12-.12s-.05-.12-.12-.12-.12,.05-.12,.12,.05,.12,.12,.12Z"/>
      <path class="i" d="M17.76,32.57c.07,0,.12-.05,.12-.12s-.05-.12-.12-.12-.12,.05-.12,.12,.05,.12,.12,.12Z"/>
      <path class="k" d="M22.48,27.48h2.38v2.43c0,.14-.14,.28-.28,.28h-.61c-.17,0-.3,.14-.3,.19,0-.06-.13-.19-.3-.19h-.61c-.14,0-.28-.14-.28-.28v-2.44h0Z"/>
      <path class="j" d="M23.67,28.24c.14-.14,.28-.19,.48-.16,.11,.02,.17,.04,.26,.11,.12,.1,.15,.21,.18,.37,.02,.12,0,.19,0,.3-.03,.22-.15,.37-.29,.53-.07,.09-.13,.13-.24,.2-.18,.12-.3,.18-.51,.25-.11-.14-.17-.22-.28-.35-.06-.07-.11-.11-.16-.19-.09-.11-.14-.18-.19-.31-.06-.12-.09-.2-.09-.34,0-.13,0-.22,.06-.33,.06-.11,.12-.18,.23-.23,.11-.05,.18-.05,.3-.02,.12,.03,.19,.07,.28,.16Z"/>
      <path class="k" d="M14.32,27.39c0,.34-1.2,.35-1.33,.35s-1.32,0-1.32-.35v-1.16c0-.1,.1-.18,.25-.23v-.69l-.25-.2v-.64c0-.25,.57-.3,.73-.32v.37h.1s0-.38,0-.38c.33-.02,.66-.02,.99,0v.37h.12s0-.36,0-.36c.16,.02,.72,.08,.72,.32v.64l-.28,.18v.7c.16,.05,.28,.13,.28,.24v1.16h0Z"/>
      <path class="k" d="M12.33,26.13c.26-.03,.55-.04,.66-.04,.18,0,.94,.02,1.11,.16v.92c-.08-.03-.17-.05-.23-.06-.12-.02-.27-.04-.43-.06v-.43c0-.28-.25-.4-.46-.4s-.46,.12-.46,.4v.43c-.07,0-.14,.01-.21,.02v-.94Z"/>
      <path class="k" d="M12.28,24.75l.42-.05v-.36c.19,0,.37,0,.56,0v.36l.54,.06v-.36c.09,.02,.21,.04,.29,.09v.4c-.29-.11-.82-.13-1.11-.13-.18,0-.45,.01-.7,.04v-.05Z"/>
      <path class="k" d="M12.48,24.99c.22-.02,.43-.03,.51-.03,.2,0,.5,.01,.75,.05,.02,0,.05,0,.09,.01v.9c-.34-.06-.75-.06-.83-.06-.06,0-.27,0-.51,.02v-.9h0Z"/>
      <path class="l" d="M13.01,25.1c.12,0,.22,.1,.22,.22s-.1,.22-.22,.22-.22-.1-.22-.22,.1-.22,.22-.22Z"/>
      <path class="k" d="M14.32,35.89c0,.34-1.2,.35-1.33,.35s-1.32,0-1.32-.35v-1.16c0-.1,.1-.18,.25-.23v-.69l-.25-.2v-.64c0-.25,.57-.3,.73-.32v.37h.1s0-.38,0-.38c.33-.02,.66-.02,.99,0v.37h.12s0-.36,0-.36c.16,.02,.72,.08,.72,.32v.64l-.28,.18v.7c.16,.05,.28,.13,.28,.24v1.16h0Z"/>
      <path class="k" d="M15.28,40.14s-.07,.09-.18,.19c-.04,.17-.07,.28-.07,.28-.03,.09-.17,.05-.14-.04,0,0,.01-.03,.02-.09-.06,.04-.13,.08-.2,.11-.5,.54-1.21,.22-1.2,.22,.07,0,.2-.08,.22-.1,.07-.1,.2-.22,.18-.21-.52,.32-.84-.05-.86-.06-.26-.22-.47-.2-.45-.21,.1-.09,.47-.22,.45-.21-.41,.12-.69-.13-.7-.15-.19-.18-.31-.11-.29-.13,.41-.45,1.06-.16,1.06-.15,0,0-.14-.35-.16-.34-.72,.33-.88-.38-.89-.4-.13-.22-.22-.24-.21-.24,.71-.12,.97,.36,1,.4-.1-.2-.09-.52-.11-.52-.88-.21-.63-.84-.63-.87,.02-.23-.07-.37-.05-.37,.14-.02,.4,.17,.4,.15,0-.44,.4-.61,.41-.62,.1-.05,.15-.13,.14-.15-.22-.22,0-.79,.02-.77,.08,.15,.22,.26,.23,.27,.22,.18,.22,.38,.23,.38,.62,.09,.71,.6,.72,.73l.04,.03c0-.14,.08-.33,.08-.34,.11-.23,.12-.39,.12-.38,.04,.08,.21,.44,.22,.48,.16,.43,.11,.63,.05,.73l.04,.06c.03-.21,.15-.51,.16-.49,.4,.47,.26,1.03,.27,1.01,.08-.2,.55-.36,.53-.34-.08,.12-.1,.51-.11,.53-.12,.31-.38,.4-.46,.43,.04,.36,.03,.74-.02,1.11l.02-.02c.06-.08,.18,0,.12,.09Z"/>
      <path class="d" d="M15.28,40.14s-.07,.09-.18,.19c-.04,.17-.07,.28-.07,.28-.03,.09-.17,.05-.14-.04,0,0,.01-.03,.02-.09-.06,.04-.13,.08-.2,.11-.5,.54-1.21,.22-1.2,.22,.07,0,.2-.08,.22-.1,.07-.1,.2-.22,.18-.21-.52,.32-.84-.05-.86-.06-.26-.22-.47-.2-.45-.21,.1-.09,.47-.22,.45-.21-.41,.12-.69-.13-.7-.15-.19-.18-.31-.11-.29-.13,.41-.45,1.06-.16,1.06-.15,0,0-.14-.35-.16-.34-.72,.33-.88-.38-.89-.4-.13-.22-.22-.24-.21-.24,.71-.12,.97,.36,1,.4-.1-.2-.09-.52-.11-.52-.88-.21-.63-.84-.63-.87,.02-.23-.07-.37-.05-.37,.14-.02,.4,.17,.4,.15,0-.44,.4-.61,.41-.62,.1-.05,.15-.13,.14-.15-.22-.22,0-.79,.02-.77,.08,.15,.22,.26,.23,.27,.22,.18,.22,.38,.23,.38,.62,.09,.71,.6,.72,.73l.04,.03c0-.14,.08-.33,.08-.34,.11-.23,.12-.39,.12-.38,.04,.08,.21,.44,.22,.48,.16,.43,.11,.63,.05,.73l.04,.06c.03-.21,.15-.51,.16-.49,.4,.47,.26,1.03,.27,1.01,.08-.2,.55-.36,.53-.34-.08,.12-.1,.51-.11,.53-.12,.31-.38,.4-.46,.43,.04,.36,.03,.74-.02,1.11l.02-.02c.06-.08,.18,0,.12,.09Z"/>
      <path class="k" d="M12.33,34.63c.26-.03,.55-.04,.66-.04,.18,0,.94,.02,1.11,.16v.92c-.08-.03-.17-.05-.23-.06-.12-.02-.27-.04-.43-.06v-.43c0-.28-.25-.4-.46-.4s-.46,.12-.46,.4v.43c-.07,0-.14,.01-.21,.02v-.94Z"/>
      <path class="k" d="M12.28,33.25l.42-.05v-.36c.19,0,.37,0,.56,0v.36l.54,.06v-.36c.09,.02,.21,.04,.29,.09v.4c-.29-.11-.82-.13-1.11-.13-.18,0-.45,.01-.7,.04v-.05Z"/>
      <path class="k" d="M12.48,33.49c.22-.02,.43-.03,.51-.03,.2,0,.5,.01,.75,.05,.02,0,.05,0,.09,.01v.9c-.34-.06-.75-.06-.83-.06-.06,0-.27,0-.51,.02v-.9h0Z"/>
      <path class="l" d="M13.01,33.6c.12,0,.22,.1,.22,.22s-.1,.22-.22,.22-.22-.1-.22-.22,.1-.22,.22-.22Z"/>
      <path class="k" d="M18.59,39.71c.33,.08,.05,1.24,.02,1.37-.03,.13-.32,1.28-.66,1.2l-1.13-.28c-.1-.03-.15-.14-.16-.3l-.67-.17-.25,.2-.62-.15c-.24-.06-.15-.63-.13-.78l.36,.09v-.1s-.34-.09-.34-.09c.06-.33,.14-.64,.24-.96l.36,.09,.04-.11-.36-.09c.06-.14,.25-.68,.49-.62l.62,.15,.11,.32,.68,.17c.09-.15,.19-.24,.3-.21l1.13,.28Z"/>
      <path class="k" d="M16.89,41.33c.03-.26,.09-.55,.12-.65,.04-.18,.25-.9,.43-1.04l.9,.22c-.05,.07-.09,.16-.12,.21-.05,.11-.11,.25-.16,.4l-.42-.1c-.27-.07-.45,.15-.49,.35-.05,.19,0,.47,.27,.54l.42,.1c-.01,.07-.02,.14-.03,.21l-.92-.23Z"/>
      <path class="k" d="M15.53,41.04l.05-.42-.34-.09c.04-.19,.08-.36,.13-.54l.35,.09,.18-.51-.35-.09c.04-.08,.09-.2,.16-.26l.38,.1c-.17,.25-.33,.76-.4,1.05-.04,.18-.1,.44-.13,.69h-.05Z"/>
      <path class="k" d="M15.82,40.91c.03-.22,.08-.42,.1-.5,.05-.19,.13-.48,.23-.71,0-.02,.02-.05,.04-.08l.88,.22c-.14,.32-.24,.71-.26,.79-.02,.06-.07,.27-.1,.5l-.87-.22Z"/>
      <path class="k" d="M16.27,40.69c.12,0,.22-.1,.22-.22s-.1-.22-.22-.22-.22,.1-.22,.22,.1,.22,.22,.22Z"/>
      <path class="k" d="M28.46,39.71c-.33,.08-.05,1.24-.02,1.37,.03,.13,.32,1.28,.66,1.2l1.13-.28c.1-.03,.15-.14,.16-.3l.67-.17,.25,.2,.62-.15c.24-.06,.15-.63,.13-.78l-.36,.09v-.1s.34-.09,.34-.09c-.06-.33-.14-.64-.24-.96l-.36,.09-.04-.11,.36-.09c-.06-.14-.25-.68-.49-.62l-.62,.15-.11,.32-.68,.17c-.09-.15-.19-.24-.3-.21l-1.13,.28Z"/>
      <path class="k" d="M30.16,41.33c-.03-.26-.09-.55-.12-.65-.04-.18-.25-.9-.43-1.04l-.9,.22c.05,.07,.09,.16,.11,.21,.05,.11,.11,.25,.16,.4l.42-.1c.27-.07,.45,.15,.49,.35,.05,.19,0,.47-.27,.54l-.42,.1c.01,.07,.02,.14,.03,.21l.92-.23Z"/>
      <path class="k" d="M31.51,41.04l-.05-.42,.34-.09c-.04-.19-.08-.36-.14-.54l-.35,.09-.19-.51,.35-.09c-.04-.08-.09-.2-.16-.26l-.38,.1c.17,.25,.33,.76,.4,1.05,.04,.18,.1,.44,.13,.69h.05Z"/>
      <path class="k" d="M31.23,40.91c-.03-.22-.08-.42-.1-.5-.05-.19-.13-.48-.23-.71,0-.02-.02-.05-.04-.08l-.88,.22c.14,.32,.24,.71,.26,.79,.01,.06,.07,.27,.1,.5l.87-.22Z"/>
      <path class="l" d="M30.99,40.42c-.03-.12-.15-.19-.27-.16-.12,.03-.19,.15-.16,.27,.03,.12,.15,.19,.27,.16,.12-.03,.19-.15,.16-.27Z"/>
      <path class="k" d="M12.88,32.05c.11-.09,.2-.17,.28-.26-.09-.05-.37-.2-.19-.7,0-.03,.19-.5,.19-.5,0,0,.36,.43,.27,.85,.09-.13,.16-.27,.22-.41-.13-.04-.42-.19-.33-.61,0-.03,.07-.42-.05-.53,0,0,.38,.09,.52,.57,0,.01,.03-.06,.05-.12l.02-.11s-.51-.17-.46-.71c0-.02,.11-.39-.05-.63-.01-.02,.41,.21,.53,.56-.01-.15-.03-.3-.05-.45-.06,0-.41-.04-.6-.53v-.02c-.19,.25-.43,.32-.45,.32-.03,0-.08,.12-.08,.15-.01,.06-.06,.14-.06,.14,0,0-.04,.37-.06,.43-.21,.65-.5,.65-.62,.64-.01,.17-.01,.34,0,.51,.12-.49,.52-.69,.54-.67,.14,.16,.1,.4,.1,.43-.08,.47-.39,.7-.5,.8,.05,.12,.11,.23,.18,.33-.17-.37,.13-.55,.13-.55,.32-.21,.27-.41,.28-.39,.3,.53,.11,.69,.11,.72,0,.03-.26,.33-.33,.44,.11,.11,.25,.21,.4,.3Zm-.25,.17s.06-.03,.15-.1c-.19-.11-.41-.29-.6-.56-.27,.43-.63,.12-.65,.1-.31-.24-.52-.23-.51-.25,.3-.35,.53-.26,.5-.27-.13-.06-.18-.35-.19-.39-.05-.36-.32-.51-.31-.51,.38,0,.7,.22,.81,.3,0-.09,0-.18,0-.28-.6,.11-.58-.4-.58-.43,0-.34-.19-.59-.17-.58,.16,.08,.36,.2,.35,.19-.13-.17-.01-.74,0-.73,.18,.09,.33,.3,.34,.3,.09,.06,.16,.32,.19,.42,.02-.07,.04-.15,.07-.23-.04-.09,0-.09-.02-.1-.64-.48-.27-1.04-.26-1.05,.04-.18-.03-.32-.01-.31,.21,.07,.41,.58,.41,.56,0-.16,.41-.27,.4-.28-.07-.29,.18-.49,.2-.5,.26-.21,.1-.46,.11-.45,.74,.55,.12,1.06,.12,1.06,0,0,.14,.01,.16,.02,.02,0,.03,0,.04,0-.02-.12-.02-.25,.02-.33,0-.02,.08,.19,.23,.26,.02,.01,.28,.19,.29,.27,.01,.08-.01-.4,.4-.67,.02-.01,.16,.92-.19,1.1,.05,.22,.08,.44,.09,.67,.08-.12,.26-.31,.55-.24,.02,0-.11,.1-.11,.42,0,.02-.02,.27-.29,.46-.02,.01,.29-.11,.34-.1,.03,0,0,.9-.72,1.04-.05,.11-.1,.22-.16,.33,.2-.16,.49-.33,.75-.24,.02,0-.32,.48-.39,.59,0,.01-.18,.33-.66,.06-.1,.11-.2,.22-.32,.32,.12,.06,.19,.08,.19,.08l-.03,.11s-.11-.03-.26-.11c-.12,.09-.21,.14-.21,.14l-.05-.1Z"/>
      <path class="k" d="M24.56,40.68s.2-.07,.5-.13c.15,.38,.58,.39,.61,.39,.26,.01,.58,.25,.58,.23-.02-.12-.08-.26-.06-.24,.21,.21,.82,.27,.8,.26-.06-.03-.24-.3-.25-.33-.1-.23-.29-.39-.27-.39,.07,.02,.14,0,.19-.03h.09c.26,.94,1.06,.59,1.08,.61,.08,.08,.35,.15,.32,.15-.24,0-.63,.27-.63,.27,.02-.05,.09-.3,.09-.29-.02,.05-.22,.13-.24,.13-.43,0-.57,.34-.57,.32,.05-.31,.14-.35,.11-.34-.89,.2-.89,.79-.89,.77s-.15-.12-.12-.13c.09-.05,.15-.22,.15-.24,.02-.09,.16-.28,.14-.28-.77,0-.98,.41-.99,.41-.09,.03-.17,.08-.23,.11-.09-.06-.18-.14-.27-.23,.21,.08,.43-.05,.46-.06,.36-.2,.46-.17,.44-.18-.49-.39-.93-.16-1.1-.03-.02-.03-.04-.06-.05-.1-.08-.15-.11-.26-.11-.26-.03-.1-.17-.06-.14,.04,0,0,.07,.26,.28,.54-.44,.64,.54,1.11,.54,1.1-.06-.07-.09-.37-.09-.38,0-.09-.03-.23-.06-.33,.04,.03,.07,.05,.11,.07,.04,.05,.07,.08,.07,.09,0,.63,1.1,.66,1.09,.64-.02-.05-.2-.4-.26-.51,.06,0,.11,0,.17,0,.51,.64,1.28,.32,1.27,.31-.21-.09-.33-.34-.31-.32,.2,.2,.63,.18,.66,.16,.29-.17,.69-.21,.68-.22-.15-.15-.52-.29-.49-.3,.27-.09,.32-.4,.32-.42,.05-.25,.17-.34,.2-.34,.36-.05,.67-.5,.66-.49-.04,.03-.7,.01-.72,.01-.19-.02-.31,.01-.39,.06-.12,0-.23-.03-.31-.13l-.02-.03s-.03-.04-.05-.05c.2,0,.37-.08,.38-.09,.24-.18,.41-.14,.4-.15-.42-.63-1.02-.04-1.13,.05-.1-.03-.21-.06-.32-.08,.14-.11,.31-.34,.33-.38-.05,.06-.41,0-.43,0-.49-.1-.74,.09-.74,.09,0,0,.05-.11,.06-.13,.09-.22,.25-.23,.23-.24-.39-.19-.68-.06-.67-.09,.05-.12,.09-.5,.06-.49-.38,.08-.49,.24-.5,.26-.2,.2-.28,.92-.3,1.09-.24,.06-.39,.11-.39,.11-.09,.03-.05,.17,.05,.14Z"/>
      <path class="g" d="M24.56,40.68s.2-.07,.5-.13c.15,.38,.58,.39,.61,.39,.26,.01,.58,.25,.58,.23-.02-.12-.08-.26-.06-.24,.21,.21,.82,.27,.8,.26-.06-.03-.24-.3-.25-.33-.1-.23-.29-.39-.27-.39,.07,.02,.14,0,.19-.03h.09c.26,.94,1.06,.59,1.08,.61,.08,.08,.35,.15,.32,.15-.24,0-.63,.27-.63,.27,.02-.05,.09-.3,.09-.29-.02,.05-.22,.13-.24,.13-.43,0-.57,.34-.57,.32,.05-.31,.14-.35,.11-.34-.89,.2-.89,.79-.89,.77s-.15-.12-.12-.13c.09-.05,.15-.22,.15-.24,.02-.09,.16-.28,.14-.28-.77,0-.98,.41-.99,.41-.09,.03-.17,.08-.23,.11-.09-.06-.18-.14-.27-.23,.21,.08,.43-.05,.46-.06,.36-.2,.46-.17,.44-.18-.49-.39-.93-.16-1.1-.03-.02-.03-.04-.06-.05-.1-.08-.15-.11-.26-.11-.26-.03-.1-.17-.06-.14,.04,0,0,.07,.26,.28,.54-.44,.64,.54,1.11,.54,1.1-.06-.07-.09-.37-.09-.38,0-.09-.03-.23-.06-.33,.04,.03,.07,.05,.11,.07,.04,.05,.07,.08,.07,.09,0,.63,1.1,.66,1.09,.64-.02-.05-.2-.4-.26-.51,.06,0,.11,0,.17,0,.51,.64,1.28,.32,1.27,.31-.21-.09-.33-.34-.31-.32,.2,.2,.63,.18,.66,.16,.29-.17,.69-.21,.68-.22-.15-.15-.52-.29-.49-.3,.27-.09,.32-.4,.32-.42,.05-.25,.17-.34,.2-.34,.36-.05,.67-.5,.66-.49-.04,.03-.7,.01-.72,.01-.19-.02-.31,.01-.39,.06-.12,0-.23-.03-.31-.13l-.02-.03s-.03-.04-.05-.05c.2,0,.37-.08,.38-.09,.24-.18,.41-.14,.4-.15-.42-.63-1.02-.04-1.13,.05-.1-.03-.21-.06-.32-.08,.14-.11,.31-.34,.33-.38-.05,.06-.41,0-.43,0-.49-.1-.74,.09-.74,.09,0,0,.05-.11,.06-.13,.09-.22,.25-.23,.23-.24-.39-.19-.68-.06-.67-.09,.05-.12,.09-.5,.06-.49-.38,.08-.49,.24-.5,.26-.2,.2-.28,.92-.3,1.09-.24,.06-.39,.11-.39,.11-.09,.03-.05,.17,.05,.14Z"/>
      <path class="k" d="M32.48,40.29c-.05-.03-.09-.07-.13-.1v-.05c.73-.15,.68-1.17,.67-1.16-.21,.21-.6,.21-.6,.21,.21,0,.38-.29,.39-.3,.12-.24,.29-.33,.28-.33-.41,0-.65,.09-.77,.15,.01-.08,.03-.16,.06-.23,.75,.06,.93-.45,.94-.45,.23-.29,.28-.3,.28-.3-.11-.04-.33-.05-.32-.05,.21,0,.71-.49,.7-.48-.06,.02-.15,.02-.15,.02,.2-.25,.32-.24,.31-.26-.04-.07-.21-.11-.19-.11,.18-.05,.26-.17,.25-.14-.07,.21,.11,.63,.09,.62-.07-.07-.2-.11-.19-.07,.03,.3,.03,.36,.03,.38,0,.35,.1,.43,.08,.46-.17,.26-.18,.81-.18,.8-.07-.14-.23-.33-.24-.31-.19,.28-.19,.62-.19,.62-.02-.05-.04-.13-.04-.11-.06,.14-.33,.48-.36,.51-.3,.4,0,.7-.02,.69-.23-.13-.62,0-.69,.03Zm-.45-.22s.07,.09,.18,.19c.04,.17,.07,.28,.07,.28,.03,.09,.17,.05,.14-.04,0,0-.01-.03-.02-.09,.06,.04,.13,.08,.2,.11,.5,.54,1.21,.22,1.2,.22-.07,0-.2-.08-.22-.1-.07-.1-.2-.22-.18-.21,.52,.32,.84-.05,.86-.07,.26-.22,.47-.2,.45-.21-.1-.09-.47-.22-.45-.21,.41,.12,.68-.13,.7-.14,.19-.18,.31-.11,.29-.13-.41-.45-1.06-.16-1.06-.15,0,0,.14-.35,.16-.34,.72,.33,.88-.38,.89-.4,.13-.22,.22-.24,.21-.24-.71-.12-.97,.36-1,.4,.1-.2,.09-.52,.11-.52,.88-.21,.63-.83,.63-.87-.02-.23,.07-.37,.05-.37-.14-.02-.4,.17-.4,.15,0-.44-.4-.61-.41-.62-.1-.05-.15-.13-.13-.15,.22-.22,0-.79-.02-.77-.08,.15-.21,.26-.23,.27-.21,.18-.21,.38-.23,.38-.62,.09-.71,.6-.72,.73l-.04,.03c0-.14-.08-.33-.08-.34-.11-.23-.12-.39-.12-.38-.04,.08-.21,.44-.22,.48-.16,.43-.11,.63-.05,.73l-.04,.06c-.03-.21-.14-.51-.16-.49-.4,.47-.26,1.03-.27,1.01-.08-.2-.55-.36-.53-.34,.08,.12,.1,.51,.11,.53,.12,.31,.38,.4,.46,.43-.04,.36-.03,.74,.02,1.11l-.02-.02c-.06-.08-.18,0-.12,.09Z"/>
      <path class="e" d="M32.48,40.29c-.05-.03-.09-.07-.13-.1v-.05c.73-.15,.68-1.17,.67-1.16-.21,.21-.6,.21-.6,.21,.21,0,.38-.29,.39-.3,.12-.24,.29-.33,.28-.33-.41,0-.65,.09-.77,.15,.01-.08,.03-.16,.06-.23,.75,.06,.93-.45,.94-.45,.23-.29,.28-.3,.28-.3-.11-.04-.33-.05-.32-.05,.21,0,.71-.49,.7-.48-.06,.02-.15,.02-.15,.02,.2-.25,.32-.24,.31-.26-.04-.07-.21-.11-.19-.11,.18-.05,.26-.17,.25-.14-.07,.21,.11,.63,.09,.62-.07-.07-.2-.11-.19-.07,.03,.3,.03,.36,.03,.38,0,.35,.1,.43,.08,.46-.17,.26-.18,.81-.18,.8-.07-.14-.23-.33-.24-.31-.19,.28-.19,.62-.19,.62-.02-.05-.04-.13-.04-.11-.06,.14-.33,.48-.36,.51-.3,.4,0,.7-.02,.69-.23-.13-.62,0-.69,.03Zm-.45-.22s.07,.09,.18,.19c.04,.17,.07,.28,.07,.28,.03,.09,.17,.05,.14-.04,0,0-.01-.03-.02-.09,.06,.04,.13,.08,.2,.11,.5,.54,1.21,.22,1.2,.22-.07,0-.2-.08-.22-.1-.07-.1-.2-.22-.18-.21,.52,.32,.84-.05,.86-.07,.26-.22,.47-.2,.45-.21-.1-.09-.47-.22-.45-.21,.41,.12,.68-.13,.7-.14,.19-.18,.31-.11,.29-.13-.41-.45-1.06-.16-1.06-.15,0,0,.14-.35,.16-.34,.72,.33,.88-.38,.89-.4,.13-.22,.22-.24,.21-.24-.71-.12-.97,.36-1,.4,.1-.2,.09-.52,.11-.52,.88-.21,.63-.83,.63-.87-.02-.23,.07-.37,.05-.37-.14-.02-.4,.17-.4,.15,0-.44-.4-.61-.41-.62-.1-.05-.15-.13-.13-.15,.22-.22,0-.79-.02-.77-.08,.15-.21,.26-.23,.27-.21,.18-.21,.38-.23,.38-.62,.09-.71,.6-.72,.73l-.04,.03c0-.14-.08-.33-.08-.34-.11-.23-.12-.39-.12-.38-.04,.08-.21,.44-.22,.48-.16,.43-.11,.63-.05,.73l-.04,.06c-.03-.21-.14-.51-.16-.49-.4,.47-.26,1.03-.27,1.01-.08-.2-.55-.36-.53-.34,.08,.12,.1,.51,.11,.53,.12,.31,.38,.4,.46,.43-.04,.36-.03,.74,.02,1.11l-.02-.02c-.06-.08-.18,0-.12,.09Z"/>
      <path class="k" d="M34.47,23.66c-.11-.09-.2-.17-.28-.26,.09-.05,.37-.2,.19-.7,0-.03-.19-.5-.19-.5,0,0-.36,.43-.27,.85-.09-.13-.16-.27-.22-.41,.13-.04,.42-.19,.33-.61,0-.03-.07-.42,.05-.53,0,0-.38,.09-.52,.57,0,.01-.03-.06-.05-.12l-.02-.11s.51-.17,.46-.71c0-.02-.11-.39,.05-.64,.01-.02-.41,.21-.53,.56,.01-.15,.03-.3,.05-.45,.06,0,.41-.04,.6-.53v-.02c.18,.25,.43,.32,.45,.32,.03,0,.08,.12,.08,.15,.01,.06,.06,.14,.06,.14,0,0,.04,.37,.06,.43,.21,.65,.5,.65,.62,.64,.01,.17,.01,.34,0,.51-.12-.49-.52-.69-.54-.67-.14,.16-.1,.4-.1,.43,.08,.47,.39,.7,.5,.8-.05,.12-.11,.23-.18,.33,.17-.37-.13-.55-.13-.55-.32-.21-.27-.41-.28-.39-.3,.53-.11,.69-.11,.72,0,.03,.26,.33,.33,.44-.11,.11-.25,.21-.4,.3Zm.25,.17s-.06-.03-.15-.1c.19-.11,.42-.29,.6-.56,.27,.43,.63,.12,.65,.1,.31-.24,.52-.23,.51-.25-.3-.35-.53-.26-.5-.27,.13-.06,.18-.35,.19-.39,.05-.36,.33-.51,.31-.51-.38,0-.7,.22-.81,.3,0-.09,0-.18,0-.28,.6,.11,.58-.4,.58-.43,0-.34,.19-.59,.17-.58-.17,.08-.36,.2-.35,.19,.13-.17,.01-.74,0-.73-.18,.09-.33,.3-.34,.3-.09,.06-.16,.32-.19,.42-.02-.07-.04-.15-.07-.23,.04-.09,0-.09,.02-.1,.64-.48,.27-1.04,.26-1.05-.04-.18,.03-.32,.01-.31-.21,.07-.41,.58-.41,.56,0-.16-.4-.27-.4-.28,.07-.29-.18-.49-.2-.5-.26-.21-.1-.46-.11-.45-.74,.55-.12,1.06-.12,1.06,0,0-.14,.01-.16,.02-.01,0-.03,0-.04,0,.02-.12,.02-.25-.02-.33-.01-.02-.08,.19-.23,.26-.02,.01-.27,.19-.29,.27-.01,.08,.01-.4-.4-.67-.02-.01-.16,.92,.19,1.1-.05,.22-.08,.44-.09,.67-.08-.12-.26-.31-.55-.24-.02,0,.11,.1,.11,.42,0,.02,.02,.27,.29,.46,.02,.01-.29-.11-.34-.1-.03,0,0,.9,.72,1.04,.05,.11,.1,.22,.16,.33-.2-.16-.49-.33-.75-.24-.02,0,.32,.48,.39,.59,0,.01,.18,.33,.66,.06,.1,.11,.2,.22,.32,.32-.12,.06-.19,.08-.19,.08-.07,.02-.04,.13,.03,.11,0,0,.11-.03,.26-.11,.12,.09,.2,.14,.2,.14,.07,.04,.12-.07,.05-.1Z"/>
      <path class="k" d="M22.8,40.68s-.2-.07-.5-.13c-.15,.38-.58,.39-.61,.39-.25,.01-.58,.25-.58,.23,.02-.12,.08-.26,.06-.24-.21,.21-.82,.27-.8,.26,.06-.03,.24-.3,.25-.33,.1-.23,.29-.39,.27-.39-.07,.02-.14,0-.19-.03h-.09c-.26,.94-1.06,.59-1.08,.61-.08,.08-.35,.15-.32,.15,.24,0,.63,.27,.63,.27-.02-.05-.09-.3-.08-.29,.02,.05,.22,.13,.24,.13,.43,0,.57,.34,.57,.32-.05-.31-.14-.35-.11-.34,.89,.2,.89,.79,.89,.77s.15-.12,.12-.13c-.09-.05-.15-.22-.15-.24-.02-.09-.16-.28-.14-.28,.77,0,.98,.41,.99,.41,.09,.03,.17,.08,.23,.11,.09-.06,.18-.14,.27-.23-.21,.08-.43-.05-.46-.06-.36-.2-.46-.17-.44-.18,.49-.39,.93-.16,1.1-.03,.02-.03,.04-.06,.05-.1,.08-.15,.11-.26,.11-.26,.03-.1,.17-.06,.14,.04,0,0-.07,.26-.28,.54,.44,.64-.54,1.11-.54,1.1,.06-.07,.09-.37,.09-.38,0-.09,.03-.23,.06-.33-.04,.03-.07,.05-.11,.07-.04,.05-.07,.08-.07,.09,0,.63-1.1,.66-1.09,.64,.02-.05,.2-.4,.26-.51-.06,0-.11,0-.17,0-.51,.64-1.28,.32-1.27,.31,.21-.09,.33-.34,.31-.32-.2,.2-.63,.18-.66,.16-.29-.17-.69-.21-.68-.22,.15-.15,.52-.29,.49-.3-.27-.09-.32-.4-.32-.42-.05-.25-.17-.34-.2-.34-.36-.05-.67-.5-.66-.49,.04,.03,.7,.01,.72,.01,.19-.02,.31,.01,.39,.06,.12,0,.23-.03,.31-.13l.02-.03s.03-.04,.05-.05c-.2,0-.37-.08-.38-.09-.24-.18-.41-.14-.4-.15,.42-.63,1.02-.04,1.13,.05,.1-.03,.21-.06,.32-.08-.14-.11-.31-.34-.33-.38,.05,.06,.41,0,.43,0,.49-.1,.74,.09,.74,.09,0,0-.05-.11-.06-.13-.09-.22-.25-.23-.23-.24,.39-.19,.68-.06,.67-.09-.05-.12-.09-.5-.06-.49,.38,.08,.49,.24,.5,.26,.2,.2,.28,.92,.3,1.09,.24,.06,.39,.11,.39,.11,.09,.03,.05,.17-.05,.14Z"/>
      <path class="k" d="M35.59,27.39c0,.34-1.19,.35-1.33,.35s-1.32,0-1.32-.35v-1.16c0-.1,.1-.18,.25-.23v-.69l-.25-.2v-.64c0-.25,.58-.3,.73-.32v.37h.1v-.38c.33-.02,.66-.02,.99,0v.37h.12s0-.36,0-.36c.16,.02,.72,.08,.72,.32v.64l-.28,.18v.7c.16,.05,.28,.13,.28,.24v1.16h0Z"/>
      <path class="k" d="M33.6,26.13c.26-.03,.55-.04,.66-.04,.18,0,.94,.02,1.11,.16v.92c-.08-.03-.17-.05-.23-.06-.12-.02-.27-.04-.43-.06v-.43c0-.28-.26-.4-.46-.4s-.46,.12-.46,.4v.43c-.07,0-.14,.01-.21,.02v-.94h0Z"/>
      <path class="k" d="M33.56,24.75l.42-.05v-.36c.19,0,.37,0,.56,0v.36l.54,.06v-.36c.09,.02,.21,.04,.29,.09v.4c-.29-.11-.82-.13-1.11-.13-.18,0-.45,.01-.7,.04v-.05Z"/>
      <path class="k" d="M33.75,24.99c.22-.02,.43-.03,.51-.03,.2,0,.5,.01,.75,.05,.02,0,.05,0,.09,.01v.9c-.34-.06-.75-.06-.83-.06-.06,0-.27,0-.51,.02v-.9h0Z"/>
      <path class="l" d="M34.28,25.1c.12,0,.22,.1,.22,.22s-.1,.22-.22,.22-.22-.1-.22-.22,.1-.22,.22-.22Z"/>
      <path class="k" d="M35.59,35.89c0,.34-1.19,.35-1.33,.35s-1.32,0-1.32-.35v-1.16c0-.1,.1-.18,.25-.23v-.69l-.25-.2v-.64c0-.25,.58-.3,.73-.32v.37h.1v-.38c.33-.02,.66-.02,.99,0v.37h.12s0-.36,0-.36c.16,.02,.72,.08,.72,.32v.64l-.28,.18v.7c.16,.05,.28,.13,.28,.24v1.16h0Z"/>
      <path class="k" d="M31.97,40.14s.07,.09,.18,.19c.04,.17,.07,.28,.07,.28,.03,.09,.17,.05,.14-.04,0,0-.01-.03-.03-.09,.06,.04,.13,.08,.2,.11,.5,.54,1.21,.22,1.2,.22-.07,0-.2-.08-.21-.1-.07-.1-.2-.22-.18-.21,.52,.32,.84-.05,.86-.06,.26-.22,.47-.2,.45-.21-.1-.09-.47-.22-.45-.21,.41,.12,.68-.13,.7-.15,.19-.18,.31-.11,.29-.13-.41-.45-1.06-.16-1.06-.15,0,0,.14-.35,.17-.34,.72,.33,.88-.38,.89-.4,.13-.22,.22-.24,.21-.24-.71-.12-.97,.36-1,.4,.1-.2,.09-.52,.11-.52,.88-.21,.63-.84,.62-.87-.02-.23,.07-.37,.05-.37-.14-.02-.4,.17-.4,.15,0-.44-.4-.61-.41-.62-.1-.05-.15-.13-.13-.15,.22-.22,0-.79-.02-.77-.08,.15-.21,.26-.23,.27-.22,.18-.22,.38-.23,.38-.62,.09-.71,.6-.72,.73l-.04,.03c0-.14-.08-.33-.08-.34-.11-.23-.12-.39-.12-.38-.04,.08-.21,.44-.22,.48-.16,.43-.11,.63-.05,.73l-.04,.06c-.03-.21-.15-.51-.16-.49-.4,.47-.26,1.03-.27,1.01-.08-.2-.55-.36-.53-.34,.08,.12,.1,.51,.11,.53,.12,.31,.38,.4,.46,.43-.04,.36-.03,.74,.02,1.11l-.02-.02c-.06-.08-.18,0-.12,.09Z"/>
      <path class="d" d="M31.97,40.14s.07,.09,.18,.19c.04,.17,.07,.28,.07,.28,.03,.09,.17,.05,.14-.04,0,0-.01-.03-.03-.09,.06,.04,.13,.08,.2,.11,.5,.54,1.21,.22,1.2,.22-.07,0-.2-.08-.21-.1-.07-.1-.2-.22-.18-.21,.52,.32,.84-.05,.86-.06,.26-.22,.47-.2,.45-.21-.1-.09-.47-.22-.45-.21,.41,.12,.68-.13,.7-.15,.19-.18,.31-.11,.29-.13-.41-.45-1.06-.16-1.06-.15,0,0,.14-.35,.17-.34,.72,.33,.88-.38,.89-.4,.13-.22,.22-.24,.21-.24-.71-.12-.97,.36-1,.4,.1-.2,.09-.52,.11-.52,.88-.21,.63-.84,.62-.87-.02-.23,.07-.37,.05-.37-.14-.02-.4,.17-.4,.15,0-.44-.4-.61-.41-.62-.1-.05-.15-.13-.13-.15,.22-.22,0-.79-.02-.77-.08,.15-.21,.26-.23,.27-.22,.18-.22,.38-.23,.38-.62,.09-.71,.6-.72,.73l-.04,.03c0-.14-.08-.33-.08-.34-.11-.23-.12-.39-.12-.38-.04,.08-.21,.44-.22,.48-.16,.43-.11,.63-.05,.73l-.04,.06c-.03-.21-.15-.51-.16-.49-.4,.47-.26,1.03-.27,1.01-.08-.2-.55-.36-.53-.34,.08,.12,.1,.51,.11,.53,.12,.31,.38,.4,.46,.43-.04,.36-.03,.74,.02,1.11l-.02-.02c-.06-.08-.18,0-.12,.09Z"/>
      <path class="k" d="M33.6,34.63c.26-.03,.55-.04,.66-.04,.18,0,.94,.02,1.11,.16v.92c-.08-.03-.17-.05-.23-.06-.12-.02-.27-.04-.43-.06v-.43c0-.28-.26-.4-.46-.4s-.46,.12-.46,.4v.43c-.07,0-.14,.01-.21,.02v-.94h0Z"/>
      <path class="k" d="M33.56,33.25l.42-.05v-.36c.19,0,.37,0,.56,0v.36l.54,.06v-.36c.09,.02,.21,.04,.29,.09v.4c-.29-.11-.82-.13-1.11-.13-.18,0-.45,.01-.7,.04v-.05Z"/>
      <path class="k" d="M33.75,33.49c.22-.02,.43-.03,.51-.03,.2,0,.5,.01,.75,.05,.02,0,.05,0,.09,.01v.9c-.34-.06-.75-.06-.83-.06-.06,0-.27,0-.51,.02v-.9h0Z"/>
      <path class="l" d="M34.28,33.6c.12,0,.22,.1,.22,.22s-.1,.22-.22,.22-.22-.1-.22-.22,.1-.22,.22-.22Z"/>
      <path class="k" d="M34.49,32.05c-.11-.09-.2-.17-.28-.26,.09-.05,.37-.2,.19-.7,0-.03-.19-.5-.19-.5,0,0-.36,.43-.27,.85-.08-.13-.16-.27-.22-.41,.13-.04,.42-.19,.33-.61,0-.03-.07-.42,.05-.53,0,0-.38,.09-.52,.57,0,.01-.03-.06-.05-.12l-.02-.11s.51-.17,.46-.71c0-.02-.11-.39,.05-.63,.01-.02-.41,.21-.53,.56,.01-.15,.03-.3,.05-.45,.06,0,.41-.04,.6-.53v-.02c.19,.25,.43,.32,.45,.32,.03,0,.08,.12,.08,.15,.01,.06,.06,.14,.06,.14,0,0,.04,.37,.06,.43,.21,.65,.5,.65,.62,.64,.01,.17,.01,.34,0,.51-.12-.49-.52-.69-.54-.67-.14,.16-.1,.4-.1,.43,.08,.47,.39,.7,.5,.8-.05,.12-.11,.23-.18,.33,.17-.37-.13-.55-.13-.55-.31-.21-.27-.41-.28-.39-.3,.53-.11,.69-.11,.72,0,.03,.26,.33,.33,.44-.11,.11-.25,.21-.4,.3Zm.25,.17s-.06-.03-.15-.1c.19-.11,.42-.29,.6-.56,.27,.43,.63,.12,.65,.1,.31-.24,.52-.23,.51-.25-.3-.35-.53-.26-.5-.27,.13-.06,.18-.35,.19-.39,.05-.36,.32-.51,.31-.51-.38,0-.7,.22-.81,.3,0-.09,0-.18,0-.28,.6,.11,.58-.4,.58-.43,0-.34,.19-.59,.17-.58-.17,.08-.36,.2-.35,.19,.13-.17,.01-.74,0-.73-.18,.09-.33,.3-.34,.3-.08,.06-.16,.32-.19,.42-.02-.07-.04-.15-.07-.23,.04-.09,0-.09,.02-.1,.64-.48,.27-1.04,.26-1.05-.04-.18,.03-.32,.01-.31-.21,.07-.41,.58-.41,.56,0-.16-.41-.27-.4-.28,.07-.29-.18-.49-.2-.5-.26-.21-.1-.46-.11-.45-.74,.55-.12,1.06-.12,1.06,0,0-.14,.01-.16,.02-.01,0-.03,0-.04,0,.02-.12,.02-.25-.02-.33,0-.02-.08,.19-.23,.26-.03,.01-.28,.19-.29,.27-.01,.08,.01-.4-.4-.67-.02-.01-.16,.92,.19,1.1-.04,.22-.08,.44-.09,.67-.08-.12-.26-.31-.55-.24-.02,0,.11,.1,.11,.42,0,.02,.02,.27,.29,.46,.02,.01-.29-.11-.34-.1-.03,0,0,.9,.72,1.04,.05,.11,.1,.22,.16,.33-.2-.16-.49-.33-.75-.24-.02,0,.32,.48,.39,.59,0,.01,.18,.33,.66,.06,.1,.11,.2,.22,.32,.32-.12,.06-.19,.08-.19,.08l.03,.11s.11-.03,.26-.11c.12,.09,.21,.14,.21,.14l.05-.1Z"/>
      <path class="k" d="M30.31,16.64c-.06-.02-.11-.05-.17-.07-.54-.2-1.18-.34-1.79-.43-1.2-.18-2.86-.28-4.69-.25-1.83,.03-3.48,.25-4.67,.5-.32,.07-.65,.14-.96,.23l.39,.85c.26-.07,.56-.13,.88-.18,1.12-.19,2.68-.31,4.4-.31s3.27,.12,4.4,.31c.57,.09,1.06,.21,1.42,.36,.09,.03,.18,.07,.26,.12l.56-1.13Zm.72-1.46c-.23-.08-.4-.25-.5-.45-.05-.09-.08-.19-.1-.27-.25,.17-.57,.32-.93,.36-.7,.07-1.07-.31-1.24-.7-.07,.05-.14,.1-.22,.14-.39,.2-.91,.23-1.41-.24-.22-.21-.37-.44-.48-.65-.03-.06-.06-.12-.08-.18-.34,.41-.69,.63-.99,.79-.53,.29-1.08-.06-1.4-.47-.07,.09-.15,.18-.26,.27-.4,.37-.85,.37-1.23,.16-.31-.17-.58-.47-.8-.76-.17,.34-.41,.65-.57,.83-.34,.41-1.04,.47-1.63,.05-.1,.27-.31,.61-.8,.72-.58,.13-1.08-.17-1.4-.42l.69,1.48c.42-.13,.87-.22,1.32-.3,1.2-.2,2.86-.33,4.69-.33s3.49,.13,4.69,.33c.61,.1,1.25,.25,1.78,.46,.14,.06,.27,.12,.39,.18l.5-1.01Z"/>
      <path class="k" d="M21.77,16.48c0-.23,.19-.42,.42-.42s.42,.19,.42,.42-.19,.42-.42,.42c-.23,0-.42-.19-.42-.42Z"/>
      <path class="k" d="M19.47,17.16c.23,0,.42-.19,.42-.42s-.19-.42-.42-.42-.42,.19-.42,.42,.19,.42,.42,.42Z"/>
      <path class="k" d="M25.17,16.91c.23,0,.42-.19,.42-.42s-.19-.42-.42-.42-.42,.19-.42,.42,.19,.42,.42,.42Z"/>
      <path class="k" d="M27.47,16.74c0-.23,.19-.42,.42-.42s.42,.19,.42,.42-.19,.42-.42,.42-.42-.19-.42-.42Z"/>
      <path class="k" d="M23.12,44.07c.2-.02,.41-.03,.49-.03,.14,0,.7,.02,.83,.12v.69c-.06-.02-.13-.04-.17-.05-.09-.02-.2-.03-.32-.04v-.32c0-.21-.19-.3-.34-.3s-.34,.09-.34,.3v.32c-.05,0-.1,0-.16,.02v-.7h0Z"/>
      <path class="k" d="M23.09,43.04l.31-.04v-.26c.14,0,.27,0,.42,0v.27l.41,.04v-.27c.07,.01,.16,.03,.22,.07v.29c-.21-.08-.61-.1-.83-.1-.14,0-.34,0-.52,.03v-.04Z"/>
      <path class="k" d="M23.23,43.22c.16-.01,.32-.02,.38-.02,.15,0,.37,.01,.56,.04,.02,0,.04,0,.07,.01v.67c-.25-.05-.56-.05-.62-.05-.05,0-.2,0-.38,.02v-.67Z"/>
      <path class="l" d="M23.63,43.3c.09,0,.16,.07,.16,.16s-.07,.16-.16,.16-.16-.07-.16-.16c0-.09,.07-.16,.16-.16Z"/>
      <path class="k" d="M23.67,47.7c.68,0,1.24-.55,1.24-1.24s-.55-1.24-1.24-1.24-1.24,.55-1.24,1.24,.55,1.24,1.24,1.24Z"/>
      <path class="l" d="M30.95,13.88c-.03,.83,.94,.73,.94,.23,0-.5,.26-.57,.43-.69,.17-.12,.34,.13,.34,.13,0,0,.01,0,.07,.01,.06,.01,.04-.23,.04-.23-.07-.23,0-.8,.14-.57,.32,.52,1.14,.33,.86-.16-.32-.56-.44-.31-.51-.41-.11-.17-.65-.12-.93,.08-.28,.2-.34,.87-.34,.87l-.06,.02s-.14-.31-.28-.31c-.26-.02-.65,.2-.68,1.03Z"/>
      <path class="i" d="M17.55,8.45c.19,.61-.23,.87-.84,.73,.08,.17,.13,.22,.17,.26,.82,1.01-.1,2.02-.65,2.84-.4,.55-.77,.65-1.26,.3l-.09-.06c-.32,.16-.51,.15-.66-.17-.01-.03-.04-.08-.06-.1-.06,.05-.16,.09-.22,.15,.13,.22-.06,.5-.32,.47-.38-.11-.27-.46-.15-.56,.06-.05,.13-.1,.18-.15v-.17c-.01-.31,.18-.47,.5-.51-.21-.16-.17-.39-.2-.42-.19-.03-.26-.17-.35-.31-.39,.02-.44-.4-.26-.57,.18-.18,.55-.05,.52,.27,.07,.05,.19,.07,.45-.04,.65-.07,.44,.99,1.21,.42,.17-.13,1.52-.68,.52-1.2-.33-.17-.57-.33-.84-.62-.65-.51-1.23-1.99,.11-1.76-.32-.53-.36-.99,.33-1,.13,0,.28,.02,.43,.03,.31,.02,.55,.09,.85,.19,.3,.1,.8,.25,2.05,.47,.65,.06,.83-.13,1.38-.24,.18-.04,.38-.06,.66-.06,.38,0,.71,.03,1.07,.14,.22,.07,.45,.13,1.04,.13,.23,0,.52-.32,.76-.15,.43,.3,1.86,.07,2.7-.34-.06-.21,.19-.33,.29-.11,.03,.08,.11,.37,.18,.4,.08-.14-.26-.51-.05-.78,.27-.34,.45,.12,.91-.07,.28-.09,.48-.05,.65,.05v2.05c-.09-.04-.2-.12-.36-.33,.07,.4-.14,.87-.76,.63-.07-.03-.24-.13-.32-.13-.1,.02-1.25,.39-1.5,.08-.05-.06-.06-.07-.1-.07-.12,0-.17,.06-.24,.14-.3,.34-.64,.28-.97,.15-.14-.02-.32,0-.46,.04-.34,.09-.62,.1-1.03,.08-.4-.02-.94-.07-1.81-.11-.45-.02-.85,.12-1.29,.22-.46,.1-1,.14-1.88-.11-.06-.01-.17-.05-.27-.09Z"/>
      <path class="k" d="M23.29,7.98v-.17s.1,0,.15,0c-.04-.06-.07-.12-.09-.18-.02-.04-.04-.09-.06-.13v-.29s.06-.01,.09-.02c.09,.16,.16,.32,.25,.48,.09,.18,.2,.35,.29,.53-.08,0-.16,.01-.24,.02-.04-.09-.09-.16-.13-.24-.09,0-.17,0-.26,0Zm0-.78v.29s-.02-.04-.02-.06c-.02,.07-.04,.13-.07,.2-.02,.06-.04,.12-.06,.18,.06,0,.1,0,.15,0v.17h-.19c-.02,.07-.04,.14-.06,.21-.08,0-.16-.02-.24-.02,.05-.15,.08-.31,.13-.47,.06-.16,.13-.32,.19-.49,.06,0,.11-.01,.16-.02Zm-4.03,1.2v-.33c.03,.11,.07,.21,.1,.33-.03,0-.07,0-.1,0Zm0-.96c.08,.13,.17,.26,.25,.38,.11,.17,.23,.34,.34,.5,.07-.01,.15-.03,.22-.05,.02-.19,.02-.37,.05-.56,.02-.18,.05-.37,.08-.55-.08,.02-.16,.03-.23,.05-.02,.13-.04,.26-.05,.4-.01,.13-.02,.28-.02,.41-.09-.12-.17-.24-.25-.37-.07-.12-.16-.25-.24-.38-.05,0-.1,0-.15,0v.15Zm1.28,.71c-.04-.17-.09-.34-.13-.51-.04-.17-.07-.33-.1-.5,.07-.02,.15-.03,.22-.04,.04,.17,.06,.33,.1,.5,.04,.17,.09,.33,.13,.5-.07,.01-.15,.03-.21,.05Zm1.04-.47c.08,.02,.16,.06,.24,.08,0,.11-.04,.19-.11,.25-.07,.05-.16,.07-.28,.07-.15,0-.28-.04-.39-.13-.05-.04-.11-.1-.15-.15-.04-.06-.07-.13-.09-.21-.02-.09-.02-.17,0-.23,.01-.07,.04-.13,.07-.18,.08-.1,.2-.17,.37-.17,.14,0,.26,.04,.36,.12,.06,.05,.11,.12,.15,.2-.07,0-.15,.02-.23,.03-.02-.05-.06-.1-.1-.13-.05-.03-.1-.05-.17-.05-.09,0-.15,.04-.19,.09-.04,.06-.05,.15-.03,.27,.01,.07,.03,.12,.06,.17,.02,.05,.06,.08,.09,.11,.06,.05,.13,.08,.21,.08,.06,0,.11-.02,.15-.05,.03-.04,.05-.09,.05-.17Zm.75,.45c-.02-.14-.06-.28-.08-.42-.02-.13-.04-.28-.05-.42-.12-.02-.24-.04-.36-.06,0-.05-.01-.12-.02-.18,.31,.06,.63,.13,.94,.18,0,.05,0,.1,.01,.16-.12-.01-.23-.03-.35-.05,.02,.13,.02,.27,.05,.4,.02,.14,.06,.28,.08,.41-.08,0-.15-.02-.23-.02Zm-4.19-.15c.02,.09,.06,.17,.09,.25-.03,0-.06-.02-.09-.03v-.22Zm1.12-.69v.15s-.07-.1-.1-.16c.04,0,.07,0,.1,0Zm0,.78c-.02-.08-.05-.15-.07-.23-.06-.19-.1-.37-.16-.56-.07,0-.15-.01-.22-.02,.04,.13,.07,.26,.11,.39,.04,.13,.08,.26,.12,.39-.12-.13-.23-.28-.36-.42-.12-.15-.25-.3-.37-.46-.06-.01-.11-.02-.16-.04v.24c.04,.12,.07,.23,.11,.35,.07,.2,.14,.4,.21,.61,.07,.02,.15,.04,.22,.05-.04-.13-.09-.26-.13-.39-.04-.13-.09-.26-.13-.39,.12,.15,.25,.29,.36,.44,.12,.13,.24,.27,.35,.4h.12v-.33Zm-1.28,.07c-.07-.2-.15-.4-.22-.6-.07-.2-.14-.4-.21-.59,.09,.02,.17,.04,.26,.06,.07,.2,.14,.41,.21,.61,.04,.12,.09,.24,.13,.36v.22c-.06-.02-.11-.04-.17-.06Zm.17-1.04s-.06-.01-.09-.02c.03,.09,.06,.17,.09,.26v-.24Z"/>
      <path class="l" d="M21.29,4.63c-.04-.14,.09-.22,.17-.23,.11,0,.16,.06,.16,.06,0,0-.2,.15-.19,.03-.08,0-.14,.14-.14,.14Z"/>
    </g>
  </g>
</svg>