<?xml version="1.0" encoding="UTF-8"?>
<svg id="Layer_2" data-name="Layer 2" xmlns="http://www.w3.org/2000/svg" xmlns:xlink="http://www.w3.org/1999/xlink" viewBox="0 0 330 330">
  <defs>
    <style>
      .cls-1 {
        fill: none;
      }

      .cls-2 {
        clip-path: url(#clippath);
      }

      .cls-3 {
        fill: #fff;
      }

      .cls-4 {
        fill: #000923;
      }
    </style>
    <clipPath id="clippath">
      <rect class="cls-1" x="2.3" y="-.56" width="324.7" height="330.43"/>
    </clipPath>
  </defs>
  <g class="cls-2">
    <g>
      <path class="cls-3" d="M164.65-.56C75.11-.56,2.3,73.56,2.3,164.66s72.82,165.22,162.35,165.22,162.35-74.12,162.35-165.22S254.18-.56,164.65-.56Z"/>
      <path class="cls-4" d="M164.65,11.26c-40.25,0-78.12,15.96-106.59,44.94C29.59,85.16,13.9,123.68,13.9,164.65s15.68,79.51,44.16,108.48c28.49,28.97,66.34,44.94,106.59,44.94s78.13-15.96,106.6-44.94c28.47-28.99,44.16-67.51,44.16-108.48s-15.69-79.48-44.16-108.47c-28.47-28.97-66.32-44.94-106.6-44.94"/>
      <path class="cls-3" d="M164.65,17.32c79.97,0,144.8,65.97,144.8,147.33s-64.82,147.36-144.8,147.36S19.87,246.04,19.87,164.65,84.7,17.32,164.65,17.32Z"/>
      <path class="cls-4" d="M219.77,39.3c-2.36-1.08-4.72-2.07-7.15-3.01l-14.3,35.05c2.42,.9,4.79,1.91,7.12,3.02l14.33-35.06Z"/>
      <path class="cls-4" d="M191.71,40.63c0-7.16-6.67-12.98-13.67-12.98h-21.39v37.76c2.48-.19,4.98-.33,7.53-.33v-11.49h9.45l8.16,13.12c3.22,.59,6.39,1.33,9.5,2.25l-9.76-15.84c5.59-1.51,10.21-6.55,10.21-12.49h-.01Zm-27.54,6.27v-12.54h13.86c3.39,0,6.15,2.8,6.15,6.25s-2.75,6.27-6.15,6.27h-13.86Z"/>
      <path class="cls-4" d="M96.74,92.34l-8.46-7.85,10.47-11.72c4.73-5.29,4.73-13.8-.45-18.61-5.2-4.82-13.66-4.15-18.39,1.13l-15.54,17.4,27.07,25.11c1.69-1.91,3.47-3.72,5.3-5.45h0Zm-22.43-20.79l10.17-11.34c2.29-2.55,6.19-2.74,8.69-.42,2.5,2.33,2.69,6.28,.39,8.85l-10.15,11.34-9.1-8.45h0Z"/>
      <path class="cls-4" d="M242.11,88.02c-3.6,3.02-13.68-4.56-19.72-17.59l-5.43,4.16c1.29,3.42,4.22,8.4,8.16,12.6,4.44,4.77,9.28,7.87,13.63,8.74,3.41,.68,6.8,.15,9.06-1.96,5.58-5.28,3.54-12.97-5.24-22.38l-3.66-3.9c-4.03-4.33-2.39-6.82-.83-7.17,5.59-1.33,15.86,9.04,17.81,16.05,1.62-1.26,5.24-3.96,5.24-3.96-4.33-12.57-21.6-25.15-29.8-17.27-4.86,4.68-2.11,11.87,2.14,16.42l4.11,4.42c4.21,4.51,7.89,9,4.5,11.83h.03Z"/>
      <path class="cls-4" d="M115.64,36.78l-2.78,43.04c2.5-1.57,5.08-3.01,7.72-4.36l.39-10.02c5.1-2.3,10.41-4.18,15.9-5.65l6.5,7.57c2.85-.62,5.75-1.13,8.69-1.5l-28.59-31.92c-2.65,.87-5.27,1.81-7.84,2.83Zm5.61,21.76l.64-16.21,10.49,12.24c-3.8,1.14-7.5,2.46-11.13,3.97Z"/>
      <path class="cls-4" d="M93.43,249.14l-.13-.11-14.37,6.92,1.88,1.75,.13,.12,4.7-2.28,4.49,3.87-1.51,5.05,1.92,1.48,.29,.24,.1-.36,4.33-15.1-1.81-1.57h-.01Zm-1.35,3.31l-1.21,4.25-2.74-2.36,3.95-1.9Z"/>
      <path class="cls-4" d="M104.56,257.73l-1.67-1.13-.22-.15-8.05,12.45,1.88,1.28,.2,.15,8.07-12.46-.2-.13Z"/>
      <path class="cls-4" d="M117.75,265.48l-4.7,9.1-2.32-12.85-.09-.06-1.78-.96-.23-.12-6.73,13.04,1.94,1.14,.22,.15,4.81-9.28,2.33,13.04,1.88,.86,.2,.1,6.7-13-2-1.07-.23-.1Z"/>
      <path class="cls-4" d="M123.3,268.11l-.74,2.15-.09,.25,4.6,1.63-3.95,11.54,2.13,.76,.23,.09,3.96-11.56,4.62,1.66,.74-2.19,.07-.24-.23-.09-11.34-4Z"/>
      <path class="cls-4" d="M164.87,282.93l-.04,2.03v.27l4.37,.06v1.34c-.03,.9-1.51,2.03-3.79,2.02h-.15c-3.36-.06-5.33-2.42-5.34-5.01v-.06c.04-2.82,2.02-5.08,5.52-5.1h.13c2.45,.04,3.38,1.27,4.09,1.97l.17,.18,1.59-1.6,.19-.18-.19-.18c-.79-.82-2.59-2.68-6-2.73h-.16c-4.5,0-7.78,3.33-7.82,7.49v.13c0,4.87,3.93,7.59,7.7,7.62h.22c3.44,0,6.28-1.66,6.34-4.39l.07-4.02-6.89-.1v.27h-.01Z"/>
      <path class="cls-4" d="M189.03,285.99l-9.63,1.42-.52-3.76,4.67-.68-.32-2.28-.04-.24-4.66,.68-.45-3.17,9.28-1.35-.31-2.3-.06-.24-.25,.05-11.52,1.66,2.05,14.54,12.12-1.78-.31-2.28-.06-.27Z"/>
      <path class="cls-4" d="M205.22,274.94c0-.5-.07-1.04-.26-1.63-.63-2.16-2.23-3.05-3.9-3.04-.57,0-1.17,.12-1.72,.28l-8.08,2.48,4.14,14.02,2.15-.61,.25-.07-1.68-5.69,4.56-1.39,4.32,4.82,2.27-.82,.36-.13-4.37-4.79c.9-.49,1.95-1.59,1.95-3.41v-.02Zm-2.55-.21c0,.8-.48,1.42-1.57,1.76l-5.68,1.73-1.03-3.48,5.68-1.75c.34-.12,.66-.16,.98-.16,.7,0,1.24,.27,1.54,1.21,.06,.25,.1,.47,.1,.68h-.02Z"/>
      <path class="cls-4" d="M229.47,254.5l-1.94,1.41-.15,.09,3.04,15.75,2.1-1.35,.15-.09-.99-5.14,4.79-3.47,4.31,2.67,1.89-1.51,.28-.24-.32-.18-13.18-7.94h.02Zm1.7,7.9l-.83-4.34,3.76,2.22-2.93,2.12Z"/>
      <path class="cls-4" d="M238.02,247.56l-1.46,1.39-.19,.18,9.8,10.73,1.68-1.51,.2-.19-9.85-10.76-.19,.16Z"/>
      <path class="cls-4" d="M250.57,234.06l-1.5,1.71-.17,.19,7.54,6.89-12.83-.91-.09,.11-1.34,1.53-.16,.16,10.72,9.84,1.57-1.63,.2-.19-7.66-7.01,12.99,.9,1.29-1.62,.15-.19-10.72-9.78Z"/>
      <path class="cls-4" d="M220.03,261.01l-1.79,.92-.12,.07-.31,9.71-7.89-5.44-1.92,.98-.22,.11,6.29,13.19,2.05-.93,.23-.11-3.96-8.49,7.75,5.35,.31-9.53,4.44,8.26,1.97-1.13,.2-.12-6.8-12.95-.23,.12Z"/>
      <path class="cls-4" d="M80.85,248.78c.03-.19,.04-.4,.04-.61,0-1.68-.93-3.72-2.68-6.11l-1.31-1.79c-.67-.92-.84-1.59-.84-2.06,0-.24,.04-.41,.1-.56,.16-.37,.51-.64,.89-.68h.2c2.14-.06,5.58,3.93,6.39,6.97v.07l.12,.34,.35-.25c.48-.28,1.05-.62,1.41-.81h.03l.19-.11-.07-.27c-1.21-4.42-5.49-8.72-8.93-8.74-.79,0-1.49,.22-2.1,.68-.7,.53-1.14,1.26-1.25,2.13-.03,.18-.04,.36-.04,.56,0,1.23,.52,2.64,1.43,3.88l1.49,2.02c1.03,1.42,2.01,2.87,2,3.96,0,.12,0,.22-.01,.34-.09,.43-.31,.77-.74,1.07-.23,.13-.47,.19-.76,.19-1.76,.04-5.23-3.51-6.86-8.68v-.07l-.1-.46-1.79,1.72-.03,.03-.12,.1,.03,.19c.33,1.35,1.22,3.48,2.71,5.51,1.56,2.13,3.35,3.62,5.08,4.18,.57,.18,1.11,.27,1.63,.27,.77,0,1.47-.19,2.01-.59,.84-.62,1.37-1.45,1.51-2.44l.03,.03Z"/>
      <path class="cls-4" d="M141.59,282.41l4.95,1.11,.45-2-4.95-1.14-.45,2.03Z"/>
      <path class="cls-4" d="M164.65,74.2c-49.02,0-88.89,40.58-88.89,90.46s39.87,90.46,88.89,90.46,88.91-40.59,88.91-90.46-39.88-90.46-88.91-90.46Z"/>
      <path class="cls-3" d="M81.72,164.66c0,13.63,3.2,26.5,8.84,37.91,36.54-27.89,58.75-67.21,62.4-121.45-40.27,5.78-71.24,40.98-71.24,83.54Z"/>
      <path class="cls-3" d="M176.34,81.12c3.66,54.24,25.85,93.56,62.4,121.45,5.65-11.41,8.84-24.28,8.84-37.91,0-42.56-30.96-77.76-71.24-83.54Z"/>
      <path class="cls-3" d="M164.65,191.57c-19.37,0-35.08,15.18-35.08,33.91,0,6.6,1.97,12.75,5.34,17.96,9.23,3.62,19.27,5.62,29.75,5.62s20.52-2,29.75-5.62c3.38-5.22,5.34-11.38,5.34-17.96,0-18.73-15.71-33.91-35.08-33.91h-.03Z"/>
      <path class="cls-3" d="M172.24,80.63c-2.5-.24-5.02-.37-7.59-.37s-5.08,.13-7.59,.37c-.58,31.95-8.24,59.28-21.2,82.43h57.6c-12.96-23.15-20.64-50.48-21.2-82.43h-.01Z"/>
      <path class="cls-3" d="M195.35,166.35h-61.4c-10.17,17.18-23.3,31.98-38.64,44.58,6.63,10.29,15.41,18.99,25.69,25.48-.38-2.24-.6-4.5-.6-6.85,0-23.25,19.81-42.11,44.26-42.11s44.26,18.85,44.26,42.11c0,2.34-.22,4.61-.6,6.85,10.28-6.49,19.05-15.2,25.69-25.48-15.35-12.61-28.49-27.4-38.64-44.58h-.03Z"/>
      <path class="cls-4" d="M167.6,235.55c-.96-.61-1.69-1.57-1.97-2.73-.12-.45-.51-.77-.98-.77s-.86,.33-.98,.77c-.26,1.14-1,2.1-1.97,2.73-.19,.11-.19,.19-.13,.33,.61,1.2,1.59,2.65,2.81,3.65,.19,.15,.22,.15,.28,.15s.09,0,.28-.15c1.22-.99,2.2-2.46,2.81-3.65,.06-.13,.04-.22-.13-.33h-.03Z"/>
      <path class="cls-4" d="M178.25,219.38c-4.3,0-8.42,3.5-10.81,9.93-.04,.1-.06,.21-.06,.32,0,.39,.31,.74,.71,.74,.29,0,.52-.16,.64-.4v-.03c1.83-4.05,5.24-5.94,7.18-5.94,1.09,0,1.97,.9,1.97,2.02s-.87,1.99-1.97,1.99h-.35c-.09-.03-.29-.07-.41,.18-.07,.18-.25,1.16,.6,2.12,.5,.56,1.51,1.05,2.48,1.05,3.25,0,5.88-2.68,5.88-5.97s-2.64-5.99-5.88-5.99v-.02Z"/>
      <path class="cls-4" d="M163.98,229.63c0,.38,.29,.68,.67,.68s.67-.3,.67-.68v-.03c.03-3.69,5.1-10.45,5.1-13.01,0-3.45-4.43-14.21-5.77-14.21s-5.77,10.76-5.77,14.21c0,2.57,5.08,9.32,5.1,13.01v.03Z"/>
      <path class="cls-4" d="M161.93,229.63c0-.12,0-.22-.06-.32-2.39-6.43-6.51-9.93-10.81-9.93-3.25,0-5.88,2.67-5.88,5.99s2.64,5.97,5.88,5.97c.96,0,1.98-.49,2.48-1.05,.84-.96,.67-1.96,.6-2.12-.12-.25-.32-.19-.41-.18-.1,0-.25,.03-.35,0-1.09,0-1.97-.87-1.97-1.99s.87-2.02,1.97-2.02c1.92,0,5.34,1.9,7.18,5.94v.04c.12,.24,.35,.4,.64,.4,.41,0,.71-.34,.71-.74h.01Z"/>
    </g>
  </g>
</svg>