<?xml version="1.0" encoding="UTF-8"?>
<svg id="a" data-name="Layer 1" xmlns="http://www.w3.org/2000/svg" xmlns:xlink="http://www.w3.org/1999/xlink" viewBox="0 0 51.34 29.75">
  <defs>
    <style>
      .c {
        fill: none;
      }

      .d, .e {
        fill: #000923;
      }

      .f {
        fill: #fff;
      }

      .e {
        fill-rule: evenodd;
      }

      .g {
        clip-path: url(#b);
      }
    </style>
    <clipPath id="b">
      <rect class="c" x=".67" y="1.34" width="50" height="26"/>
    </clipPath>
  </defs>
  <g class="g">
    <g>
      <path class="f" d="M13.58,1.53c.04,6.09-.07,12.19,.05,18.28,.32,1.7,1.72,2.89,2.86,4.06,4.01,3.62,10.22,4.54,15.07,2.16,2.46-1.18,4.68-3.06,5.95-5.52,.5-1.57,.12-3.24,.25-4.86,0-4.77,0-9.54,0-14.31H13.58v.18h0Z"/>
      <path class="f" d="M20.75,14.61c1.84,1.34,4.43,1.55,6.46,.45,2.2-1.15,3.53-3.51,3.33-6.06-.04-.37-.1-.73-.19-1.08,.62,.94,.98,2.06,.98,3.26,0,3.25-2.61,5.88-5.84,5.88-1.95,0-3.68-.97-4.74-2.45"/>
      <path class="e" d="M19.84,16.39l-3.6,2.45,.26,.38,1.62-1.1,.25,.38-1.35,.92c-.09,.06-.16,.18-.21,.27l.25,.38c.06-.11,.11-.21,.21-.28l1.2-.81c.22-.15,.25-.29,.22-.4,.11,.06,.23,.09,.4-.02l1.14-.78c.13-.09,.2-.24,.2-.38,0-.09-.02-.17-.08-.25l-.51-.75h0Zm-.12,.63l.25,.38-1.24,.84-.26-.37,1.24-.85h0Zm.89,.69l-2.75,3.41,.69,.58c.19,.16,.48,.13,.64-.07l.84-1.04c.17-.21,.16-.34,.1-.44,.12,.02,.25,.03,.38-.14l.87-1.08c.15-.18,.13-.45-.03-.61h0s-.02-.02-.03-.03l-.7-.58h0Zm.06,.65l.35,.29-.95,1.17-.35-.29,.95-1.17Zm-1.23,1.52l.35,.29-.95,1.18-.35-.29,.95-1.18Zm12.28-2.25c-.31-.2-.4-.63-.2-.94,.2-.31,.62-.4,.93-.2l.41,.27-.25,.38-.57-.37-.25,.38,2.88,1.89,.25-.38-1.25-.82-.11,.16-.38-.25,.35-.54,1.47,.97c.31,.2,.4,.63,.2,.94-.2,.31-.62,.4-.93,.2l-2.56-1.68h0Zm2.16,3.13l-.31,.33-3.12-3.03,.31-.33,3.12,3.03Zm-2.27,1.23l-.45-.78,.39-.23,.68,1.17-1.16,.68-.23-.39-.97-3.44-.38,.22,.45,.78-.39,.23-.68-1.17,1.16-.68,.23,.39,.97,3.44,.38-.22Zm-4.33-2.39l.87-.22c.24-.06,.48,.09,.54,.33l.36,1.46c.06,.24-.08,.49-.33,.55l-.44,.11,.47,1.9-.44,.11-1.06-4.24h0Zm.91,1.79l.44-.11-.36-1.46-.44,.11,.36,1.46Zm-1.21,2.7l-.45,.03-.28-4.36,.45-.03,.28,4.36Zm-1.44-3.83l-.9-.07-.12,1.5,.67,.05-.03,.45-.67-.05-.12,1.5,.9,.07-.04,.45-.9-.07c-.25-.02-.43-.24-.41-.49l.27-3.45c.02-.25,.23-.44,.48-.42l.9,.07-.04,.45h0Zm-2.13-.99l-1.27,3.7,.42,.15,.29-.86,.42,.15-.44,1.28-1.27-.44,1.42-4.13,.43,.15Zm.38-6.61c-1.37-.33-2.3-.66-2.3-.66-.15-1.42-.02-2.65-.02-2.65,.59-.31,2.19-1.03,2.19-1.03,.76,.87,1.49,2.04,1.49,2.04-.35,.69-1.36,2.31-1.36,2.31m-2.25-5.78c-.14,.22-.54,.9-.9,1.71-.34,.43-.64,.87-.77,1.06,.29-1.08,.88-2.03,1.67-2.77m6.13,3.42s.51-1.07,1.13-1.94c0,0,1.18,.56,1.74,1.02,0,0,.21,.64,.07,2.52,0,0-.71,.41-1.73,.66,0,0-.7-1.18-1.2-2.26m-2.65,4.41l2.52-.07,.49,1.39c-.96,.57-2.1,.87-2.1,.87-1.2-.26-1.9-.79-1.9-.79l.99-1.4Zm.49-9.39c.77,0,1.5,.15,2.18,.42-.02,.11-.11,.42-.34,.81-1.22-.16-2.57-.04-2.57-.04l-1.13-.9c.58-.2,1.21-.3,1.86-.3m-3.74,10.39c-.97-.81-1.67-1.94-1.96-3.22,.31,.33,.92,.95,.92,.95,.36,.76,1.27,2.07,1.27,2.07-.07,.07-.17,.15-.23,.19M25.69,1.89H14.14v6.77l1.18-.57V3.08h20.73v5.01l1.18,.57V1.89h-11.55Zm11.2,6.5s-.1-.05-.15-.07V2.4H14.64v5.92l-.15,.07c0-3.14,0-3.31,0-6.14h22.4c0,3.07,0,3.08,0,6.14h0Zm-.83,10.51c-.03,.64-.2,1-.49,1.45-2.19,3.17-5.77,5.25-9.88,5.25s-7.69-2.07-9.88-5.25c-.29-.45-.45-.81-.49-1.45v-3.8s-1.18,0-1.18,0v3.54c0,1.35,.15,1.67,.47,2.21,2.41,3.59,6.45,5.94,11.08,5.94s8.66-2.36,11.08-5.94c.32-.55,.47-.87,.47-2.21v-3.54h-1.18v3.8Zm.68-.64v-3.02h.15v3.16c0,.79-.01,1.58-.43,2.2-.54,.82-1.21,1.63-1.95,2.32-2.47,2.27-5.44,3.48-8.82,3.5-3.38-.02-6.34-1.23-8.82-3.5-.74-.7-1.42-1.5-1.95-2.32-.42-.62-.42-1.41-.43-2.2v-3.1l.16-.05v2.96c.02,.8-.04,1.69,.4,2.31,.57,.88,1.28,1.71,2.09,2.44,2.42,2.13,5.27,3.28,8.55,3.3,3.28-.02,6.13-1.17,8.55-3.3,.81-.74,1.52-1.57,2.09-2.44,.44-.63,.38-1.47,.41-2.27h0Z"/>
      <path class="f" d="M33.23,7.18c-.46,0-.88,.29-1.17,.58-.46,.06-.72,.51-1.1,.72-.72,.63-1.56,1.37-1.69,2.38,.05,.19,.1,.28-.1,.38-.24,.41-.42,.87-.78,1.18-.16,.42-.88,.49-.78,1,.02,.24,.46,.23,.31,.51,.52,.38,1.19,.03,1.6-.33,.48-.04,.92,.37,1.41,.44,.34,.03,.66,.18,1,.16,.2-.05,.34-.34,.39,0,.16,.52,.69,.82,1.21,.82,.6,.31,1.46,.75,2.03,.16,.09-.43,.62-.05,.95-.16,.47-.01,.62-.66,.17-.85-.28-.16-.69-.12-.93-.26,.19-.26-.01-.64-.14-.78,.18-.1,.28-.3,.5-.11,0,.62,.8,.57,1.22,.62,.22-.01-.18,.35,.08,.41,1.13,.92,2.69,1.24,4.1,1.01,.14-.05,.24-.33,.35-.08,.3,.33,.78,.51,1.2,.46,.2,.48,.92,.91,1.27,.35,.07-.18,.05-.28,.24-.14,.38,.2,.95-.11,.77-.57,.05-.42-.33-.77-.71-.81-.22-.24-.58-.15-.83-.18-.22-.23-.85-.04-.72-.51-.65-.09-1.36-.2-1.94-.37,.08-.11,.38,.08,.56,.02,.3,.07,.81-.22,.48-.52-.3-.27-.93-.27-1.13-.37,2.97,.45,5.89,1.22,8.8,1.95,.28,0,.92,.13,.82-.33-1.18-.78-2.64-.94-3.96-1.39-1.72-.48-3.53-.91-5.22-1.33,.38-.33,.05-.96-.04-1.26,.59,.26,1.56,.34,1.83-.4,.13-.42-.2-.86-.57-.97,0-.49-.53-.67-.92-.76-.36-.17-.9-.2-1.12,.2,.2,.32-.36,.15-.53,.26-.57,.06-1.12,.79-.64,1.28,.18,.23,.49,.49,.59,.69-.27-.02-.6,.05-.72,.31-.26-.07-.54-.14-.8-.23,.24-.4-.05-.94-.51-.98-1.53-.68-2.95-1.68-4.56-2.16-.09-.02-.19-.02-.29-.01h0Zm7.06,4.95c.2,0,.75,.19,.23,.06-.07-.01-.19-.04-.23-.06Zm-7.97,.27c.23-.05,.3,.2,.15,.29-.03-.1-.14-.23-.15-.29Zm2.69,.7c.1,.02-.07,.05,0,0h0Z"/>
      <path class="d" d="M44.73,14.64c.28,.08,.2,.4,.26,.63-.01,.02-.03,.05-.06,.04-.1-.04-.27-.01-.35-.11-.03-.12-.08-.2-.09-.33,.03-.1,.13-.22,.24-.23h0Z"/>
      <path class="d" d="M42.14,9.75c-.34-.06-.65-.19-.98-.28-.13-.07-.32-.05-.46-.04-.15,.06,.24,.41,.3,.5,.07,.09,.19,.36,.2,.47,.17,.34,.13,.7-.32,.64-.2,.06-.38-.02-.55-.03-.16-.06-.57-.15-.62-.32,.04-.13,.89,.01,1.05-.09,.08-.05-.37-.51-.4-.56-.11-.27-.63-.6-.69-.84-.13-.52,.83-.59,1.16-.66,.07-.01,.38-.09,.32-.21,0-.01-.09-.04-.13-.09v-.12c.15-.07,.59-.03,.71,.13,.04,.01,.44,.08,.46,.12,.2,.16,.12,.44-.03,.48-.22,.32-.27,.25,.25,.32,.13-.06-.07-.15,.08-.18,.16,0,.29,.03,.37,.16,.05,.11,.04,.33-.04,.43-.13,.19-.5,.23-.72,.19h0Z"/>
      <path class="d" d="M43.99,14.44c.02-.06,.38,0,.4,.08,.03,.11-.31,.15-.4-.08Z"/>
      <path class="d" d="M35.19,13.86c-.1,.01-.11-.11-.2-.13-.16,.12-.15,.33-.32,.45-.09,.01-.21-.04-.31-.06-.07-.04-.13-.1-.13-.17,.03-.13,.11-.25,.14-.39,.07-.22,.33-.07,.49-.07,.18,.04,.33-.03,.48-.06,.04,0,.07,.04,.1,.07,.03,.07,.02,.14,0,.2-.05,.09-.15,.15-.25,.17h0Z"/>
      <path class="f" d="M18.11,7.18c.46,0,.88,.29,1.17,.58,.46,.06,.72,.51,1.1,.72,.72,.63,1.56,1.37,1.69,2.38-.05,.19-.1,.28,.1,.38,.24,.41,.42,.87,.78,1.18,.16,.42,.88,.49,.78,1-.02,.24-.46,.23-.31,.51-.52,.38-1.19,.03-1.6-.33-.48-.04-.92,.37-1.41,.44-.34,.03-.66,.18-1,.16-.2-.05-.34-.34-.39,0-.16,.52-.69,.82-1.21,.82-.6,.31-1.46,.75-2.03,.16-.09-.43-.62-.05-.95-.16-.47-.01-.62-.66-.17-.85,.28-.16,.69-.12,.93-.26-.19-.26,.01-.64,.14-.78-.18-.1-.28-.3-.5-.11,0,.62-.8,.57-1.22,.62-.22-.01,.18,.35-.08,.41-1.13,.92-2.69,1.24-4.1,1.01-.14-.05-.24-.33-.35-.08-.3,.33-.78,.51-1.2,.46-.2,.48-.92,.91-1.27,.35-.07-.18-.05-.28-.24-.14-.38,.2-.95-.11-.77-.57-.05-.42,.33-.77,.71-.81,.22-.24,.58-.15,.83-.18,.22-.23,.85-.04,.72-.51,.65-.09,1.36-.2,1.94-.37-.08-.11-.38,.08-.56,.02-.3,.07-.81-.22-.48-.52,.3-.27,.93-.27,1.13-.37-2.97,.45-5.89,1.22-8.8,1.95-.28,0-.92,.13-.82-.33,1.18-.78,2.64-.94,3.96-1.39,1.72-.48,3.53-.91,5.22-1.33-.38-.33-.05-.96,.04-1.26-.59,.26-1.56,.34-1.83-.4-.13-.42,.2-.86,.57-.97,0-.49,.53-.67,.92-.76,.36-.17,.9-.2,1.12,.2-.2,.32,.36,.15,.53,.26,.57,.06,1.12,.79,.64,1.28-.18,.23-.49,.49-.59,.69,.27-.02,.6,.05,.71,.31,.26-.07,.54-.14,.8-.23-.24-.4,.05-.94,.51-.98,1.53-.68,2.95-1.68,4.56-2.16,.09-.02,.19-.02,.29-.01h0Zm-7.06,4.95c-.2,0-.75,.19-.23,.06,.07-.01,.19-.04,.23-.06Zm7.97,.27c-.23-.05-.3,.2-.15,.29,.03-.1,.14-.23,.15-.29Zm-2.69,.7c-.1,.02,.07,.05,0,0h0Z"/>
      <path class="d" d="M6.6,14.64c-.28,.08-.2,.4-.26,.63,.01,.02,.03,.05,.06,.04,.1-.04,.27-.01,.35-.11,.03-.12,.08-.2,.09-.33-.03-.1-.13-.22-.24-.23h0Z"/>
      <path class="d" d="M9.19,9.75c.34-.06,.65-.19,.98-.28,.13-.07,.32-.05,.46-.04,.15,.06-.24,.41-.3,.5-.07,.09-.19,.36-.2,.47-.17,.34-.13,.7,.32,.64,.2,.06,.38-.02,.55-.03,.16-.06,.57-.15,.62-.32-.04-.13-.89,.01-1.05-.09-.08-.05,.37-.51,.4-.56,.11-.27,.63-.6,.69-.84,.13-.52-.83-.59-1.16-.66-.07-.01-.38-.09-.32-.21,0-.01,.09-.04,.13-.09v-.12c-.15-.07-.59-.03-.71,.13-.04,.01-.44,.08-.46,.12-.2,.16-.12,.44,.03,.48,.22,.32,.27,.25-.25,.32-.13-.06,.07-.15-.08-.18-.16,0-.29,.03-.37,.16-.05,.11-.04,.33,.04,.43,.13,.19,.5,.23,.72,.19h0Z"/>
      <path class="d" d="M7.35,14.44c-.02-.06-.38,0-.4,.08-.03,.11,.31,.15,.4-.08Z"/>
      <path class="d" d="M23.15,13.15c-.25-.17-.39-.45-.59-.67-.07-.08-.18-.14-.24-.22-.04-.05-.33-.66-.37-.76l-.06-.03c-.51,.03-1.02,.03-1.54,.05-.22,0-.51,.05-.73,.02-.03,0-.04-.03-.03-.06,.48-.17,1.37,.1,1.7-.35,.04-.06,.04-.17,.12-.19,.09,.04,.18,.09,.28,.06l.04-.06c-.08-.32-.16-.66-.37-.92-.33-.42-1.13-1.3-1.59-1.53-.2-.1-.46-.47-.54-.34,0,.04-.02,.08-.05,.12-.2,.04-.19-.34-.46-.5-.27-.16-.62-.25-.93-.18-.38,.08-.77,.29-1.12,.46-.76,.39-1.52,.78-2.29,1.16-.36,.18-.72,.38-1.1,.54-.09,.04-.21,.05-.25,.16-.05,.14,.06,.34,.18,.42,.24,.16,.6-.04,.82-.13l.04,.02c-.17,.21-.35,.22-.59,.27-.19,.04-.38,.14-.57,.19-.26,.07-.51,.15-.76,.24-.11,.03-.28,.06-.25,.22-.04,.09-.13,.07-.21,.09-.83,.15-1.67,.36-2.5,.54-.52,.11-1.03,.24-1.54,.37-1.71,.45-3.42,.88-5.11,1.4-.17,.05-1.05,.31-1.12,.38,.11,.02,2.77-.71,3.17-.8,2.49-.61,5.01-1.06,7.53-1.5,2.39-.42,4.81-.74,7.22-1.05,.42-.05,.84-.12,1.26-.15,.27-.02,.31,.07,.5,.24,0,.12-.5,.09-.61,.1-.02-.01-.02-.04,0-.06,.08-.04,.16-.08,.22-.15l-.03-.06c-.88,.08-1.76,.24-2.63,.37-1.33,.21-2.67,.41-3.99,.65-.89,.16-1.77,.39-2.65,.56v.04c1.6-.17,3.19-.56,4.79-.79v.04c-.38,.12-.78,.18-1.18,.28-1.81,.43-3.64,.8-5.45,1.23,.32-.05,.64-.09,.96-.13,.12,.08-.03,.21,.03,.36,.11,.26,.32,.01,.34,.15,0,.05-.06,.22-.11,.26-.73,.09-1.45,.3-2.18,.39v.06s.44,.01,.44,.01l.05,.04c0,.11-.16,.07-.24,.09-.26,.05-.51,.11-.77,.16-.57,.11-.49,.55-.89,.65-.04,.01-.07,.04-.1,.07,0,.16,.21-.07,.27,.08-.04,.16-.13,.32-.07,.49,.02,.06,.06,.13,.13,.15,.34,.1,.48-.52,.69-.64,.18-.1,.39,.12,.62,0,.13-.07,.26-.14,.38-.22,.14-.08,.31-.4,.51-.36,.15,.03,.21,.27,.46,.29,.41,.03,.84,.05,1.24-.01,.66-.09,1.78-.42,2.27-.89-.06-.19-.62-.02-.76,0,.13-.27-.04-.39,.09-.45l.57-.06c.17-.01,.34-.06,.51-.08,.17-.02,.36,0,.53-.03,.11-.02,.28-.05,.33-.15-.01-.08-.08-.19-.02-.27,.07-.1,.27-.12,.38-.16,.15-.06,.27-.17,.42-.21,.17,.05,.02,.33,.23,.38,.19,.05,.65-.19,.77-.04,0,.08-.06,.21,.02,.27,.12,.1,.28,.12,.4,.25,.16,.16,.38,.48,.31,.72-.07,.26-.67,.54-.89,.4-.15-.09-.13-.31-.34-.24-.24,.08-.49,.09-.74,.16-.2,.06-.48,.1-.66,.19-.03,.01-.08,.06-.04,.09,.09,.1,1,0,1.18-.03,.08,0,.16-.01,.21,.06,.11,.13-.14,.16-.07,.28,.1,.16,.37,.22,.54,.18,.31-.08,.64-.21,.94-.34,.09-.04,.2-.11,.29-.14,.23-.08,.49,.05,.65-.22,.14-.24,.34-.51,.34-.8,0-.24-.15-.38-.23-.59-.03-.07-.18-.45-.18-.5,0-.04,.16-.4,.19-.4l1.02-.13s.08,.04,.08,.06c.04,.21-.27,.45-.38,.59-.04,.05-.13,.2-.1,.27,.04,.12,.2-.06,.23,.07,.01,.09-.2,.24-.18,.42,.02,.14,.03,.36,.18,.43,.24,.12,.27-.09,.38-.09,.05,0,.11,.03,.16,.03,.15,0,.3-.05,.44-.09,.29-.08,1.16-.49,1.4-.46,.27,.04,.43,.51,1.26,.54l.04-.07c-.29-.28-.49-.09-.79-.7-.08-.16-.22-.34-.34-.47,0-.03,0-.06,.03-.06,.51,.18,.58,.98,1.34,.92l.04-.04c-.03-.09-.18-.11-.26-.17h0Zm-6.66-3.97c.06-.07,.14-.12,.22-.17,.1,.01,.16,.03,.26,0,.23-.08,1.14-.32,1.34-.28,.01,.06-.08,.07-.13,.08-.54,.15-1.12,.28-1.67,.39l-.02-.02Zm3.64,.58c-1.05,.15-3.23,.47-3.23,.47l.15-.07,3.14-.52s.07,0,.09,.02c.02,.08-.11,.09-.16,.1h0Zm-7.76,4.28l-1.07,.28s-.06,0-.08-.04c0-.04,.05-.11,.1-.12,.27-.08,.54-.1,.81-.15,.16-.03,.23-.03,.36-.04l-.12,.08h0Zm5.76,.18s-.06-.02-.07-.05c.06-.23,.19-.55,.01-.79l-.25-.55c.02-.08,.1-.09,.17-.11,.05,0,.1,.04,.11,.09l.3,.7c.07,.28-.09,.53-.27,.7h0Zm2.8-1.18c-.09,.01-.2,.04-.27-.01-.04-.08,.02-.16,.06-.23,.08-.1,.2-.13,.32-.13,.03,.02,.04,.05,.04,.08-.01,.11-.04,.23-.14,.29h0Z"/>
      <path class="d" d="M16.15,13.86c.1,.01,.11-.11,.2-.13,.16,.12,.15,.33,.32,.45,.09,.02,.21-.04,.31-.06,.07-.04,.13-.1,.13-.17-.03-.13-.11-.25-.14-.39-.07-.22-.33-.07-.49-.07-.18,.04-.33-.03-.48-.06-.04,0-.07,.04-.1,.07-.03,.07-.02,.14,0,.21,.05,.09,.15,.15,.25,.17h0Z"/>
      <path class="d" d="M28.19,13.15c.25-.17,.39-.45,.59-.67,.07-.08,.18-.14,.24-.22,.04-.05,.33-.66,.37-.76l.06-.03c.51,.03,1.02,.03,1.54,.05,.22,0,.51,.05,.73,.02,.03,0,.04-.03,.03-.06-.48-.17-1.37,.1-1.7-.35-.04-.06-.04-.17-.12-.19-.09,.04-.18,.09-.28,.06l-.04-.06c.08-.32,.16-.66,.37-.92,.33-.42,1.13-1.3,1.59-1.53,.2-.1,.46-.47,.54-.34,0,.04,.02,.08,.05,.12,.2,.04,.19-.34,.46-.5,.27-.16,.62-.25,.93-.18,.38,.08,.77,.29,1.12,.46,.76,.39,1.52,.78,2.29,1.16,.36,.18,.72,.38,1.1,.54,.09,.04,.21,.05,.25,.16,.05,.14-.06,.34-.18,.42-.24,.16-.6-.04-.82-.13l-.04,.02c.17,.21,.35,.22,.59,.27,.19,.04,.38,.14,.57,.19,.26,.07,.51,.15,.76,.24,.11,.03,.28,.06,.25,.22,.04,.09,.13,.07,.21,.09,.83,.15,1.67,.36,2.5,.54,.52,.11,1.03,.24,1.54,.37,1.71,.45,3.42,.88,5.11,1.4,.17,.05,1.05,.31,1.12,.38-.11,.02-2.77-.71-3.17-.8-2.49-.61-5.01-1.06-7.53-1.5-2.39-.42-4.81-.74-7.22-1.05-.42-.05-.84-.12-1.26-.15-.27-.02-.32,.07-.5,.24,0,.12,.5,.09,.61,.1,.02-.01,.02-.04,0-.06-.08-.04-.16-.08-.22-.15l.03-.06c.88,.08,1.76,.24,2.63,.37,1.33,.21,2.67,.41,3.99,.65,.89,.16,1.77,.39,2.65,.56v.04c-1.6-.17-3.19-.56-4.79-.79v.04c.38,.12,.78,.18,1.18,.28,1.81,.43,3.64,.8,5.45,1.23-.32-.05-.64-.09-.96-.13-.12,.08,.03,.21-.03,.36-.11,.26-.32,.01-.34,.15,0,.05,.06,.22,.11,.26,.73,.09,1.45,.3,2.18,.39v.06s-.44,.01-.44,.01l-.05,.04c0,.11,.16,.07,.24,.09,.26,.05,.51,.11,.77,.16,.57,.11,.49,.55,.89,.65,.04,.01,.07,.04,.1,.07,0,.16-.21-.07-.27,.08,.04,.16,.13,.32,.07,.49-.02,.06-.06,.13-.13,.15-.34,.1-.48-.52-.69-.64-.18-.1-.39,.12-.62,0-.13-.07-.26-.14-.38-.22-.14-.08-.31-.4-.51-.36-.15,.03-.21,.27-.46,.29-.41,.03-.84,.05-1.24-.01-.66-.09-1.78-.42-2.27-.89,.06-.19,.62-.02,.76,0-.13-.27,.04-.39-.09-.45l-.57-.06c-.17-.01-.34-.06-.51-.08-.17-.02-.36,0-.53-.03-.11-.02-.28-.05-.33-.15,.01-.08,.08-.19,.02-.27-.07-.1-.27-.12-.38-.16-.15-.06-.27-.17-.42-.21-.17,.05-.02,.33-.23,.38-.19,.05-.65-.19-.77-.04,0,.08,.06,.21-.02,.27-.12,.1-.28,.12-.4,.25-.16,.16-.38,.48-.31,.72,.07,.26,.67,.54,.89,.4,.15-.09,.13-.31,.34-.24,.24,.08,.49,.09,.74,.16,.2,.06,.48,.1,.66,.19,.03,.01,.08,.06,.04,.09-.09,.1-1,0-1.18-.03-.08,0-.16-.01-.21,.06-.11,.13,.14,.16,.07,.28-.1,.16-.37,.22-.54,.18-.31-.08-.64-.21-.94-.34-.09-.04-.2-.11-.29-.14-.23-.08-.49,.05-.65-.22-.14-.24-.34-.51-.34-.8,0-.24,.15-.38,.23-.59,.03-.07,.18-.45,.18-.5,0-.04-.16-.4-.19-.4l-1.02-.13s-.08,.04-.08,.06c-.04,.21,.27,.45,.38,.59,.04,.05,.13,.2,.1,.27-.04,.12-.2-.06-.23,.07-.01,.09,.2,.24,.18,.42-.02,.14-.03,.36-.18,.43-.24,.12-.27-.09-.38-.09-.05,0-.11,.03-.16,.03-.15,0-.3-.05-.44-.09-.29-.08-1.16-.49-1.4-.46-.27,.04-.43,.51-1.26,.54l-.04-.07c.29-.28,.49-.09,.79-.7,.08-.16,.22-.34,.34-.47,0-.03,0-.06-.03-.06-.51,.18-.58,.98-1.34,.92l-.04-.04c.03-.09,.18-.11,.26-.17h0Zm6.66-3.97c-.06-.07-.14-.12-.22-.17-.1,.01-.16,.03-.26,0-.23-.08-1.14-.32-1.34-.28-.01,.06,.08,.07,.13,.08,.54,.15,1.12,.28,1.67,.39l.02-.02Zm-3.64,.58c1.05,.15,3.23,.47,3.23,.47l-.15-.07-3.14-.52s-.07,0-.09,.02c-.02,.08,.11,.09,.16,.1h0Zm7.76,4.28l1.07,.28s.06,0,.08-.04c0-.04-.05-.11-.1-.12-.27-.08-.54-.1-.81-.15-.16-.03-.23-.03-.36-.04l.12,.08h0Zm-5.76,.18s.06-.02,.07-.05c-.06-.23-.19-.55-.01-.79l.25-.55c-.02-.08-.1-.09-.17-.11-.05,0-.1,.04-.11,.09l-.3,.7c-.07,.28,.09,.53,.27,.7h0Zm-2.8-1.18c.09,.01,.2,.04,.27-.01,.04-.08-.02-.16-.06-.23-.08-.1-.2-.13-.32-.13-.03,.02-.04,.05-.04,.08,.01,.11,.04,.23,.14,.29h0Z"/>
    </g>
  </g>
</svg>