<?xml version="1.0" encoding="UTF-8"?>
<svg id="a" data-name="Layer 1" xmlns="http://www.w3.org/2000/svg" xmlns:xlink="http://www.w3.org/1999/xlink" viewBox="0 0 480.36 666.72">
  <defs>
    <style>
      .d {
        fill: none;
      }

      .e {
        fill: #fff;
      }

      .f {
        fill: #000923;
      }

      .g {
        clip-path: url(#b);
      }
    </style>
    <clipPath id="b">
      <rect class="d" x="2.42" y="6.45" width="475.51" height="653.83"/>
    </clipPath>
  </defs>
  <g class="g">
    <g>
      <path class="f" d="M397.08,159.65c1.39-2.07,2.24-4.34,2.24-6.64,0-.65-.06-1.3-.18-1.94-.46-2.58-1.88-4.78-3.96-6.34,.7-1.46,1.15-3.04,1.15-4.67,0-4.55-2.87-8.6-7.06-10.25,1.85-2.01,2.92-4.58,2.92-7.35,0-5.22-3.65-9.57-8.67-10.71,.72-1.48,1.2-3.06,1.2-4.73,0-6.09-5.03-11.04-11.21-11.04-.36,0-.72,.11-1.08,.14,.26-.93,.43-1.87,.43-2.84,0-6.09-5.03-11.04-11.21-11.04-1.15,0-2.28,.24-3.38,.58-.02-6.08-5.04-11.01-11.21-11.01-1.86,0-3.61,.56-5.23,1.42-1.57-4.35-5.68-7.46-10.44-7.46-3.4,0-6.5,1.56-8.63,4.13-2.03-1.77-4.63-2.81-7.37-2.81,0,0-.45,.05-.78,.09,.17-.77,.28-1.55,.28-2.34,0-6.09-5.03-11.04-11.21-11.04-1.43,0-2.8,.37-4.13,.89-.03-2.91-1.18-5.64-3.27-7.7-2.12-2.09-4.93-3.23-7.93-3.23-1.96,0-3.8,.62-5.5,1.58-1.57-4.32-5.67-7.4-10.42-7.4-2.56,0-4.95,.88-6.93,2.42-2.03-3.17-5.53-5.23-9.39-5.23-1,0-1.97,.22-2.94,.49-1.84-1.92-4.08-3.47-6.59-4.42,0,0-.59-.19-1.13-.36v-5.74h6.54c.6,0,1.09-.48,1.09-1.07v-7.64c0-.59-.49-1.07-1.09-1.07h-6.54v-5.7c0-.59-.49-1.07-1.09-1.07h-8.17c-.6,0-1.09,.48-1.09,1.07v5.7h-6.54c-.6,0-1.09,.48-1.09,1.07v7.64c0,.59,.49,1.07,1.09,1.07h6.54v5.74c-.55,.17-1.12,.36-1.12,.36-2.52,.95-4.75,2.5-6.6,4.42-.97-.26-1.95-.49-2.94-.49-3.86,0-7.36,2.06-9.39,5.23-1.97-1.54-4.37-2.42-6.93-2.42-4.74,0-8.84,3.08-10.42,7.4-1.69-.96-3.53-1.58-5.5-1.58-6.14,0-11.13,4.89-11.2,10.93-1.33-.53-2.71-.89-4.13-.89-6.18,0-11.21,4.96-11.21,11.04,0,.79,.11,1.57,.29,2.34-.34-.04-.79-.09-.79-.09-2.73,0-5.33,1.04-7.36,2.81-2.12-2.57-5.22-4.13-8.62-4.13-4.78,0-8.89,3.11-10.44,7.46-1.63-.86-3.38-1.42-5.24-1.42-6.17,0-11.18,4.94-11.2,11.01-1.09-.35-2.21-.58-3.37-.58-6.18,0-11.21,4.95-11.21,11.04,0,.97,.17,1.91,.42,2.84-.36-.03-.72-.14-1.07-.14-6.18,0-11.21,4.95-11.21,11.04,0,1.67,.49,3.25,1.21,4.73-5.03,1.14-8.67,5.49-8.67,10.71,0,2.76,1.07,5.33,2.92,7.35-4.18,1.65-7.05,5.7-7.05,10.25,0,1.63,.44,3.2,1.14,4.66-2.07,1.56-3.49,3.76-3.95,6.34-.12,.64-.17,1.29-.17,1.94,0,2.31,.84,4.57,2.24,6.64-1.49,1.52-2.31,3.43-2.31,5.64,0,.06,0,.11,0,.17,.08,4.31,3.01,8.51,5.7,10.58,5.05,3.89,10.56,4.42,15.26,1.67,4.42,3.11,9.95,4.24,15.23,3.15-.05,.33-.23,.65-.23,.98,0,.97,.22,1.95,.65,2.86,.79,1.66,2.15,2.91,3.84,3.52,1.05,.38,2.17,.44,3.26,.26-.11,.18-.2,.37-.28,.57-.32,.89-.26,1.92,.18,2.83,.41,.86,1.13,1.51,2.03,1.83,.24,.09,.48,.12,.73,.14l-1.57,6.33c-.08,.32,.07,.64,.36,.8l6.45,3.54c-.55,.69-.87,1.54-.87,2.43,0,.55,.12,1.11,.36,1.64,.98,2.03,3.17,2.89,5.11,2,32.17-14.95,66.77-22.53,102.85-22.53s70.69,7.58,102.86,22.53c1.95,.9,4.15,.04,5.11-1.99,.25-.53,.38-1.1,.38-1.65,0-.88-.32-1.73-.88-2.42l6.45-3.54c.29-.16,.43-.49,.36-.8l-1.57-6.36c1.17-.14,2.24-.81,2.77-1.94,.25-.53,.38-1.09,.38-1.65,0-.41-.07-.8-.21-1.18-.1-.27-.25-.52-.41-.75,2.92,.49,5.92-.85,7.24-3.62,.43-.9,.65-1.87,.65-2.84,0-.34-.18-.66-.23-1,5.29,1.09,10.81-.04,15.24-3.15,4.7,2.75,10.2,2.22,15.25-1.67,2.69-2.07,5.62-6.27,5.7-10.58v-.17c0-2.21-.82-4.12-2.31-5.64Zm-255.09-48.4c0,.25,.04,.49,.06,.73-5.45,1.19-11.67,2.79-16.72,4.75-3.6,1.4-6.59,3.14-9.02,4.91,5.47-11.47,14.73-19.54,29.91-27.31,.16,2.5,1.15,4.82,2.84,6.66-4.19,1.65-7.07,5.7-7.07,10.26Zm89.92-37.04c-.98,1.55-1.54,3.3-1.54,5.13s.56,3.58,1.54,5.13v4.78c-17.84-2.53-40.69-.84-58.52,8.26,8.52-21,28.26-37.63,56.99-36,0,1.82,.56,3.56,1.53,5.1v7.6Zm16.8,15.04v-4.78c.97-1.55,1.54-3.3,1.54-5.13s-.56-3.58-1.54-5.13v-7.6c.97-1.54,1.53-3.27,1.53-5.1,28.73-1.63,48.47,15,56.99,36-17.83-9.11-40.68-10.8-58.52-8.26Zm106.58,27.48c-5.06-1.96-11.27-3.56-16.71-4.75,.02-.24,.06-.48,.06-.73,0-4.56-2.88-8.61-7.07-10.26,1.69-1.84,2.68-4.16,2.84-6.67,15.17,7.78,24.44,15.85,29.9,27.32-2.44-1.77-5.43-3.51-9.02-4.91Z"/>
      <path class="f" d="M367.65,170.83c-1.64,.09-3.28-.19-4.75-.99-2.85-1.55-4.59-4.48-4.59-7.64,0-.2,.02-.4,.03-.61,1.04-1.25,1.82-2.66,2.24-4.24,.24-.92,.37-1.86,.37-2.79,0-1.95-.53-3.88-1.57-5.61-1.53-2.56-3.99-4.37-6.91-5.11-6-1.53-12.16,2.06-13.71,7.98,0,.01-.18,1.2-.27,1.86-2.18,2.71-5.73,3.91-9.13,3.05-3.8-.96-6.38-4.23-6.56-8,8.04,1.54,12.96-1.42,14.97-9.11,.42-1.6,.63-3.08,.63-4.44,0-4.15-2.02-7.18-5.95-9.26,0-.13,.02-.26,.02-.38,0-1.56-.32-2.94-.81-4.22,3.44-1.41,5.98-4.38,6.73-7.92,5.36,1.18,11.43,2.75,16.37,4.66,4.6,1.78,8.17,4.18,10.82,6.41,2.74,6.79,4.34,14.73,5.15,24.4-2.76,1.17-4.99,3.76-6.59,7.88-.8,2.08-1.2,3.99-1.2,5.72,0,3.41,1.62,6.14,4.72,8.33Z"/>
      <path class="f" d="M303.87,143.96c-2.02,3.2-5.84,4.85-9.64,3.89-3.77-.95-6.45-4.27-6.61-8.1,.85-1.58,1.34-3.33,1.34-5.13,0-6.12-5.05-11.1-11.26-11.1s-11.27,4.98-11.27,11.1c0,.92,.18,1.82,.41,2.7-1.19,3.63-4.54,6.07-8.41,6.07s-7.17-2.56-8.3-6.15c8.11-.5,12.12-4.57,12.12-12.48,0-6.73-2.87-10.65-8.7-12.02-.96-4.01-3.36-6.64-7.08-7.92,2.33-1.83,3.78-4.6,3.78-7.62,0-1.84-.56-3.59-1.54-5.13v-1.37c18.1-2.61,41.51-.84,59.3,8.84,1.77,4.81,2.96,9.82,3.54,14.87-2.01,.99-3.65,2.63-4.87,4.92-5.98-.1-9.73,3.02-11.43,9.53-.42,1.59-.63,3.07-.63,4.43,0,5.2,3.08,8.69,9.24,10.65Z"/>
      <path class="f" d="M234.15,104.83c-3.73,1.28-6.12,3.91-7.08,7.92-5.83,1.37-8.7,5.29-8.7,12.02,0,7.91,4.01,11.97,12.13,12.48-1.14,3.59-4.39,6.15-8.31,6.15s-7.24-2.5-8.4-6.07c.23-.89,.4-1.79,.4-2.7,0-2.97-1.17-5.75-3.3-7.85-2.13-2.1-4.96-3.25-7.97-3.25-6.21,0-11.27,4.98-11.27,11.1,0,1.78,.49,3.53,1.35,5.13-.15,3.82-2.84,7.14-6.61,8.1-3.8,.97-7.62-.69-9.63-3.89,6.16-1.96,9.24-5.46,9.24-10.66,0-1.36-.21-2.84-.62-4.43-1.7-6.51-5.45-9.63-11.43-9.53-1.22-2.29-2.86-3.93-4.88-4.92,.58-5.05,1.78-10.06,3.54-14.87,17.79-9.67,41.21-11.45,59.31-8.84v1.37c-.98,1.55-1.54,3.3-1.54,5.13,0,3.02,1.45,5.79,3.78,7.62Z"/>
      <path class="f" d="M148.18,125.94c-3.93,2.08-5.94,5.1-5.94,9.25,0,1.36,.21,2.84,.63,4.44,2,7.69,6.92,10.66,14.96,9.11-.18,3.76-2.75,7.03-6.57,8-3.41,.86-6.96-.35-9.13-3.05-.08-.58-.27-1.84-.27-1.84-1.56-5.94-7.71-9.52-13.72-7.99-2.92,.74-5.36,2.55-6.9,5.1-1.04,1.73-1.57,3.66-1.57,5.62,0,.93,.12,1.86,.36,2.78,.41,1.58,1.19,2.99,2.24,4.24,.01,.2,.03,.4,.03,.6,0,3.16-1.74,6.1-4.58,7.65-1.46,.79-3.11,1.08-4.75,.99,3.1-2.18,4.72-4.92,4.72-8.32,0-1.74-.4-3.65-1.21-5.73-1.59-4.12-3.83-6.71-6.59-7.88,.81-9.67,2.4-17.61,5.15-24.4,2.65-2.23,6.23-4.64,10.82-6.42,4.93-1.91,11.01-3.48,16.38-4.66,.76,3.54,3.29,6.51,6.73,7.92-.49,1.28-.81,2.67-.81,4.22,0,.12,.01,.25,.01,.38Z"/>
      <path class="f" d="M337.27,166.69c2.26-.59,4.39-1.53,6.32-2.81,1.02,.65,2.1,1.17,3.28,1.47,0,0,.36,.06,.71,.13,.51,2.2,1.42,4.33,2.65,6.28-4.28-1.8-8.61-3.49-12.95-5.06Z"/>
      <path class="f" d="M240.31,149.7s-3.4,.06-6.41,.12c2.92-2.19,5.13-5.11,6.41-8.49,1.27,3.38,3.48,6.3,6.41,8.49-3.01-.06-6.41-.12-6.41-.12Z"/>
      <path class="f" d="M130.39,171.75c1.23-1.95,2.14-4.08,2.64-6.28,.36-.06,.72-.13,.72-.13,1.17-.29,2.26-.82,3.28-1.47,1.91,1.27,4.06,2.21,6.33,2.81-4.36,1.58-8.68,3.27-12.96,5.07Z"/>
      <path class="f" d="M164.41,159.97c2.21-2.82,3.49-6.2,3.85-9.74,2.07,2.96,4.93,5.26,8.29,6.68-4.1,.94-8.15,1.96-12.15,3.06Z"/>
      <path class="f" d="M198.16,152.84c2.16-2.03,3.84-4.47,4.94-7.15,.79-.01,1.56-.17,2.32-.34,1.75,2.36,4.02,4.33,6.65,5.78-4.64,.46-9.28,1.03-13.91,1.71Z"/>
      <path class="f" d="M268.55,151.13c2.63-1.44,4.91-3.41,6.66-5.78,.76,.17,1.52,.32,2.31,.34,1.1,2.69,2.78,5.13,4.94,7.15-4.63-.69-9.27-1.26-13.91-1.71Z"/>
      <path class="f" d="M304.06,156.9c3.37-1.42,6.23-3.72,8.29-6.68,.37,3.54,1.64,6.92,3.86,9.74-4-1.1-8.05-2.13-12.15-3.06Z"/>
      <path class="e" d="M219.48,46.19c0-2.71,2.24-4.91,4.99-4.91s4.98,2.2,4.98,4.91-2.24,4.91-4.98,4.91-4.99-2.2-4.99-4.91Z"/>
      <path class="e" d="M235.32,61.49c0-2.71,2.24-4.91,4.98-4.91s4.98,2.2,4.98,4.91-2.24,4.91-4.98,4.91-4.98-2.2-4.98-4.91Z"/>
      <path class="e" d="M235.32,79.35c0-2.71,2.24-4.91,4.98-4.91s4.98,2.2,4.98,4.91-2.24,4.91-4.98,4.91-4.98-2.2-4.98-4.91Z"/>
      <path class="e" d="M235.32,97.21c0-2.71,2.24-4.91,4.98-4.91s4.98,2.2,4.98,4.91-2.24,4.91-4.98,4.91-4.98-2.2-4.98-4.91Z"/>
      <path class="e" d="M203.17,49c0-1.31,.52-2.54,1.46-3.47,.94-.93,2.19-1.44,3.52-1.44,2.75,0,4.98,2.2,4.98,4.91s-2.23,4.91-4.98,4.91-4.98-2.2-4.98-4.91Z"/>
      <path class="e" d="M187.25,54.82c0-2.71,2.24-4.91,4.98-4.91s4.98,2.2,4.98,4.91-2.23,4.91-4.98,4.91c-2.75,0-4.98-2.2-4.98-4.91Z"/>
      <path class="e" d="M171.92,64.86c0-2.71,2.24-4.91,4.99-4.91,1.33,0,2.58,.51,3.52,1.44,.94,.93,1.46,2.16,1.46,3.47,0,2.71-2.23,4.91-4.98,4.91s-4.98-2.2-4.98-4.91Z"/>
      <path class="e" d="M160.22,78.16c0-2.71,2.23-4.91,4.98-4.91s4.98,2.2,4.98,4.91-2.24,4.9-4.98,4.9-4.98-2.2-4.98-4.9Z"/>
      <path class="e" d="M144.22,76.83c0-2.7,2.24-4.9,4.99-4.9,1.33,0,2.58,.51,3.52,1.44,.94,.93,1.46,2.16,1.46,3.47,0,2.71-2.23,4.91-4.98,4.91-2.75,0-4.99-2.21-4.99-4.91Z"/>
      <path class="e" d="M128.54,82.88c0-2.71,2.24-4.91,4.99-4.91s4.98,2.2,4.98,4.91-2.23,4.91-4.98,4.91c-2.75,0-4.99-2.2-4.99-4.91Z"/>
      <path class="e" d="M113.97,93.31c0-2.71,2.24-4.91,4.99-4.91s4.98,2.2,4.98,4.91-2.23,4.91-4.98,4.91-4.99-2.2-4.99-4.91Z"/>
      <path class="e" d="M102.12,107.04c0-2.71,2.23-4.91,4.98-4.91s4.99,2.2,4.99,4.91-2.24,4.91-4.99,4.91c-2.74,0-4.98-2.2-4.98-4.91Z"/>
      <path class="e" d="M94.65,122.48c0-2.7,2.24-4.9,4.99-4.9s4.98,2.2,4.98,4.9-2.24,4.91-4.98,4.91-4.99-2.2-4.99-4.91Z"/>
      <path class="e" d="M90.51,140.07c0-2.7,2.24-4.9,4.98-4.9s4.98,2.2,4.98,4.9-2.23,4.91-4.98,4.91-4.98-2.2-4.98-4.91Z"/>
      <path class="e" d="M152.37,93.65c0-1.31,.52-2.54,1.46-3.47,.94-.93,2.19-1.44,3.52-1.44,2.75,0,4.98,2.2,4.98,4.91s-2.23,4.91-4.98,4.91c-2.75,0-4.98-2.2-4.98-4.91Z"/>
      <path class="e" d="M148.22,111.26c0-2.71,2.23-4.91,4.98-4.91s4.98,2.2,4.98,4.91-2.24,4.91-4.98,4.91-4.98-2.2-4.98-4.91Z"/>
      <path class="e" d="M231.35,122.72c0-4.87,4.02-8.83,8.96-8.83s8.96,3.96,8.96,8.83-4.02,8.83-8.96,8.83-8.96-3.96-8.96-8.83Z"/>
      <path class="e" d="M159.04,139.88c-2.06-1.2-3.53-3.12-4.12-5.41-1.23-4.72,1.67-9.54,6.45-10.75,4.78-1.21,9.68,1.64,10.91,6.35,1.23,4.71-1.66,9.53-6.45,10.75-2.32,.59-4.73,.25-6.8-.95Z"/>
      <path class="e" d="M89.57,167.3c-2.38-4.26-.8-9.64,3.53-11.99,2.1-1.14,4.53-1.4,6.83-.74,2.3,.66,4.2,2.16,5.35,4.22h0c2.38,4.26,.8,9.64-3.53,11.99-4.33,2.35-9.79,.79-12.18-3.48Z"/>
      <path class="e" d="M251.18,46.19c0-1.31,.52-2.54,1.46-3.47,.94-.93,2.19-1.44,3.52-1.44,2.75,0,4.99,2.2,4.99,4.91s-2.24,4.91-4.99,4.91-4.97-2.2-4.97-4.91Z"/>
      <path class="e" d="M267.49,49c0-2.71,2.23-4.91,4.97-4.91s4.99,2.2,4.99,4.91-2.24,4.91-4.99,4.91-4.97-2.2-4.97-4.91Z"/>
      <path class="e" d="M283.4,54.82c0-2.71,2.23-4.91,4.98-4.91s4.99,2.2,4.99,4.91-2.24,4.91-4.99,4.91c-2.75,0-4.98-2.2-4.98-4.91Z"/>
      <path class="e" d="M298.73,64.86c0-2.71,2.23-4.91,4.98-4.91s4.98,2.2,4.98,4.91-2.24,4.91-4.98,4.91-4.98-2.2-4.98-4.91Z"/>
      <path class="e" d="M310.44,78.16c0-2.71,2.23-4.91,4.98-4.91,1.33,0,2.58,.51,3.52,1.44,.94,.93,1.46,2.16,1.46,3.47,0,2.7-2.24,4.9-4.98,4.9s-4.98-2.2-4.98-4.9Z"/>
      <path class="e" d="M326.43,76.83c0-2.7,2.24-4.9,4.99-4.9s4.98,2.2,4.98,4.9-2.24,4.91-4.98,4.91-4.99-2.2-4.99-4.91Z"/>
      <path class="e" d="M342.11,82.88c0-2.71,2.23-4.91,4.98-4.91s4.99,2.2,4.99,4.91-2.24,4.91-4.99,4.91c-2.75,0-4.98-2.2-4.98-4.91Z"/>
      <path class="e" d="M356.68,93.31c0-2.71,2.24-4.91,4.99-4.91s4.98,2.2,4.98,4.91-2.23,4.91-4.98,4.91-4.99-2.2-4.99-4.91Z"/>
      <path class="e" d="M368.54,107.04c0-2.71,2.24-4.91,4.98-4.91s4.98,2.2,4.98,4.91-2.24,4.91-4.98,4.91c-2.75,0-4.98-2.2-4.98-4.91Z"/>
      <path class="e" d="M376.01,122.48c0-2.7,2.23-4.9,4.98-4.9s4.98,2.2,4.98,4.9-2.24,4.91-4.98,4.91-4.98-2.2-4.98-4.91Z"/>
      <path class="e" d="M380.14,140.07c0-2.7,2.24-4.9,4.99-4.9s4.98,2.2,4.98,4.9-2.23,4.91-4.98,4.91-4.99-2.2-4.99-4.91Z"/>
      <path class="e" d="M318.29,93.65c0-2.71,2.24-4.91,4.98-4.91s4.98,2.2,4.98,4.91-2.23,4.91-4.98,4.91-4.98-2.2-4.98-4.91Z"/>
      <path class="e" d="M322.43,111.26c0-2.71,2.23-4.91,4.98-4.91s4.98,2.2,4.98,4.91-2.23,4.91-4.98,4.91-4.98-2.2-4.98-4.91Z"/>
      <path class="e" d="M314.79,140.82c-2.32-.59-4.27-2.03-5.48-4.06-1.22-2.03-1.56-4.4-.96-6.68h0c.59-2.28,2.05-4.2,4.11-5.4,2.06-1.2,4.48-1.54,6.8-.95,2.32,.59,4.27,2.03,5.48,4.06,1.22,2.03,1.56,4.4,.96,6.69-.6,2.29-2.06,4.21-4.12,5.41-2.06,1.2-4.47,1.53-6.79,.94Z"/>
      <path class="e" d="M378.87,170.78c-2.1-1.14-3.63-3.02-4.29-5.29-.66-2.26-.39-4.64,.76-6.7,0,0,0,0,0,0,1.15-2.07,3.05-3.57,5.35-4.22,2.3-.66,4.72-.39,6.82,.74,2.1,1.13,3.62,3,4.29,5.27,.67,2.27,.4,4.66-.75,6.73-2.38,4.26-7.85,5.82-12.18,3.48Z"/>
      <path class="e" d="M203.27,176.22c0-1.31,.52-2.54,1.46-3.47,.94-.93,2.19-1.44,3.52-1.44,2.75,0,4.99,2.2,4.99,4.91s-2.24,4.91-4.99,4.91-4.98-2.2-4.98-4.91Z"/>
      <path class="e" d="M141.46,192.67c0-1.31,.52-2.54,1.46-3.47,.94-.93,2.19-1.44,3.52-1.44,2.75,0,4.99,2.2,4.99,4.91s-2.24,4.91-4.99,4.91-4.98-2.2-4.98-4.91Z"/>
      <path class="f" d="M240.31,168.77c.45,.16,13.02,4.78,15.95,5.85-2.92,1.07-15.5,5.69-15.95,5.86-.45-.16-13.02-4.78-15.94-5.86,2.92-1.07,15.5-5.69,15.94-5.85Z"/>
      <path class="f" d="M129.2,193.54c1.15,.42,5.75,2.08,6.7,2.43-.25,.97-1.6,6.16-1.95,7.52-1.23-.67-5.6-3.07-6.36-3.49,.21-.83,1.31-5.29,1.61-6.46Z"/>
      <path class="e" d="M267.39,176.22c0-2.71,2.23-4.91,4.98-4.91s4.99,2.2,4.99,4.91-2.24,4.91-4.99,4.91-4.98-2.2-4.98-4.91Z"/>
      <path class="e" d="M329.2,192.67c0-2.71,2.23-4.91,4.98-4.91s4.98,2.2,4.98,4.91-2.23,4.91-4.98,4.91c-2.74,0-4.98-2.2-4.98-4.91Z"/>
      <path class="e" d="M353.3,189.17s0,0,0,0c-35.47-16.46-73.48-24.81-112.99-24.81s-77.52,8.35-112.99,24.81c-.29,.13-.49,.35-.59,.63-.13,.35-.09,.78,.1,1.19,.16,.34,.45,.6,.8,.72,.35,.13,.73,.11,1.07-.05,.26-.12,.56-.13,.84-.04,.27,.1,.49,.3,.62,.56l.1,.21,6.78,2.46c.35,.13,.55,.5,.46,.86l-2.01,7.76,.23,.48c.25,.54,.02,1.17-.52,1.43-.88,.41-1.27,1.46-.86,2.33,.39,.8,1.27,1.39,2.21,.96,32.45-15.08,67.37-22.73,103.78-22.73s71.33,7.65,103.78,22.73c.94,.43,1.82-.15,2.2-.95,.42-.87,.03-1.92-.85-2.33-.54-.25-.78-.89-.52-1.43l.23-.48-2.01-7.76c-.09-.36,.1-.73,.46-.86l6.78-2.45,.1-.21c.12-.26,.35-.46,.62-.56,.27-.1,.58-.08,.84,.04,.7,.33,1.55,.03,1.88-.67,.19-.4,.23-.83,.09-1.18-.1-.29-.3-.5-.59-.63Zm-206.86,9.86c-3.55,0-6.44-2.85-6.44-6.35,0-1.7,.67-3.29,1.89-4.49,1.22-1.2,2.83-1.86,4.55-1.86,3.56,0,6.45,2.85,6.45,6.35s-2.89,6.35-6.45,6.35Zm48.42-20.38l-15.79,10.85c-.14,.1-.32,.14-.5,.13l-19.16-1.99c-.3-.03-.56-.25-.63-.54-.08-.29,.04-.6,.29-.77l15.8-10.85c.14-.1,.32-.14,.5-.13l19.15,1.99c.3,.03,.56,.25,.63,.54,.08,.29-.04,.6-.29,.77Zm13.39,3.92c-3.56,0-6.45-2.85-6.45-6.35,0-1.7,.67-3.29,1.89-4.49,1.22-1.2,2.84-1.86,4.56-1.86,3.56,0,6.45,2.85,6.45,6.35,0,3.5-2.9,6.35-6.46,6.35Zm50.36-7.27l-18.05,6.63c-.16,.06-.35,.06-.51,0l-18.04-6.63c-.29-.11-.48-.37-.48-.68s.19-.57,.48-.68l18.04-6.62c.17-.06,.35-.06,.51,0l18.05,6.62c.29,.11,.48,.38,.48,.68s-.19,.57-.48,.68Zm13.76,7.27c-3.55,0-6.44-2.85-6.44-6.35s2.89-6.35,6.44-6.35,6.46,2.85,6.46,6.35-2.9,6.35-6.46,6.35Zm48.83,5.06l-19.14,1.99c-.17,.02-.35-.03-.5-.13l-15.8-10.85c-.25-.17-.37-.48-.29-.77,.07-.29,.33-.51,.63-.54l19.15-1.99c.17-.02,.35,.03,.5,.13l15.79,10.85c.25,.17,.37,.48,.29,.77-.08,.29-.33,.51-.64,.54Zm12.98,11.39c-3.55,0-6.44-2.85-6.44-6.35s2.89-6.35,6.44-6.35,6.44,2.85,6.44,6.35-2.89,6.35-6.44,6.35Z"/>
      <path class="e" d="M395.05,160.66c-.45-.37-.52-1.02-.16-1.48,1.83-2.35,2.58-5.1,2.11-7.73-.41-2.29-1.73-4.23-3.71-5.46-.5-.31-.66-.95-.36-1.45,.8-1.35,1.23-2.89,1.23-4.46,0-4.18-3.01-7.84-7.16-8.7-.41-.09-.74-.4-.84-.81-.1-.41,.06-.83,.39-1.09,2.21-1.7,3.48-4.25,3.48-7,0-4.61-3.51-8.41-8.17-8.85-.38-.04-.72-.27-.88-.61-.17-.34-.13-.74,.08-1.06,.99-1.46,1.5-3.17,1.5-4.93,0-4.9-4.05-8.89-9.02-8.89-.78,0-1.58,.11-2.37,.32-.41,.11-.84-.02-1.12-.34-.28-.32-.33-.76-.16-1.14,.54-1.17,.81-2.4,.81-3.68,0-4.9-4.04-8.89-9.02-8.89-1.42,0-2.84,.34-4.09,.97-.35,.18-.77,.12-1.1-.09-.33-.22-.51-.63-.48-1.02l.12-1.4c0-4.91-4.05-8.9-9.03-8.9-1.86,0-3.64,.56-5.16,1.61-.3,.21-.68,.25-1.02,.12s-.59-.42-.67-.77c-.91-4.06-4.62-7-8.82-7-3.08,0-5.92,1.53-7.6,4.1-.18,.28-.49,.46-.83,.49-.33,.03-.67-.1-.9-.35-1.7-1.85-4.13-2.92-6.67-2.92l-2.03,.23c-.38,.04-.82-.1-1.05-.4-.23-.3-.35-.69-.21-1.04,.41-1.02,.61-2.1,.61-3.2,0-4.91-4.05-8.9-9.03-8.9-1.67,0-3.33,.47-4.78,1.36-.35,.21-.79,.17-1.14-.04-.35-.21-.55-.64-.51-1.05l.13-1.41c0-2.38-.94-4.61-2.64-6.29-1.71-1.68-3.97-2.61-6.38-2.61-1.94,0-3.81,.61-5.39,1.77-.3,.22-.68,.27-1.03,.14-.35-.13-.6-.42-.68-.77-.9-4.03-4.61-6.96-8.81-6.96-2.42,0-4.69,.93-6.39,2.61-.25,.25-.61,.36-.96,.3-.35-.06-.65-.28-.8-.6-1.48-3.11-4.69-5.12-8.17-5.12-.99,0-1.97,.16-2.93,.49-.42,.14-.88,.02-1.17-.31-1.68-1.88-3.83-3.35-6.21-4.25l-1.71-.54c-.45-.14-.82-.57-.82-1.04v-7.6c0-.59,.49-1.07,1.09-1.07h6.54v-5.49h-6.54c-.6,0-1.09-.48-1.09-1.07v-5.7h-5.99v5.7c0,.59-.49,1.07-1.09,1.07h-6.54v5.49h6.54c.6,0,1.09,.48,1.09,1.07v7.6c0,.47-.37,.9-.82,1.04l-1.71,.54c-2.39,.9-4.54,2.37-6.22,4.25-.29,.33-.76,.45-1.17,.31-.95-.32-1.94-.49-2.93-.49-3.48,0-6.69,2.01-8.17,5.12-.15,.32-.45,.54-.8,.6-.35,.06-.71-.05-.96-.3-1.71-1.68-3.98-2.61-6.39-2.61-4.2,0-7.9,2.93-8.81,6.96-.08,.36-.34,.65-.68,.77-.35,.13-.74,.07-1.03-.15-1.57-1.16-3.43-1.77-5.38-1.77-4.98,0-9.03,3.99-9.03,8.89l.13,1.4c.04,.41-.15,.84-.51,1.06-.35,.21-.79,.26-1.14,.05-1.46-.89-3.11-1.36-4.79-1.36-4.98,0-9.03,3.99-9.03,8.9,0,1.09,.21,2.17,.62,3.2,.14,.35,.02,.74-.21,1.04-.23,.3-.67,.44-1.05,.4l-2.04-.23c-2.53,0-4.96,1.06-6.67,2.92-.23,.25-.56,.38-.9,.35-.34-.03-.64-.21-.83-.49-1.67-2.57-4.51-4.1-7.59-4.1-4.22,0-7.93,2.94-8.81,7-.08,.35-.33,.64-.67,.77-.34,.13-.72,.09-1.02-.12-1.53-1.05-3.32-1.61-5.17-1.61-4.98,0-9.03,3.99-9.03,8.9l.12,1.38c.04,.39-.14,.8-.47,1.02s-.75,.28-1.1,.11c-1.3-.65-2.68-.98-4.1-.98-4.98,0-9.03,3.99-9.03,8.89,0,1.28,.27,2.52,.81,3.68,.18,.38,.11,.82-.16,1.14-.27,.32-.71,.45-1.12,.34-.79-.21-1.58-.32-2.36-.32-4.98,0-9.03,3.99-9.03,8.89,0,1.76,.52,3.46,1.51,4.92,.21,.32,.24,.72,.08,1.06-.17,.34-.5,.57-.88,.61-4.66,.44-8.17,4.24-8.17,8.85,0,2.75,1.26,5.3,3.47,7,.33,.26,.49,.68,.39,1.09-.1,.41-.42,.72-.84,.81-4.15,.86-7.16,4.52-7.16,8.7,0,1.57,.42,3.12,1.21,4.47,.29,.5,.14,1.14-.36,1.45-1.98,1.23-3.29,3.18-3.7,5.47-.47,2.63,.28,5.38,2.11,7.73,.36,.46,.28,1.11-.16,1.48-1.47,1.21-2.2,2.82-2.16,4.77,.06,3.45,2.49,7.1,4.86,8.93,2.64,2.04,7.9,4.9,13.38,1.25,.39-.26,.9-.24,1.28,.04,4.43,3.36,10.25,4.4,15.58,2.78,.41-.13,.86,0,1.15,.33,.28,.32,.35,.78,.16,1.17-.59,1.23-.59,2.64,0,3.88,.54,1.15,1.47,2,2.61,2.41,1.08,.39,2.26,.33,3.33-.17,35.93-16.69,74.46-25.15,114.54-25.15s78.63,8.46,114.59,25.14c2.26,.9,4.86-.05,5.91-2.25,.59-1.23,.58-2.65,0-3.88-.18-.39-.12-.84,.16-1.16,.28-.32,.74-.45,1.15-.33,5.33,1.62,11.16,.58,15.59-2.78,.37-.28,.89-.3,1.28-.04,5.48,3.65,10.74,.79,13.38-1.25,2.37-1.83,4.8-5.48,4.86-8.93,.04-1.94-.69-3.55-2.16-4.76Zm-3.48-20.59c0,3.5-2.89,6.35-6.44,6.35s-6.45-2.85-6.45-6.35,2.89-6.35,6.45-6.35,6.44,2.85,6.44,6.35Zm-10.58-23.94c3.56,0,6.45,2.85,6.45,6.35s-2.89,6.36-6.45,6.36-6.44-2.85-6.44-6.36,2.89-6.35,6.44-6.35Zm-7.46-15.45c3.56,0,6.45,2.85,6.45,6.35s-2.89,6.35-6.45,6.35-6.45-2.85-6.45-6.35,2.89-6.35,6.45-6.35Zm.54,57.4h0s0,0,0,0Zm-12.39-71.13c3.55,0,6.44,2.85,6.44,6.35s-2.89,6.35-6.44,6.35-6.45-2.85-6.45-6.35,2.89-6.35,6.45-6.35Zm-14.58-10.43c3.56,0,6.45,2.85,6.45,6.35s-2.9,6.35-6.45,6.35-6.44-2.85-6.44-6.35,2.89-6.35,6.44-6.35Zm-15.67-6.04c3.55,0,6.44,2.85,6.44,6.35s-2.89,6.36-6.44,6.36-6.45-2.85-6.45-6.36,2.89-6.35,6.45-6.35Zm-8.15,16.81c3.55,0,6.44,2.85,6.44,6.35s-2.89,6.35-6.44,6.35-6.45-2.85-6.45-6.35,2.89-6.35,6.45-6.35Zm-11.56,36.14c2.4-1.4,5.21-1.79,7.91-1.11,2.7,.68,4.96,2.36,6.38,4.72,1.42,2.36,1.81,5.13,1.12,7.78-.69,2.66-2.4,4.9-4.8,6.29-2.4,1.39-5.2,1.78-7.9,1.1-2.7-.68-4.97-2.36-6.38-4.72-.96-1.6-1.45-3.39-1.45-5.2,0-.86,.11-1.72,.33-2.58h0s0,0,0,0c.69-2.66,2.39-4.89,4.79-6.29Zm15.7-5.83c-3.56,0-6.45-2.85-6.45-6.35s2.89-6.35,6.45-6.35,6.45,2.85,6.45,6.35-2.89,6.35-6.45,6.35Zm-11.99-45.8c1.72,0,3.34,.66,4.56,1.86,1.22,1.2,1.89,2.8,1.89,4.5,0,3.5-2.89,6.35-6.44,6.35s-6.45-2.85-6.45-6.35,2.89-6.35,6.45-6.35Zm-11.71-13.29c3.56,0,6.45,2.85,6.45,6.35s-2.89,6.35-6.45,6.35-6.44-2.85-6.44-6.35,2.89-6.35,6.44-6.35Zm-15.33-10.04c3.56,0,6.45,2.85,6.45,6.35s-2.89,6.35-6.45,6.35-6.44-2.85-6.44-6.35,2.89-6.35,6.44-6.35Zm-15.91-5.82c3.56,0,6.45,2.85,6.45,6.35s-2.89,6.35-6.45,6.35-6.44-2.85-6.44-6.35,2.89-6.35,6.44-6.35Zm-20.87-.95c1.21-1.2,2.83-1.86,4.55-1.86,3.56,0,6.45,2.85,6.45,6.35s-2.89,6.35-6.45,6.35-6.44-2.85-6.44-6.35c0-1.7,.67-3.29,1.89-4.49Zm-11.29,13.44c3.56,0,6.45,2.85,6.45,6.35s-2.89,6.35-6.45,6.35-6.45-2.85-6.45-6.35,2.89-6.35,6.45-6.35Zm-6.45,42.07c0-3.5,2.89-6.35,6.45-6.35s6.45,2.85,6.45,6.35-2.89,6.35-6.45,6.35c-3.56,0-6.45-2.85-6.45-6.35Zm16.88,25.51c0,5.66-4.68,10.27-10.43,10.27s-10.43-4.61-10.43-10.27,4.68-10.27,10.43-10.27,10.43,4.61,10.43,10.27Zm-10.43-37.02c-3.56,0-6.45-2.85-6.45-6.36s2.89-6.35,6.45-6.35,6.45,2.85,6.45,6.35c0,3.51-2.89,6.36-6.45,6.36Zm-15.84-45.86c3.56,0,6.45,2.85,6.45,6.35s-2.89,6.35-6.45,6.35-6.45-2.85-6.45-6.35,2.9-6.35,6.45-6.35Zm-20.88,4.67c1.22-1.2,2.84-1.86,4.56-1.86,3.56,0,6.45,2.85,6.45,6.35s-2.89,6.35-6.45,6.35-6.44-2.85-6.44-6.35c0-1.7,.67-3.29,1.89-4.49Zm-11.36,3.96c3.55,0,6.45,2.85,6.45,6.35s-2.89,6.35-6.45,6.35-6.45-2.85-6.45-6.35,2.89-6.35,6.45-6.35Zm-15.33,10.04c1.72,0,3.34,.66,4.56,1.86,1.22,1.2,1.89,2.8,1.89,4.49,0,3.5-2.89,6.35-6.44,6.35s-6.45-2.85-6.45-6.35c0-3.5,2.89-6.35,6.45-6.35Zm-11.72,13.29c3.56,0,6.45,2.85,6.45,6.35s-2.89,6.35-6.45,6.35-6.44-2.85-6.44-6.35,2.89-6.35,6.44-6.35Zm-4.19,50.52c5.57-1.41,11.26,1.91,12.7,7.39,1.43,5.48-1.93,11.09-7.5,12.5-2.7,.69-5.51,.29-7.91-1.1-2.4-1.4-4.1-3.63-4.8-6.29-1.43-5.49,1.94-11.1,7.51-12.51Zm-14.25-11.07c0-3.5,2.89-6.35,6.44-6.35s6.45,2.85,6.45,6.35-2.89,6.35-6.45,6.35-6.44-2.85-6.44-6.35Zm10.59-23.96c3.55,0,6.45,2.85,6.45,6.35s-2.89,6.35-6.45,6.35-6.45-2.85-6.45-6.35c0-1.7,.67-3.29,1.89-4.49,1.22-1.2,2.84-1.86,4.56-1.86Zm-8.14-16.81c1.72,0,3.34,.66,4.56,1.86,1.22,1.2,1.89,2.79,1.89,4.49,0,3.51-2.89,6.36-6.44,6.36s-6.45-2.85-6.45-6.36c0-3.5,2.89-6.35,6.45-6.35Zm-15.68,6.04c3.55,0,6.44,2.85,6.44,6.35s-2.89,6.35-6.44,6.35-6.45-2.85-6.45-6.35,2.89-6.35,6.45-6.35Zm-14.57,10.43c3.55,0,6.44,2.85,6.44,6.35s-2.89,6.35-6.44,6.35-6.45-2.85-6.45-6.35,2.89-6.35,6.45-6.35Zm-11.87,13.73c3.56,0,6.45,2.85,6.45,6.35s-2.89,6.35-6.45,6.35-6.44-2.85-6.44-6.35,2.89-6.35,6.44-6.35Zm-.53,57.41s0,0,0,0h0Zm-13.38-35.62c0-3.5,2.89-6.35,6.45-6.35s6.45,2.85,6.45,6.35-2.89,6.36-6.45,6.36-6.45-2.85-6.45-6.36Zm2.31,11.25c3.56,0,6.45,2.85,6.45,6.35s-2.89,6.35-6.45,6.35-6.45-2.85-6.45-6.35,2.89-6.35,6.45-6.35Zm6.96,38.32c-5.03,2.73-11.39,.91-14.17-4.04-2.77-4.96-.93-11.22,4.11-13.95,2.44-1.32,5.27-1.63,7.94-.86,2.67,.77,4.89,2.51,6.22,4.91,.88,1.57,1.29,3.26,1.29,4.93,0,3.62-1.95,7.14-5.39,9.02Zm45.37-4.71c-6.82,2.36-13.62,5.02-20.24,7.91-.47,.21-1.03,.06-1.33-.36-.3-.41-.26-.98,.09-1.36,2.43-2.57,4.11-5.83,4.74-9.19,.08-.44,.48-.79,.93-.87,0,0,1.19-.21,1.19-.21,1.14-.29,2.21-.79,3.18-1.5,.38-.28,.91-.29,1.3,0,2.8,2.02,6.3,3.26,9.85,3.5,.52,.03,.94,.42,1.01,.93,.07,.51-.23,.99-.72,1.16Zm3.98-8.51c-4.34,1.1-8.88-.47-11.57-4-.11-.14-.19-.43-.22-.6l-.27-1.85c-1.25-4.78-6.21-7.67-11.06-6.44-2.35,.6-4.33,2.06-5.56,4.12-1.23,2.06-1.58,4.46-.97,6.77,.36,1.39,1.04,2.63,2.01,3.71,.16,.17,.25,.39,.27,.61,.42,4.33-1.8,8.48-5.66,10.58-2.79,1.51-6.12,1.76-9.13,.67-.41-.15-.69-.52-.71-.95-.02-.43,.21-.83,.6-1.02,5.74-2.83,7.26-6.8,4.91-12.88-1.5-3.89-3.53-6.24-6.03-6.98-.49-.15-.81-.61-.77-1.11,2.4-30.23,11.91-44.28,39.12-57.84,.35-.17,.79-.18,1.12,.03,.33,.21,.53,.55,.51,.94l-.08,1.07c0,2.75,1.27,5.3,3.48,7,.33,.26,.49,.68,.39,1.09-.1,.41-.42,.72-.84,.81-4.16,.85-7.18,4.51-7.18,8.71,0,3.91,2.66,7.41,6.46,8.52,.31,.09,.56,.31,.69,.6,.13,.29,.12,.63-.03,.91-.74,1.43-1.04,3.17-.91,5.15,.03,.44-.22,.85-.62,1.04-4.81,2.27-6.29,5.85-4.78,11.61,1.81,6.93,6.03,9.18,13.7,7.29,.31-.08,.64-.02,.9,.17,.26,.18,.43,.47,.46,.78,.5,5.32-2.96,10.15-8.23,11.49Zm28.93-.69c-6.59,1.41-13.14,3.07-19.46,4.91-.49,.14-1.02-.07-1.27-.52-.24-.44-.14-1,.25-1.33,4.34-3.66,6.55-9.16,5.93-14.73-.06-.53,.29-1.03,.81-1.16,.53-.13,1.07,.14,1.28,.63,2.19,5.19,6.84,8.96,12.44,10.1,.51,.1,.87,.54,.87,1.05,0,.51-.36,.95-.86,1.06Zm35.55-5.28c-7.23,.61-14.54,1.51-21.75,2.68-.51,.08-1.01-.2-1.2-.67-.19-.48,0-1.02,.43-1.29,3.54-2.23,6.23-5.53,7.6-9.31,.16-.44,.57-.73,1.05-.72l.5,.02c.9,0,1.79-.13,2.65-.38,.46-.13,.95,.04,1.22,.43,2.28,3.33,5.74,5.87,9.75,7.15,.49,.16,.81,.64,.75,1.14-.06,.51-.47,.9-.99,.95Zm-4.67-15.05c-.06-.2-.06-.42,0-.62,.25-.83,.38-1.69,.38-2.56,0-2.39-.95-4.64-2.66-6.33-1.71-1.69-4-2.62-6.42-2.62-5.01,0-9.09,4.01-9.09,8.95,0,1.55,.43,3.09,1.23,4.47,.1,.17,.15,.36,.15,.56-.11,4.85-3.51,9.07-8.28,10.28-5.26,1.33-10.65-1.25-12.83-6.15-.13-.29-.12-.62,.02-.9,.14-.28,.39-.49,.7-.57,7.64-2,10.25-5.98,8.45-12.9-1.51-5.76-4.56-8.2-9.88-7.9-.45,.02-.86-.22-1.05-.62-1.17-2.47-2.75-4.06-4.85-4.87-.46-.17-.74-.63-.69-1.11,3.08-29.68,26.34-58.27,64.82-55.49,.6,.04,1.04,.6,1,1.19l-.05,.89c0,1.54,.47,3.03,1.35,4.31,.12,.18,.19,.39,.19,.6v8.03c0,.22-.07,.43-.19,.6-.88,1.28-1.35,2.77-1.35,4.31s.47,3.03,1.35,4.31c.12,.18,.19,.39,.19,.6v8.03c0,.22-.07,.43-.19,.61-.88,1.27-1.35,2.76-1.35,4.3,0,3.02,1.81,5.76,4.62,6.98,.44,.19,.7,.65,.64,1.12-.06,.47-.43,.85-.9,.93-4.57,.75-7.09,3.16-7.93,7.6-.08,.43-.42,.77-.86,.86-5.24,1.02-7.57,4.12-7.57,10.08,0,7.15,3.53,10.37,11.44,10.43,.32,0,.62,.14,.83,.38,.21,.24,.29,.56,.24,.87-.88,5.28-5.45,9.1-10.87,9.1-4.83,0-9.17-3.18-10.56-7.74Zm39.98,13.41c-.12,.49-.58,.84-1.09,.83l-10.19-.19-10.19,.19c-.51,0-.97-.33-1.09-.83-.12-.49,.12-1,.58-1.22,5.22-2.46,8.81-7.28,9.62-12.89,.08-.53,.54-.92,1.08-.92s1,.39,1.08,.92c.81,5.61,4.41,10.43,9.62,12.89,.46,.22,.7,.72,.58,1.22Zm35.69,3.65c-.18,.48-.68,.76-1.2,.68-7.2-1.17-14.52-2.07-21.76-2.68-.52-.04-.93-.44-.99-.95-.06-.51,.25-.99,.75-1.14,4-1.28,7.47-3.82,9.76-7.15,.27-.39,.76-.56,1.22-.43,.85,.25,1.73,.38,2.63,.38l.5-.02c.48-.02,.88,.27,1.05,.71,1.37,3.78,4.07,7.09,7.6,9.31,.44,.27,.62,.81,.43,1.29Zm6.4-4.93c-4.76-1.2-8.16-5.43-8.27-10.28,0-.2,.05-.39,.15-.57,.8-1.35,1.22-2.89,1.22-4.46,0-4.93-4.07-8.95-9.08-8.95s-9.08,4.01-9.08,8.95c0,.87,.13,1.72,.39,2.55,.07,.21,.07,.42,0,.63-1.42,4.63-5.67,7.74-10.57,7.74-5.42,0-9.99-3.83-10.87-9.11-.05-.31,.04-.63,.24-.87,.21-.24,.51-.38,.82-.38,7.91-.06,11.43-3.28,11.43-10.43,0-5.95-2.34-9.06-7.57-10.08-.44-.09-.78-.43-.86-.86-.84-4.44-3.36-6.85-7.93-7.6-.47-.08-.84-.45-.9-.93-.06-.47,.2-.93,.64-1.12,2.81-1.22,4.62-3.97,4.62-6.98,0-1.55-.46-3.04-1.35-4.3-.12-.18-.19-.39-.19-.61v-8.03c0-.22,.07-.43,.19-.61,.88-1.27,1.35-2.76,1.35-4.31s-.46-3.03-1.35-4.3c-.12-.18-.19-.39-.19-.61v-8.03c0-.22,.07-.43,.19-.61,.88-1.27,1.35-2.76,1.35-4.31l-.05-.86c-.04-.59,.41-1.17,1-1.21,38.48-2.78,61.73,25.82,64.81,55.49,.05,.48-.23,.94-.69,1.11-2.08,.8-3.67,2.39-4.84,4.87-.19,.4-.61,.64-1.05,.62-5.33-.3-8.38,2.14-9.88,7.9-1.81,6.93,.8,10.91,8.44,12.91,.31,.08,.56,.29,.7,.57,.14,.28,.14,.61,.02,.9-2.19,4.9-7.58,7.48-12.84,6.15Zm26.92,12.6c-.25,.45-.77,.66-1.27,.52-6.32-1.84-12.86-3.5-19.46-4.91-.5-.11-.86-.55-.86-1.05,0-.51,.37-.94,.87-1.05,5.61-1.14,10.26-4.91,12.44-10.1,.21-.49,.75-.76,1.28-.63,.52,.13,.87,.63,.81,1.16-.62,5.57,1.6,11.08,5.93,14.73,.39,.33,.49,.89,.25,1.33Zm33.75,12.35c-.3,.41-.86,.56-1.33,.36-6.64-2.89-13.44-5.55-20.24-7.91-.49-.17-.79-.65-.72-1.16,.07-.51,.49-.89,1.01-.93,3.59-.23,7-1.44,9.85-3.5,.39-.28,.92-.28,1.3,0,.95,.71,2.02,1.21,3.17,1.5l1.19,.21c.45,.08,.84,.43,.93,.87,.64,3.36,2.32,6.63,4.74,9.19,.35,.37,.39,.94,.09,1.35Zm17.83-24.32c-2.48,.74-4.51,3.09-6.03,6.98-2.34,6.08-.82,10.05,4.92,12.88,.39,.19,.63,.59,.6,1.02-.03,.43-.3,.8-.71,.95-3.01,1.09-6.34,.84-9.13-.67-3.87-2.1-6.09-6.25-5.66-10.58,.02-.23,.12-.44,.27-.61,.97-1.07,1.65-2.32,2.01-3.71,.61-2.31,.26-4.71-.97-6.76-1.24-2.06-3.22-3.53-5.57-4.12-4.84-1.23-9.8,1.66-11.06,6.42l-.27,1.86c-.03,.18-.11,.46-.22,.6-2.7,3.53-7.24,5.1-11.58,4-5.25-1.33-8.71-6.16-8.23-11.48,.03-.31,.19-.6,.45-.78,.26-.18,.59-.24,.89-.17,7.68,1.89,11.91-.36,13.71-7.29,1.5-5.76,.03-9.34-4.79-11.61-.4-.19-.65-.6-.62-1.04,.13-2.03-.16-3.71-.91-5.15-.15-.28-.16-.62-.03-.91,.13-.29,.38-.52,.69-.61,3.8-1.11,6.46-4.62,6.46-8.52,0-4.19-3.02-7.85-7.18-8.71-.42-.09-.74-.4-.84-.81-.09-.41,.06-.83,.39-1.09,2.21-1.7,3.48-4.25,3.48-7l-.07-1.06c-.03-.38,.18-.73,.51-.94,.33-.21,.77-.21,1.11-.04,27.21,13.55,36.72,27.61,39.11,57.84,.04,.5-.28,.97-.77,1.11Zm20.14,17.44c-2.77,4.96-9.13,6.77-14.17,4.04-2.44-1.33-4.21-3.51-4.99-6.15-.28-.94-.41-1.9-.41-2.86,0-1.71,.44-3.4,1.3-4.94,1.34-2.4,3.55-4.15,6.23-4.91,2.68-.77,5.5-.46,7.94,.86,2.44,1.32,4.21,3.5,4.99,6.13,.78,2.64,.47,5.42-.88,7.83Z"/>
      <path class="f" d="M351.42,193.54c.29,1.17,1.4,5.64,1.6,6.46-.75,.42-5.12,2.81-6.35,3.49-.35-1.36-1.7-6.54-1.96-7.52,.95-.34,5.55-2.01,6.71-2.43Z"/>
      <path class="f" d="M4.02,426.45c0,128.28,106,232.64,236.29,232.64s236.29-104.36,236.29-232.64-106-232.88-236.29-232.88S4.02,298.05,4.02,426.45Z"/>
      <path class="e" d="M10.72,426.45c0,62.32,25.74,118.81,67.32,159.75,41.59,40.93,98.96,66.28,162.27,66.28s120.68-25.35,162.27-66.28c41.58-40.94,67.32-97.43,67.32-159.75s-25.74-118.94-67.32-159.93c-41.59-40.98-98.97-66.35-162.27-66.35s-120.68,25.37-162.27,66.35C36.46,307.51,10.72,364.07,10.72,426.45Z"/>
      <path class="f" d="M30.84,426.33c0-113.78,93.96-206.33,209.47-206.34,115.51,0,209.46,92.55,209.47,206.34,0,113.79-93.96,206.33-209.47,206.34-115.51,0-209.47-92.56-209.47-206.34Z"/>
      <path class="e" d="M37.54,426.33c0-110.13,90.96-199.73,202.77-199.73s202.77,89.6,202.77,199.73-90.96,199.74-202.77,199.74S37.54,536.47,37.54,426.33Z"/>
      <path class="f" d="M434.67,425.6c0-69.68-38.64-134.08-100.84-168.06l-1.3-.71s-44.14,45.18-45.25,46.32h-.23s-.68,.67-.73,.72c-14.48-5.29-29.93-8.13-45.99-8.36-16.39,0-33.35,2.99-48.02,8.35-1.62-1.66-45.25-46.55-45.25-46.55l-1.3,.72c-.47,.26-.92,.53-1.39,.8l-.08-.08c-35.36,19.77-63.86,50.13-81.01,86.68,.03,.03,.07,.07,.1,.1-11.64,24.75-17.96,51.99-17.96,80.07,0,45.81,16.7,88.52,48.29,123.53l1.38,1.53,25.85-26.02-1.42-1.33c-13.99-13.08-39.76-49.49-39.76-95.57,0-1.26,.02-2.53,.06-3.81,.66-18.5,3.98-35.83,9.93-51.92,7.23,7.26,14.44,14.5,21.63,21.72-2.27,8.83-3.52,17.86-3.63,26.92,0,.54-.01,1.08-.01,1.61,0,58.3,40.95,110.56,98.11,125.29v32.79h35.89v-28.67c8.07-.17,16.14-1.14,24.07-2.81,17.25,17.35,34.59,34.8,52.08,52.42,36.83-15.89,67.74-42.69,88.49-76.24l-.03-.03c18.4-29.74,28.32-64.11,28.32-99.42Zm-228.82,82.55c-36.77-13.13-60.37-44.39-61.18-81,20.44,20.53,40.8,40.97,61.18,61.44v19.56Zm34.18-155.79c-2.2-2.21-15.67-15.76-19.38-19.49,6.63-1.25,13.34-1.94,17.81-1.74,7.09,.22,13.53,1.03,19.65,2.4-3.43,3.57-15.93,16.6-18.08,18.83Zm138.42,144.31l-114.86-116.7c13.82-14.38,28.82-29.99,30-31.22,12.06,8.38,21.85,19.35,28.33,31.87l1.12,2.16,28.87-24.56-.83-1.37c-7.86-12.98-18.79-24.89-31.59-34.67,2.4-2.42,17.15-17.29,19.12-19.28,29.75,21.06,59.44,68.85,59.44,120.98,0,30.53-7.17,52.63-19.59,72.79Z"/>
      <path class="e" d="M333.73,265.13c-7.96,8.15-42.76,43.77-42.76,43.77l-.84,.86h-.3c-.27,.26-.49,.48-.49,.48l-1.3,1.28-1.72-.65-1.17-.44c-14.08-5.3-29.18-8.1-44.84-8.32-15.75,0-32.93,3.05-46.84,8.32l-2.96,1.12-1.3-1.34s-35.3-36.31-43.33-44.57c-57.91,33.36-93.74,94.31-93.74,159.97,0,42.53,14.93,82.22,43.27,115.31,4.1-4.13,12.22-12.3,16.12-16.22-15.23-16.08-38.41-51.94-38.46-96.97,0-1.33,.02-2.66,.06-4.01,1.79-51.33,23.47-94.27,64.06-126.97l3.4-2.74,28.82,29.36-4.3,3.2c-31.31,23.25-50.21,58.53-50.65,94.17,0,.51,0,1.02,0,1.53-.02,55.77,39.56,105.87,94.49,119.32l3.62,.89v31.28h22.49v-28.57l4.74-.03c34.95-.2,70.33-16.15,93.13-41.67-4.1-4.08-13.25-13.2-17.61-17.53-22,23.33-52.46,35.31-73.23,35.38-.86,0-1.7-.02-2.51-.06l-4.52-.23v-33.81h2.84s27.12,0,36.44,0v-19.21c-9.33,0-36.44,0-36.44,0h-2.84v-27.4h2.84s27.54,0,36.95,0v-16.49h-62.28v93.28l-6.28-2.06c-41.57-13.62-68.37-48.95-68.35-90.14,0-.64,0-1.28,.02-1.93,.72-33.09,16.81-62.92,44.08-81.65l3.33-2.29,1.68,1.71s42.77,43.47,52.98,53.84c9.93-10.34,51.01-53.07,51.01-53.07l1.66-1.73,3.36,2.25c11.89,7.96,21.77,18.29,28.9,30.1,4.82-4.1,14.09-11.99,18.22-15.5-7.56-11.53-17.63-22.17-29.39-30.85l-4.35-3.22,28.38-28.61,3.32,2.26c31.87,21.8,63.54,72.09,63.62,127.37,.05,44-15.2,72.56-37.89,100.01,4.25,4.19,14.13,13.93,18.77,18.5,27.33-32.84,42.36-74.1,42.35-116.78,0-66.08-36.02-127.22-94.24-160.48Zm-91.59,94.63l-2.03,2.11-32.72-32.91,8.33-1.86c7.44-1.65,15.15-2.62,21.01-2.62,.69,0,1.36,.01,1.97,.04,8.79,.27,16.78,1.36,24.36,3.37l7.73,2.04-28.65,29.84Z"/>
    </g>
  </g>
</svg>