<?xml version="1.0" encoding="UTF-8"?>
<svg id="a" data-name="Layer 1" xmlns="http://www.w3.org/2000/svg" xmlns:xlink="http://www.w3.org/1999/xlink" viewBox="0 0 58.34 56.75">
  <defs>
    <style>
      .c {
        fill: none;
      }

      .d {
        fill: #090926;
      }

      .e {
        clip-path: url(#b);
      }
    </style>
    <clipPath id="b">
      <rect class="c" x="1.15" y=".38" width="56" height="56"/>
    </clipPath>
  </defs>
  <g class="e">
    <g>
      <path class="d" d="M42.55,11.77l-3.1-2.15c-.41-.29-.98-.18-1.27,.23-.29,.41-.18,.98,.23,1.27l3.1,2.15c.41,.28,.99,.18,1.27-.23,.29-.41,.18-.98-.23-1.27Z"/>
      <path class="d" d="M48.75,16.07l-3.1-2.15c-.41-.29-.98-.18-1.27,.23-.29,.41-.18,.98,.23,1.27,0,0,3.09,2.14,3.1,2.15,.4,.27,.98,.19,1.27-.23,.29-.41,.18-.98-.23-1.27Z"/>
      <path class="d" d="M19.42,15.08l-3.67-.86c-.49-.12-.98,.19-1.1,.68-.12,.49,.19,.98,.68,1.1l3.67,.86c.07,.02,.14,.02,.21,.02,.41,0,.79-.28,.89-.7,.11-.49-.19-.98-.68-1.1Z"/>
      <path class="d" d="M26.76,16.81l-3.67-.86c-.49-.12-.98,.19-1.1,.68-.12,.49,.19,.98,.68,1.1l3.67,.86c.07,.02,.14,.02,.21,.02,.41,0,.79-.28,.89-.7,.12-.49-.19-.98-.68-1.1Z"/>
      <path class="d" d="M28.19,21.13l-8.32-1.95c-.49-.11-.98,.19-1.1,.68-.12,.49,.19,.98,.68,1.1l7.43,1.74-5.99,25.54-13.87-3.26,5.99-25.54,2.82,.66c.49,.12,.98-.19,1.1-.68,.12-.49-.19-.98-.68-1.1l-3.71-.87c-.49-.12-.98,.19-1.1,.68l-6.41,27.32c-.12,.49,.19,.98,.68,1.1l15.65,3.67c.07,.02,.14,.02,.21,.02,.17,0,.34-.05,.48-.14,.21-.13,.35-.33,.41-.57l6.41-27.32c.12-.49-.19-.98-.68-1.1Z"/>
      <path class="d" d="M23.51,31.44c-.15-.36-.52-.59-.92-.56l-3.42,.29-1.33-3.16c-.15-.36-.52-.59-.92-.56-.39,.03-.72,.32-.81,.7l-.78,3.34-3.42,.29c-.39,.03-.72,.32-.81,.7-.09,.39,.08,.78,.42,.99l2.93,1.78-.78,3.34c-.09,.39,.08,.78,.42,.99,.15,.09,.31,.13,.47,.13,.21,0,.43-.08,.6-.22l2.6-2.24,2.93,1.78c.34,.2,.77,.17,1.07-.09,.3-.26,.4-.68,.25-1.04l-1.33-3.16,2.6-2.24c.3-.26,.4-.68,.25-1.05Zm-4.78,3.38l.5,1.18s-1.1-.66-1.1-.66c-.76-.46-1.52,.48-2.04,.93l.29-1.25c.09-.39-.08-.78-.42-.99l-1.1-.66s1.28-.11,1.28-.11c.89-.07,.95-1.28,1.11-1.95,0,0,.5,1.18,.5,1.18,.35,.82,1.51,.51,2.19,.45-.53,.45-1.57,1.04-1.22,1.88Z"/>
      <path class="d" d="M56.76,14.33c-.78-.54-1.04-1.58-.61-2.42,.21-.41,.08-.9-.29-1.16l-4.67-3.23c-.38-.26-.89-.2-1.19,.13-.36,.39-.87,.62-1.4,.62-.39,0-.76-.12-1.08-.34-.78-.54-1.04-1.58-.61-2.42,.21-.41,.08-.9-.29-1.16l-4.67-3.23c-.38-.26-.89-.2-1.19,.13-.36,.39-.87,.62-1.4,.62-.39,0-.76-.12-1.08-.34-.41-.29-.98-.18-1.27,.23l-5.28,7.62c-.09-.05-.18-.1-.28-.12l-5.53-1.3c-.44-.1-.9,.14-1.06,.56-.33,.87-1.3,1.38-2.21,1.17-.92-.22-1.55-1.09-1.46-2.03,.04-.45-.26-.87-.7-.98l-5.53-1.3c-.44-.1-.9,.14-1.06,.56-.33,.87-1.3,1.38-2.21,1.17-.49-.12-.98,.19-1.1,.68,0,0-1.37,5.83-1.37,5.83L1.18,47.82c-.12,.49,.19,.98,.68,1.1,.92,.22,1.55,1.09,1.46,2.03-.04,.45,.26,.87,.7,.98l5.53,1.3c.45,.1,.9-.14,1.06-.56,.77-2.01,3.87-1.28,3.67,.86-.04,.45,.26,.87,.7,.98l5.53,1.3c.44,.1,.9-.14,1.06-.56,.28-.73,.99-1.22,1.77-1.22,.4,0,.75,.17,1.13-.06,.21-.13,.35-.33,.41-.57l1.2-5.12s2.57,1.78,2.58,1.78c.36,.25,.89,.2,1.19-.13,.36-.39,.87-.62,1.4-.62,.39,0,.76,.12,1.08,.34,.41,.29,.98,.18,1.27-.23L56.99,15.6c.29-.41,.18-.98-.23-1.27Zm-30.79,26.34s-1.38,5.86-1.38,5.86l-1.32,5.64c-1.23,.02-2.37,.66-3.04,1.67l-4.15-.97c-.19-1.51-1.31-2.81-2.85-3.17-1.5-.35-3.1,.29-3.96,1.57l-4.15-.97c-.15-1.21-.9-2.28-1.98-2.85L10.77,14.93l.89,.21c.07,.02,.14,.02,.21,.02,.41,0,.79-.28,.89-.7,.12-.49-.19-.98-.68-1.1l-.89-.21,.98-4.16c1.23-.02,2.37-.66,3.04-1.67l4.15,.97c.19,1.51,1.31,2.81,2.85,3.17,1.5,.35,3.1-.29,3.96-1.57l4.15,.97s.04,.24,.04,.27c.05,.27,.14,.54,.26,.79,.34,.76,.94,1.4,1.68,1.79l-.98,4.16-.89-.21c-.49-.12-.98,.19-1.1,.68-.12,.49,.19,.98,.68,1.1l.89,.21-1.45,6.19s-.16,.68-.16,.68l-1.07,4.54s-2.26,9.61-2.26,9.61Zm26.63-21.94l-.75-.52c-.41-.29-.98-.18-1.27,.23-.29,.41-.18,.98,.23,1.27l.75,.52-19.02,27.47c-.41-.16-.85-.24-1.3-.24-.77,0-1.52,.24-2.14,.67l-2.59-1.79,.93-3.95,4.04,2.8c.41,.28,.99,.18,1.27-.23l11.74-16.96c.29-.41,.18-.98-.23-1.27-.41-.29-.98-.18-1.27,.23l-11.22,16.21-3.88-2.69,1.78-7.59,3.21-1.12,2.08,2.73c.18,.23,.45,.36,.73,.36,.1,0,.2-.02,.3-.05,.37-.13,.62-.49,.61-.88l-.08-3.43,3.24-1.13c.37-.13,.62-.49,.61-.88,0-.4-.27-.74-.65-.85l-3.28-.98-.08-3.43c0-.4-.27-.74-.65-.85-.38-.11-.79,.03-1.01,.35l-1.95,2.82-1.25-.37,2.35-10.02,1.15-1.66,11.72,8.11-1.59,2.3c-.29,.41-.18,.98,.23,1.27,.41,.29,.98,.18,1.27-.23,0,0,2.1-3.04,2.11-3.05,.28-.41,.18-.99-.23-1.27,0,0-13.2-9.14-13.22-9.15-.41-.28-.99-.18-1.27,.23l-.4,.57s-.02,0-.03,0c-.45-.11-.85-.38-1.12-.75,0,0,0,0,0,0l2.1-3.03s.75,.52,.75,.52c.4,.28,.98,.18,1.27-.23,.29-.41,.18-.98-.23-1.27l-.75-.52,2.43-3.51c.41,.16,.85,.24,1.3,.24,.77,0,1.52-.24,2.14-.67l3.51,2.43c-.38,1.48,.19,3.09,1.49,3.99,1.27,.88,2.99,.87,4.26-.01l3.51,2.43c-.3,1.18,0,2.45,.8,3.38l-2.43,3.52Zm-17.89,12.43s-.78-1.02-.78-1.02c-.24-.31-.66-.44-1.03-.31l-1.21,.42c.4-.57,1.26-1.4,.7-2.13l-.78-1.02s1.23,.37,1.23,.37c.86,.26,1.35-.84,1.74-1.41,0,0,.03,1.28,.03,1.28,.02,.89,1.22,1.02,1.88,1.22l-1.21,.42c-.37,.13-.62,.49-.61,.88l.03,1.28Z"/>
    </g>
  </g>
</svg>