<?xml version="1.0" encoding="UTF-8"?>
<svg id="a" data-name="Layer 1" xmlns="http://www.w3.org/2000/svg" viewBox="0 0 31.34 47.75">
  <defs>
    <style>
      .b {
        fill: #000923;
      }

      .c {
        fill: #fff;
      }
    </style>
  </defs>
  <path class="c" d="M9.44,38.24c-.15-.04-.28-.13-.38-.27-.51,.79-.72,1.5-.53,2.13,.78,2.66,3.09,4.62,5.86,4.88-2.65-.82-4.61-3.61-4.95-6.74Zm-.54-1.57c-.17-.12-.31-.23-.41-.33-.18,.66-.26,1.36-.23,2.08,0,.15,.02,.29,.03,.43,.1-.43,.3-.87,.59-1.32-.06-.27-.05-.57,.02-.86Zm.13-.41c.07-.16,.16-.31,.26-.44,.08-.1,.17-.18,.27-.24,.25-1.19,.78-2.25,1.55-3.05-1.15,.83-2.03,2.01-2.49,3.38,.06,.09,.22,.21,.41,.35Zm9.94,6.11c-.57-.06-1.34-.22-1.68-.34-.37-.13-.71-.45-.89-.85-.08-.17-.14-.39-.16-.65,0-.16,0-.33,.05-.53-2.1-.65-4.33-1.55-5.88-2.39-.05,.1-.12,.2-.19,.28-.12,.14-.25,.24-.38,.3,.15,1.31,.59,2.59,1.31,3.7,.95,1.48,2.24,2.5,3.63,2.81,.49,.11,1.14,.25,1.72,.12,2.14-.48,3.89-1.98,4.74-3.95-.1,.02-.21,.03-.33,.03-.49,1.45-1.52,1.5-1.94,1.45Zm2.83-4.51c-.03-.76-.18-1.49-.44-2.17-.31-.83-1.36-1.42-2.73-1.73-2.54-.58-5.88,.38-8,2.19,.08,.33,.06,.72-.05,1.08,1.53,.83,3.76,1.74,5.86,2.38,.49-1.15,1.44-1.37,2.18-1.18,.53,.13,.87,.2,1.12,.25l.27,.06c.35,.08,.66,.32,.84,.65,.13,.23,.25,.6,.17,1.11,.26-.02,.38-.06,.41-.09,.28-.8,.41-1.66,.37-2.55Zm-1.2,2.64c.08-.42,0-.72-.11-.9-.13-.23-.34-.39-.58-.45l-.26-.06c-.24-.05-.6-.12-1.13-.26-.72-.18-1.34,.15-1.68,.9,.35,.1,.7,.2,1.03,.29,.05-.27,.07-.45,.07-.45,0-.12,.1-.2,.22-.2,.11,0,.2,.11,.19,.22,0,.01-.01,.23-.08,.53,.07,.02,.13,.03,.2,.05,.07,.02,.13,.03,.2,.04,.06-.29,.1-.54,.1-.55,.02-.11,.12-.19,.23-.17,.11,.02,.19,.12,.17,.24,0,.02-.04,.27-.1,.57,.14,.03,.27,.05,.39,.07,.05-.25,.06-.45,.06-.46,0-.12,.1-.2,.22-.2,.11,0,.2,.1,.2,.22,0,.02-.01,.23-.06,.5,.29,.04,.53,.06,.72,.07Zm-3.82,.51c.16,.35,.44,.56,.65,.63,.27,.1,.99,.25,1.59,.31,.65,.07,1.17-.3,1.46-1.04-.22-.01-.45-.04-.7-.07-.05,.15-.1,.3-.18,.43-.06,.1-.18,.13-.28,.08-.1-.06-.13-.18-.08-.29,.05-.09,.09-.19,.12-.29-.13-.02-.26-.05-.38-.07-.04,.17-.09,.34-.15,.46-.05,.11-.17,.15-.27,.11-.1-.05-.15-.17-.11-.27,.04-.1,.08-.23,.12-.38-.07-.01-.13-.03-.2-.04-.07-.02-.14-.03-.21-.05-.04,.12-.08,.25-.13,.37-.04,.11-.17,.16-.27,.11-.1-.04-.15-.17-.11-.27,.04-.11,.08-.21,.11-.31-.35-.09-.7-.19-1.07-.3-.09,.38-.01,.69,.08,.88Zm-6.79-5.2c-.09-.02-.27-.02-.45,.18-.29,.32-.42,.74-.4,1.27,0,.13,.02,.21,.06,.32,.07,.19,.23,.32,.35,.34,.14,.03,.3-.06,.44-.23,.32-.39,.46-1.09,.3-1.55-.07-.19-.17-.31-.3-.33Z"/>
  <path class="b" d="M12.1,1.49c-2.66,0-3.29,1.38-3.29,1.38,0,0,3.06-.22,3.06,2.84,0,1.38-.74,2.31-1.53,3.3-.91,1.15-1.94,2.45-1.94,4.64,0,3.62,2.29,5.32,4.32,6.81,1.76,1.3,3.43,2.54,3.43,4.86s-1.01,4.14-1.47,4.61c-.77,.78-1.47,.93-2.03,1.04-.57,.12-1.12,.23-1.23,1.07-2.13,1.29-3.41,3.6-3.41,6.1,0,.1,0,.2,0,.29,.08,1.9,.88,3.66,2.26,4.94,1.38,1.29,3.17,1.96,5.05,1.88,1.88-.08,3.61-.89,4.88-2.29,1.27-1.4,1.93-3.21,1.85-5.11-.12-2.9-1.93-5.41-4.63-6.4h.01s-.04-.01-.04-.01c0,0-.06-.02-.06-.02-.34-.12-.73-.25-.73-1.14s.39-.93,1.15-1.07c.46-.08,1.01-.19,1.56-.53,.97-.6,1.16-1.33,.98-1.51-.24-.24-.51,.27-1.49,.57-.35,.11-.71,.17-.95,.17-.2,0-.35-.02-.46-.04,.51-.98,1.09-1.78,1.1-1.79l.13-.17-.15-.15c-.2-.2-.31-.62-.31-1.18,0-.69,.17-1.61,.58-2.6,.48-1.17,2.38-4.99,6.74-4.99h.25v-.25c0-1.58-.14-3.03-.42-4.31l-.05-.25s-.42,.12-.78,.2c-.04,0-.37,.09-.39,.02-.01-.06,.24-.19,.33-.24,.33-.17,.74-.34,.74-.34l-.06-.2c-.31-1.1-.62-1.62-.64-1.65l-.1-.17-.18,.06c-3.63,1.16-4.41,3.6-4.87,5.06-.23,.71-.37,1.11-.62,1.11-.75,0-1.37-.63-1.57-.83-2.26-2.29-2.09-3.94-1.83-6.45,.09-.88,.2-1.88,.2-3.03,0-2.88-1.08-4.22-3.4-4.22Z"/>
  <path class="c" d="M16.4,25.32c0,2.32-.98,4.21-1.54,4.79-1.75,1.77-3.2,.48-3.21,2.26-.79,.73-1.37,1.84-1.65,3.1,.02,0,.03,0,.05,0,.16,.03,.31,.13,.41,.28,2.22-1.84,5.65-2.8,8.27-2.2,.83,.19,1.54,.5,2.07,.98-.8-1.32-2.03-2.33-3.49-2.86-.34-.13-.96-.27-.96-1.4,0-2.12,2.28-.47,3.79-2.77,.07-.11-.03-.21-.12-.12-.46,.46-1.57,.78-2.16,.78s-.81-.14-.81-.14c.56-1.13,1.25-2.09,1.25-2.09-1.4-1.42,.95-9.2,7.18-9.2,0-1.81-.19-3.21-.42-4.26-.15,.04-1.32,.32-1.37,.07-.05-.22,.86-.7,1.18-.86-.31-1.08-.61-1.58-.61-1.58-5.33,1.7-4.26,6.18-5.56,6.18-.85,0-1.51-.67-1.75-.91-3.19-3.23-1.7-5.36-1.7-9.65,0-2.89-1.11-3.97-3.15-3.97s-2.78,.9-2.78,.9c0,0,2.8,.09,2.8,3.07s-3.47,3.98-3.47,7.94c0,6.59,7.75,6.47,7.75,11.67ZM12.71,5.71c0-.38-.04-.73-.11-1.04,0,0,.61-.03,.61-.78,0-.62-.41-1.04-.52-1.04-.09,0-.11,.09-.3,.09-.47,0-.5-.6-.5-.6,.07,0,.14,0,.21,0,1.33,0,2.57,.41,2.57,3.38,0,1.1-.1,2.07-.19,2.94-.09,.85-.17,1.64-.15,2.42,0,0-2.32-.28-2.32-2.05,0-1.15,.71-1.43,.71-3.31Zm-3.26,32.53c-.15-.04-.28-.13-.38-.27-.51,.79-.72,1.5-.53,2.13,.78,2.66,3.09,4.62,5.86,4.88-2.65-.82-4.61-3.61-4.95-6.74Zm-.54-1.57c-.17-.12-.31-.23-.41-.33-.18,.66-.26,1.36-.23,2.08,0,.15,.02,.29,.03,.43,.1-.43,.3-.87,.59-1.32-.06-.27-.05-.57,.02-.86Zm.13-.41c.07-.16,.16-.31,.26-.44,.08-.1,.17-.18,.27-.24,.25-1.19,.78-2.25,1.55-3.05-1.15,.83-2.03,2.01-2.49,3.38,.06,.09,.22,.21,.41,.35Zm9.94,6.11c-.57-.06-1.34-.22-1.68-.34-.37-.13-.71-.45-.89-.85-.08-.17-.14-.39-.16-.65,0-.16,0-.33,.05-.53-2.1-.65-4.33-1.55-5.88-2.39-.05,.1-.12,.2-.19,.28-.12,.14-.25,.24-.38,.3,.15,1.31,.59,2.59,1.31,3.7,.95,1.48,2.24,2.5,3.63,2.81,.49,.11,1.14,.25,1.72,.12,2.14-.48,3.89-1.98,4.74-3.95-.1,.02-.21,.03-.33,.03-.49,1.45-1.52,1.5-1.94,1.45Zm2.4-6.68c-.31-.83-1.36-1.42-2.73-1.73-2.54-.58-5.88,.38-8,2.19,.08,.33,.06,.72-.05,1.08,1.53,.83,3.76,1.74,5.86,2.38,.49-1.15,1.44-1.37,2.18-1.18,.53,.13,.87,.2,1.12,.25l.27,.06c.35,.08,.66,.32,.84,.65,.13,.23,.25,.6,.17,1.11,.26-.02,.38-.06,.41-.09,.28-.8,.41-1.66,.37-2.55-.03-.76-.18-1.49-.44-2.17Zm-4.59,5.32c.16,.35,.44,.56,.65,.63,.27,.1,.99,.25,1.59,.31,.65,.07,1.17-.3,1.46-1.04-.22-.01-.45-.04-.7-.07-.05,.15-.1,.3-.18,.43-.06,.1-.18,.13-.28,.08-.1-.06-.13-.18-.08-.29,.05-.09,.09-.19,.12-.29-.13-.02-.26-.05-.38-.07-.04,.17-.09,.34-.15,.46-.05,.11-.17,.15-.27,.11-.1-.05-.15-.17-.11-.27,.04-.1,.08-.23,.12-.38-.07-.01-.13-.03-.2-.04-.07-.02-.14-.03-.21-.05-.04,.12-.08,.25-.13,.37-.04,.11-.17,.16-.27,.11s-.15-.17-.11-.27c.04-.11,.08-.21,.11-.31-.35-.09-.7-.19-1.07-.3-.09,.38-.01,.69,.08,.88Zm3.82-.51c.08-.42,0-.72-.11-.9-.13-.23-.34-.39-.58-.45l-.26-.06c-.24-.05-.6-.12-1.13-.26-.72-.18-1.34,.15-1.68,.9,.35,.1,.7,.2,1.03,.29,.05-.27,.07-.45,.07-.45,0-.11,.1-.2,.22-.2,.11,0,.2,.11,.19,.22,0,.01-.01,.23-.08,.53,.07,.02,.13,.03,.2,.05,.07,.02,.13,.03,.2,.04,.06-.29,.1-.54,.1-.55,.02-.11,.12-.19,.23-.17,.11,.02,.19,.12,.17,.24,0,.02-.04,.27-.1,.57,.14,.03,.27,.05,.39,.07,.05-.25,.06-.45,.06-.46,0-.11,.1-.2,.22-.2,.11,0,.2,.1,.2,.22,0,.02-.01,.23-.06,.5,.29,.04,.53,.06,.72,.07Zm-10.61-4.69c-.09-.02-.27-.02-.45,.18-.29,.32-.42,.74-.4,1.27,0,.13,.02,.21,.06,.32,.07,.19,.23,.32,.35,.34,.14,.03,.3-.06,.44-.23,.32-.39,.46-1.09,.3-1.55-.07-.19-.17-.31-.3-.33Z"/>
</svg>